G70*
%MOIN*%
%FSLAX55Y55*%
%ADD11C,0.00100*%
%ADD12C,0.01000*%
%ADD13C,0.00800*%
%ADD14C,0.10000*%
%ADD15C,0.25000*%
%ADD16C,0.15700*%
%ADD17R,0.06000X0.06000*%
%ADD18C,0.06000*%
%ADD19C,0.51000*%
%ADD20R,0.40500X0.05500*%
%ADD21C,0.20000*%
%ADD22R,0.07500X0.07500*%
%ADD23C,0.07500*%
%ADD24C,0.15000*%
%ADD25C,0.43300*%
%ADD26C,0.16500*%
%ADD27O,0.19800X0.10000*%
%ADD28R,0.05500X0.05500*%
%ADD29O,0.25000X0.56400*%
%ADD30R,0.09000X0.08000*%
%ADD31R,0.08000X0.09000*%
%ADD32R,0.05000X0.07000*%
%ADD33R,0.07500X0.07500*%
%ADD34C,0.13000*%
%ADD35O,0.06000X0.07400*%
%ADD36C,0.04000*%
%ADD37R,0.14000X0.04000*%
%ADD38R,0.12000X0.08000*%
%ADD39C,0.05000*%
%ADD40C,0.01500*%
D11*
D11*
G01X60050Y180400D02*
D11*
G01X1481350Y180400D02*
D11*
G01X1481350Y480400D02*
D11*
G01X1792550Y480400D02*
D11*
G01X1792550Y1170400D02*
D11*
G01X60050Y1170400D02*
D11*
G01X60050Y948100D02*
D11*
G01X119150Y948100D02*
D11*
G01X119150Y920600D02*
D11*
G01X91550Y920600D02*
D11*
G01X91550Y747400D02*
D11*
G01X119150Y747400D02*
D11*
G01X119150Y719900D02*
D11*
G01X60050Y719900D02*
D11*
G01X60050Y180400D02*
D12*
D12*
G01X127550Y912900D02*
D12*
G01X127550Y950400D01*
D12*
G01X70050Y950400D01*
D12*
G01X70050Y1152500D01*
D12*
G01X100050Y1152500D01*
D12*
G01X100050Y962900D01*
D12*
G01X137550Y962900D01*
D12*
G01X137550Y905400D01*
D12*
G01X127550Y905400D01*
D12*
G01X127550Y757900D01*
D12*
G01X130050Y757900D01*
D12*
G01X130050Y697900D01*
D12*
G01X85050Y697900D01*
D12*
G01X85050Y197900D01*
D12*
G01X1465050Y197900D01*
D12*
G01X1465050Y497900D01*
D12*
G01X1777550Y497900D01*
D12*
G01X1777550Y976900D01*
D12*
G01X1777150Y976900D01*
D12*
G01X1777550Y978900D01*
D12*
G01X1777550Y1012900D01*
D12*
G01X1777150Y1165900D01*
D12*
G01X1777550Y1152900D01*
D12*
G01X1777550Y1165400D01*
D12*
G01X1435050Y1165400D01*
D12*
G01X1435050Y1162900D01*
D12*
G01X1434050Y1165400D01*
D12*
G01X1257050Y1165400D01*
D12*
G01X1257550Y1165900D01*
D12*
G01X1257550Y1161400D01*
D12*
G01X1257850Y1160700D01*
D12*
G01X1001250Y1161300D01*
D12*
G01X1001250Y1152600D01*
D12*
G01X70150Y1152600D01*
D12*
G01X70150Y1165400D01*
D12*
G01X1477550Y1167900D01*
D12*
G01X1792550Y1167900D01*
D12*
G01X1792550Y482900D01*
D12*
G01X1480050Y482900D01*
D12*
G01X1480050Y182900D01*
D12*
G01X70050Y182900D01*
D12*
G01X70050Y712900D01*
D12*
G01X127550Y712900D01*
D12*
G01X127550Y750400D01*
D12*
G01X102550Y750400D01*
D12*
G01X102550Y912900D01*
D12*
G01X127550Y912900D01*
D13*
G36*
X1000050Y30400D02*
X1180050Y30400D01*
X1180050Y10400*
X1000050Y10400*
X1000050Y30400*
G37*
D13*
G01X1180050Y30400D01*
D13*
G01X1180050Y10400D01*
D13*
G01X1000050Y10400D01*
D13*
G01X1000050Y30400D01*
G36*
X1722550Y1230400D02*
X1722550Y1207900D01*
X132550Y1207900*
X132550Y1230400*
X1722550Y1230400*
G37*
D13*
G01X1722550Y1207900D01*
D13*
G01X132550Y1207900D01*
D13*
G01X132550Y1230400D01*
D13*
G01X1722550Y1230400D01*
G36*
X945050Y1090400D02*
X975050Y1090400D01*
X975050Y1060400*
X945050Y1060400*
X945050Y1090400*
G37*
D13*
G01X975050Y1090400D01*
D13*
G01X975050Y1060400D01*
D13*
G01X945050Y1060400D01*
D13*
G01X945050Y1090400D01*
D14*
D14*
G01X83650Y204000D03*
D15*
D15*
G01X770650Y204000D03*
D15*
G01X1768750Y503200D03*
D16*
D16*
G01X1792550Y1220400D03*
D16*
G01X60050Y1220400D03*
D16*
G01X60050Y130400D03*
D17*
D17*
G01X164350Y908700D03*
D18*
D18*
G01X148650Y908700D03*
D18*
G01X164350Y900800D03*
D18*
G01X148650Y900800D03*
D18*
G01X164350Y892900D03*
D18*
G01X148650Y892900D03*
D18*
G01X164350Y885000D03*
D18*
G01X148650Y885000D03*
D18*
G01X164350Y877100D03*
D18*
G01X148650Y877100D03*
D18*
G01X164350Y869200D03*
D18*
G01X148650Y869200D03*
D18*
G01X164350Y861300D03*
D18*
G01X148650Y861300D03*
D18*
G01X164350Y853400D03*
D18*
G01X148650Y853400D03*
D18*
G01X164350Y845500D03*
D18*
G01X148650Y845500D03*
D18*
G01X164350Y837600D03*
D18*
G01X148650Y837600D03*
D18*
G01X164350Y829700D03*
D18*
G01X148650Y829700D03*
D18*
G01X164350Y821800D03*
D18*
G01X148650Y821800D03*
D18*
G01X164350Y813900D03*
D18*
G01X148650Y813900D03*
D18*
G01X164350Y806000D03*
D18*
G01X148650Y806000D03*
D18*
G01X164350Y798100D03*
D18*
G01X148650Y798100D03*
D18*
G01X164350Y790200D03*
D18*
G01X148650Y790200D03*
D18*
G01X164350Y782300D03*
D18*
G01X148650Y782300D03*
D18*
G01X164350Y774400D03*
D18*
G01X148650Y774400D03*
D18*
G01X164350Y766500D03*
D18*
G01X148650Y766500D03*
D18*
G01X164350Y758600D03*
D18*
G01X148650Y758600D03*
D14*
D14*
G01X110250Y977600D03*
D14*
G01X110250Y1007100D03*
D14*
G01X110250Y1036600D03*
D14*
G01X120050Y987400D03*
D14*
G01X120050Y1026800D03*
D14*
G01X70850Y987400D03*
D14*
G01X70850Y1026800D03*
D14*
G01X110250Y1072100D03*
D14*
G01X110250Y1101600D03*
D14*
G01X110250Y1131100D03*
D14*
G01X120050Y1081900D03*
D14*
G01X120050Y1121300D03*
D14*
G01X70850Y1081900D03*
D14*
G01X70850Y1121300D03*
D19*
D19*
G01X166350Y1054400D03*
D19*
G01X697850Y1026900D03*
D19*
G01X1552050Y1133200D03*
D19*
G01X1123050Y1097700D03*
D20*
D20*
G01X697850Y1052400D03*
D20*
G01X166350Y1079900D03*
D21*
D21*
G01X100050Y706000D03*
D21*
G01X100050Y961700D03*
D22*
D22*
G01X991450Y1026800D03*
D23*
D23*
G01X981450Y1026800D03*
D23*
G01X971450Y1026800D03*
D24*
D24*
G01X1031450Y1083900D03*
D24*
G01X911450Y1083900D03*
D25*
D25*
G01X1434050Y1083900D03*
D25*
G01X1434050Y713900D03*
D25*
G01X1710050Y713900D03*
D25*
G01X1710050Y1083900D03*
D19*
D19*
G01X178050Y715800D03*
D19*
G01X686050Y715800D03*
D26*
D26*
G01X926050Y219800D03*
D27*
D27*
G01X1457650Y204000D03*
D28*
D28*
G01X975050Y895400D03*
D28*
G01X981950Y895400D03*
D28*
G01X988850Y895400D03*
D28*
G01X997150Y895400D03*
D28*
G01X1004050Y895400D03*
D28*
G01X1010950Y895400D03*
D28*
G01X1010950Y905200D03*
D28*
G01X997150Y905200D03*
D28*
G01X988850Y905200D03*
D28*
G01X975050Y905200D03*
D22*
D22*
G01X815050Y795400D03*
D23*
D23*
G01X815050Y615400D03*
D17*
D17*
G01X995050Y990400D03*
D18*
D18*
G01X1075050Y990400D03*
D17*
D17*
G01X270050Y1060400D03*
D18*
D18*
G01X340050Y1060400D03*
D22*
D22*
G01X877550Y1107900D03*
D23*
D23*
G01X877550Y997900D03*
D21*
D21*
G01X933450Y1109500D03*
D29*
D29*
G01X926050Y475700D03*
D18*
D18*
G01X1745050Y495400D03*
D18*
G01X1695050Y495400D03*
D18*
G01X1645050Y495400D03*
D18*
G01X1595050Y495400D03*
D18*
G01X1545050Y495400D03*
D18*
G01X1495050Y495400D03*
D18*
G01X1467550Y490400D03*
D18*
G01X1467550Y440400D03*
D18*
G01X1467550Y390400D03*
D18*
G01X1467550Y340400D03*
D18*
G01X1467550Y290400D03*
D18*
G01X1467550Y240400D03*
D18*
G01X1145050Y195400D03*
D18*
G01X1195050Y195400D03*
D18*
G01X1245050Y195400D03*
D18*
G01X1295050Y195400D03*
D18*
G01X1345050Y195400D03*
D18*
G01X1395050Y195400D03*
D18*
G01X845050Y195400D03*
D18*
G01X895050Y195400D03*
D18*
G01X945050Y195400D03*
D18*
G01X995050Y195400D03*
D18*
G01X1045050Y195400D03*
D18*
G01X1095050Y195400D03*
D18*
G01X445050Y195400D03*
D18*
G01X495050Y195400D03*
D18*
G01X545050Y195400D03*
D18*
G01X595050Y195400D03*
D18*
G01X645050Y195400D03*
D18*
G01X695050Y195400D03*
D18*
G01X142550Y195400D03*
D18*
G01X192550Y195400D03*
D18*
G01X242550Y195400D03*
D18*
G01X292550Y195400D03*
D18*
G01X342550Y195400D03*
D18*
G01X392550Y195400D03*
D18*
G01X77550Y245400D03*
D18*
G01X77550Y295400D03*
D18*
G01X77550Y345400D03*
D18*
G01X77550Y395400D03*
D18*
G01X77550Y445400D03*
D18*
G01X77550Y495400D03*
D18*
G01X452550Y1157900D03*
D18*
G01X402550Y1157900D03*
D18*
G01X352550Y1157900D03*
D18*
G01X302550Y1157900D03*
D18*
G01X252550Y1157900D03*
D18*
G01X202550Y1157900D03*
D18*
G01X77550Y697900D03*
D18*
G01X77550Y647900D03*
D18*
G01X77550Y597900D03*
D18*
G01X105050Y882900D03*
D18*
G01X105050Y832900D03*
D18*
G01X105050Y782900D03*
D18*
G01X785050Y1157900D03*
D18*
G01X835050Y1157900D03*
D18*
G01X885050Y1157900D03*
D18*
G01X1780050Y1087900D03*
D18*
G01X1780050Y1037900D03*
D18*
G01X1780050Y987900D03*
D18*
G01X1780050Y937900D03*
D18*
G01X1780050Y887900D03*
D18*
G01X1780050Y837900D03*
D18*
G01X1780050Y785400D03*
D18*
G01X1780050Y735400D03*
D18*
G01X1780050Y685400D03*
D18*
G01X1780050Y635400D03*
D18*
G01X1780050Y585400D03*
D18*
G01X1780050Y535400D03*
D17*
D17*
G01X822950Y850400D03*
D18*
D18*
G01X815050Y850400D03*
D18*
G01X822950Y858300D03*
D18*
G01X815050Y858300D03*
D18*
G01X822950Y866200D03*
D18*
G01X815050Y866200D03*
D18*
G01X822950Y874100D03*
D18*
G01X815050Y874100D03*
D18*
G01X822950Y882000D03*
D18*
G01X815050Y882000D03*
D18*
G01X822950Y889900D03*
D18*
G01X815050Y889900D03*
D18*
G01X822950Y897800D03*
D18*
G01X815050Y897800D03*
D18*
G01X822950Y905700D03*
D18*
G01X815050Y905700D03*
D18*
G01X822950Y913600D03*
D18*
G01X815050Y913600D03*
D18*
G01X822950Y921500D03*
D18*
G01X815050Y921500D03*
D18*
G01X822950Y929400D03*
D18*
G01X815050Y929400D03*
D18*
G01X822950Y937300D03*
D18*
G01X815050Y937300D03*
D18*
G01X822950Y945200D03*
D18*
G01X815050Y945200D03*
D18*
G01X822950Y953100D03*
D18*
G01X815050Y953100D03*
D18*
G01X822950Y961000D03*
D18*
G01X815050Y961000D03*
D18*
G01X822950Y968900D03*
D18*
G01X815050Y968900D03*
D18*
G01X822950Y976800D03*
D18*
G01X815050Y976800D03*
D18*
G01X822950Y984700D03*
D18*
G01X815050Y984700D03*
D18*
G01X822950Y992600D03*
D18*
G01X815050Y992600D03*
D18*
G01X822950Y1000500D03*
D18*
G01X815050Y1000500D03*
D18*
G01X822950Y1008400D03*
D18*
G01X815050Y1008400D03*
D18*
G01X822950Y1016300D03*
D18*
G01X815050Y1016300D03*
D22*
D22*
G01X770050Y902900D03*
D23*
D23*
G01X770050Y1017900D03*
D17*
D17*
G01X470050Y865400D03*
D18*
D18*
G01X540050Y865400D03*
D17*
D17*
G01X692550Y770400D03*
D18*
D18*
G01X612550Y770400D03*
D17*
D17*
G01X180050Y970400D03*
D18*
D18*
G01X260050Y970400D03*
D17*
D17*
G01X892550Y997900D03*
D18*
D18*
G01X972550Y997900D03*
D30*
D30*
G01X1500950Y1158700D03*
D31*
D31*
G01X1480950Y1139100D03*
D31*
G01X1520950Y1139100D03*
D23*
D23*
G01X1520950Y1158700D03*
D23*
G01X1520950Y1168500D03*
D23*
G01X1480950Y1168500D03*
D23*
G01X1480950Y1158700D03*
D23*
G01X1500950Y1139100D03*
D31*
D31*
G01X1490950Y1139100D03*
D31*
G01X1510950Y1139100D03*
D30*
D30*
G01X1603350Y1158700D03*
D31*
D31*
G01X1583350Y1139100D03*
D31*
G01X1623350Y1139100D03*
D23*
D23*
G01X1623350Y1158700D03*
D23*
G01X1623350Y1168500D03*
D23*
G01X1583350Y1168500D03*
D23*
G01X1583350Y1158700D03*
D23*
G01X1603350Y1139100D03*
D31*
D31*
G01X1593350Y1139100D03*
D31*
G01X1613350Y1139100D03*
D17*
D17*
G01X1072750Y890400D03*
D18*
D18*
G01X1063950Y890400D03*
D18*
G01X1055050Y890400D03*
D18*
G01X1072750Y908100D03*
D18*
G01X1055050Y908100D03*
D23*
D23*
G01X1049350Y899300D03*
D23*
G01X1078450Y899300D03*
D17*
D17*
G01X1148050Y664900D03*
D18*
D18*
G01X1158050Y664900D03*
D18*
G01X1168050Y664900D03*
D18*
G01X1178050Y664900D03*
D17*
D17*
G01X1135050Y945400D03*
D18*
D18*
G01X1145050Y945400D03*
D18*
G01X1155050Y945400D03*
D18*
G01X1165050Y945400D03*
D18*
G01X1175050Y945400D03*
D18*
G01X1185050Y945400D03*
D18*
G01X1195050Y945400D03*
D18*
G01X1205050Y945400D03*
D18*
G01X1205050Y975400D03*
D18*
G01X1195050Y975400D03*
D18*
G01X1185050Y975400D03*
D18*
G01X1175050Y975400D03*
D18*
G01X1165050Y975400D03*
D18*
G01X1155050Y975400D03*
D18*
G01X1145050Y975400D03*
D18*
G01X1135050Y975400D03*
D17*
D17*
G01X1235050Y915400D03*
D18*
D18*
G01X1245050Y915400D03*
D18*
G01X1255050Y915400D03*
D18*
G01X1265050Y915400D03*
D18*
G01X1275050Y915400D03*
D18*
G01X1285050Y915400D03*
D18*
G01X1295050Y915400D03*
D18*
G01X1305050Y915400D03*
D18*
G01X1315050Y915400D03*
D18*
G01X1325050Y915400D03*
D18*
G01X1335050Y915400D03*
D18*
G01X1345050Y915400D03*
D18*
G01X1355050Y915400D03*
D18*
G01X1365050Y915400D03*
D18*
G01X1365050Y975400D03*
D18*
G01X1355050Y975400D03*
D18*
G01X1345050Y975400D03*
D18*
G01X1335050Y975400D03*
D18*
G01X1325050Y975400D03*
D18*
G01X1315050Y975400D03*
D18*
G01X1305050Y975400D03*
D18*
G01X1295050Y975400D03*
D18*
G01X1285050Y975400D03*
D18*
G01X1275050Y975400D03*
D18*
G01X1265050Y975400D03*
D18*
G01X1255050Y975400D03*
D18*
G01X1245050Y975400D03*
D18*
G01X1235050Y975400D03*
D17*
D17*
G01X737550Y285400D03*
D18*
D18*
G01X747550Y285400D03*
D18*
G01X757550Y285400D03*
D18*
G01X767550Y285400D03*
D18*
G01X777550Y285400D03*
D18*
G01X787550Y285400D03*
D18*
G01X797550Y285400D03*
D18*
G01X807550Y285400D03*
D18*
G01X817550Y285400D03*
D18*
G01X827550Y285400D03*
D18*
G01X837550Y285400D03*
D18*
G01X847550Y285400D03*
D18*
G01X847550Y345400D03*
D18*
G01X837550Y345400D03*
D18*
G01X827550Y345400D03*
D18*
G01X817550Y345400D03*
D18*
G01X807550Y345400D03*
D18*
G01X797550Y345400D03*
D18*
G01X787550Y345400D03*
D18*
G01X777550Y345400D03*
D18*
G01X767550Y345400D03*
D18*
G01X757550Y345400D03*
D18*
G01X747550Y345400D03*
D18*
G01X737550Y345400D03*
D32*
D32*
G01X485050Y800400D03*
D32*
G01X485050Y790400D03*
D33*
D33*
G01X1552550Y805100D03*
D33*
G01X1552550Y790600D03*
D33*
G01X1502550Y785100D03*
D33*
G01X1502550Y770600D03*
D32*
D32*
G01X1225050Y1100400D03*
D32*
G01X1225050Y1090400D03*
D32*
G01X1165050Y1100400D03*
D32*
G01X1165050Y1090400D03*
D32*
G01X1135050Y1060400D03*
D32*
G01X1135050Y1050400D03*
D17*
D17*
G01X265050Y1135400D03*
D18*
D18*
G01X195050Y1135400D03*
D32*
D32*
G01X665050Y445400D03*
D32*
G01X665050Y455400D03*
D32*
G01X880050Y505400D03*
D32*
G01X880050Y515400D03*
D32*
G01X847550Y415400D03*
D32*
G01X847550Y405400D03*
D32*
G01X1047550Y270400D03*
D32*
G01X1047550Y280400D03*
D32*
G01X880050Y475400D03*
D32*
G01X880050Y485400D03*
D32*
G01X1032550Y270400D03*
D32*
G01X1032550Y280400D03*
D32*
G01X735050Y480400D03*
D32*
G01X735050Y490400D03*
D23*
D23*
G01X1082550Y390400D03*
D23*
G01X1082550Y410400D03*
D33*
D33*
G01X1600050Y655100D03*
D33*
G01X1600050Y640600D03*
D33*
G01X585050Y752600D03*
D33*
G01X585050Y738100D03*
D32*
D32*
G01X1200050Y575400D03*
D32*
G01X1200050Y565400D03*
D33*
D33*
G01X490050Y747600D03*
D33*
G01X490050Y733100D03*
D32*
D32*
G01X542550Y817900D03*
D32*
G01X542550Y807900D03*
D33*
D33*
G01X1355050Y850100D03*
D33*
G01X1355050Y835600D03*
D32*
D32*
G01X1352550Y810400D03*
D32*
G01X1352550Y800400D03*
D32*
G01X790050Y440400D03*
D32*
G01X790050Y450400D03*
D33*
D33*
G01X565050Y817600D03*
D33*
G01X565050Y803100D03*
D33*
G01X585050Y285100D03*
D33*
G01X585050Y270600D03*
D32*
D32*
G01X532550Y465400D03*
D32*
G01X532550Y475400D03*
D32*
G01X427550Y475400D03*
D32*
G01X427550Y465400D03*
D33*
D33*
G01X492550Y552600D03*
D33*
G01X492550Y538100D03*
D33*
G01X427550Y537600D03*
D33*
G01X427550Y523100D03*
D32*
D32*
G01X452550Y545400D03*
D32*
G01X452550Y555400D03*
D32*
G01X447550Y450400D03*
D32*
G01X447550Y440400D03*
D33*
D33*
G01X427550Y507600D03*
D33*
G01X427550Y493100D03*
D33*
G01X435050Y352600D03*
D33*
G01X435050Y338100D03*
D32*
D32*
G01X1087550Y290400D03*
D32*
G01X1087550Y300400D03*
D33*
D33*
G01X590050Y342600D03*
D33*
G01X590050Y328100D03*
D32*
D32*
G01X575050Y342900D03*
D32*
G01X575050Y332900D03*
D33*
D33*
G01X437550Y285100D03*
D33*
G01X437550Y270600D03*
D32*
D32*
G01X420050Y285400D03*
D32*
G01X420050Y275400D03*
D33*
D33*
G01X1505050Y722600D03*
D33*
G01X1505050Y708100D03*
D32*
D32*
G01X300050Y525400D03*
D32*
G01X300050Y515400D03*
D33*
D33*
G01X837550Y1015100D03*
D33*
G01X837550Y1000600D03*
D32*
D32*
G01X225050Y525400D03*
D32*
G01X225050Y515400D03*
D33*
D33*
G01X1717550Y785100D03*
D33*
G01X1717550Y770600D03*
D32*
D32*
G01X1425050Y630400D03*
D32*
G01X1425050Y640400D03*
D33*
D33*
G01X1145050Y568600D03*
D33*
G01X1145050Y554100D03*
D32*
D32*
G01X1735050Y782900D03*
D32*
G01X1735050Y772900D03*
D33*
D33*
G01X1655050Y753200D03*
D33*
G01X1655050Y767700D03*
D32*
D32*
G01X1475050Y827900D03*
D32*
G01X1475050Y817900D03*
D33*
D33*
G01X785050Y517600D03*
D33*
G01X785050Y503100D03*
D33*
G01X1437550Y845700D03*
D33*
G01X1437550Y860200D03*
D33*
G01X1285050Y1020100D03*
D33*
G01X1285050Y1005600D03*
D33*
G01X917550Y358200D03*
D33*
G01X917550Y372700D03*
D33*
G01X345050Y1117600D03*
D33*
G01X345050Y1103100D03*
D33*
G01X1120050Y880100D03*
D33*
G01X1120050Y865600D03*
D33*
G01X995050Y817600D03*
D33*
G01X995050Y803100D03*
D33*
G01X1115050Y937600D03*
D33*
G01X1115050Y923100D03*
D33*
G01X412550Y541100D03*
D33*
G01X412550Y526600D03*
D33*
G01X620050Y1052600D03*
D33*
G01X620050Y1038100D03*
D33*
G01X945050Y827600D03*
D33*
G01X945050Y813100D03*
D33*
G01X330050Y860700D03*
D33*
G01X330050Y875200D03*
D33*
G01X920050Y717600D03*
D33*
G01X920050Y703100D03*
D33*
G01X1595050Y545100D03*
D33*
G01X1595050Y530600D03*
D33*
G01X560050Y1038200D03*
D33*
G01X560050Y1052700D03*
D33*
G01X400050Y1077600D03*
D33*
G01X400050Y1063100D03*
D33*
G01X765250Y542100D03*
D33*
G01X765250Y556600D03*
D32*
D32*
G01X731150Y560100D03*
D32*
G01X731150Y550100D03*
D33*
D33*
G01X880050Y803200D03*
D33*
G01X880050Y817700D03*
D32*
D32*
G01X970050Y720400D03*
D32*
G01X970050Y730400D03*
D33*
D33*
G01X237550Y332600D03*
D33*
G01X237550Y318100D03*
D32*
D32*
G01X252550Y330400D03*
D32*
G01X252550Y320400D03*
D33*
D33*
G01X327550Y332600D03*
D33*
G01X327550Y318100D03*
D32*
D32*
G01X342550Y392900D03*
D32*
G01X342550Y382900D03*
D33*
D33*
G01X325050Y392600D03*
D33*
G01X325050Y378100D03*
D32*
D32*
G01X342550Y332900D03*
D32*
G01X342550Y322900D03*
D32*
G01X340050Y267900D03*
D32*
G01X340050Y257900D03*
D33*
D33*
G01X327550Y267600D03*
D33*
G01X327550Y253100D03*
D33*
G01X180050Y675100D03*
D33*
G01X180050Y660600D03*
D33*
G01X262550Y672600D03*
D33*
G01X262550Y658100D03*
D33*
G01X1457550Y882600D03*
D33*
G01X1457550Y868100D03*
D33*
G01X1495050Y882600D03*
D33*
G01X1495050Y868100D03*
D33*
G01X1395050Y882600D03*
D33*
G01X1395050Y868100D03*
D33*
G01X1362550Y757600D03*
D33*
G01X1362550Y743100D03*
D33*
G01X1365050Y962600D03*
D33*
G01X1365050Y948100D03*
D32*
D32*
G01X1380050Y960400D03*
D32*
G01X1380050Y950400D03*
D33*
D33*
G01X1315050Y1038200D03*
D33*
G01X1315050Y1052700D03*
D32*
D32*
G01X1470050Y755400D03*
D32*
G01X1470050Y745400D03*
D33*
D33*
G01X430050Y957600D03*
D33*
G01X430050Y943100D03*
D32*
D32*
G01X370050Y945400D03*
D32*
G01X370050Y955400D03*
D14*
D14*
G01X738750Y896200D03*
D14*
G01X738750Y880600D03*
D14*
G01X738750Y865000D03*
D14*
G01X738750Y849400D03*
D14*
G01X738750Y833800D03*
D14*
G01X738750Y818200D03*
D14*
G01X738750Y802600D03*
D14*
G01X738750Y787000D03*
D17*
D17*
G01X491850Y1139200D03*
D18*
D18*
G01X502050Y1139200D03*
D18*
G01X483550Y1139200D03*
D18*
G01X491850Y1129200D03*
D18*
G01X510350Y1139200D03*
D18*
G01X483550Y1129200D03*
D18*
G01X500450Y1129200D03*
D18*
G01X510350Y1129200D03*
D34*
D34*
G01X496950Y1154200D03*
D34*
G01X523550Y1151100D03*
D34*
G01X470350Y1151100D03*
D17*
D17*
G01X116550Y463600D03*
D18*
D18*
G01X116550Y472600D03*
D18*
G01X116550Y481600D03*
D18*
G01X116550Y490600D03*
D18*
G01X116550Y499600D03*
D18*
G01X106550Y459100D03*
D18*
G01X106550Y468100D03*
D18*
G01X106550Y477100D03*
D18*
G01X106550Y486100D03*
D18*
G01X106550Y495100D03*
D18*
G01X96550Y463600D03*
D18*
G01X96550Y472600D03*
D18*
G01X96550Y481600D03*
D18*
G01X96550Y490600D03*
D18*
G01X96550Y499600D03*
D15*
D15*
G01X106550Y431400D03*
D15*
G01X106550Y529800D03*
D17*
D17*
G01X116550Y337700D03*
D18*
D18*
G01X116550Y346700D03*
D18*
G01X116550Y355700D03*
D18*
G01X116550Y364700D03*
D18*
G01X116550Y373700D03*
D18*
G01X106550Y333200D03*
D18*
G01X106550Y342200D03*
D18*
G01X106550Y351200D03*
D18*
G01X106550Y360200D03*
D18*
G01X106550Y369200D03*
D18*
G01X96550Y337700D03*
D18*
G01X96550Y346700D03*
D18*
G01X96550Y355700D03*
D18*
G01X96550Y364700D03*
D18*
G01X96550Y373700D03*
D15*
D15*
G01X106550Y305500D03*
D15*
G01X106550Y403900D03*
D35*
D35*
G01X723350Y1133500D03*
D35*
G01X734150Y1133500D03*
D35*
G01X745050Y1133500D03*
D35*
G01X755950Y1133500D03*
D35*
G01X766750Y1133500D03*
D35*
G01X777650Y1133500D03*
D35*
G01X788550Y1133500D03*
D35*
G01X799350Y1133500D03*
D35*
G01X810250Y1133500D03*
D35*
G01X821050Y1133500D03*
D35*
G01X831950Y1133500D03*
D35*
G01X842850Y1133500D03*
D35*
G01X853650Y1133500D03*
D35*
G01X728750Y1144800D03*
D35*
G01X739650Y1144800D03*
D35*
G01X750450Y1144800D03*
D35*
G01X761350Y1144800D03*
D35*
G01X772250Y1144800D03*
D35*
G01X783050Y1144800D03*
D35*
G01X793950Y1144800D03*
D35*
G01X804750Y1144800D03*
D35*
G01X815650Y1144800D03*
D35*
G01X826550Y1144800D03*
D35*
G01X837350Y1144800D03*
D35*
G01X848250Y1144800D03*
D15*
D15*
G01X696050Y1139100D03*
D15*
G01X881050Y1139100D03*
D35*
D35*
G01X1678550Y1122900D03*
D35*
G01X1687550Y1122900D03*
D35*
G01X1696550Y1122900D03*
D35*
G01X1705550Y1122900D03*
D35*
G01X1714550Y1122900D03*
D35*
G01X1723550Y1122900D03*
D35*
G01X1732550Y1122900D03*
D35*
G01X1741550Y1122900D03*
D35*
G01X1750550Y1122900D03*
D35*
G01X1674050Y1132900D03*
D35*
G01X1683050Y1132900D03*
D35*
G01X1692050Y1132900D03*
D35*
G01X1701050Y1132900D03*
D35*
G01X1710050Y1132900D03*
D35*
G01X1719050Y1132900D03*
D35*
G01X1728050Y1132900D03*
D35*
G01X1737050Y1132900D03*
D35*
G01X1746050Y1132900D03*
D35*
G01X1678550Y1142900D03*
D35*
G01X1687550Y1142900D03*
D35*
G01X1696550Y1142900D03*
D35*
G01X1705550Y1142900D03*
D35*
G01X1714550Y1142900D03*
D35*
G01X1723550Y1142900D03*
D35*
G01X1732550Y1142900D03*
D35*
G01X1741550Y1142900D03*
D21*
D21*
G01X1778050Y1132900D03*
D21*
G01X1647050Y1132900D03*
D17*
D17*
G01X1209050Y892200D03*
D18*
D18*
G01X1219050Y892200D03*
D18*
G01X1209050Y882200D03*
D18*
G01X1219050Y882200D03*
D18*
G01X1209050Y872200D03*
D18*
G01X1219050Y872200D03*
D18*
G01X1209050Y862200D03*
D18*
G01X1219050Y862200D03*
D18*
G01X1209050Y852200D03*
D18*
G01X1219050Y852200D03*
D18*
G01X1209050Y842200D03*
D18*
G01X1219050Y842200D03*
D18*
G01X1209050Y832200D03*
D18*
G01X1219050Y832200D03*
D18*
G01X1209050Y822200D03*
D18*
G01X1219050Y822200D03*
D18*
G01X1209050Y812200D03*
D18*
G01X1219050Y812200D03*
D18*
G01X1209050Y802200D03*
D18*
G01X1219050Y802200D03*
D18*
G01X1209050Y792200D03*
D18*
G01X1219050Y792200D03*
D18*
G01X1209050Y782200D03*
D18*
G01X1219050Y782200D03*
D18*
G01X1209050Y772200D03*
D18*
G01X1219050Y772200D03*
D18*
G01X1209050Y762200D03*
D18*
G01X1219050Y762200D03*
D18*
G01X1209050Y752200D03*
D18*
G01X1219050Y752200D03*
D18*
G01X1209050Y742200D03*
D18*
G01X1219050Y742200D03*
D18*
G01X1209050Y732200D03*
D18*
G01X1219050Y732200D03*
D17*
D17*
G01X1295450Y1135500D03*
D18*
D18*
G01X1300450Y1143000D03*
D18*
G01X1305450Y1135500D03*
D18*
G01X1310450Y1143000D03*
D18*
G01X1315450Y1135500D03*
D18*
G01X1320450Y1143000D03*
D18*
G01X1325450Y1135500D03*
D18*
G01X1330450Y1143000D03*
D18*
G01X1335450Y1135500D03*
D18*
G01X1340450Y1143000D03*
D18*
G01X1345450Y1135500D03*
D18*
G01X1350450Y1143000D03*
D18*
G01X1355450Y1135500D03*
D18*
G01X1360450Y1143000D03*
D18*
G01X1365450Y1135500D03*
D18*
G01X1370450Y1143000D03*
D18*
G01X1375450Y1135500D03*
D18*
G01X1380450Y1143000D03*
D18*
G01X1385450Y1135500D03*
D18*
G01X1390450Y1143000D03*
D18*
G01X1395450Y1135500D03*
D18*
G01X1400450Y1143000D03*
D18*
G01X1405450Y1135500D03*
D18*
G01X1410450Y1143000D03*
D18*
G01X1415450Y1135500D03*
D18*
G01X1295450Y1150500D03*
D18*
G01X1300450Y1158000D03*
D18*
G01X1305450Y1150500D03*
D18*
G01X1310450Y1158000D03*
D18*
G01X1315450Y1150500D03*
D18*
G01X1320450Y1158000D03*
D18*
G01X1325450Y1150500D03*
D18*
G01X1330450Y1158000D03*
D18*
G01X1335450Y1150500D03*
D18*
G01X1340450Y1158000D03*
D18*
G01X1345450Y1150500D03*
D18*
G01X1350450Y1158000D03*
D18*
G01X1355450Y1150500D03*
D18*
G01X1360450Y1158000D03*
D18*
G01X1365450Y1150500D03*
D18*
G01X1370450Y1158000D03*
D18*
G01X1375450Y1150500D03*
D18*
G01X1380450Y1158000D03*
D18*
G01X1385450Y1150500D03*
D18*
G01X1390450Y1158000D03*
D18*
G01X1395450Y1150500D03*
D18*
G01X1400450Y1158000D03*
D18*
G01X1405450Y1150500D03*
D18*
G01X1410450Y1158000D03*
D18*
G01X1415450Y1150500D03*
D21*
D21*
G01X1263450Y1150500D03*
D21*
G01X1447450Y1150500D03*
D22*
D22*
G01X597550Y930400D03*
D23*
D23*
G01X557550Y930400D03*
D17*
D17*
G01X280050Y1140400D03*
D18*
D18*
G01X320050Y1140400D03*
D17*
D17*
G01X160050Y1005400D03*
D18*
D18*
G01X160050Y965400D03*
D17*
D17*
G01X185050Y1095400D03*
D18*
D18*
G01X185050Y1135400D03*
D17*
D17*
G01X320050Y1130400D03*
D18*
D18*
G01X280050Y1130400D03*
D17*
D17*
G01X777550Y357900D03*
D18*
D18*
G01X737550Y357900D03*
D17*
D17*
G01X840050Y560400D03*
D18*
D18*
G01X880050Y560400D03*
D17*
D17*
G01X945050Y1052900D03*
D18*
D18*
G01X985050Y1052900D03*
D17*
D17*
G01X945050Y1042900D03*
D18*
D18*
G01X985050Y1042900D03*
D17*
D17*
G01X1375050Y1075400D03*
D18*
D18*
G01X1335050Y1075400D03*
D17*
D17*
G01X340050Y1140400D03*
D18*
D18*
G01X340050Y1070400D03*
D17*
D17*
G01X430050Y1060400D03*
D18*
D18*
G01X360050Y1060400D03*
D17*
D17*
G01X425050Y1140400D03*
D18*
D18*
G01X355050Y1140400D03*
D17*
D17*
G01X900050Y965400D03*
D18*
D18*
G01X960050Y965400D03*
D17*
D17*
G01X1090050Y1000400D03*
D18*
D18*
G01X1100050Y1000400D03*
D17*
D17*
G01X1090050Y925400D03*
D18*
D18*
G01X1100050Y925400D03*
D17*
D17*
G01X1090050Y960400D03*
D18*
D18*
G01X1100050Y960400D03*
D22*
D22*
G01X1507550Y892900D03*
D23*
D23*
G01X1602550Y892900D03*
D17*
D17*
G01X1537550Y802900D03*
D18*
D18*
G01X1537550Y772900D03*
D18*
G01X1537550Y742900D03*
D18*
G01X1567550Y742900D03*
D18*
G01X1567550Y772900D03*
D18*
G01X1567550Y802900D03*
D18*
G01X212550Y449400D03*
D18*
G01X212550Y459400D03*
D18*
G01X222550Y449400D03*
D18*
G01X222550Y459400D03*
D18*
G01X232550Y449400D03*
D18*
G01X232550Y459400D03*
D18*
G01X242550Y449400D03*
D18*
G01X242550Y459400D03*
D18*
G01X252550Y449400D03*
D18*
G01X252550Y459400D03*
D18*
G01X262550Y449400D03*
D18*
G01X262550Y459400D03*
D18*
G01X272550Y449400D03*
D18*
G01X272550Y459400D03*
D18*
G01X282550Y449400D03*
D18*
G01X282550Y459400D03*
D18*
G01X292550Y449400D03*
D18*
G01X292550Y459400D03*
D18*
G01X302550Y449400D03*
D18*
G01X302550Y459400D03*
D18*
G01X312550Y449400D03*
D18*
G01X312550Y459400D03*
D18*
G01X322550Y449400D03*
D18*
G01X322550Y459400D03*
D18*
G01X332550Y449400D03*
D18*
G01X332550Y459400D03*
D18*
G01X342550Y449400D03*
D18*
G01X342550Y459400D03*
D18*
G01X352550Y449400D03*
D18*
G01X352550Y459400D03*
D17*
D17*
G01X387850Y625600D03*
D18*
D18*
G01X387850Y635600D03*
D18*
G01X397850Y625600D03*
D18*
G01X397850Y635600D03*
D18*
G01X407850Y625600D03*
D18*
G01X407850Y635600D03*
D18*
G01X417850Y625600D03*
D18*
G01X417850Y635600D03*
D18*
G01X427850Y625600D03*
D18*
G01X427850Y635600D03*
D18*
G01X437850Y625600D03*
D18*
G01X437850Y635600D03*
D18*
G01X447850Y625600D03*
D18*
G01X447850Y635600D03*
D18*
G01X457850Y625600D03*
D18*
G01X457850Y635600D03*
D18*
G01X467850Y625600D03*
D18*
G01X467850Y635600D03*
D18*
G01X477850Y625600D03*
D18*
G01X477850Y635600D03*
D18*
G01X487850Y625600D03*
D18*
G01X487850Y635600D03*
D18*
G01X497850Y625600D03*
D18*
G01X497850Y635600D03*
D18*
G01X507850Y625600D03*
D18*
G01X507850Y635600D03*
D18*
G01X517850Y625600D03*
D18*
G01X517850Y635600D03*
D18*
G01X527850Y625600D03*
D18*
G01X527850Y635600D03*
D18*
G01X537850Y625600D03*
D18*
G01X537850Y635600D03*
D18*
G01X547850Y625600D03*
D18*
G01X547850Y635600D03*
D18*
G01X557850Y625600D03*
D18*
G01X557850Y635600D03*
D18*
G01X567850Y625600D03*
D18*
G01X567850Y635600D03*
D18*
G01X577850Y625600D03*
D18*
G01X577850Y635600D03*
D18*
G01X587850Y625600D03*
D18*
G01X587850Y635600D03*
D18*
G01X597850Y625600D03*
D18*
G01X597850Y635600D03*
D18*
G01X607850Y625600D03*
D18*
G01X607850Y635600D03*
D18*
G01X617850Y625600D03*
D18*
G01X617850Y635600D03*
D18*
G01X627850Y625600D03*
D18*
G01X627850Y635600D03*
D22*
D22*
G01X230050Y945400D03*
D23*
D23*
G01X280050Y945400D03*
D17*
D17*
G01X825050Y1090400D03*
D18*
D18*
G01X825050Y1100400D03*
D18*
G01X825050Y1110400D03*
D22*
D22*
G01X140050Y555400D03*
D23*
D23*
G01X190050Y555400D03*
D22*
D22*
G01X140050Y525400D03*
D23*
D23*
G01X190050Y525400D03*
D22*
D22*
G01X140050Y395400D03*
D23*
D23*
G01X190050Y395400D03*
D22*
D22*
G01X140050Y380400D03*
D23*
D23*
G01X190050Y380400D03*
D22*
D22*
G01X730050Y976400D03*
D23*
D23*
G01X730050Y926400D03*
D22*
D22*
G01X215050Y310400D03*
D23*
D23*
G01X215050Y360400D03*
D22*
D22*
G01X900050Y380400D03*
D23*
D23*
G01X850050Y380400D03*
D22*
D22*
G01X1330050Y885400D03*
D23*
D23*
G01X1280050Y885400D03*
D22*
D22*
G01X1315050Y860400D03*
D23*
D23*
G01X1265050Y860400D03*
D22*
D22*
G01X1315050Y842900D03*
D23*
D23*
G01X1265050Y842900D03*
D17*
D17*
G01X1330050Y1090400D03*
D18*
D18*
G01X1380050Y1090400D03*
D17*
D17*
G01X1450050Y610400D03*
D18*
D18*
G01X1460050Y610400D03*
D18*
G01X1470050Y610400D03*
D18*
G01X1480050Y610400D03*
D18*
G01X1490050Y610400D03*
D18*
G01X1500050Y610400D03*
D18*
G01X1510050Y610400D03*
D18*
G01X1520050Y610400D03*
D18*
G01X1530050Y610400D03*
D18*
G01X1540050Y610400D03*
D18*
G01X1550050Y610400D03*
D18*
G01X1560050Y610400D03*
D18*
G01X1560050Y640400D03*
D18*
G01X1550050Y640400D03*
D18*
G01X1540050Y640400D03*
D18*
G01X1530050Y640400D03*
D18*
G01X1520050Y640400D03*
D18*
G01X1510050Y640400D03*
D18*
G01X1500050Y640400D03*
D18*
G01X1490050Y640400D03*
D18*
G01X1480050Y640400D03*
D18*
G01X1470050Y640400D03*
D18*
G01X1460050Y640400D03*
D18*
G01X1450050Y640400D03*
D22*
D22*
G01X972550Y370400D03*
D23*
D23*
G01X1032550Y370400D03*
D22*
D22*
G01X1077550Y375400D03*
D23*
D23*
G01X1077550Y315400D03*
D22*
D22*
G01X957550Y335400D03*
D23*
D23*
G01X1017550Y335400D03*
D22*
D22*
G01X540050Y930400D03*
D23*
D23*
G01X480050Y930400D03*
D22*
D22*
G01X365050Y1040400D03*
D23*
D23*
G01X425050Y1040400D03*
D17*
D17*
G01X1733350Y557900D03*
D18*
D18*
G01X1733350Y577900D03*
D18*
G01X1733350Y587900D03*
D18*
G01X1733350Y597900D03*
D18*
G01X1733350Y607900D03*
D18*
G01X1733350Y617900D03*
D18*
G01X1733350Y627900D03*
D18*
G01X1733350Y637900D03*
D18*
G01X1733350Y647900D03*
D17*
D17*
G01X1357550Y1057900D03*
D18*
D18*
G01X1357550Y1047900D03*
D18*
G01X1357550Y1037900D03*
D17*
D17*
G01X940050Y920400D03*
D18*
D18*
G01X950050Y920400D03*
D18*
G01X960050Y920400D03*
D18*
G01X970050Y920400D03*
D18*
G01X980050Y920400D03*
D18*
G01X990050Y920400D03*
D18*
G01X1000050Y920400D03*
D18*
G01X1010050Y920400D03*
D18*
G01X1020050Y920400D03*
D18*
G01X1030050Y920400D03*
D18*
G01X1030050Y950400D03*
D18*
G01X1020050Y950400D03*
D18*
G01X1010050Y950400D03*
D18*
G01X1000050Y950400D03*
D18*
G01X990050Y950400D03*
D18*
G01X980050Y950400D03*
D18*
G01X970050Y950400D03*
D18*
G01X960050Y950400D03*
D18*
G01X950050Y950400D03*
D18*
G01X940050Y950400D03*
D17*
D17*
G01X1450050Y520400D03*
D18*
D18*
G01X1460050Y520400D03*
D18*
G01X1470050Y520400D03*
D18*
G01X1480050Y520400D03*
D18*
G01X1490050Y520400D03*
D18*
G01X1500050Y520400D03*
D18*
G01X1510050Y520400D03*
D18*
G01X1520050Y520400D03*
D18*
G01X1530050Y520400D03*
D18*
G01X1540050Y520400D03*
D18*
G01X1550050Y520400D03*
D18*
G01X1560050Y520400D03*
D18*
G01X1560050Y580400D03*
D18*
G01X1550050Y580400D03*
D18*
G01X1540050Y580400D03*
D18*
G01X1530050Y580400D03*
D18*
G01X1520050Y580400D03*
D18*
G01X1510050Y580400D03*
D18*
G01X1500050Y580400D03*
D18*
G01X1490050Y580400D03*
D18*
G01X1480050Y580400D03*
D18*
G01X1470050Y580400D03*
D18*
G01X1460050Y580400D03*
D18*
G01X1450050Y580400D03*
D17*
D17*
G01X200050Y860400D03*
D18*
D18*
G01X210050Y860400D03*
D18*
G01X220050Y860400D03*
D18*
G01X230050Y860400D03*
D18*
G01X240050Y860400D03*
D18*
G01X250050Y860400D03*
D18*
G01X260050Y860400D03*
D18*
G01X270050Y860400D03*
D18*
G01X280050Y860400D03*
D18*
G01X290050Y860400D03*
D18*
G01X300050Y860400D03*
D18*
G01X310050Y860400D03*
D18*
G01X310050Y920400D03*
D18*
G01X300050Y920400D03*
D18*
G01X290050Y920400D03*
D18*
G01X280050Y920400D03*
D18*
G01X270050Y920400D03*
D18*
G01X260050Y920400D03*
D18*
G01X250050Y920400D03*
D18*
G01X240050Y920400D03*
D18*
G01X230050Y920400D03*
D18*
G01X220050Y920400D03*
D18*
G01X210050Y920400D03*
D18*
G01X200050Y920400D03*
D18*
G01X962250Y449400D03*
D18*
G01X962250Y459400D03*
D18*
G01X972250Y449400D03*
D18*
G01X972250Y459400D03*
D18*
G01X982250Y449400D03*
D18*
G01X982250Y459400D03*
D18*
G01X992250Y449400D03*
D18*
G01X992250Y459400D03*
D18*
G01X1002250Y449400D03*
D18*
G01X1002250Y459400D03*
D18*
G01X1012250Y449400D03*
D18*
G01X1012250Y459400D03*
D18*
G01X1022250Y449400D03*
D18*
G01X1022250Y459400D03*
D18*
G01X1032250Y449400D03*
D18*
G01X1032250Y459400D03*
D18*
G01X1042250Y449400D03*
D18*
G01X1042250Y459400D03*
D18*
G01X1052250Y449400D03*
D18*
G01X1052250Y459400D03*
D18*
G01X1062250Y449400D03*
D18*
G01X1062250Y459400D03*
D18*
G01X1072250Y449400D03*
D18*
G01X1072250Y459400D03*
D18*
G01X1082250Y449400D03*
D18*
G01X1082250Y459400D03*
D18*
G01X1092250Y449400D03*
D18*
G01X1092250Y459400D03*
D18*
G01X1102250Y449400D03*
D18*
G01X1102250Y459400D03*
D17*
D17*
G01X1162250Y619400D03*
D18*
D18*
G01X1162250Y629400D03*
D18*
G01X1172250Y619400D03*
D18*
G01X1172250Y629400D03*
D18*
G01X1182250Y619400D03*
D18*
G01X1182250Y629400D03*
D18*
G01X1192250Y619400D03*
D18*
G01X1192250Y629400D03*
D18*
G01X1202250Y619400D03*
D18*
G01X1202250Y629400D03*
D18*
G01X1212250Y619400D03*
D18*
G01X1212250Y629400D03*
D18*
G01X1222250Y619400D03*
D18*
G01X1222250Y629400D03*
D18*
G01X1232250Y619400D03*
D18*
G01X1232250Y629400D03*
D18*
G01X1242250Y619400D03*
D18*
G01X1242250Y629400D03*
D18*
G01X1252250Y619400D03*
D18*
G01X1252250Y629400D03*
D18*
G01X1262250Y619400D03*
D18*
G01X1262250Y629400D03*
D18*
G01X1272250Y619400D03*
D18*
G01X1272250Y629400D03*
D18*
G01X1282250Y619400D03*
D18*
G01X1282250Y629400D03*
D18*
G01X1292250Y619400D03*
D18*
G01X1292250Y629400D03*
D18*
G01X1302250Y619400D03*
D18*
G01X1302250Y629400D03*
D18*
G01X1312250Y619400D03*
D18*
G01X1312250Y629400D03*
D18*
G01X1322250Y619400D03*
D18*
G01X1322250Y629400D03*
D18*
G01X1332250Y619400D03*
D18*
G01X1332250Y629400D03*
D18*
G01X1342250Y619400D03*
D18*
G01X1342250Y629400D03*
D18*
G01X1352250Y619400D03*
D18*
G01X1352250Y629400D03*
D18*
G01X1362250Y619400D03*
D18*
G01X1362250Y629400D03*
D18*
G01X1372250Y619400D03*
D18*
G01X1372250Y629400D03*
D18*
G01X1382250Y619400D03*
D18*
G01X1382250Y629400D03*
D18*
G01X1392250Y619400D03*
D18*
G01X1392250Y629400D03*
D18*
G01X1402250Y619400D03*
D18*
G01X1402250Y629400D03*
D17*
D17*
G01X987550Y315400D03*
D18*
D18*
G01X977550Y315400D03*
D18*
G01X967550Y315400D03*
D17*
D17*
G01X1027550Y315400D03*
D18*
D18*
G01X1017550Y315400D03*
D18*
G01X1007550Y315400D03*
D17*
D17*
G01X925050Y300400D03*
D18*
D18*
G01X935050Y300400D03*
D18*
G01X945050Y300400D03*
D17*
D17*
G01X1430050Y972900D03*
D18*
D18*
G01X1440050Y972900D03*
D18*
G01X1450050Y972900D03*
D17*
D17*
G01X1357550Y1010400D03*
D18*
D18*
G01X1357550Y1000400D03*
D18*
G01X1357550Y990400D03*
D17*
D17*
G01X1160050Y1025400D03*
D18*
D18*
G01X1170050Y1025400D03*
D18*
G01X1180050Y1025400D03*
D17*
D17*
G01X975050Y985400D03*
D18*
D18*
G01X975050Y975400D03*
D18*
G01X975050Y965400D03*
D17*
D17*
G01X920050Y1065400D03*
D18*
D18*
G01X920050Y1055400D03*
D18*
G01X920050Y1045400D03*
D17*
D17*
G01X1097550Y385400D03*
D18*
D18*
G01X1097550Y405400D03*
D18*
G01X1164050Y395400D03*
D17*
D17*
G01X1097550Y320400D03*
D18*
D18*
G01X1097550Y340400D03*
D18*
G01X1164050Y330400D03*
D17*
D17*
G01X330050Y730400D03*
D18*
D18*
G01X330050Y710400D03*
D18*
G01X263550Y720400D03*
D17*
D17*
G01X870050Y665400D03*
D18*
D18*
G01X900050Y665400D03*
D18*
G01X930050Y665400D03*
D18*
G01X930050Y695400D03*
D18*
G01X900050Y695400D03*
D18*
G01X870050Y695400D03*
D17*
D17*
G01X875050Y355400D03*
D18*
D18*
G01X875050Y325400D03*
D18*
G01X875050Y295400D03*
D18*
G01X905050Y295400D03*
D18*
G01X905050Y325400D03*
D18*
G01X905050Y355400D03*
D17*
D17*
G01X602550Y255400D03*
D18*
D18*
G01X612550Y255400D03*
D18*
G01X622550Y255400D03*
D18*
G01X632550Y255400D03*
D18*
G01X642550Y255400D03*
D18*
G01X652550Y255400D03*
D18*
G01X662550Y255400D03*
D18*
G01X672550Y255400D03*
D18*
G01X682550Y255400D03*
D18*
G01X692550Y255400D03*
D18*
G01X692550Y285400D03*
D18*
G01X682550Y285400D03*
D18*
G01X672550Y285400D03*
D18*
G01X662550Y285400D03*
D18*
G01X652550Y285400D03*
D18*
G01X642550Y285400D03*
D18*
G01X632550Y285400D03*
D18*
G01X622550Y285400D03*
D18*
G01X612550Y285400D03*
D18*
G01X602550Y285400D03*
D17*
D17*
G01X602550Y315400D03*
D18*
D18*
G01X612550Y315400D03*
D18*
G01X622550Y315400D03*
D18*
G01X632550Y315400D03*
D18*
G01X642550Y315400D03*
D18*
G01X652550Y315400D03*
D18*
G01X662550Y315400D03*
D18*
G01X672550Y315400D03*
D18*
G01X682550Y315400D03*
D18*
G01X692550Y315400D03*
D18*
G01X692550Y345400D03*
D18*
G01X682550Y345400D03*
D18*
G01X672550Y345400D03*
D18*
G01X662550Y345400D03*
D18*
G01X652550Y345400D03*
D18*
G01X642550Y345400D03*
D18*
G01X632550Y345400D03*
D18*
G01X622550Y345400D03*
D18*
G01X612550Y345400D03*
D18*
G01X602550Y345400D03*
D17*
D17*
G01X455050Y315400D03*
D18*
D18*
G01X465050Y315400D03*
D18*
G01X475050Y315400D03*
D18*
G01X485050Y315400D03*
D18*
G01X495050Y315400D03*
D18*
G01X505050Y315400D03*
D18*
G01X515050Y315400D03*
D18*
G01X525050Y315400D03*
D18*
G01X535050Y315400D03*
D18*
G01X545050Y315400D03*
D18*
G01X545050Y345400D03*
D18*
G01X535050Y345400D03*
D18*
G01X525050Y345400D03*
D18*
G01X515050Y345400D03*
D18*
G01X505050Y345400D03*
D18*
G01X495050Y345400D03*
D18*
G01X485050Y345400D03*
D18*
G01X475050Y345400D03*
D18*
G01X465050Y345400D03*
D18*
G01X455050Y345400D03*
D17*
D17*
G01X455050Y255400D03*
D18*
D18*
G01X465050Y255400D03*
D18*
G01X475050Y255400D03*
D18*
G01X485050Y255400D03*
D18*
G01X495050Y255400D03*
D18*
G01X505050Y255400D03*
D18*
G01X515050Y255400D03*
D18*
G01X525050Y255400D03*
D18*
G01X535050Y255400D03*
D18*
G01X545050Y255400D03*
D18*
G01X545050Y285400D03*
D18*
G01X535050Y285400D03*
D18*
G01X525050Y285400D03*
D18*
G01X515050Y285400D03*
D18*
G01X505050Y285400D03*
D18*
G01X495050Y285400D03*
D18*
G01X485050Y285400D03*
D18*
G01X475050Y285400D03*
D18*
G01X465050Y285400D03*
D18*
G01X455050Y285400D03*
D17*
D17*
G01X185050Y990400D03*
D18*
D18*
G01X195050Y990400D03*
D18*
G01X205050Y990400D03*
D18*
G01X205050Y1020400D03*
D18*
G01X195050Y1020400D03*
D18*
G01X185050Y1020400D03*
D17*
D17*
G01X1017550Y840400D03*
D17*
G01X166350Y1131900D03*
D18*
D18*
G01X166350Y1122100D03*
D18*
G01X166350Y1112300D03*
D23*
D23*
G01X157650Y1144100D03*
D23*
G01X171050Y1099700D03*
D17*
D17*
G01X590050Y667900D03*
D18*
D18*
G01X600050Y667900D03*
D18*
G01X610050Y667900D03*
D18*
G01X620050Y667900D03*
D18*
G01X630050Y667900D03*
D18*
G01X640050Y667900D03*
D18*
G01X650050Y667900D03*
D18*
G01X660050Y667900D03*
D18*
G01X670050Y667900D03*
D17*
D17*
G01X585050Y692900D03*
D18*
D18*
G01X575050Y692900D03*
D18*
G01X565050Y692900D03*
D18*
G01X555050Y692900D03*
D18*
G01X545050Y692900D03*
D18*
G01X535050Y692900D03*
D18*
G01X525050Y692900D03*
D18*
G01X515050Y692900D03*
D18*
G01X505050Y692900D03*
D17*
D17*
G01X470050Y595400D03*
D18*
D18*
G01X460050Y595400D03*
D18*
G01X450050Y595400D03*
D18*
G01X440050Y595400D03*
D18*
G01X430050Y595400D03*
D18*
G01X420050Y595400D03*
D18*
G01X410050Y595400D03*
D18*
G01X400050Y595400D03*
D18*
G01X390050Y595400D03*
D17*
D17*
G01X485050Y595400D03*
D18*
D18*
G01X495050Y595400D03*
D18*
G01X505050Y595400D03*
D18*
G01X515050Y595400D03*
D18*
G01X525050Y595400D03*
D18*
G01X535050Y595400D03*
D18*
G01X545050Y595400D03*
D18*
G01X555050Y595400D03*
D18*
G01X565050Y595400D03*
D17*
D17*
G01X585050Y595400D03*
D18*
D18*
G01X595050Y595400D03*
D18*
G01X605050Y595400D03*
D18*
G01X615050Y595400D03*
D18*
G01X625050Y595400D03*
D18*
G01X635050Y595400D03*
D18*
G01X645050Y595400D03*
D18*
G01X655050Y595400D03*
D18*
G01X665050Y595400D03*
D17*
D17*
G01X475050Y395400D03*
D18*
D18*
G01X485050Y395400D03*
D18*
G01X495050Y395400D03*
D18*
G01X505050Y395400D03*
D18*
G01X515050Y395400D03*
D18*
G01X525050Y395400D03*
D18*
G01X535050Y395400D03*
D18*
G01X545050Y395400D03*
D18*
G01X555050Y395400D03*
D17*
D17*
G01X330050Y415400D03*
D18*
D18*
G01X340050Y415400D03*
D18*
G01X350050Y415400D03*
D18*
G01X360050Y415400D03*
D18*
G01X370050Y415400D03*
D18*
G01X380050Y415400D03*
D18*
G01X390050Y415400D03*
D18*
G01X400050Y415400D03*
D18*
G01X410050Y415400D03*
D17*
D17*
G01X235050Y415400D03*
D18*
D18*
G01X245050Y415400D03*
D18*
G01X255050Y415400D03*
D18*
G01X265050Y415400D03*
D18*
G01X275050Y415400D03*
D18*
G01X285050Y415400D03*
D18*
G01X295050Y415400D03*
D18*
G01X305050Y415400D03*
D18*
G01X315050Y415400D03*
D17*
D17*
G01X140050Y415400D03*
D18*
D18*
G01X150050Y415400D03*
D18*
G01X160050Y415400D03*
D18*
G01X170050Y415400D03*
D18*
G01X180050Y415400D03*
D18*
G01X190050Y415400D03*
D18*
G01X200050Y415400D03*
D18*
G01X210050Y415400D03*
D18*
G01X220050Y415400D03*
D17*
D17*
G01X155050Y610400D03*
D18*
D18*
G01X165050Y610400D03*
D18*
G01X175050Y610400D03*
D18*
G01X185050Y610400D03*
D18*
G01X195050Y610400D03*
D18*
G01X205050Y610400D03*
D18*
G01X215050Y610400D03*
D18*
G01X225050Y610400D03*
D18*
G01X235050Y610400D03*
D17*
D17*
G01X255050Y610400D03*
D18*
D18*
G01X265050Y610400D03*
D18*
G01X275050Y610400D03*
D18*
G01X285050Y610400D03*
D18*
G01X295050Y610400D03*
D18*
G01X305050Y610400D03*
D18*
G01X315050Y610400D03*
D18*
G01X325050Y610400D03*
D18*
G01X335050Y610400D03*
D17*
D17*
G01X1235050Y990400D03*
D18*
D18*
G01X1245050Y990400D03*
D18*
G01X1255050Y990400D03*
D18*
G01X1265050Y990400D03*
D18*
G01X1275050Y990400D03*
D18*
G01X1285050Y990400D03*
D18*
G01X1295050Y990400D03*
D18*
G01X1305050Y990400D03*
D18*
G01X1315050Y990400D03*
D32*
D32*
G01X407550Y470400D03*
D32*
G01X407550Y480400D03*
D32*
G01X745050Y605400D03*
D32*
G01X745050Y595400D03*
D32*
G01X690050Y595400D03*
D32*
G01X690050Y605400D03*
D32*
G01X715050Y320400D03*
D32*
G01X715050Y330400D03*
D32*
G01X620050Y515400D03*
D32*
G01X620050Y505400D03*
D32*
G01X485050Y380400D03*
D32*
G01X485050Y370400D03*
D32*
G01X465050Y785400D03*
D32*
G01X465050Y795400D03*
D32*
G01X987550Y370400D03*
D32*
G01X987550Y360400D03*
D32*
G01X957550Y305400D03*
D32*
G01X957550Y315400D03*
D32*
G01X990050Y330400D03*
D32*
G01X990050Y340400D03*
D32*
G01X1112550Y330400D03*
D32*
G01X1112550Y320400D03*
D32*
G01X1062550Y355400D03*
D32*
G01X1062550Y345400D03*
D32*
G01X1077550Y340400D03*
D32*
G01X1077550Y350400D03*
D32*
G01X962550Y360400D03*
D32*
G01X962550Y350400D03*
D32*
G01X952550Y350400D03*
D32*
G01X952550Y360400D03*
D32*
G01X937550Y330400D03*
D32*
G01X937550Y320400D03*
D33*
D33*
G01X890050Y298200D03*
D33*
G01X890050Y312700D03*
D32*
D32*
G01X485050Y720400D03*
D32*
G01X485050Y710400D03*
D32*
G01X470050Y755400D03*
D32*
G01X470050Y745400D03*
D32*
G01X500050Y760400D03*
D32*
G01X500050Y770400D03*
D32*
G01X515050Y760400D03*
D32*
G01X515050Y770400D03*
D32*
G01X515050Y720400D03*
D32*
G01X515050Y710400D03*
D32*
G01X532550Y490400D03*
D32*
G01X532550Y500400D03*
D32*
G01X532550Y515400D03*
D32*
G01X532550Y525400D03*
D32*
G01X442550Y515400D03*
D32*
G01X442550Y525400D03*
D32*
G01X410050Y495400D03*
D32*
G01X410050Y505400D03*
D32*
G01X1610050Y742900D03*
D32*
G01X1610050Y732900D03*
D32*
G01X1017550Y360400D03*
D32*
G01X1017550Y370400D03*
D17*
D17*
G01X555050Y875400D03*
D18*
D18*
G01X555050Y915400D03*
D32*
D32*
G01X455050Y895400D03*
D32*
G01X455050Y885400D03*
D32*
G01X455050Y870400D03*
D32*
G01X455050Y860400D03*
D32*
G01X340050Y790400D03*
D32*
G01X340050Y800400D03*
D17*
D17*
G01X415050Y1080400D03*
D18*
D18*
G01X375050Y1080400D03*
D32*
D32*
G01X335050Y1085400D03*
D32*
G01X335050Y1095400D03*
D32*
G01X1612550Y872900D03*
D32*
G01X1612550Y882900D03*
D32*
G01X840050Y1065400D03*
D32*
G01X840050Y1075400D03*
D32*
G01X730050Y605400D03*
D32*
G01X730050Y595400D03*
D33*
D33*
G01X215050Y1048200D03*
D33*
G01X215050Y1062700D03*
D33*
G01X145050Y943200D03*
D33*
G01X145050Y957700D03*
D32*
D32*
G01X227550Y1025400D03*
D32*
G01X227550Y1015400D03*
D32*
G01X242550Y1025400D03*
D32*
G01X242550Y1015400D03*
D32*
G01X250050Y1070400D03*
D32*
G01X250050Y1060400D03*
D32*
G01X1687550Y605400D03*
D32*
G01X1687550Y615400D03*
D32*
G01X290050Y785400D03*
D32*
G01X290050Y795400D03*
D32*
G01X257550Y985400D03*
D32*
G01X257550Y995400D03*
D32*
G01X350050Y1090400D03*
D32*
G01X350050Y1080400D03*
D33*
D33*
G01X260050Y1013200D03*
D33*
G01X260050Y1027700D03*
D33*
G01X157550Y1090700D03*
D33*
G01X157550Y1105200D03*
D33*
G01X280050Y1013200D03*
D33*
G01X280050Y1027700D03*
D32*
D32*
G01X245050Y1122900D03*
D32*
G01X245050Y1132900D03*
D32*
G01X797550Y367900D03*
D32*
G01X797550Y357900D03*
D32*
G01X960050Y905400D03*
D32*
G01X960050Y895400D03*
D32*
G01X1457550Y957900D03*
D32*
G01X1457550Y967900D03*
D32*
G01X812550Y575400D03*
D32*
G01X812550Y565400D03*
D32*
G01X1467550Y915400D03*
D32*
G01X1467550Y925400D03*
D32*
G01X1170050Y1010400D03*
D32*
G01X1170050Y1000400D03*
D32*
G01X990050Y930400D03*
D32*
G01X990050Y940400D03*
D33*
D33*
G01X910050Y998200D03*
D33*
G01X910050Y1012700D03*
D32*
D32*
G01X985050Y1005400D03*
D32*
G01X985050Y1015400D03*
D32*
G01X995050Y1015400D03*
D32*
G01X995050Y1005400D03*
D33*
D33*
G01X875050Y1073200D03*
D33*
G01X875050Y1087700D03*
D33*
G01X900050Y1057600D03*
D33*
G01X900050Y1043100D03*
D32*
D32*
G01X935050Y1045400D03*
D32*
G01X935050Y1055400D03*
D33*
D33*
G01X1230050Y1072600D03*
D33*
G01X1230050Y1058100D03*
D33*
G01X1230050Y1042600D03*
D33*
G01X1230050Y1028100D03*
D33*
G01X1190050Y1012600D03*
D33*
G01X1190050Y998100D03*
D33*
G01X1190050Y1047600D03*
D33*
G01X1190050Y1033100D03*
D33*
G01X1115050Y977600D03*
D33*
G01X1115050Y963100D03*
D33*
G01X1150050Y1042600D03*
D33*
G01X1150050Y1028100D03*
D32*
D32*
G01X1437550Y947900D03*
D32*
G01X1437550Y957900D03*
D32*
G01X1568550Y732900D03*
D32*
G01X1568550Y722900D03*
D32*
G01X1422550Y992900D03*
D32*
G01X1422550Y982900D03*
D32*
G01X885050Y965400D03*
D32*
G01X885050Y975400D03*
D17*
D17*
G01X920050Y910400D03*
D18*
D18*
G01X920050Y950400D03*
D17*
D17*
G01X885050Y950400D03*
D18*
D18*
G01X885050Y910400D03*
D33*
D33*
G01X1130050Y1023200D03*
D33*
G01X1130050Y1037700D03*
D33*
G01X1190050Y1083200D03*
D33*
G01X1190050Y1097700D03*
D33*
G01X1210050Y1083200D03*
D33*
G01X1210050Y1097700D03*
D32*
D32*
G01X990050Y965400D03*
D32*
G01X990050Y975400D03*
D17*
D17*
G01X1065050Y960400D03*
D18*
D18*
G01X1065050Y920400D03*
D32*
D32*
G01X1025050Y910400D03*
D32*
G01X1025050Y900400D03*
D32*
G01X900050Y940400D03*
D32*
G01X900050Y950400D03*
D32*
G01X1060050Y945400D03*
D32*
G01X1060050Y935400D03*
D32*
G01X957550Y840400D03*
D32*
G01X957550Y830400D03*
D33*
D33*
G01X890050Y1073200D03*
D33*
G01X890050Y1087700D03*
D32*
D32*
G01X280050Y545400D03*
D32*
G01X280050Y555400D03*
D32*
G01X285050Y495400D03*
D32*
G01X285050Y485400D03*
D32*
G01X205050Y545400D03*
D32*
G01X205050Y555400D03*
D32*
G01X190050Y495400D03*
D32*
G01X190050Y485400D03*
D32*
G01X295050Y555400D03*
D32*
G01X295050Y545400D03*
D32*
G01X300050Y485400D03*
D32*
G01X300050Y495400D03*
D32*
G01X220050Y555400D03*
D32*
G01X220050Y545400D03*
D32*
G01X205050Y485400D03*
D32*
G01X205050Y495400D03*
D32*
G01X795050Y925400D03*
D32*
G01X795050Y915400D03*
D32*
G01X785050Y920400D03*
D32*
G01X785050Y910400D03*
D32*
G01X830050Y815400D03*
D32*
G01X830050Y825400D03*
D32*
G01X795050Y890400D03*
D32*
G01X795050Y900400D03*
D32*
G01X775050Y890400D03*
D32*
G01X775050Y880400D03*
D32*
G01X795050Y865400D03*
D32*
G01X795050Y875400D03*
D32*
G01X815050Y815400D03*
D32*
G01X815050Y825400D03*
D32*
G01X795050Y840400D03*
D32*
G01X795050Y850400D03*
D32*
G01X855050Y865400D03*
D32*
G01X855050Y875400D03*
D32*
G01X850050Y825400D03*
D32*
G01X850050Y815400D03*
D32*
G01X835050Y865400D03*
D32*
G01X835050Y875400D03*
D32*
G01X915050Y865400D03*
D32*
G01X915050Y875400D03*
D32*
G01X885050Y865400D03*
D32*
G01X885050Y875400D03*
D32*
G01X870050Y865400D03*
D32*
G01X870050Y875400D03*
D32*
G01X900050Y865400D03*
D32*
G01X900050Y875400D03*
D32*
G01X840050Y925400D03*
D32*
G01X840050Y915400D03*
D32*
G01X1165050Y905400D03*
D32*
G01X1165050Y915400D03*
D32*
G01X1190050Y722900D03*
D32*
G01X1190050Y732900D03*
D32*
G01X1235050Y780400D03*
D32*
G01X1235050Y790400D03*
D32*
G01X1195050Y750400D03*
D32*
G01X1195050Y760400D03*
D33*
D33*
G01X1300050Y798200D03*
D33*
G01X1300050Y812700D03*
D33*
G01X1310050Y782600D03*
D33*
G01X1310050Y768100D03*
D33*
G01X1290050Y782600D03*
D33*
G01X1290050Y768100D03*
D33*
G01X1270050Y782600D03*
D33*
G01X1270050Y768100D03*
D32*
D32*
G01X1480050Y1097900D03*
D32*
G01X1480050Y1107900D03*
D32*
G01X1597550Y1057900D03*
D32*
G01X1597550Y1047900D03*
D32*
G01X1490050Y990400D03*
D32*
G01X1490050Y1000400D03*
D32*
G01X1580050Y1075400D03*
D32*
G01X1580050Y1085400D03*
D33*
D33*
G01X510050Y1037600D03*
D33*
G01X510050Y1023100D03*
D33*
G01X495050Y1037600D03*
D33*
G01X495050Y1023100D03*
D32*
D32*
G01X415050Y975400D03*
D32*
G01X415050Y965400D03*
D32*
G01X430050Y990400D03*
D32*
G01X430050Y980400D03*
D32*
G01X1355050Y1080400D03*
D32*
G01X1355050Y1090400D03*
D32*
G01X1730050Y1025400D03*
D32*
G01X1730050Y1015400D03*
D32*
G01X1692550Y635400D03*
D32*
G01X1692550Y645400D03*
D33*
D33*
G01X1150050Y1058200D03*
D33*
G01X1150050Y1072700D03*
D17*
D17*
G01X645050Y445400D03*
D18*
D18*
G01X645050Y485400D03*
D32*
D32*
G01X800050Y415400D03*
D32*
G01X800050Y405400D03*
D32*
G01X865050Y515400D03*
D32*
G01X865050Y505400D03*
D32*
G01X722550Y415400D03*
D32*
G01X722550Y405400D03*
D32*
G01X865050Y485400D03*
D32*
G01X865050Y475400D03*
D32*
G01X737550Y415400D03*
D32*
G01X737550Y405400D03*
D32*
G01X730050Y440400D03*
D32*
G01X730050Y450400D03*
D32*
G01X765050Y595400D03*
D32*
G01X765050Y605400D03*
D32*
G01X780050Y595400D03*
D32*
G01X780050Y605400D03*
D32*
G01X865050Y550400D03*
D32*
G01X865050Y540400D03*
D32*
G01X843050Y545400D03*
D32*
G01X843050Y535400D03*
D32*
G01X845050Y515400D03*
D32*
G01X845050Y505400D03*
D32*
G01X830050Y455400D03*
D32*
G01X830050Y445400D03*
D32*
G01X845050Y455400D03*
D32*
G01X845050Y445400D03*
D32*
G01X772550Y415400D03*
D32*
G01X772550Y405400D03*
D32*
G01X687550Y420400D03*
D32*
G01X687550Y410400D03*
D32*
G01X880050Y455400D03*
D32*
G01X880050Y445400D03*
D32*
G01X710050Y595400D03*
D32*
G01X710050Y605400D03*
D32*
G01X860050Y725400D03*
D32*
G01X860050Y735400D03*
D32*
G01X1115050Y1015400D03*
D32*
G01X1115050Y1025400D03*
D32*
G01X1117550Y990400D03*
D32*
G01X1117550Y1000400D03*
D17*
D17*
G01X465050Y950400D03*
D18*
D18*
G01X475050Y950400D03*
D18*
G01X485050Y950400D03*
D18*
G01X495050Y950400D03*
D18*
G01X505050Y950400D03*
D18*
G01X515050Y950400D03*
D18*
G01X525050Y950400D03*
D18*
G01X535050Y950400D03*
D18*
G01X535050Y980400D03*
D18*
G01X525050Y980400D03*
D18*
G01X515050Y980400D03*
D18*
G01X505050Y980400D03*
D18*
G01X495050Y980400D03*
D18*
G01X485050Y980400D03*
D18*
G01X475050Y980400D03*
D18*
G01X465050Y980400D03*
D32*
D32*
G01X1475050Y775400D03*
D32*
G01X1475050Y785400D03*
D33*
D33*
G01X710050Y883200D03*
D33*
G01X710050Y897700D03*
D33*
G01X710050Y783200D03*
D33*
G01X710050Y797700D03*
D33*
G01X210050Y958200D03*
D33*
G01X210050Y972700D03*
D32*
D32*
G01X1017550Y400400D03*
D32*
G01X1017550Y390400D03*
D33*
D33*
G01X1032550Y357600D03*
D33*
G01X1032550Y343100D03*
D32*
D32*
G01X1002550Y360400D03*
D32*
G01X1002550Y370400D03*
D32*
G01X1112550Y345400D03*
D32*
G01X1112550Y355400D03*
D32*
G01X1002550Y330400D03*
D32*
G01X1002550Y340400D03*
D32*
G01X977550Y330400D03*
D32*
G01X977550Y340400D03*
D32*
G01X1047550Y355400D03*
D32*
G01X1047550Y345400D03*
D32*
G01X490050Y875400D03*
D32*
G01X490050Y865400D03*
D32*
G01X280050Y1110400D03*
D32*
G01X280050Y1100400D03*
D32*
G01X340050Y755400D03*
D32*
G01X340050Y745400D03*
D32*
G01X320050Y755400D03*
D32*
G01X320050Y745400D03*
D32*
G01X575050Y995400D03*
D32*
G01X575050Y985400D03*
D32*
G01X590050Y995400D03*
D32*
G01X590050Y985400D03*
D32*
G01X595050Y1015400D03*
D32*
G01X595050Y1025400D03*
D32*
G01X560050Y1015400D03*
D32*
G01X560050Y1005400D03*
D32*
G01X365050Y1080400D03*
D32*
G01X365050Y1070400D03*
D32*
G01X385050Y1075400D03*
D32*
G01X385050Y1065400D03*
D32*
G01X810050Y357900D03*
D32*
G01X810050Y367900D03*
D33*
D33*
G01X1150050Y1012600D03*
D33*
G01X1150050Y998100D03*
D33*
G01X1035050Y963200D03*
D33*
G01X1035050Y977700D03*
D33*
G01X1020050Y963200D03*
D33*
G01X1020050Y977700D03*
D32*
D32*
G01X950050Y940400D03*
D32*
G01X950050Y930400D03*
D32*
G01X1035050Y910400D03*
D32*
G01X1035050Y900400D03*
D17*
D17*
G01X900050Y930400D03*
D18*
D18*
G01X900050Y900400D03*
D32*
D32*
G01X970050Y930400D03*
D32*
G01X970050Y940400D03*
D33*
D33*
G01X1005050Y963200D03*
D33*
G01X1005050Y977700D03*
D32*
D32*
G01X1050050Y960400D03*
D32*
G01X1050050Y970400D03*
D32*
G01X1045050Y925400D03*
D32*
G01X1045050Y935400D03*
D32*
G01X1042550Y890400D03*
D32*
G01X1042550Y880400D03*
D33*
D33*
G01X1015050Y1013200D03*
D33*
G01X1015050Y1027700D03*
D33*
G01X770050Y943200D03*
D33*
G01X770050Y957700D03*
D32*
D32*
G01X310050Y545400D03*
D32*
G01X310050Y555400D03*
D32*
G01X315050Y495400D03*
D32*
G01X315050Y485400D03*
D32*
G01X235050Y545400D03*
D32*
G01X235050Y555400D03*
D32*
G01X225050Y495400D03*
D32*
G01X225050Y485400D03*
D32*
G01X325050Y545400D03*
D32*
G01X325050Y555400D03*
D32*
G01X335050Y495400D03*
D32*
G01X335050Y485400D03*
D32*
G01X250050Y545400D03*
D32*
G01X250050Y555400D03*
D32*
G01X240050Y495400D03*
D32*
G01X240050Y485400D03*
D32*
G01X1510050Y825400D03*
D32*
G01X1510050Y815400D03*
D17*
D17*
G01X840050Y575400D03*
D18*
D18*
G01X900050Y575400D03*
D33*
D33*
G01X1375050Y1050100D03*
D33*
G01X1375050Y1035600D03*
D32*
D32*
G01X540050Y1070400D03*
D32*
G01X540050Y1080400D03*
D32*
G01X525050Y1070400D03*
D32*
G01X525050Y1080400D03*
D32*
G01X450050Y1070400D03*
D32*
G01X450050Y1080400D03*
D32*
G01X510050Y1070400D03*
D32*
G01X510050Y1080400D03*
D32*
G01X465050Y1070400D03*
D32*
G01X465050Y1080400D03*
D32*
G01X495050Y1070400D03*
D32*
G01X495050Y1080400D03*
D32*
G01X480050Y1070400D03*
D32*
G01X480050Y1080400D03*
D17*
D17*
G01X1175050Y885400D03*
D18*
D18*
G01X1175050Y875400D03*
D17*
D17*
G01X1255050Y1120400D03*
D18*
D18*
G01X1265050Y1120400D03*
D18*
G01X1275050Y1120400D03*
D18*
G01X1285050Y1120400D03*
D18*
G01X1295050Y1120400D03*
D18*
G01X1305050Y1120400D03*
D18*
G01X1315050Y1120400D03*
D18*
G01X1325050Y1120400D03*
D17*
D17*
G01X1315050Y1105400D03*
D18*
D18*
G01X1325050Y1105400D03*
D18*
G01X1335050Y1105400D03*
D18*
G01X1345050Y1105400D03*
D18*
G01X1355050Y1105400D03*
D18*
G01X1365050Y1105400D03*
D18*
G01X1375050Y1105400D03*
D18*
G01X1385050Y1105400D03*
D17*
D17*
G01X1375050Y1120400D03*
D18*
D18*
G01X1385050Y1120400D03*
D18*
G01X1395050Y1120400D03*
D18*
G01X1405050Y1120400D03*
D18*
G01X1415050Y1120400D03*
D18*
G01X1425050Y1120400D03*
D18*
G01X1435050Y1120400D03*
D18*
G01X1445050Y1120400D03*
D17*
D17*
G01X555050Y1090400D03*
D18*
D18*
G01X555050Y1100400D03*
D18*
G01X555050Y1110400D03*
D17*
D17*
G01X570050Y1090400D03*
D18*
D18*
G01X570050Y1100400D03*
D18*
G01X570050Y1110400D03*
D17*
D17*
G01X660050Y1090400D03*
D18*
D18*
G01X660050Y1100400D03*
D18*
G01X660050Y1110400D03*
D17*
D17*
G01X585050Y1090400D03*
D18*
D18*
G01X585050Y1100400D03*
D18*
G01X585050Y1110400D03*
D17*
D17*
G01X630050Y1090400D03*
D18*
D18*
G01X630050Y1100400D03*
D18*
G01X630050Y1110400D03*
D17*
D17*
G01X615050Y1090400D03*
D18*
D18*
G01X615050Y1100400D03*
D18*
G01X615050Y1110400D03*
D17*
D17*
G01X600050Y1090400D03*
D18*
D18*
G01X600050Y1100400D03*
D18*
G01X600050Y1110400D03*
D17*
D17*
G01X840050Y1090400D03*
D18*
D18*
G01X840050Y1100400D03*
D18*
G01X840050Y1110400D03*
D17*
D17*
G01X810050Y1090400D03*
D18*
D18*
G01X810050Y1100400D03*
D18*
G01X810050Y1110400D03*
D17*
D17*
G01X795050Y1090400D03*
D18*
D18*
G01X795050Y1100400D03*
D18*
G01X795050Y1110400D03*
D17*
D17*
G01X780050Y1090400D03*
D18*
D18*
G01X780050Y1100400D03*
D18*
G01X780050Y1110400D03*
D17*
D17*
G01X765050Y1090400D03*
D18*
D18*
G01X765050Y1100400D03*
D18*
G01X765050Y1110400D03*
D17*
D17*
G01X735050Y1090400D03*
D18*
D18*
G01X735050Y1100400D03*
D18*
G01X735050Y1110400D03*
D17*
D17*
G01X720050Y1090400D03*
D18*
D18*
G01X720050Y1100400D03*
D18*
G01X720050Y1110400D03*
D17*
D17*
G01X705050Y1090400D03*
D18*
D18*
G01X705050Y1100400D03*
D18*
G01X705050Y1110400D03*
D17*
D17*
G01X690050Y1090400D03*
D18*
D18*
G01X690050Y1100400D03*
D18*
G01X690050Y1110400D03*
D17*
D17*
G01X675050Y1090400D03*
D18*
D18*
G01X675050Y1100400D03*
D18*
G01X675050Y1110400D03*
D17*
D17*
G01X1710050Y647900D03*
D18*
D18*
G01X1710050Y637900D03*
D18*
G01X1710050Y627900D03*
D17*
D17*
G01X1710050Y617900D03*
D18*
D18*
G01X1710050Y607900D03*
D18*
G01X1710050Y597900D03*
D17*
D17*
G01X1710050Y567900D03*
D18*
D18*
G01X1710050Y577900D03*
D18*
G01X1710050Y587900D03*
D17*
D17*
G01X145050Y1125400D03*
D18*
D18*
G01X145050Y1135400D03*
D18*
G01X145050Y1145400D03*
D17*
D17*
G01X145050Y1110400D03*
D18*
D18*
G01X145050Y1100400D03*
D18*
G01X145050Y1090400D03*
D17*
D17*
G01X200050Y1080400D03*
D18*
D18*
G01X200050Y1090400D03*
D18*
G01X200050Y1100400D03*
D17*
D17*
G01X215050Y1080400D03*
D18*
D18*
G01X215050Y1090400D03*
D18*
G01X215050Y1100400D03*
D17*
D17*
G01X145050Y1005400D03*
D18*
D18*
G01X145050Y1015400D03*
D18*
G01X145050Y1025400D03*
D17*
D17*
G01X145050Y972900D03*
D18*
D18*
G01X145050Y982900D03*
D18*
G01X145050Y992900D03*
D17*
D17*
G01X187550Y452900D03*
D18*
D18*
G01X187550Y462900D03*
D18*
G01X187550Y472900D03*
D17*
D17*
G01X140050Y510400D03*
D18*
D18*
G01X150050Y510400D03*
D18*
G01X160050Y510400D03*
D17*
D17*
G01X140050Y440400D03*
D18*
D18*
G01X150050Y440400D03*
D18*
G01X160050Y440400D03*
D17*
D17*
G01X180050Y430400D03*
D18*
D18*
G01X190050Y430400D03*
D18*
G01X200050Y430400D03*
D17*
D17*
G01X140050Y490400D03*
D18*
D18*
G01X150050Y490400D03*
D18*
G01X160050Y490400D03*
D17*
D17*
G01X140050Y460400D03*
D18*
D18*
G01X150050Y460400D03*
D18*
G01X160050Y460400D03*
D17*
D17*
G01X140050Y500400D03*
D18*
D18*
G01X150050Y500400D03*
D18*
G01X160050Y500400D03*
D17*
D17*
G01X140050Y480400D03*
D18*
D18*
G01X150050Y480400D03*
D18*
G01X160050Y480400D03*
D17*
D17*
G01X140050Y470400D03*
D18*
D18*
G01X150050Y470400D03*
D18*
G01X160050Y470400D03*
D17*
D17*
G01X140050Y450400D03*
D18*
D18*
G01X150050Y450400D03*
D18*
G01X160050Y450400D03*
D17*
D17*
G01X140050Y430400D03*
D18*
D18*
G01X150050Y430400D03*
D18*
G01X160050Y430400D03*
D17*
D17*
G01X140050Y365400D03*
D18*
D18*
G01X150050Y365400D03*
D18*
G01X160050Y365400D03*
D17*
D17*
G01X140050Y345400D03*
D18*
D18*
G01X150050Y345400D03*
D18*
G01X160050Y345400D03*
D17*
D17*
G01X140050Y335400D03*
D18*
D18*
G01X150050Y335400D03*
D18*
G01X160050Y335400D03*
D17*
D17*
G01X140050Y285400D03*
D18*
D18*
G01X150050Y285400D03*
D18*
G01X160050Y285400D03*
D17*
D17*
G01X140050Y295400D03*
D18*
D18*
G01X150050Y295400D03*
D18*
G01X160050Y295400D03*
D17*
D17*
G01X140050Y305400D03*
D18*
D18*
G01X150050Y305400D03*
D18*
G01X160050Y305400D03*
D17*
D17*
G01X140050Y355400D03*
D18*
D18*
G01X150050Y355400D03*
D18*
G01X160050Y355400D03*
D17*
D17*
G01X140050Y325400D03*
D18*
D18*
G01X150050Y325400D03*
D18*
G01X160050Y325400D03*
D17*
D17*
G01X140050Y315400D03*
D18*
D18*
G01X150050Y315400D03*
D18*
G01X160050Y315400D03*
D17*
D17*
G01X140050Y275400D03*
D18*
D18*
G01X150050Y275400D03*
D18*
G01X160050Y275400D03*
D17*
D17*
G01X1240050Y1090400D03*
D18*
D18*
G01X1240050Y1100400D03*
D18*
G01X1240050Y1110400D03*
D17*
D17*
G01X1080050Y1095400D03*
D18*
D18*
G01X1080050Y1105400D03*
D18*
G01X1080050Y1115400D03*
D17*
D17*
G01X1070050Y1095400D03*
D18*
D18*
G01X1070050Y1105400D03*
D18*
G01X1070050Y1115400D03*
D17*
D17*
G01X470050Y885400D03*
D18*
D18*
G01X480050Y885400D03*
D18*
G01X490050Y885400D03*
D18*
G01X500050Y885400D03*
D18*
G01X510050Y885400D03*
D18*
G01X520050Y885400D03*
D18*
G01X530050Y885400D03*
D18*
G01X530050Y915400D03*
D18*
G01X520050Y915400D03*
D18*
G01X510050Y915400D03*
D18*
G01X500050Y915400D03*
D18*
G01X490050Y915400D03*
D18*
G01X480050Y915400D03*
D18*
G01X470050Y915400D03*
D17*
D17*
G01X365050Y1090400D03*
D18*
D18*
G01X375050Y1090400D03*
D18*
G01X385050Y1090400D03*
D18*
G01X395050Y1090400D03*
D18*
G01X405050Y1090400D03*
D18*
G01X415050Y1090400D03*
D18*
G01X425050Y1090400D03*
D18*
G01X425050Y1120400D03*
D18*
G01X415050Y1120400D03*
D18*
G01X405050Y1120400D03*
D18*
G01X395050Y1120400D03*
D18*
G01X385050Y1120400D03*
D18*
G01X375050Y1120400D03*
D18*
G01X365050Y1120400D03*
D17*
D17*
G01X1057550Y330400D03*
D18*
D18*
G01X1057550Y370400D03*
D17*
D17*
G01X1047550Y330400D03*
D18*
D18*
G01X1047550Y370400D03*
D35*
D35*
G01X1187650Y1135500D03*
D35*
G01X1176850Y1135500D03*
D35*
G01X1165950Y1135500D03*
D35*
G01X1155150Y1135500D03*
D35*
G01X1144250Y1135500D03*
D35*
G01X1133350Y1135500D03*
D35*
G01X1122550Y1135500D03*
D35*
G01X1111650Y1135500D03*
D35*
G01X1100750Y1135500D03*
D35*
G01X1089950Y1135500D03*
D35*
G01X1182250Y1146800D03*
D35*
G01X1171350Y1146800D03*
D35*
G01X1160550Y1146800D03*
D35*
G01X1149650Y1146800D03*
D35*
G01X1138850Y1146800D03*
D35*
G01X1127950Y1146800D03*
D35*
G01X1117050Y1146800D03*
D35*
G01X1106250Y1146800D03*
D35*
G01X1095350Y1146800D03*
D15*
D15*
G01X1062650Y1141100D03*
D15*
G01X1215150Y1140500D03*
D35*
D35*
G01X625650Y1133500D03*
D35*
G01X614750Y1133500D03*
D35*
G01X603850Y1133500D03*
D35*
G01X592950Y1133500D03*
D35*
G01X582050Y1133500D03*
D35*
G01X620250Y1144700D03*
D35*
G01X609350Y1144700D03*
D35*
G01X598450Y1144700D03*
D35*
G01X587550Y1144700D03*
D15*
D15*
G01X653050Y1139100D03*
D15*
G01X554550Y1139100D03*
D19*
D19*
G01X737150Y735500D03*
D19*
G01X748950Y1046600D03*
D19*
G01X1079650Y1046600D03*
D19*
G01X1079650Y735500D03*
D20*
D20*
G01X748950Y1072100D03*
D20*
G01X1079650Y1072100D03*
D32*
D32*
G01X1572550Y920400D03*
D32*
G01X1572550Y930400D03*
D33*
D33*
G01X1062550Y393200D03*
D33*
G01X1062550Y407700D03*
D33*
G01X575050Y722600D03*
D33*
G01X575050Y708100D03*
D32*
D32*
G01X585050Y800400D03*
D32*
G01X585050Y790400D03*
D17*
D17*
G01X922550Y897900D03*
D18*
D18*
G01X932550Y897900D03*
D18*
G01X942550Y897900D03*
D17*
D17*
G01X1500050Y1062900D03*
D18*
D18*
G01X1490050Y1062900D03*
D18*
G01X1480050Y1062900D03*
D18*
G01X1470050Y1062900D03*
D18*
G01X1470050Y1032900D03*
D18*
G01X1480050Y1032900D03*
D18*
G01X1490050Y1032900D03*
D18*
G01X1500050Y1032900D03*
D32*
D32*
G01X1610050Y920400D03*
D32*
G01X1610050Y930400D03*
D32*
G01X1595050Y930400D03*
D32*
G01X1595050Y920400D03*
D32*
G01X1585050Y930400D03*
D32*
G01X1585050Y920400D03*
D32*
G01X1490050Y1107900D03*
D32*
G01X1490050Y1097900D03*
D17*
D17*
G01X305050Y1035400D03*
D18*
D18*
G01X305050Y1005400D03*
D18*
G01X305050Y975400D03*
D18*
G01X335050Y975400D03*
D18*
G01X335050Y1005400D03*
D18*
G01X335050Y1035400D03*
D17*
D17*
G01X210050Y945400D03*
D18*
D18*
G01X160050Y945400D03*
D32*
D32*
G01X1687550Y587900D03*
D32*
G01X1687550Y577900D03*
D32*
G01X1745050Y1085400D03*
D32*
G01X1745050Y1075400D03*
D32*
G01X1700050Y1025400D03*
D32*
G01X1700050Y1015400D03*
D32*
G01X1685050Y1025400D03*
D32*
G01X1685050Y1015400D03*
D32*
G01X1760050Y1085400D03*
D32*
G01X1760050Y1075400D03*
D32*
G01X1640050Y1085400D03*
D32*
G01X1640050Y1075400D03*
D33*
D33*
G01X1435050Y640100D03*
D33*
G01X1435050Y625600D03*
D32*
D32*
G01X1443550Y760400D03*
D32*
G01X1443550Y750400D03*
D33*
D33*
G01X450050Y952600D03*
D33*
G01X450050Y938100D03*
D32*
D32*
G01X465050Y935400D03*
D32*
G01X465050Y925400D03*
D33*
D33*
G01X570050Y967600D03*
D33*
G01X570050Y953100D03*
D32*
D32*
G01X555050Y960400D03*
D32*
G01X555050Y950400D03*
D32*
G01X1505050Y1000400D03*
D32*
G01X1505050Y990400D03*
D33*
D33*
G01X687550Y512600D03*
D33*
G01X687550Y498100D03*
D33*
G01X765050Y438200D03*
D33*
G01X765050Y452700D03*
D33*
G01X687550Y472600D03*
D33*
G01X687550Y458100D03*
D33*
G01X705050Y443200D03*
D33*
G01X705050Y457700D03*
D33*
G01X807550Y458200D03*
D33*
G01X807550Y472700D03*
D33*
G01X708550Y560100D03*
D33*
G01X708550Y545600D03*
D33*
G01X807550Y507600D03*
D33*
G01X807550Y493100D03*
D33*
G01X687550Y547600D03*
D33*
G01X687550Y533100D03*
D33*
G01X807550Y547600D03*
D33*
G01X807550Y533100D03*
D32*
D32*
G01X840050Y975400D03*
D32*
G01X840050Y985400D03*
D33*
D33*
G01X1600050Y600100D03*
D33*
G01X1600050Y585600D03*
D33*
G01X405050Y892600D03*
D33*
G01X405050Y878100D03*
D33*
G01X1687550Y542600D03*
D33*
G01X1687550Y528100D03*
D33*
G01X265050Y798200D03*
D33*
G01X265050Y812700D03*
D33*
G01X1275050Y812600D03*
D33*
G01X1275050Y798100D03*
D33*
G01X997550Y393200D03*
D33*
G01X997550Y407700D03*
D33*
G01X788350Y1015300D03*
D33*
G01X788350Y1000800D03*
D24*
D24*
G01X959650Y1167400D03*
D15*
D15*
G01X1189950Y274900D03*
D15*
G01X1189950Y416500D03*
D15*
G01X1422150Y416500D03*
D15*
G01X1422150Y274900D03*
D17*
D17*
G01X1155050Y435400D03*
D18*
D18*
G01X1165050Y435400D03*
D17*
D17*
G01X740050Y685400D03*
D18*
D18*
G01X740050Y645400D03*
D32*
D32*
G01X845050Y485400D03*
D32*
G01X845050Y475400D03*
D32*
G01X1165050Y1040400D03*
D32*
G01X1165050Y1050400D03*
D32*
G01X787550Y415400D03*
D32*
G01X787550Y405400D03*
D32*
G01X817550Y415400D03*
D32*
G01X817550Y405400D03*
D32*
G01X970050Y755400D03*
D32*
G01X970050Y765400D03*
D32*
G01X615050Y365400D03*
D32*
G01X615050Y375400D03*
D32*
G01X1120050Y1050400D03*
D32*
G01X1120050Y1060400D03*
D32*
G01X980050Y840400D03*
D32*
G01X980050Y830400D03*
D32*
G01X757550Y415400D03*
D32*
G01X757550Y405400D03*
D32*
G01X930050Y840400D03*
D32*
G01X930050Y830400D03*
D32*
G01X915050Y840400D03*
D32*
G01X915050Y830400D03*
D32*
G01X830050Y515400D03*
D32*
G01X830050Y505400D03*
D32*
G01X795050Y970400D03*
D32*
G01X795050Y980400D03*
D32*
G01X1235050Y725400D03*
D32*
G01X1235050Y735400D03*
D32*
G01X310050Y802900D03*
D32*
G01X310050Y792900D03*
D32*
G01X665050Y470400D03*
D32*
G01X665050Y480400D03*
D32*
G01X635050Y505400D03*
D32*
G01X635050Y515400D03*
D32*
G01X415050Y935400D03*
D32*
G01X415050Y945400D03*
D32*
G01X830050Y475400D03*
D32*
G01X830050Y485400D03*
D22*
D22*
G01X1640050Y1060400D03*
D23*
D23*
G01X1640050Y1110400D03*
D22*
D22*
G01X1760050Y1060400D03*
D23*
D23*
G01X1760050Y1110400D03*
D22*
D22*
G01X1685050Y1000400D03*
D23*
D23*
G01X1685050Y1050400D03*
D22*
D22*
G01X1700050Y1000400D03*
D23*
D23*
G01X1700050Y1050400D03*
D22*
D22*
G01X1745050Y1060400D03*
D23*
D23*
G01X1745050Y1110400D03*
D32*
D32*
G01X1680050Y635400D03*
D32*
G01X1680050Y645400D03*
D32*
G01X185050Y1122900D03*
D32*
G01X185050Y1112900D03*
D32*
G01X355050Y975400D03*
D32*
G01X355050Y985400D03*
D33*
D33*
G01X1140050Y527600D03*
D33*
G01X1140050Y513100D03*
D33*
G01X885050Y687600D03*
D33*
G01X885050Y673100D03*
D33*
G01X895050Y737600D03*
D33*
G01X895050Y723100D03*
D33*
G01X1572550Y523200D03*
D33*
G01X1572550Y537700D03*
D33*
G01X880050Y782600D03*
D33*
G01X880050Y768100D03*
D33*
G01X995050Y772600D03*
D33*
G01X995050Y758100D03*
D33*
G01X1620050Y727600D03*
D33*
G01X1620050Y713100D03*
D32*
D32*
G01X1612550Y545400D03*
D32*
G01X1612550Y535400D03*
D22*
D22*
G01X1165050Y1065400D03*
D23*
D23*
G01X1165050Y1115400D03*
D22*
D22*
G01X1050050Y1065400D03*
D23*
D23*
G01X1050050Y1115400D03*
D22*
D22*
G01X1215050Y1065400D03*
D23*
D23*
G01X1215050Y1115400D03*
D22*
D22*
G01X1190050Y1065400D03*
D23*
D23*
G01X1190050Y1115400D03*
D22*
D22*
G01X1730050Y1000400D03*
D23*
D23*
G01X1730050Y1050400D03*
D33*
D33*
G01X1175050Y839200D03*
D33*
G01X1175050Y853700D03*
D32*
D32*
G01X295050Y905400D03*
D32*
G01X295050Y895400D03*
D32*
G01X1580050Y562900D03*
D32*
G01X1580050Y552900D03*
D32*
G01X1357050Y775400D03*
D32*
G01X1357050Y785400D03*
D33*
D33*
G01X295050Y1110100D03*
D33*
G01X295050Y1095600D03*
D33*
G01X1620050Y787600D03*
D33*
G01X1620050Y773100D03*
D32*
D32*
G01X865050Y455400D03*
D32*
G01X865050Y445400D03*
D15*
D15*
G01X64050Y635100D03*
D15*
G01X471350Y182400D03*
D15*
G01X1065850Y182400D03*
D15*
G01X1790250Y700000D03*
D15*
G01X1790250Y999300D03*
D21*
D21*
G01X958450Y1075100D03*
D26*
D26*
G01X1740050Y1220400D03*
D26*
G01X110050Y230400D03*
D26*
G01X1740050Y230400D03*
D26*
G01X110050Y1220400D03*
D36*
D36*
G01X152050Y1044400D03*
D36*
G01X147050Y1054400D03*
D36*
G01X152050Y1064400D03*
D36*
G01X167050Y1069400D03*
D36*
G01X182050Y1064400D03*
D36*
G01X187050Y1054400D03*
D36*
G01X182050Y1044400D03*
D36*
G01X167050Y1039400D03*
D18*
D18*
G01X105050Y760900D03*
D18*
G01X105050Y810900D03*
D18*
G01X105050Y860900D03*
D18*
G01X77550Y462900D03*
D18*
G01X77550Y512900D03*
D18*
G01X77550Y562900D03*
D18*
G01X77550Y612900D03*
D18*
G01X77550Y662900D03*
D18*
G01X77550Y712900D03*
D18*
G01X117550Y190400D03*
D18*
G01X167550Y190400D03*
D18*
G01X217550Y190400D03*
D18*
G01X267550Y190400D03*
D18*
G01X317550Y190400D03*
D18*
G01X367550Y190400D03*
D18*
G01X512550Y187900D03*
D18*
G01X562550Y187900D03*
D18*
G01X612550Y187900D03*
D18*
G01X662550Y187900D03*
D18*
G01X712550Y187900D03*
D18*
G01X762550Y187900D03*
D18*
G01X70050Y220400D03*
D18*
G01X70050Y270400D03*
D18*
G01X70050Y320400D03*
D18*
G01X70050Y370400D03*
D18*
G01X70050Y420400D03*
D18*
G01X70050Y470400D03*
D18*
G01X785050Y187900D03*
D18*
G01X835050Y187900D03*
D18*
G01X885050Y187900D03*
D18*
G01X935050Y187900D03*
D18*
G01X985050Y187900D03*
D18*
G01X1035050Y187900D03*
D18*
G01X1115050Y187900D03*
D18*
G01X1165050Y187900D03*
D18*
G01X1215050Y187900D03*
D18*
G01X1265050Y187900D03*
D18*
G01X1315050Y187900D03*
D18*
G01X1365050Y187900D03*
D18*
G01X1465050Y467900D03*
D18*
G01X1465050Y417900D03*
D18*
G01X1465050Y367900D03*
D18*
G01X1465050Y317900D03*
D18*
G01X1465050Y267900D03*
D18*
G01X1465050Y217900D03*
D18*
G01X1730050Y490400D03*
D18*
G01X1680050Y490400D03*
D18*
G01X1630050Y490400D03*
D18*
G01X1580050Y490400D03*
D18*
G01X1530050Y490400D03*
D18*
G01X1480050Y490400D03*
D18*
G01X1780550Y826900D03*
D18*
G01X1780550Y776900D03*
D18*
G01X1780550Y726900D03*
D18*
G01X1780550Y676900D03*
D18*
G01X1780550Y626900D03*
D18*
G01X1780550Y576900D03*
D18*
G01X1780050Y1067900D03*
D18*
G01X1780050Y1017900D03*
D18*
G01X1780050Y967900D03*
D18*
G01X1780050Y917900D03*
D18*
G01X1780050Y867900D03*
D18*
G01X1780050Y817900D03*
D17*
D17*
G01X1740050Y847900D03*
D18*
D18*
G01X1670050Y847900D03*
D22*
D22*
G01X935050Y395400D03*
D23*
D23*
G01X935050Y345400D03*
D22*
D22*
G01X230050Y815400D03*
D23*
D23*
G01X180050Y815400D03*
D22*
D22*
G01X230050Y800400D03*
D23*
D23*
G01X180050Y800400D03*
D22*
D22*
G01X230050Y785400D03*
D23*
D23*
G01X180050Y785400D03*
D22*
D22*
G01X230050Y770400D03*
D23*
D23*
G01X180050Y770400D03*
D22*
D22*
G01X235050Y1050400D03*
D23*
D23*
G01X235050Y1100400D03*
D22*
D22*
G01X520050Y420400D03*
D23*
D23*
G01X470050Y420400D03*
D22*
D22*
G01X1020050Y690400D03*
D23*
D23*
G01X970050Y690400D03*
D22*
D22*
G01X625050Y1010400D03*
D23*
D23*
G01X625050Y960400D03*
D22*
D22*
G01X287550Y242900D03*
D23*
D23*
G01X237550Y242900D03*
D22*
D22*
G01X1330050Y730400D03*
D23*
D23*
G01X1330050Y780400D03*
D22*
D22*
G01X417550Y750400D03*
D23*
D23*
G01X367550Y750400D03*
D22*
D22*
G01X855050Y595400D03*
D23*
D23*
G01X805050Y595400D03*
D22*
D22*
G01X1027550Y865400D03*
D23*
D23*
G01X1077550Y865400D03*
D22*
D22*
G01X737550Y622900D03*
D23*
D23*
G01X787550Y622900D03*
D22*
D22*
G01X1695050Y825400D03*
D23*
D23*
G01X1695050Y775400D03*
D22*
D22*
G01X1670050Y1060400D03*
D23*
D23*
G01X1670050Y1110400D03*
D22*
D22*
G01X1655050Y1060400D03*
D23*
D23*
G01X1655050Y1110400D03*
D22*
D22*
G01X1640050Y1000400D03*
D23*
D23*
G01X1640050Y1050400D03*
D22*
D22*
G01X1760050Y1000400D03*
D23*
D23*
G01X1760050Y1050400D03*
D22*
D22*
G01X1715050Y1000400D03*
D23*
D23*
G01X1715050Y1050400D03*
D22*
D22*
G01X1745050Y1000400D03*
D23*
D23*
G01X1745050Y1050400D03*
D22*
D22*
G01X1640050Y940400D03*
D23*
D23*
G01X1640050Y990400D03*
D22*
D22*
G01X1670050Y1000400D03*
D23*
D23*
G01X1670050Y1050400D03*
D22*
D22*
G01X1655050Y1000400D03*
D23*
D23*
G01X1655050Y1050400D03*
D22*
D22*
G01X1480050Y1125400D03*
D23*
D23*
G01X1480050Y1075400D03*
D22*
D22*
G01X1500050Y1075400D03*
D23*
D23*
G01X1500050Y1125400D03*
D22*
D22*
G01X1520050Y1075400D03*
D23*
D23*
G01X1520050Y1125400D03*
D22*
D22*
G01X1610050Y1075400D03*
D23*
D23*
G01X1610050Y1125400D03*
D22*
D22*
G01X1595050Y1075400D03*
D23*
D23*
G01X1595050Y1125400D03*
D22*
D22*
G01X1625050Y1075400D03*
D23*
D23*
G01X1625050Y1125400D03*
D22*
D22*
G01X575050Y842900D03*
D23*
D23*
G01X625050Y842900D03*
D33*
D33*
G01X970050Y817600D03*
D33*
G01X970050Y803100D03*
D17*
D17*
G01X750050Y1090400D03*
D18*
D18*
G01X750050Y1100400D03*
D18*
G01X750050Y1110400D03*
D17*
D17*
G01X645050Y1090400D03*
D18*
D18*
G01X645050Y1100400D03*
D18*
G01X645050Y1110400D03*
D32*
D32*
G01X512550Y500400D03*
D32*
G01X512550Y510400D03*
D32*
G01X1205050Y530400D03*
D32*
G01X1205050Y520400D03*
D33*
D33*
G01X280050Y833200D03*
D33*
G01X280050Y847700D03*
D32*
D32*
G01X1540050Y542900D03*
D32*
G01X1540050Y532900D03*
D32*
G01X655050Y920400D03*
D32*
G01X655050Y930400D03*
D32*
G01X702550Y410400D03*
D32*
G01X702550Y420400D03*
D32*
G01X1495050Y845400D03*
D32*
G01X1495050Y855400D03*
D33*
D33*
G01X715050Y283200D03*
D33*
G01X715050Y297700D03*
D33*
G01X715050Y343200D03*
D33*
G01X715050Y357700D03*
D33*
G01X702550Y263200D03*
D33*
G01X702550Y277700D03*
D32*
D32*
G01X1635050Y650400D03*
D32*
G01X1635050Y640400D03*
D17*
D17*
G01X1765050Y925400D03*
D18*
D18*
G01X1765050Y965400D03*
D33*
D33*
G01X1642550Y913200D03*
D33*
G01X1642550Y927700D03*
D33*
G01X1635050Y860100D03*
D33*
G01X1635050Y845600D03*
D32*
D32*
G01X1432550Y915400D03*
D32*
G01X1432550Y925400D03*
D32*
G01X1422550Y915400D03*
D32*
G01X1422550Y925400D03*
D32*
G01X1455050Y925400D03*
D32*
G01X1455050Y915400D03*
D32*
G01X1412550Y947900D03*
D32*
G01X1412550Y957900D03*
D32*
G01X1762550Y987900D03*
D32*
G01X1762550Y977900D03*
D32*
G01X1625050Y1025400D03*
D32*
G01X1625050Y1015400D03*
D32*
G01X1750050Y987900D03*
D32*
G01X1750050Y977900D03*
D32*
G01X1625050Y1050400D03*
D32*
G01X1625050Y1040400D03*
D32*
G01X1670050Y1085400D03*
D32*
G01X1670050Y1075400D03*
D32*
G01X1655050Y1085400D03*
D32*
G01X1655050Y1075400D03*
D32*
G01X1640050Y1025400D03*
D32*
G01X1640050Y1015400D03*
D32*
G01X1760050Y1025400D03*
D32*
G01X1760050Y1015400D03*
D32*
G01X1715050Y1025400D03*
D32*
G01X1715050Y1015400D03*
D32*
G01X1745050Y1025400D03*
D32*
G01X1745050Y1015400D03*
D32*
G01X1640050Y965400D03*
D32*
G01X1640050Y955400D03*
D32*
G01X1670050Y1025400D03*
D32*
G01X1670050Y1015400D03*
D32*
G01X1655050Y1025400D03*
D32*
G01X1655050Y1015400D03*
D32*
G01X1495050Y815400D03*
D32*
G01X1495050Y825400D03*
D32*
G01X1490050Y1082900D03*
D32*
G01X1490050Y1072900D03*
D32*
G01X1490050Y1052900D03*
D32*
G01X1490050Y1042900D03*
D32*
G01X1470050Y1042900D03*
D32*
G01X1470050Y1052900D03*
D32*
G01X1470050Y1022900D03*
D32*
G01X1470050Y1012900D03*
D32*
G01X1457550Y1012900D03*
D32*
G01X1457550Y1022900D03*
D32*
G01X1490050Y1022900D03*
D32*
G01X1490050Y1012900D03*
D33*
D33*
G01X1557550Y1020100D03*
D33*
G01X1557550Y1005600D03*
D32*
D32*
G01X1515050Y932900D03*
D32*
G01X1515050Y922900D03*
D32*
G01X1540050Y922900D03*
D32*
G01X1540050Y932900D03*
D32*
G01X1530050Y932900D03*
D32*
G01X1530050Y922900D03*
D32*
G01X1502550Y947900D03*
D32*
G01X1502550Y957900D03*
D32*
G01X1437550Y997900D03*
D32*
G01X1437550Y987900D03*
D17*
D17*
G01X1720050Y965400D03*
D18*
D18*
G01X1660050Y965400D03*
D17*
D17*
G01X1622550Y930400D03*
D18*
D18*
G01X1622550Y870400D03*
D17*
D17*
G01X1415050Y1022900D03*
D18*
D18*
G01X1355050Y1022900D03*
D22*
D22*
G01X1557550Y992900D03*
D23*
D23*
G01X1557550Y1087900D03*
D17*
D17*
G01X1590050Y985400D03*
D18*
D18*
G01X1590050Y1065400D03*
D17*
D17*
G01X1617550Y985400D03*
D18*
D18*
G01X1617550Y1065400D03*
D17*
D17*
G01X1555050Y912900D03*
D18*
D18*
G01X1555050Y982900D03*
D17*
D17*
G01X1500050Y912900D03*
D18*
D18*
G01X1500050Y982900D03*
D17*
D17*
G01X1392550Y1052900D03*
D18*
D18*
G01X1392550Y1092900D03*
D37*
D37*
G01X1640050Y874200D03*
D37*
G01X1640050Y891600D03*
D37*
G01X1652550Y861600D03*
D37*
G01X1652550Y844200D03*
D32*
D32*
G01X1672550Y927900D03*
D32*
G01X1672550Y937900D03*
D32*
G01X1685050Y927900D03*
D32*
G01X1685050Y937900D03*
D32*
G01X1445050Y925400D03*
D32*
G01X1445050Y915400D03*
D32*
G01X1465050Y1097900D03*
D32*
G01X1465050Y1107900D03*
D32*
G01X1477550Y990400D03*
D32*
G01X1477550Y1000400D03*
D32*
G01X1585050Y1057900D03*
D32*
G01X1585050Y1047900D03*
D32*
G01X1610050Y1057900D03*
D32*
G01X1610050Y1047900D03*
D33*
D33*
G01X1765050Y912600D03*
D33*
G01X1765050Y898100D03*
D33*
G01X1682550Y910100D03*
D33*
G01X1682550Y895600D03*
D38*
D38*
G01X1660050Y888300D03*
D38*
G01X1660050Y877500D03*
D38*
G01X1660050Y902500D03*
D38*
G01X1660050Y913300D03*
D38*
G01X1690050Y883300D03*
D38*
G01X1690050Y872500D03*
D38*
G01X1672550Y868300D03*
D38*
G01X1672550Y857500D03*
D33*
D33*
G01X1660050Y930700D03*
D33*
G01X1660050Y945200D03*
D38*
D38*
G01X1467550Y1085800D03*
D38*
G01X1467550Y1075000D03*
D38*
G01X1512550Y1060800D03*
D38*
G01X1512550Y1050000D03*
D38*
G01X1457550Y990000D03*
D38*
G01X1457550Y1000800D03*
D38*
G01X1520050Y1027500D03*
D38*
G01X1520050Y1038300D03*
D33*
D33*
G01X1542550Y1005700D03*
D33*
G01X1542550Y1020200D03*
D38*
D38*
G01X1622550Y907500D03*
D38*
G01X1622550Y918300D03*
D38*
G01X1540050Y900000D03*
D38*
G01X1540050Y910800D03*
D32*
D32*
G01X1535050Y967900D03*
D32*
G01X1535050Y977900D03*
D32*
G01X1512550Y967900D03*
D32*
G01X1512550Y977900D03*
D17*
D17*
G01X1412550Y937900D03*
D18*
D18*
G01X1412550Y1007900D03*
D32*
D32*
G01X1502550Y922900D03*
D32*
G01X1502550Y932900D03*
D17*
D17*
G01X1655050Y985400D03*
D18*
D18*
G01X1665050Y985400D03*
D18*
G01X1675050Y985400D03*
D18*
G01X1685050Y985400D03*
D18*
G01X1695050Y985400D03*
D18*
G01X1705050Y985400D03*
D18*
G01X1715050Y985400D03*
D18*
G01X1725050Y985400D03*
D18*
G01X1735050Y985400D03*
D32*
D32*
G01X1042550Y410400D03*
D32*
G01X1042550Y420400D03*
D32*
G01X1027550Y410400D03*
D32*
G01X1027550Y420400D03*
D32*
G01X615050Y995400D03*
D32*
G01X615050Y985400D03*
D32*
G01X832550Y415400D03*
D32*
G01X832550Y405400D03*
D32*
G01X1715050Y927900D03*
D32*
G01X1715050Y937900D03*
D32*
G01X1057550Y420400D03*
D32*
G01X1057550Y430400D03*
D17*
D17*
G01X1377550Y1010400D03*
D18*
D18*
G01X1377550Y1000400D03*
D18*
G01X1377550Y990400D03*
D17*
D17*
G01X1525050Y985400D03*
D18*
D18*
G01X1525050Y1065400D03*
D17*
D17*
G01X1545050Y845400D03*
D18*
D18*
G01X1625050Y845400D03*
D32*
D32*
G01X870050Y390400D03*
D32*
G01X870050Y380400D03*
D33*
D33*
G01X1520050Y1015100D03*
D33*
G01X1520050Y1000600D03*
D32*
D32*
G01X442550Y385400D03*
D32*
G01X442550Y375400D03*
D18*
D18*
G01X1510050Y405400D03*
D18*
G01X1520050Y405400D03*
D18*
G01X1530050Y405400D03*
D18*
G01X1540050Y405400D03*
D18*
G01X1540050Y415400D03*
D18*
G01X1530050Y415400D03*
D18*
G01X1520050Y415400D03*
D18*
G01X1510050Y415400D03*
D18*
G01X1510050Y425400D03*
D18*
G01X1520050Y425400D03*
D18*
G01X1530050Y425400D03*
D18*
G01X1540050Y425400D03*
D18*
G01X1550050Y405400D03*
D18*
G01X1560050Y405400D03*
D18*
G01X1570050Y405400D03*
D18*
G01X1580050Y405400D03*
D18*
G01X1580050Y415400D03*
D18*
G01X1570050Y415400D03*
D18*
G01X1560050Y415400D03*
D18*
G01X1550050Y415400D03*
D18*
G01X1550050Y425400D03*
D18*
G01X1560050Y425400D03*
D18*
G01X1570050Y425400D03*
D18*
G01X1580050Y425400D03*
D18*
G01X1590050Y405400D03*
D18*
G01X1600050Y405400D03*
D18*
G01X1610050Y405400D03*
D18*
G01X1620050Y405400D03*
D18*
G01X1620050Y415400D03*
D18*
G01X1610050Y415400D03*
D18*
G01X1600050Y415400D03*
D18*
G01X1590050Y415400D03*
D18*
G01X1590050Y425400D03*
D18*
G01X1600050Y425400D03*
D18*
G01X1610050Y425400D03*
D18*
G01X1620050Y425400D03*
D18*
G01X1630050Y405400D03*
D18*
G01X1640050Y405400D03*
D18*
G01X1650050Y405400D03*
D18*
G01X1660050Y405400D03*
D18*
G01X1660050Y415400D03*
D18*
G01X1650050Y415400D03*
D18*
G01X1640050Y415400D03*
D18*
G01X1630050Y415400D03*
D18*
G01X1630050Y425400D03*
D18*
G01X1640050Y425400D03*
D18*
G01X1650050Y425400D03*
D18*
G01X1660050Y425400D03*
D18*
G01X1670050Y405400D03*
D18*
G01X1680050Y405400D03*
D18*
G01X1690050Y405400D03*
D18*
G01X1700050Y405400D03*
D18*
G01X1700050Y415400D03*
D18*
G01X1690050Y415400D03*
D18*
G01X1680050Y415400D03*
D18*
G01X1670050Y415400D03*
D18*
G01X1670050Y425400D03*
D18*
G01X1680050Y425400D03*
D18*
G01X1690050Y425400D03*
D18*
G01X1700050Y425400D03*
D18*
G01X1710050Y405400D03*
D18*
G01X1720050Y405400D03*
D18*
G01X1730050Y405400D03*
D18*
G01X1740050Y405400D03*
D18*
G01X1740050Y415400D03*
D18*
G01X1730050Y415400D03*
D18*
G01X1720050Y415400D03*
D18*
G01X1710050Y415400D03*
D18*
G01X1710050Y425400D03*
D18*
G01X1720050Y425400D03*
D18*
G01X1730050Y425400D03*
D18*
G01X1740050Y425400D03*
D18*
G01X1750050Y405400D03*
D18*
G01X1760050Y405400D03*
D18*
G01X1770050Y405400D03*
D18*
G01X1780050Y405400D03*
D18*
G01X1780050Y415400D03*
D18*
G01X1770050Y415400D03*
D18*
G01X1760050Y415400D03*
D18*
G01X1750050Y415400D03*
D18*
G01X1750050Y425400D03*
D18*
G01X1760050Y425400D03*
D18*
G01X1770050Y425400D03*
D18*
G01X1780050Y425400D03*
D18*
G01X1510050Y375400D03*
D18*
G01X1520050Y375400D03*
D18*
G01X1530050Y375400D03*
D18*
G01X1540050Y375400D03*
D18*
G01X1540050Y385400D03*
D18*
G01X1530050Y385400D03*
D18*
G01X1520050Y385400D03*
D18*
G01X1510050Y385400D03*
D18*
G01X1510050Y395400D03*
D18*
G01X1520050Y395400D03*
D18*
G01X1530050Y395400D03*
D18*
G01X1540050Y395400D03*
D18*
G01X1550050Y375400D03*
D18*
G01X1560050Y375400D03*
D18*
G01X1570050Y375400D03*
D18*
G01X1580050Y375400D03*
D18*
G01X1580050Y385400D03*
D18*
G01X1570050Y385400D03*
D18*
G01X1560050Y385400D03*
D18*
G01X1550050Y385400D03*
D18*
G01X1550050Y395400D03*
D18*
G01X1560050Y395400D03*
D18*
G01X1570050Y395400D03*
D18*
G01X1580050Y395400D03*
D18*
G01X1590050Y375400D03*
D18*
G01X1600050Y375400D03*
D18*
G01X1610050Y375400D03*
D18*
G01X1620050Y375400D03*
D18*
G01X1620050Y385400D03*
D18*
G01X1610050Y385400D03*
D18*
G01X1600050Y385400D03*
D18*
G01X1590050Y385400D03*
D18*
G01X1590050Y395400D03*
D18*
G01X1600050Y395400D03*
D18*
G01X1610050Y395400D03*
D18*
G01X1620050Y395400D03*
D18*
G01X1630050Y375400D03*
D18*
G01X1640050Y375400D03*
D18*
G01X1650050Y375400D03*
D18*
G01X1660050Y375400D03*
D18*
G01X1660050Y385400D03*
D18*
G01X1650050Y385400D03*
D18*
G01X1640050Y385400D03*
D18*
G01X1630050Y385400D03*
D18*
G01X1630050Y395400D03*
D18*
G01X1640050Y395400D03*
D18*
G01X1650050Y395400D03*
D18*
G01X1660050Y395400D03*
D18*
G01X1670050Y375400D03*
D18*
G01X1680050Y375400D03*
D18*
G01X1690050Y375400D03*
D18*
G01X1700050Y375400D03*
D18*
G01X1700050Y385400D03*
D18*
G01X1690050Y385400D03*
D18*
G01X1680050Y385400D03*
D18*
G01X1670050Y385400D03*
D18*
G01X1670050Y395400D03*
D18*
G01X1680050Y395400D03*
D18*
G01X1690050Y395400D03*
D18*
G01X1700050Y395400D03*
D18*
G01X1710050Y375400D03*
D18*
G01X1720050Y375400D03*
D18*
G01X1730050Y375400D03*
D18*
G01X1740050Y375400D03*
D18*
G01X1740050Y385400D03*
D18*
G01X1730050Y385400D03*
D18*
G01X1720050Y385400D03*
D18*
G01X1710050Y385400D03*
D18*
G01X1710050Y395400D03*
D18*
G01X1720050Y395400D03*
D18*
G01X1730050Y395400D03*
D18*
G01X1740050Y395400D03*
D18*
G01X1750050Y375400D03*
D18*
G01X1760050Y375400D03*
D18*
G01X1770050Y375400D03*
D18*
G01X1780050Y375400D03*
D18*
G01X1780050Y385400D03*
D18*
G01X1770050Y385400D03*
D18*
G01X1760050Y385400D03*
D18*
G01X1750050Y385400D03*
D18*
G01X1750050Y395400D03*
D18*
G01X1760050Y395400D03*
D18*
G01X1770050Y395400D03*
D18*
G01X1780050Y395400D03*
D18*
G01X1510050Y345400D03*
D18*
G01X1520050Y345400D03*
D18*
G01X1530050Y345400D03*
D18*
G01X1540050Y345400D03*
D18*
G01X1540050Y355400D03*
D18*
G01X1530050Y355400D03*
D18*
G01X1520050Y355400D03*
D18*
G01X1510050Y355400D03*
D18*
G01X1510050Y365400D03*
D18*
G01X1520050Y365400D03*
D18*
G01X1530050Y365400D03*
D18*
G01X1540050Y365400D03*
D18*
G01X1550050Y345400D03*
D18*
G01X1560050Y345400D03*
D18*
G01X1570050Y345400D03*
D18*
G01X1580050Y345400D03*
D18*
G01X1580050Y355400D03*
D18*
G01X1570050Y355400D03*
D18*
G01X1560050Y355400D03*
D18*
G01X1550050Y355400D03*
D18*
G01X1550050Y365400D03*
D18*
G01X1560050Y365400D03*
D18*
G01X1570050Y365400D03*
D18*
G01X1580050Y365400D03*
D18*
G01X1590050Y345400D03*
D18*
G01X1600050Y345400D03*
D18*
G01X1610050Y345400D03*
D18*
G01X1620050Y345400D03*
D18*
G01X1620050Y355400D03*
D18*
G01X1610050Y355400D03*
D18*
G01X1600050Y355400D03*
D18*
G01X1590050Y355400D03*
D18*
G01X1590050Y365400D03*
D18*
G01X1600050Y365400D03*
D18*
G01X1610050Y365400D03*
D18*
G01X1620050Y365400D03*
D18*
G01X1630050Y345400D03*
D18*
G01X1640050Y345400D03*
D18*
G01X1650050Y345400D03*
D18*
G01X1660050Y345400D03*
D18*
G01X1660050Y355400D03*
D18*
G01X1650050Y355400D03*
D18*
G01X1640050Y355400D03*
D18*
G01X1630050Y355400D03*
D18*
G01X1630050Y365400D03*
D18*
G01X1640050Y365400D03*
D18*
G01X1650050Y365400D03*
D18*
G01X1660050Y365400D03*
D18*
G01X1670050Y345400D03*
D18*
G01X1680050Y345400D03*
D18*
G01X1690050Y345400D03*
D18*
G01X1700050Y345400D03*
D18*
G01X1700050Y355400D03*
D18*
G01X1690050Y355400D03*
D18*
G01X1680050Y355400D03*
D18*
G01X1670050Y355400D03*
D18*
G01X1670050Y365400D03*
D18*
G01X1680050Y365400D03*
D18*
G01X1690050Y365400D03*
D18*
G01X1700050Y365400D03*
D18*
G01X1710050Y345400D03*
D18*
G01X1720050Y345400D03*
D18*
G01X1730050Y345400D03*
D18*
G01X1740050Y345400D03*
D18*
G01X1740050Y355400D03*
D18*
G01X1730050Y355400D03*
D18*
G01X1720050Y355400D03*
D18*
G01X1710050Y355400D03*
D18*
G01X1710050Y365400D03*
D18*
G01X1720050Y365400D03*
D18*
G01X1730050Y365400D03*
D18*
G01X1740050Y365400D03*
D18*
G01X1750050Y345400D03*
D18*
G01X1760050Y345400D03*
D18*
G01X1770050Y345400D03*
D18*
G01X1780050Y345400D03*
D18*
G01X1780050Y355400D03*
D18*
G01X1770050Y355400D03*
D18*
G01X1760050Y355400D03*
D18*
G01X1750050Y355400D03*
D18*
G01X1750050Y365400D03*
D18*
G01X1760050Y365400D03*
D18*
G01X1770050Y365400D03*
D18*
G01X1780050Y365400D03*
D18*
G01X1510050Y315400D03*
D18*
G01X1520050Y315400D03*
D18*
G01X1530050Y315400D03*
D18*
G01X1540050Y315400D03*
D18*
G01X1540050Y325400D03*
D18*
G01X1530050Y325400D03*
D18*
G01X1520050Y325400D03*
D18*
G01X1510050Y325400D03*
D18*
G01X1510050Y335400D03*
D18*
G01X1520050Y335400D03*
D18*
G01X1530050Y335400D03*
D18*
G01X1540050Y335400D03*
D18*
G01X1550050Y315400D03*
D18*
G01X1560050Y315400D03*
D18*
G01X1570050Y315400D03*
D18*
G01X1580050Y315400D03*
D18*
G01X1580050Y325400D03*
D18*
G01X1570050Y325400D03*
D18*
G01X1560050Y325400D03*
D18*
G01X1550050Y325400D03*
D18*
G01X1550050Y335400D03*
D18*
G01X1560050Y335400D03*
D18*
G01X1570050Y335400D03*
D18*
G01X1580050Y335400D03*
D18*
G01X1590050Y315400D03*
D18*
G01X1600050Y315400D03*
D18*
G01X1610050Y315400D03*
D18*
G01X1620050Y315400D03*
D18*
G01X1620050Y325400D03*
D18*
G01X1610050Y325400D03*
D18*
G01X1600050Y325400D03*
D18*
G01X1590050Y325400D03*
D18*
G01X1590050Y335400D03*
D18*
G01X1600050Y335400D03*
D18*
G01X1610050Y335400D03*
D18*
G01X1620050Y335400D03*
D18*
G01X1630050Y315400D03*
D18*
G01X1640050Y315400D03*
D18*
G01X1650050Y315400D03*
D18*
G01X1660050Y315400D03*
D18*
G01X1660050Y325400D03*
D18*
G01X1650050Y325400D03*
D18*
G01X1640050Y325400D03*
D18*
G01X1630050Y325400D03*
D18*
G01X1630050Y335400D03*
D18*
G01X1640050Y335400D03*
D18*
G01X1650050Y335400D03*
D18*
G01X1660050Y335400D03*
D18*
G01X1670050Y315400D03*
D18*
G01X1680050Y315400D03*
D18*
G01X1690050Y315400D03*
D18*
G01X1700050Y315400D03*
D18*
G01X1700050Y325400D03*
D18*
G01X1690050Y325400D03*
D18*
G01X1680050Y325400D03*
D18*
G01X1670050Y325400D03*
D18*
G01X1670050Y335400D03*
D18*
G01X1680050Y335400D03*
D18*
G01X1690050Y335400D03*
D18*
G01X1700050Y335400D03*
D18*
G01X1710050Y315400D03*
D18*
G01X1720050Y315400D03*
D18*
G01X1730050Y315400D03*
D18*
G01X1740050Y315400D03*
D18*
G01X1740050Y325400D03*
D18*
G01X1730050Y325400D03*
D18*
G01X1720050Y325400D03*
D18*
G01X1710050Y325400D03*
D18*
G01X1710050Y335400D03*
D18*
G01X1720050Y335400D03*
D18*
G01X1730050Y335400D03*
D18*
G01X1740050Y335400D03*
D18*
G01X1750050Y315400D03*
D18*
G01X1760050Y315400D03*
D18*
G01X1770050Y315400D03*
D18*
G01X1780050Y315400D03*
D18*
G01X1780050Y325400D03*
D18*
G01X1770050Y325400D03*
D18*
G01X1760050Y325400D03*
D18*
G01X1750050Y325400D03*
D18*
G01X1750050Y335400D03*
D18*
G01X1760050Y335400D03*
D18*
G01X1770050Y335400D03*
D18*
G01X1780050Y335400D03*
D32*
D32*
G01X765050Y502900D03*
D32*
G01X765050Y512900D03*
D33*
D33*
G01X1155050Y885100D03*
D33*
G01X1155050Y870600D03*
D15*
D15*
G01X1305050Y345400D03*
D39*
D39*
G01X160350Y715500D03*
D39*
G01X171650Y730700D03*
D39*
G01X171650Y698900D03*
D39*
G01X186350Y700100D03*
D39*
G01X188050Y728400D03*
D39*
G01X688150Y1041500D03*
D39*
G01X680050Y1026500D03*
D39*
G01X699250Y1011000D03*
D39*
G01X713450Y1017700D03*
D39*
G01X706050Y1042100D03*
D39*
G01X685150Y1015400D03*
D39*
G01X746850Y1029600D03*
D39*
G01X731350Y1053400D03*
D39*
G01X742550Y1062200D03*
D39*
G01X759650Y1060800D03*
D39*
G01X735050Y1035500D03*
D39*
G01X761050Y1033300D03*
D39*
G01X766950Y1046600D03*
D39*
G01X668050Y719300D03*
D39*
G01X670250Y705100D03*
D39*
G01X684850Y731500D03*
D39*
G01X695150Y702000D03*
D39*
G01X696350Y728300D03*
D39*
G01X729750Y750200D03*
D39*
G01X743550Y750800D03*
D39*
G01X744250Y722000D03*
D39*
G01X731750Y721900D03*
D39*
G01X1069350Y748400D03*
D39*
G01X1082150Y750500D03*
D39*
G01X1063350Y734600D03*
D39*
G01X1069250Y723800D03*
D39*
G01X1082050Y720800D03*
D39*
G01X1098850Y735700D03*
D39*
G01X1061650Y1041900D03*
D39*
G01X1065950Y1057300D03*
D39*
G01X1079650Y1063200D03*
D39*
G01X1094350Y1057000D03*
D39*
G01X1095650Y1037800D03*
D39*
G01X1079250Y1030700D03*
D39*
G01X1115450Y1082300D03*
D39*
G01X1129750Y1081000D03*
D39*
G01X1124250Y1114200D03*
D39*
G01X1101750Y1097700D03*
D39*
G01X1144150Y1098500D03*
D39*
G01X1693750Y1084300D03*
D39*
G01X1699750Y1071300D03*
D39*
G01X1716850Y1069700D03*
D39*
G01X1727050Y1085000D03*
D39*
G01X1718850Y1097600D03*
D39*
G01X1703550Y1097700D03*
D32*
D32*
G01X632550Y375400D03*
D32*
G01X632550Y365400D03*
D32*
G01X652550Y375400D03*
D32*
G01X652550Y365400D03*
D32*
G01X670050Y375400D03*
D32*
G01X670050Y365400D03*
D17*
D17*
G01X1175050Y822900D03*
D18*
D18*
G01X1175050Y742900D03*
D33*
D33*
G01X769650Y486300D03*
D33*
G01X769650Y471800D03*
D39*
D39*
G01X1155050Y900400D03*
D33*
D33*
G01X560050Y325700D03*
D33*
G01X560050Y340200D03*
D40*
D40*
G01X720050Y60400D02*
D40*
G01X720050Y63004D02*
D40*
G01X720050Y72900D01*
D40*
G01X727342Y72900D01*
D40*
G01X728383Y71858D01*
D40*
G01X728383Y69254D01*
D40*
G01X727342Y68212D01*
D40*
G01X720050Y68212D01*
D40*
G01X726300Y68212D02*
D40*
G01X727342Y68212D01*
D40*
G01X728383Y63004D01*
D40*
G01X739841Y63004D02*
D40*
G01X732550Y63004D01*
D40*
G01X732550Y72900D01*
D40*
G01X739841Y72900D01*
D40*
G01X739841Y68212D02*
D40*
G01X732550Y68212D01*
D40*
G01X745050Y72900D02*
D40*
G01X749216Y63004D01*
D40*
G01X753383Y72900D01*
D40*
G01X960050Y80400D02*
D40*
G01X967342Y83004D02*
D40*
G01X960050Y83004D01*
D40*
G01X960050Y92900D01*
D40*
G01X972550Y83004D02*
D40*
G01X976716Y92900D01*
D40*
G01X980883Y83004D01*
D40*
G01X974112Y86650D02*
D40*
G01X979321Y86650D01*
D40*
G01X985050Y92900D02*
D40*
G01X989216Y88212D01*
D40*
G01X993383Y92900D01*
D40*
G01X989216Y88212D02*
D40*
G01X989216Y83004D01*
D40*
G01X1004841Y83004D02*
D40*
G01X997550Y83004D01*
D40*
G01X997550Y92900D01*
D40*
G01X1004841Y92900D01*
D40*
G01X1004841Y88212D02*
D40*
G01X997550Y88212D01*
D40*
G01X1010049Y83004D02*
D40*
G01X1010049Y92900D01*
D40*
G01X1017341Y92900D01*
D40*
G01X1018383Y91858D01*
D40*
G01X1018383Y89254D01*
D40*
G01X1017341Y88212D01*
D40*
G01X1010049Y88212D01*
D40*
G01X1016299Y88212D02*
D40*
G01X1017341Y88212D01*
D40*
G01X1018383Y83004D01*
D40*
G01X960050Y60400D02*
D40*
G01X960050Y64046D02*
D40*
G01X961092Y63004D01*
D40*
G01X966300Y63004D01*
D40*
G01X967342Y64046D01*
D40*
G01X967342Y67171D01*
D40*
G01X966300Y68212D01*
D40*
G01X961092Y68212D01*
D40*
G01X960050Y69254D01*
D40*
G01X960050Y71858D01*
D40*
G01X961092Y72900D01*
D40*
G01X966300Y72900D01*
D40*
G01X967342Y71858D01*
D40*
G01X980883Y64567D02*
D40*
G01X979321Y63004D01*
D40*
G01X974112Y63004D01*
D40*
G01X972550Y64567D01*
D40*
G01X972550Y71337D01*
D40*
G01X974112Y72900D01*
D40*
G01X979321Y72900D01*
D40*
G01X980883Y71337D01*
D40*
G01X980883Y64567D01*
D40*
G01X992341Y63004D02*
D40*
G01X985050Y63004D01*
D40*
G01X985050Y72900D01*
D40*
G01X997550Y72900D02*
D40*
G01X1002758Y72900D01*
D40*
G01X1004841Y71858D01*
D40*
G01X1005883Y69775D01*
D40*
G01X1005883Y66129D01*
D40*
G01X1004841Y64046D01*
D40*
G01X1002758Y63004D01*
D40*
G01X997550Y63004D01*
D40*
G01X999633Y63004D02*
D40*
G01X999633Y72900D01*
D40*
G01X1017341Y63004D02*
D40*
G01X1010049Y63004D01*
D40*
G01X1010049Y72900D01*
D40*
G01X1017341Y72900D01*
D40*
G01X1017341Y68212D02*
D40*
G01X1010049Y68212D01*
D40*
G01X1022549Y63004D02*
D40*
G01X1022549Y72900D01*
D40*
G01X1029841Y72900D01*
D40*
G01X1030883Y71858D01*
D40*
G01X1030883Y69254D01*
D40*
G01X1029841Y68212D01*
D40*
G01X1022549Y68212D01*
D40*
G01X1028799Y68212D02*
D40*
G01X1029841Y68212D01*
D40*
G01X1030883Y63004D01*
D40*
G01X1043382Y60400D02*
D40*
G01X1047549Y64046D02*
D40*
G01X1048591Y63004D01*
D40*
G01X1053799Y63004D01*
D40*
G01X1054841Y64046D01*
D40*
G01X1054841Y67171D01*
D40*
G01X1053799Y68212D01*
D40*
G01X1048591Y68212D01*
D40*
G01X1047549Y69254D01*
D40*
G01X1047549Y71858D01*
D40*
G01X1048591Y72900D01*
D40*
G01X1053799Y72900D01*
D40*
G01X1054841Y71858D01*
D40*
G01X1062132Y63004D02*
D40*
G01X1062132Y72900D01*
D40*
G01X1061090Y63004D02*
D40*
G01X1063174Y63004D01*
D40*
G01X1061090Y72900D02*
D40*
G01X1063174Y72900D01*
D40*
G01X1066299Y72900D02*
D40*
G01X1071507Y72900D01*
D40*
G01X1073590Y71858D01*
D40*
G01X1074632Y69775D01*
D40*
G01X1074632Y66129D01*
D40*
G01X1073590Y64046D01*
D40*
G01X1071507Y63004D01*
D40*
G01X1066299Y63004D01*
D40*
G01X1068382Y63004D02*
D40*
G01X1068382Y72900D01*
D40*
G01X1086090Y63004D02*
D40*
G01X1078799Y63004D01*
D40*
G01X1078799Y72900D01*
D40*
G01X1086090Y72900D01*
D40*
G01X1086090Y68212D02*
D40*
G01X1078799Y68212D01*
D40*
G01X160050Y80400D02*
D40*
G01X165258Y83004D02*
D40*
G01X165258Y92900D01*
D40*
G01X160050Y86650D01*
D40*
G01X167342Y86650D01*
D40*
G01X174373Y83004D02*
D40*
G01X174373Y92900D01*
D40*
G01X173331Y90817D01*
D40*
G01X180623Y83004D02*
D40*
G01X180623Y92900D01*
D40*
G01X179581Y90817D01*
D40*
G01X185050Y84046D02*
D40*
G01X186091Y83004D01*
D40*
G01X191300Y83004D01*
D40*
G01X192341Y84046D01*
D40*
G01X192341Y87692D01*
D40*
G01X191300Y88733D01*
D40*
G01X186091Y88733D01*
D40*
G01X185050Y87692D01*
D40*
G01X185050Y92900D01*
D40*
G01X192341Y92900D01*
D40*
G01X205883Y80400D02*
D40*
G01X210049Y83004D02*
D40*
G01X210049Y92900D01*
D40*
G01X210049Y88212D02*
D40*
G01X210570Y88212D01*
D40*
G01X217341Y92900D01*
D40*
G01X210570Y88212D02*
D40*
G01X217341Y83004D01*
D40*
G01X229841Y83004D02*
D40*
G01X222549Y83004D01*
D40*
G01X222549Y92900D01*
D40*
G01X229841Y92900D01*
D40*
G01X229841Y88212D02*
D40*
G01X222549Y88212D01*
D40*
G01X242341Y83004D02*
D40*
G01X235049Y83004D01*
D40*
G01X235049Y92900D01*
D40*
G01X254841Y83004D02*
D40*
G01X247549Y83004D01*
D40*
G01X247549Y92900D01*
D40*
G01X267340Y83004D02*
D40*
G01X260049Y83004D01*
D40*
G01X260049Y92900D01*
D40*
G01X267340Y92900D01*
D40*
G01X267340Y88212D02*
D40*
G01X260049Y88212D01*
D40*
G01X272549Y83004D02*
D40*
G01X272549Y92900D01*
D40*
G01X279840Y92900D01*
D40*
G01X280882Y91858D01*
D40*
G01X280882Y89254D01*
D40*
G01X279840Y88212D01*
D40*
G01X272549Y88212D01*
D40*
G01X278799Y88212D02*
D40*
G01X279840Y88212D01*
D40*
G01X280882Y83004D01*
D40*
G01X293382Y80400D02*
D40*
G01X297548Y84046D02*
D40*
G01X298590Y83004D01*
D40*
G01X303798Y83004D01*
D40*
G01X304840Y84046D01*
D40*
G01X304840Y87171D01*
D40*
G01X303798Y88212D01*
D40*
G01X298590Y88212D01*
D40*
G01X297548Y89254D01*
D40*
G01X297548Y91858D01*
D40*
G01X298590Y92900D01*
D40*
G01X303798Y92900D01*
D40*
G01X304840Y91858D01*
D40*
G01X310048Y83004D02*
D40*
G01X310048Y92900D01*
D40*
G01X317340Y92900D01*
D40*
G01X318381Y91858D01*
D40*
G01X318381Y89254D01*
D40*
G01X317340Y88212D01*
D40*
G01X310048Y88212D01*
D40*
G01X322548Y83004D02*
D40*
G01X322548Y92900D01*
D40*
G01X329840Y92900D01*
D40*
G01X330881Y91858D01*
D40*
G01X330881Y89254D01*
D40*
G01X329840Y88212D01*
D40*
G01X322548Y88212D01*
D40*
G01X328798Y88212D02*
D40*
G01X329840Y88212D01*
D40*
G01X330881Y83004D01*
D40*
G01X337131Y83004D02*
D40*
G01X337131Y92900D01*
D40*
G01X336089Y83004D02*
D40*
G01X338173Y83004D01*
D40*
G01X336089Y92900D02*
D40*
G01X338173Y92900D01*
D40*
G01X341298Y83004D02*
D40*
G01X341298Y92900D01*
D40*
G01X349631Y83004D01*
D40*
G01X349631Y92900D01*
D40*
G01X357964Y87171D02*
D40*
G01X362131Y87171D01*
D40*
G01X362131Y84046D01*
D40*
G01X361089Y83004D01*
D40*
G01X354839Y83004D01*
D40*
G01X353798Y84046D01*
D40*
G01X353798Y91858D01*
D40*
G01X354839Y92900D01*
D40*
G01X361089Y92900D01*
D40*
G01X362131Y91858D01*
D40*
G01X366297Y84046D02*
D40*
G01X367339Y83004D01*
D40*
G01X372547Y83004D01*
D40*
G01X373589Y84046D01*
D40*
G01X373589Y87171D01*
D40*
G01X372547Y88212D01*
D40*
G01X367339Y88212D01*
D40*
G01X366297Y89254D01*
D40*
G01X366297Y91858D01*
D40*
G01X367339Y92900D01*
D40*
G01X372547Y92900D01*
D40*
G01X373589Y91858D01*
D40*
G01X387131Y80400D02*
D40*
G01X391297Y83004D02*
D40*
G01X391297Y92900D01*
D40*
G01X398589Y92900D01*
D40*
G01X399630Y91858D01*
D40*
G01X399630Y89254D01*
D40*
G01X398589Y88212D01*
D40*
G01X391297Y88212D01*
D40*
G01X397547Y88212D02*
D40*
G01X398589Y88212D01*
D40*
G01X399630Y83004D01*
D40*
G01X412130Y84567D02*
D40*
G01X410568Y83004D01*
D40*
G01X405359Y83004D01*
D40*
G01X403797Y84567D01*
D40*
G01X403797Y91337D01*
D40*
G01X405359Y92900D01*
D40*
G01X410568Y92900D01*
D40*
G01X412130Y91337D01*
D40*
G01X412130Y84567D01*
D40*
G01X416297Y83004D02*
D40*
G01X420463Y92900D01*
D40*
G01X424630Y83004D01*
D40*
G01X417859Y86650D02*
D40*
G01X423068Y86650D01*
D40*
G01X428797Y92900D02*
D40*
G01X434005Y92900D01*
D40*
G01X436088Y91858D01*
D40*
G01X437130Y89775D01*
D40*
G01X437130Y86129D01*
D40*
G01X436088Y84046D01*
D40*
G01X434005Y83004D01*
D40*
G01X428797Y83004D01*
D40*
G01X430880Y83004D02*
D40*
G01X430880Y92900D01*
D40*
G01X449630Y80400D02*
D40*
G01X462130Y80400D02*
D40*
G01X466296Y84046D02*
D40*
G01X467338Y83004D01*
D40*
G01X472546Y83004D01*
D40*
G01X473588Y84046D01*
D40*
G01X473588Y87171D01*
D40*
G01X472546Y88212D01*
D40*
G01X467338Y88212D01*
D40*
G01X466296Y89254D01*
D40*
G01X466296Y91858D01*
D40*
G01X467338Y92900D01*
D40*
G01X472546Y92900D01*
D40*
G01X473588Y91858D01*
D40*
G01X478796Y92900D02*
D40*
G01X478796Y84046D01*
D40*
G01X479838Y83004D01*
D40*
G01X486088Y83004D01*
D40*
G01X487129Y84046D01*
D40*
G01X487129Y92900D01*
D40*
G01X493379Y83004D02*
D40*
G01X493379Y92900D01*
D40*
G01X492337Y83004D02*
D40*
G01X494421Y83004D01*
D40*
G01X492337Y92900D02*
D40*
G01X494421Y92900D01*
D40*
G01X497546Y92900D02*
D40*
G01X505879Y92900D01*
D40*
G01X501712Y92900D02*
D40*
G01X501712Y83004D01*
D40*
G01X517337Y83004D02*
D40*
G01X510046Y83004D01*
D40*
G01X510046Y92900D01*
D40*
G01X517337Y92900D01*
D40*
G01X517337Y88212D02*
D40*
G01X510046Y88212D01*
D40*
G01X530879Y80400D02*
D40*
G01X535045Y91858D02*
D40*
G01X536087Y92900D01*
D40*
G01X541295Y92900D01*
D40*
G01X542337Y91858D01*
D40*
G01X542337Y89775D01*
D40*
G01X541295Y88733D01*
D40*
G01X535045Y83004D01*
D40*
G01X542337Y83004D01*
D40*
G01X554837Y84046D02*
D40*
G01X553795Y83004D01*
D40*
G01X548587Y83004D01*
D40*
G01X547545Y84046D01*
D40*
G01X547545Y91858D01*
D40*
G01X548587Y92900D01*
D40*
G01X553795Y92900D01*
D40*
G01X554837Y91858D01*
D40*
G01X554837Y84046D01*
D40*
G01X547545Y84046D02*
D40*
G01X554837Y91858D01*
D40*
G01X567337Y84046D02*
D40*
G01X566295Y83004D01*
D40*
G01X561087Y83004D01*
D40*
G01X560045Y84046D01*
D40*
G01X560045Y91858D01*
D40*
G01X561087Y92900D01*
D40*
G01X566295Y92900D01*
D40*
G01X567337Y91858D01*
D40*
G01X567337Y84046D01*
D40*
G01X560045Y84046D02*
D40*
G01X567337Y91858D01*
D40*
G01X160050Y110400D02*
D40*
G01X160050Y113004D02*
D40*
G01X164217Y122900D01*
D40*
G01X168383Y113004D01*
D40*
G01X161612Y116650D02*
D40*
G01X166821Y116650D01*
D40*
G01X172550Y122900D02*
D40*
G01X180883Y122900D01*
D40*
G01X176716Y122900D02*
D40*
G01X176716Y113004D01*
D40*
G01X185050Y113004D02*
D40*
G01X189216Y122900D01*
D40*
G01X193383Y113004D01*
D40*
G01X186612Y116650D02*
D40*
G01X191821Y116650D01*
D40*
G01X197550Y113004D02*
D40*
G01X197550Y122900D01*
D40*
G01X204841Y122900D01*
D40*
G01X205883Y121858D01*
D40*
G01X205883Y119254D01*
D40*
G01X204841Y118212D01*
D40*
G01X197550Y118212D01*
D40*
G01X203800Y118212D02*
D40*
G01X204841Y118212D01*
D40*
G01X205883Y113004D01*
D40*
G01X212133Y113004D02*
D40*
G01X212133Y122900D01*
D40*
G01X211091Y113004D02*
D40*
G01X213174Y113004D01*
D40*
G01X211091Y122900D02*
D40*
G01X213174Y122900D01*
D40*
G01X160050Y50400D02*
D40*
G01X160050Y62900D02*
D40*
G01X165258Y62900D01*
D40*
G01X167342Y61858D01*
D40*
G01X168383Y59775D01*
D40*
G01X168383Y56129D01*
D40*
G01X167342Y54046D01*
D40*
G01X165258Y53004D01*
D40*
G01X160050Y53004D01*
D40*
G01X162133Y53004D02*
D40*
G01X162133Y62900D01*
D40*
G01X172550Y53004D02*
D40*
G01X176716Y62900D01*
D40*
G01X180883Y53004D01*
D40*
G01X174112Y56650D02*
D40*
G01X179321Y56650D01*
D40*
G01X192341Y53004D02*
D40*
G01X185050Y53004D01*
D40*
G01X185050Y62900D01*
D40*
G01X204841Y53004D02*
D40*
G01X197550Y53004D01*
D40*
G01X197550Y62900D01*
D40*
G01X210049Y53004D02*
D40*
G01X214216Y62900D01*
D40*
G01X218383Y53004D01*
D40*
G01X211612Y56650D02*
D40*
G01X216820Y56650D01*
D40*
G01X222549Y54046D02*
D40*
G01X223591Y53004D01*
D40*
G01X228799Y53004D01*
D40*
G01X229841Y54046D01*
D40*
G01X229841Y57171D01*
D40*
G01X228799Y58212D01*
D40*
G01X223591Y58212D01*
D40*
G01X222549Y59254D01*
D40*
G01X222549Y61858D01*
D40*
G01X223591Y62900D01*
D40*
G01X228799Y62900D01*
D40*
G01X229841Y61858D01*
D40*
G01X236612Y54046D02*
D40*
G01X236351Y54046D01*
D40*
G01X236351Y54567D01*
D40*
G01X236612Y54567D01*
D40*
G01X236612Y54046D01*
D40*
G01X236612Y53525D01*
D40*
G01X236091Y52483D01*
D40*
G01X249632Y50400D02*
D40*
G01X253799Y62900D02*
D40*
G01X262132Y62900D01*
D40*
G01X257965Y62900D02*
D40*
G01X257965Y53004D01*
D40*
G01X273590Y53004D02*
D40*
G01X266299Y53004D01*
D40*
G01X266299Y62900D01*
D40*
G01X273590Y62900D01*
D40*
G01X273590Y58212D02*
D40*
G01X266299Y58212D01*
D40*
G01X278799Y53004D02*
D40*
G01X287132Y62900D01*
D40*
G01X278799Y62900D02*
D40*
G01X287132Y53004D01*
D40*
G01X291298Y53004D02*
D40*
G01X295465Y62900D01*
D40*
G01X299632Y53004D01*
D40*
G01X292861Y56650D02*
D40*
G01X298069Y56650D01*
D40*
G01X303798Y54046D02*
D40*
G01X304840Y53004D01*
D40*
G01X310048Y53004D01*
D40*
G01X311090Y54046D01*
D40*
G01X311090Y57171D01*
D40*
G01X310048Y58212D01*
D40*
G01X304840Y58212D01*
D40*
G01X303798Y59254D01*
D40*
G01X303798Y61858D01*
D40*
G01X304840Y62900D01*
D40*
G01X310048Y62900D01*
D40*
G01X311090Y61858D01*
D40*
G01X324631Y50400D02*
D40*
G01X328798Y62900D02*
D40*
G01X336090Y62900D01*
D40*
G01X329840Y53004D01*
D40*
G01X341298Y54046D02*
D40*
G01X342339Y53004D01*
D40*
G01X347548Y53004D01*
D40*
G01X348589Y54046D01*
D40*
G01X348589Y57692D01*
D40*
G01X347548Y58733D01*
D40*
G01X342339Y58733D01*
D40*
G01X341298Y57692D01*
D40*
G01X341298Y62900D01*
D40*
G01X348589Y62900D01*
D40*
G01X353798Y61858D02*
D40*
G01X354839Y62900D01*
D40*
G01X360048Y62900D01*
D40*
G01X361089Y61858D01*
D40*
G01X361089Y59775D01*
D40*
G01X360048Y58733D01*
D40*
G01X353798Y53004D01*
D40*
G01X361089Y53004D01*
D40*
G01X371506Y53004D02*
D40*
G01X371506Y62900D01*
D40*
G01X366297Y56650D01*
D40*
G01X373589Y56650D01*
D40*
G01X384006Y53004D02*
D40*
G01X384006Y62900D01*
D40*
G01X378797Y56650D01*
D40*
G01X386089Y56650D01*
D40*
G01X1587550Y440400D02*
D40*
G01X1588592Y448212D02*
D40*
G01X1594842Y448212D01*
D40*
G01X1591717Y445087D02*
D40*
G01X1591717Y451337D01*
D40*
G01X1587550Y442900D02*
D40*
G01X1588592Y450712D02*
D40*
G01X1594842Y450712D01*
D40*
G01X1591717Y447587D02*
D40*
G01X1591717Y453837D01*
D40*
G01X1585050Y442900D02*
D40*
G01X1586092Y450712D02*
D40*
G01X1592342Y450712D01*
D40*
G01X1589217Y447587D02*
D40*
G01X1589217Y453837D01*
D40*
G01X1587550Y435400D02*
D40*
G01X1588592Y443212D02*
D40*
G01X1594842Y443212D01*
D40*
G01X1591717Y440087D02*
D40*
G01X1591717Y446337D01*
D40*
G01X1585050Y442900D02*
D40*
G01X1586092Y450712D02*
D40*
G01X1592342Y450712D01*
D40*
G01X1589217Y447587D02*
D40*
G01X1589217Y453837D01*
D40*
G01X1130050Y237900D02*
D40*
G01X1131092Y245712D02*
D40*
G01X1137342Y245712D01*
D40*
G01X1134217Y242587D02*
D40*
G01X1134217Y248837D01*
D40*
G01X1582550Y440400D02*
D40*
G01X1583592Y448212D02*
D40*
G01X1589842Y448212D01*
D40*
G01X1586717Y445087D02*
D40*
G01X1586717Y451337D01*
D40*
G01X1585050Y440400D02*
D40*
G01X1586092Y448212D02*
D40*
G01X1592342Y448212D01*
D40*
G01X1589217Y445087D02*
D40*
G01X1589217Y451337D01*
D40*
G01X1582550Y440400D02*
D40*
G01X1583592Y448212D02*
D40*
G01X1589842Y448212D01*
D40*
G01X1586717Y445087D02*
D40*
G01X1586717Y451337D01*
D40*
G01X1585050Y440400D02*
D40*
G01X1586092Y448212D02*
D40*
G01X1592342Y448212D01*
D40*
G01X1589217Y445087D02*
D40*
G01X1589217Y451337D01*
D40*
G01X1582550Y440400D02*
D40*
G01X1583592Y448212D02*
D40*
G01X1589842Y448212D01*
D40*
G01X1586717Y445087D02*
D40*
G01X1586717Y451337D01*
D40*
G01X1587550Y440400D02*
D40*
G01X1588592Y448212D02*
D40*
G01X1594842Y448212D01*
D40*
G01X1591717Y445087D02*
D40*
G01X1591717Y451337D01*
D40*
G01X1580050Y440400D02*
D40*
G01X1581092Y448212D02*
D40*
G01X1587342Y448212D01*
D40*
G01X1584217Y445087D02*
D40*
G01X1584217Y451337D01*
D40*
G01X1587550Y440400D02*
D40*
G01X1588592Y448212D02*
D40*
G01X1594842Y448212D01*
D40*
G01X1591717Y445087D02*
D40*
G01X1591717Y451337D01*
D40*
G01X1585050Y440400D02*
D40*
G01X1586092Y448212D02*
D40*
G01X1592342Y448212D01*
D40*
G01X1589217Y445087D02*
D40*
G01X1589217Y451337D01*
D40*
G01X1585050Y437900D02*
D40*
G01X1586092Y445712D02*
D40*
G01X1592342Y445712D01*
D40*
G01X1589217Y442587D02*
D40*
G01X1589217Y448837D01*
D40*
G01X182550Y252900D02*
D40*
G01X183592Y260712D02*
D40*
G01X189842Y260712D01*
D40*
G01X186717Y257587D02*
D40*
G01X186717Y263837D01*
D40*
G01X1582550Y437900D02*
D40*
G01X1583592Y445712D02*
D40*
G01X1589842Y445712D01*
D40*
G01X1586717Y442587D02*
D40*
G01X1586717Y448837D01*
D40*
G01X967550Y1112900D02*
D40*
G01X968592Y1120712D02*
D40*
G01X974842Y1120712D01*
D40*
G01X971717Y1117587D02*
D40*
G01X971717Y1123837D01*
D40*
G01X719050Y101400D02*
D40*
G01X719050Y105046D02*
D40*
G01X720092Y104004D01*
D40*
G01X725300Y104004D01*
D40*
G01X726342Y105046D01*
D40*
G01X726342Y108171D01*
D40*
G01X725300Y109212D01*
D40*
G01X720092Y109212D01*
D40*
G01X719050Y110254D01*
D40*
G01X719050Y112858D01*
D40*
G01X720092Y113900D01*
D40*
G01X725300Y113900D01*
D40*
G01X726342Y112858D01*
D40*
G01X731550Y104004D02*
D40*
G01X731550Y113900D01*
D40*
G01X738841Y113900D01*
D40*
G01X739883Y112858D01*
D40*
G01X739883Y110254D01*
D40*
G01X738841Y109212D01*
D40*
G01X731550Y109212D01*
D40*
G01X744050Y104004D02*
D40*
G01X748216Y113900D01*
D40*
G01X752383Y104004D01*
D40*
G01X745612Y107650D02*
D40*
G01X750821Y107650D01*
D40*
G01X756550Y104004D02*
D40*
G01X756550Y113900D01*
D40*
G01X763841Y113900D01*
D40*
G01X764883Y112858D01*
D40*
G01X764883Y110254D01*
D40*
G01X763841Y109212D01*
D40*
G01X756550Y109212D01*
D40*
G01X762800Y109212D02*
D40*
G01X763841Y109212D01*
D40*
G01X764883Y104004D01*
D40*
G01X769049Y104004D02*
D40*
G01X769049Y113900D01*
D40*
G01X776341Y113900D01*
D40*
G01X777383Y112858D01*
D40*
G01X777383Y110254D01*
D40*
G01X776341Y109212D01*
D40*
G01X769049Y109212D01*
D40*
G01X775299Y109212D02*
D40*
G01X776341Y109212D01*
D40*
G01X777383Y104004D01*
D40*
G01X789883Y105567D02*
D40*
G01X788320Y104004D01*
D40*
G01X783112Y104004D01*
D40*
G01X781549Y105567D01*
D40*
G01X781549Y112337D01*
D40*
G01X783112Y113900D01*
D40*
G01X788320Y113900D01*
D40*
G01X789883Y112337D01*
D40*
G01X789883Y105567D01*
D40*
G01X794049Y113900D02*
D40*
G01X796653Y104004D01*
D40*
G01X799257Y113900D01*
D40*
G01X801862Y104004D01*
D40*
G01X804466Y113900D01*
D40*
G01X720050Y80400D02*
D40*
G01X728383Y84046D02*
D40*
G01X727342Y83004D01*
D40*
G01X721092Y83004D01*
D40*
G01X720050Y84046D01*
D40*
G01X720050Y91858D01*
D40*
G01X721092Y92900D01*
D40*
G01X727342Y92900D01*
D40*
G01X728383Y91858D01*
D40*
G01X732550Y91858D02*
D40*
G01X733591Y92900D01*
D40*
G01X738800Y92900D01*
D40*
G01X739841Y91858D01*
D40*
G01X739841Y89254D01*
D40*
G01X738800Y88212D01*
D40*
G01X735675Y88212D01*
D40*
G01X738800Y88212D01*
D40*
G01X739841Y87171D01*
D40*
G01X739841Y84567D01*
D40*
G01X738800Y83004D01*
D40*
G01X733591Y83004D01*
D40*
G01X732550Y84046D01*
D40*
G01X752341Y84046D02*
D40*
G01X751300Y83004D01*
D40*
G01X746091Y83004D01*
D40*
G01X745050Y84046D01*
D40*
G01X745050Y91858D01*
D40*
G01X746091Y92900D01*
D40*
G01X751300Y92900D01*
D40*
G01X752341Y91858D01*
D40*
G01X752341Y84046D01*
D40*
G01X745050Y84046D02*
D40*
G01X752341Y91858D01*
D40*
G01X757550Y91858D02*
D40*
G01X758591Y92900D01*
D40*
G01X763800Y92900D01*
D40*
G01X764841Y91858D01*
D40*
G01X764841Y89254D01*
D40*
G01X763800Y88212D01*
D40*
G01X760675Y88212D01*
D40*
G01X763800Y88212D01*
D40*
G01X764841Y87171D01*
D40*
G01X764841Y84567D01*
D40*
G01X763800Y83004D01*
D40*
G01X758591Y83004D01*
D40*
G01X757550Y84046D01*
D40*
G01X777341Y84046D02*
D40*
G01X776299Y83004D01*
D40*
G01X771091Y83004D01*
D40*
G01X770049Y84046D01*
D40*
G01X770049Y91858D01*
D40*
G01X771091Y92900D01*
D40*
G01X776299Y92900D01*
D40*
G01X777341Y91858D01*
D40*
G01X777341Y84046D01*
D40*
G01X770049Y84046D02*
D40*
G01X777341Y91858D01*
D40*
G01X789841Y84046D02*
D40*
G01X788799Y83004D01*
D40*
G01X783591Y83004D01*
D40*
G01X782549Y84046D01*
D40*
G01X782549Y91858D01*
D40*
G01X783591Y92900D01*
D40*
G01X788799Y92900D01*
D40*
G01X789841Y91858D01*
D40*
G01X789841Y84046D01*
D40*
G01X782549Y84046D02*
D40*
G01X789841Y91858D01*
D40*
G01X795049Y87692D02*
D40*
G01X796091Y88733D01*
D40*
G01X801299Y88733D01*
D40*
G01X802341Y87692D01*
D40*
G01X802341Y84046D01*
D40*
G01X801299Y83004D01*
D40*
G01X796091Y83004D01*
D40*
G01X795049Y84046D01*
D40*
G01X795049Y91858D01*
D40*
G01X796091Y92900D01*
D40*
G01X801299Y92900D01*
D40*
G01X802341Y91858D01*
D40*
G01X808591Y88212D02*
D40*
G01X814841Y88212D01*
D40*
G01X827340Y84046D02*
D40*
G01X826299Y83004D01*
D40*
G01X821090Y83004D01*
D40*
G01X820049Y84046D01*
D40*
G01X820049Y91858D01*
D40*
G01X821090Y92900D01*
D40*
G01X826299Y92900D01*
D40*
G01X827340Y91858D01*
D40*
G01X827340Y84046D01*
D40*
G01X820049Y84046D02*
D40*
G01X827340Y91858D01*
D40*
G01X839840Y84046D02*
D40*
G01X838799Y83004D01*
D40*
G01X833590Y83004D01*
D40*
G01X832549Y84046D01*
D40*
G01X832549Y91858D01*
D40*
G01X833590Y92900D01*
D40*
G01X838799Y92900D01*
D40*
G01X839840Y91858D01*
D40*
G01X839840Y84046D01*
D40*
G01X832549Y84046D02*
D40*
G01X839840Y91858D01*
D40*
G01X846871Y83004D02*
D40*
G01X846871Y92900D01*
D40*
G01X845830Y90817D01*
D40*
G01X766150Y60000D02*
D40*
G01X766150Y71458D02*
D40*
G01X767192Y72500D01*
D40*
G01X772400Y72500D01*
D40*
G01X773442Y71458D01*
D40*
G01X773442Y69375D01*
D40*
G01X772400Y68333D01*
D40*
G01X766150Y62604D01*
D40*
G01X773442Y62604D01*
D40*
G01X1032550Y80400D02*
D40*
G01X1032550Y84046D02*
D40*
G01X1033592Y83004D01*
D40*
G01X1038800Y83004D01*
D40*
G01X1039842Y84046D01*
D40*
G01X1039842Y87171D01*
D40*
G01X1038800Y88212D01*
D40*
G01X1033592Y88212D01*
D40*
G01X1032550Y89254D01*
D40*
G01X1032550Y91858D01*
D40*
G01X1033592Y92900D01*
D40*
G01X1038800Y92900D01*
D40*
G01X1039842Y91858D01*
D40*
G01X1045050Y92900D02*
D40*
G01X1053383Y92900D01*
D40*
G01X1049216Y92900D02*
D40*
G01X1049216Y83004D01*
D40*
G01X1064841Y83004D02*
D40*
G01X1057550Y83004D01*
D40*
G01X1057550Y92900D01*
D40*
G01X1064841Y92900D01*
D40*
G01X1064841Y88212D02*
D40*
G01X1057550Y88212D01*
D40*
G01X1070050Y83004D02*
D40*
G01X1070050Y92900D01*
D40*
G01X1078383Y83004D01*
D40*
G01X1078383Y92900D01*
D40*
G01X1090883Y84046D02*
D40*
G01X1089841Y83004D01*
D40*
G01X1083591Y83004D01*
D40*
G01X1082549Y84046D01*
D40*
G01X1082549Y91858D01*
D40*
G01X1083591Y92900D01*
D40*
G01X1089841Y92900D01*
D40*
G01X1090883Y91858D01*
D40*
G01X1097133Y83004D02*
D40*
G01X1097133Y92900D01*
D40*
G01X1096091Y83004D02*
D40*
G01X1098174Y83004D01*
D40*
G01X1096091Y92900D02*
D40*
G01X1098174Y92900D01*
D40*
G01X1108591Y83004D02*
D40*
G01X1101299Y83004D01*
D40*
G01X1101299Y92900D01*
M02*
