M48
INCH,TZ
T10C0.020
T11C0.025
T12C0.038
T13C0.050
T14C0.055
T15C0.062
T16C0.075
T17C0.090
T18C0.109
T19C0.125
T20C0.138
T21C0.139
T22C0.150
T23C0.158
T24C0.165
T25C0.196
T26C0.237
T27C0.276
T28C0.315
%
T10
X032410Y026090
X032710Y024190
X033060Y025990
X033510Y024190
X034010Y025140
X034160Y024640
X034660Y024190
X035160Y024490
X035660Y025090
X036160Y025240
X037010Y024190
X058510Y026040
X069260Y026290
X072960Y022940
X016760Y028540
X018010Y029340
X022010Y030190
X022460Y031540
X022510Y030540
X023560Y029890
X023760Y031140
X024410Y030740
X025160Y028590
X025260Y031390
X025660Y028290
X026160Y028590
X028510Y028590
X032010Y027590
X032810Y030740
X032910Y028640
X033810Y030740
X034160Y028140
X034260Y031640
X034910Y028640
X035860Y031140
X037010Y028640
X037210Y030190
X042010Y026890
X042010Y029190
X043460Y027740
X043760Y029190
X052660Y027090
X056010Y031540
X057460Y029840
X057520Y027290
X058010Y030290
X058510Y029640
X059340Y028140
X060410Y029540
X064760Y029690
X070560Y026990
X070810Y029190
X071230Y027290
X071510Y031390
X071760Y030890
X071810Y028990
X072310Y029190
X089760Y029790
X103260Y028690
X104260Y029890
X104760Y028690
X105260Y029890
X108760Y030690
X108760Y028390
X018510Y034690
X019510Y031890
X020310Y032840
X024010Y033940
X024560Y032390
X024860Y035740
X025010Y036340
X025260Y033940
X025410Y034440
X026360Y033940
X027010Y035190
X027860Y033940
X028010Y035140
X028510Y033940
X029010Y034590
X030510Y032540
X030910Y032040
X031410Y032490
X031910Y033440
X032010Y032190
X032410Y033940
X032760Y034590
X033460Y032190
X033760Y033940
X034260Y033940
X034360Y036540
X034560Y034590
X035510Y032390
X035560Y033940
X036360Y032390
X036660Y031740
X036860Y034140
X037010Y034640
X037510Y036240
X039010Y036640
X042260Y032540
X043510Y033140
X043810Y034590
X046510Y036790
X047760Y032940
X051510Y033390
X054010Y035540
X055010Y036590
X057510Y032640
X057510Y034940
X058710Y033490
X059010Y034940
X064260Y036790
X069860Y032240
X070160Y033940
X070560Y036040
X074360Y033890
X079760Y033040
X080210Y032240
X084960Y033390
X089010Y031940
X091760Y035140
X095260Y036690
X096360Y034240
X098310Y034040
X099010Y032340
X103260Y033640
X106710Y033390
X107210Y033890
X107760Y035690
X111260Y036190
X117560Y034890
X031510Y039040
X032510Y039940
X033210Y037740
X033410Y038240
X033710Y039940
X034260Y037640
X034260Y039940
X034910Y038390
X035860Y038390
X036810Y038390
X039510Y037940
X040010Y036940
X041010Y037490
X041510Y039790
X042260Y039790
X043160Y039740
X044260Y039190
X048510Y038690
X048860Y040940
X056060Y040290
X057610Y039640
X059760Y041390
X063260Y038290
X064010Y041540
X065260Y038290
X066260Y038290
X067010Y038290
X067510Y040290
X067860Y041190
X069310Y041640
X070250Y039250
X070260Y039240
X072410Y039440
X072990Y039630
X074350Y041790
X074850Y038090
X075090Y041920
X075260Y037540
X075760Y039890
X077960Y040340
X078760Y039290
X079760Y037440
X080460Y039290
X081010Y037440
X082610Y041790
X084760Y039890
X085310Y041740
X087010Y037340
X087010Y039790
X088960Y040140
X091760Y037940
X093810Y041940
X096010Y037490
X096010Y038740
X096360Y038440
X096710Y041490
X097310Y038690
X097760Y041840
X098210Y040240
X098760Y037690
X098760Y038240
X099160Y039990
X099260Y041840
X099760Y038240
X099760Y041840
X100260Y038240
X100260Y037690
X100260Y041840
X100760Y041840
X100760Y038240
X101760Y040690
X101760Y038390
X103260Y040240
X103760Y038240
X104260Y040240
X104760Y038240
X105210Y041840
X105760Y038240
X106260Y038240
X107210Y040990
X026660Y046690
X027160Y046740
X035860Y043990
X039960Y046040
X040310Y044390
X040760Y046390
X041660Y042540
X042760Y045640
X043710Y046390
X043710Y042540
X043760Y045640
X044010Y043940
X044760Y043390
X044760Y045690
X045310Y043590
X045610Y045940
X045710Y046440
X046410Y043190
X046760Y045640
X047160Y046140
X047460Y043940
X047510Y043290
X048410Y043940
X048510Y042190
X048660Y043440
X049160Y043340
X049160Y045640
X049660Y045640
X049860Y043040
X050160Y043940
X050510Y045640
X051410Y046440
X051510Y043940
X051510Y043190
X051910Y046290
X052160Y045790
X052360Y043190
X053010Y042490
X053160Y043540
X053260Y045640
X053860Y043190
X054510Y045140
X054860Y045640
X055510Y045890
X056660Y043990
X057510Y045290
X058260Y042490
X058760Y042240
X059060Y046190
X060460Y046490
X060520Y043790
X061010Y043790
X061510Y046690
X062360Y047040
X063510Y043790
X063610Y044740
X063660Y046390
X063760Y045290
X065060Y043540
X065710Y042240
X065760Y045190
X066510Y043340
X066610Y046290
X067110Y044190
X067110Y046290
X067860Y045390
X069310Y042490
X069460Y046290
X069660Y045640
X069860Y044990
X069960Y046440
X070260Y043140
X070960Y042340
X071090Y045680
X071440Y044920
X071930Y044750
X072110Y045640
X073060Y043140
X073120Y046170
X073210Y042660
X073560Y045390
X073710Y042510
X073710Y044740
X074310Y046590
X074610Y045790
X074670Y044830
X074810Y046890
X074810Y042490
X074860Y043140
X075160Y045590
X075310Y042490
X075410Y045040
X076010Y042490
X076610Y046290
X076710Y043140
X076810Y042490
X077210Y045190
X077210Y045790
X077260Y043140
X079010Y043140
X079010Y045690
X079560Y046640
X079560Y044890
X079910Y042240
X080110Y042940
X080760Y044690
X080810Y042740
X081610Y043990
X081660Y045140
X081760Y042190
X082460Y045940
X082460Y045090
X082610Y042990
X083010Y046940
X083810Y045940
X084210Y046890
X084510Y046240
X084710Y046890
X085060Y044890
X086510Y043890
X086510Y046190
X088010Y046190
X089860Y046540
X094860Y043840
X095310Y045240
X095410Y046840
X105760Y043690
X114760Y042140
X116510Y046040
X118210Y044140
X022510Y047890
X024010Y047890
X028760Y047290
X031010Y047090
X031510Y047890
X032060Y048790
X032960Y049590
X033510Y047890
X037160Y048890
X040660Y048840
X041310Y048040
X041660Y047540
X041660Y048690
X043360Y047790
X044110Y047290
X044460Y047890
X044610Y049040
X045160Y048740
X045180Y048720
X047910Y048790
X049610Y047390
X051410Y047940
X051410Y048890
X051460Y049390
X051510Y047290
X052160Y048040
X052160Y047540
X053860Y048540
X054360Y049290
X054410Y048690
X054960Y049190
X056960Y049540
X060110Y047790
X060660Y048040
X061060Y047390
X061460Y048140
X062010Y049140
X063010Y047440
X063160Y048490
X064760Y047440
X065910Y049240
X065960Y047440
X067260Y047640
X067360Y049240
X067720Y047460
X067730Y047460
X067860Y048990
X069510Y047890
X070260Y047490
X070910Y047890
X070960Y049140
X074660Y048640
X075510Y047190
X075700Y048210
X076510Y049640
X078510Y049640
X079310Y048990
X079560Y047440
X079960Y048290
X080060Y047790
X080060Y049440
X081660Y047640
X084510Y049640
X085360Y047990
X085710Y048490
X085910Y049390
X086760Y049190
X087060Y047540
X087180Y048840
X088010Y049190
X088610Y048890
X088960Y048340
X089560Y047090
X095110Y049590
X095760Y048440
X096010Y047950
X097360Y048090
X115110Y049540
X117010Y049540
X118110Y049540
X118210Y048440
X130160Y048340
X132710Y048940
X145210Y047190
X145510Y049590
X145510Y047990
X145710Y047490
X019010Y050190
X021960Y051640
X022510Y050240
X024010Y050240
X025510Y050240
X028510Y050190
X029360Y051040
X030010Y050240
X030510Y050240
X031510Y050240
X033010Y050240
X037760Y050540
X038260Y051290
X039410Y052040
X039510Y050540
X040760Y051290
X041160Y051690
X041560Y050540
X041660Y049740
X041660Y051290
X043410Y051590
X043460Y049940
X044260Y050890
X044760Y050240
X045260Y050740
X046960Y049890
X048860Y050690
X050160Y051890
X050510Y051090
X050510Y049840
X052160Y051890
X052160Y050640
X053910Y049690
X054010Y050640
X054310Y051140
X054810Y050940
X056810Y050240
X062010Y052190
X063510Y052190
X063510Y049890
X064210Y050540
X067710Y050040
X067860Y050540
X069460Y050740
X069460Y051690
X069960Y050390
X070110Y051090
X070210Y051990
X072110Y051090
X073510Y049690
X074010Y051740
X074810Y050240
X075710Y050940
X077660Y051990
X079210Y050940
X079260Y052090
X079410Y050440
X080060Y050740
X080060Y050240
X081660Y049890
X081660Y050540
X082460Y049690
X083010Y049890
X083810Y050940
X085260Y050190
X085410Y050690
X088010Y052190
X095910Y051190
X096760Y049790
X098360Y050340
X103460Y050940
X111510Y049790
X113010Y050940
X114060Y049740
X115160Y051540
X120010Y050590
X121460Y050690
X121960Y050490
X124710Y052040
X126060Y051040
X132410Y051990
X134260Y050790
X148510Y050540
X150660Y050390
X151960Y051240
X157260Y051640
X169510Y051490
X170510Y051490
X171510Y051490
X020510Y053890
X022510Y053840
X023510Y053840
X024410Y053840
X026760Y052840
X027760Y053340
X028010Y053890
X028860Y052390
X030010Y053840
X031010Y053840
X031510Y053840
X032010Y053840
X032060Y052240
X034860Y053190
X038160Y053840
X038610Y054440
X040010Y053190
X040510Y054040
X040560Y052540
X041660Y053340
X043960Y054440
X044260Y053340
X044660Y054440
X045260Y053890
X045760Y053890
X046010Y052290
X046510Y054440
X046660Y052590
X046710Y053440
X047460Y053790
X047510Y052540
X047660Y054440
X048160Y054440
X049260Y053140
X049930Y054440
X049960Y054440
X049960Y053440
X049960Y053940
X052160Y053440
X052160Y052540
X054010Y052690
X054010Y053190
X055510Y053500
X056760Y053040
X060510Y053040
X063160Y054340
X064210Y053290
X064510Y052640
X064710Y054140
X065210Y053590
X065610Y054090
X066260Y052340
X066260Y053740
X066760Y052490
X067400Y052940
X067460Y054490
X069460Y052890
X069460Y053690
X069460Y054490
X070560Y053590
X071000Y053860
X071760Y054340
X072460Y053990
X072470Y054000
X073050Y052690
X073160Y054330
X073510Y053640
X073840Y054340
X074710Y053840
X074710Y052690
X075690Y052690
X075710Y053840
X076210Y052690
X076710Y052940
X077410Y053760
X077660Y052590
X077750Y054110
X077810Y054050
X078310Y052940
X078520Y053890
X079040Y052700
X079060Y053870
X079910Y052490
X079990Y054070
X081660Y052760
X081660Y054040
X083010Y054040
X083060Y052290
X084310Y052740
X085960Y053740
X087110Y053740
X087180Y052390
X087960Y054240
X089190Y053090
X097710Y054690
X099710Y052740
X100210Y053740
X100560Y052540
X108960Y054290
X112360Y053940
X113010Y053190
X113010Y054640
X114510Y054690
X119510Y052340
X121060Y053140
X130710Y052440
X146260Y053540
X150010Y054190
X153010Y054540
X153460Y052790
X157260Y054440
X158010Y054640
X159810Y053740
X160610Y053740
X161260Y052890
X161760Y052690
X162410Y052990
X162760Y053740
X165260Y052690
X165760Y052740
X166010Y053890
X166260Y052740
X166310Y053240
X166760Y053740
X167810Y052390
X169060Y053490
X170010Y053490
X171010Y053490
X024460Y055840
X025010Y056190
X026410Y057290
X027860Y056540
X028560Y055390
X030060Y055340
X031010Y056190
X033360Y055490
X034710Y056840
X039010Y056840
X042010Y056990
X045260Y056190
X045910Y056140
X046410Y056140
X048360Y056140
X051510Y056140
X054810Y056440
X056610Y055640
X058270Y055840
X058400Y056790
X061760Y057040
X063960Y056840
X064510Y056840
X066660Y055640
X068560Y055840
X069460Y056140
X070160Y055190
X071850Y055260
X072350Y055190
X072350Y055200
X074690Y055270
X074810Y056990
X076160Y054990
X076720Y057270
X077840Y055140
X078060Y057240
X078760Y057240
X079080Y055310
X080210Y056390
X080260Y055690
X081260Y055890
X081660Y054940
X081960Y055690
X082060Y056540
X082560Y056390
X082560Y057190
X084310Y055290
X084760Y056390
X085410Y055540
X086010Y057190
X086260Y055940
X087160Y056090
X088610Y056290
X094260Y056790
X107960Y057240
X110760Y057240
X111160Y056090
X113310Y056790
X115810Y056040
X117010Y056040
X118160Y056040
X119510Y055640
X121010Y055690
X129760Y056040
X138610Y055890
X138910Y055040
X139410Y054890
X139660Y056790
X140410Y057040
X141060Y055690
X142010Y055790
X142760Y056990
X153010Y056040
X153310Y055290
X154010Y054940
X154510Y057290
X159760Y055440
X159910Y056090
X160610Y056390
X160910Y055740
X161410Y056390
X162110Y056090
X163860Y055440
X164210Y056390
X164710Y055440
X165660Y055440
X167060Y055290
X168310Y055890
X168510Y055090
X170110Y055090
X016510Y057790
X017510Y057790
X018510Y057790
X019510Y057790
X020510Y057790
X021510Y057790
X022510Y057790
X023510Y057790
X026510Y057790
X027510Y057790
X028510Y057790
X029510Y057790
X030510Y057790
X031510Y057790
X032510Y057790
X033510Y057790
X035860Y058840
X038160Y058440
X040510Y058140
X041010Y057640
X043010Y058140
X047460Y057640
X047810Y059140
X047960Y057640
X049260Y057640
X053010Y057340
X061510Y057940
X062660Y058290
X064160Y057340
X065160Y057540
X067810Y059090
X069010Y058890
X070310Y058890
X071760Y058890
X073710Y057590
X073740Y058280
X074960Y057790
X077410Y057390
X077460Y059640
X078760Y059140
X080210Y057390
X080660Y058090
X081360Y059290
X082010Y058440
X086760Y057640
X088160Y059290
X088560Y058090
X101710Y058940
X104710Y058740
X105210Y058640
X111510Y057440
X112660Y059190
X113310Y059190
X114660Y057540
X115160Y057690
X115860Y058790
X116360Y057540
X116860Y058090
X117360Y058440
X118660Y057840
X120010Y058190
X133810Y059340
X135710Y059640
X136360Y058690
X140160Y059490
X141360Y058840
X141360Y057990
X145710Y058640
X150260Y059640
X158260Y058790
X161460Y059140
X161660Y057940
X162410Y057940
X163110Y058090
X166260Y057940
X166560Y059140
X167560Y058440
X168860Y059640
X013410Y064390
X020110Y061840
X020860Y062890
X021210Y060340
X022260Y062890
X024960Y062490
X025710Y062590
X027060Y064590
X027660Y064440
X029210Y062890
X030110Y062240
X030110Y061640
X030860Y064790
X032860Y064390
X036410Y062090
X037060Y063790
X037660Y064390
X038710Y060790
X039410Y060990
X040860Y060140
X042960Y060240
X043760Y060340
X044610Y061790
X045410Y060240
X047460Y061140
X049510Y064340
X050210Y064490
X051310Y061790
X055510Y060990
X056810Y060990
X060210Y064340
X060760Y064540
X061210Y060290
X063410Y063490
X063410Y062490
X063660Y064190
X064510Y061840
X065160Y060690
X065260Y063840
X066510Y062840
X067010Y064570
X067710Y062040
X069010Y061290
X070460Y064690
X071060Y064190
X071760Y064940
X072460Y063940
X072490Y061200
X074510Y061190
X074860Y062790
X075610Y063490
X075810Y064390
X077460Y060640
X077710Y061990
X078560Y064790
X078560Y061140
X082360Y061340
X083710Y064140
X094760Y062490
X098360Y064390
X100860Y064490
X101210Y060640
X101510Y064140
X102660Y060040
X104210Y063090
X105010Y062740
X105210Y060990
X107360Y063240
X109210Y063940
X111500Y063020
X112110Y060900
X112110Y063040
X113260Y061890
X114160Y063090
X114660Y062840
X115710Y063940
X120710Y060990
X123860Y060840
X124710Y060740
X129210Y064790
X135210Y064440
X136710Y060290
X137560Y060790
X138210Y061340
X140610Y060240
X141360Y061840
X142510Y062390
X142510Y064690
X143210Y063240
X143810Y063340
X148160Y063190
X158710Y064190
X158960Y062390
X159260Y060740
X159310Y063290
X159610Y061740
X159960Y060690
X160110Y061390
X160610Y061740
X160760Y061040
X160910Y064640
X161260Y061040
X161860Y063490
X161960Y061740
X162060Y064140
X162160Y060690
X162710Y064490
X162910Y063440
X163110Y060690
X163210Y061240
X163510Y061890
X163710Y060690
X164060Y064340
X164210Y063440
X164560Y061590
X164760Y060840
X164910Y063440
X165960Y061390
X166260Y061890
X166260Y063690
X166260Y064340
X166360Y060690
X167410Y063990
X168010Y062890
X168660Y062540
X169260Y062890
X175610Y064390
X175610Y064290
X013960Y066240
X014710Y065740
X017760Y068190
X018010Y065390
X019410Y068190
X020410Y066590
X020510Y065890
X020860Y068390
X021360Y068190
X022510Y069690
X023510Y065090
X024010Y065740
X024510Y068340
X025960Y066590
X026260Y065140
X026610Y066590
X026760Y068990
X028560Y066640
X028610Y069290
X028860Y068340
X029210Y069940
X030660Y068190
X031510Y066390
X031660Y067090
X031660Y067890
X032010Y069940
X032760Y066740
X033510Y065640
X033710Y066690
X037960Y068440
X043810Y067840
X044460Y069640
X046160Y070040
X050810Y067740
X054010Y065290
X055810Y066690
X056310Y065990
X057810Y065890
X059110Y068990
X060310Y067640
X060810Y066190
X067660Y068290
X072210Y068990
X073610Y069840
X074360Y065440
X076110Y066240
X077610Y069690
X078260Y067490
X079160Y066690
X080210Y067840
X081010Y069140
X081360Y067890
X082660Y065990
X086360Y068940
X088510Y066640
X088510Y069440
X090310Y068890
X092160Y069240
X095060Y068790
X097510Y065440
X099010Y065440
X103110Y067190
X103460Y068790
X103810Y065440
X104010Y066090
X110960Y067390
X112010Y066790
X113260Y066790
X118210Y065440
X118410Y066290
X119610Y067690
X120160Y065440
X122710Y070090
X123510Y069240
X124210Y069940
X125210Y069590
X126210Y067490
X130310Y067590
X133210Y065440
X134210Y065440
X137760Y066940
X137810Y069840
X138310Y067890
X140460Y066640
X145510Y067490
X148160Y065440
X150360Y069490
X150510Y065790
X155060Y069490
X157360Y066890
X157860Y067240
X158360Y068140
X159260Y066590
X159610Y067790
X160010Y066190
X161760Y066190
X161760Y068690
X162160Y069840
X162260Y066290
X162710Y067440
X162810Y066190
X163510Y068490
X164210Y067090
X164910Y068590
X166260Y067590
X167960Y065190
X024160Y074240
X028010Y075040
X029010Y075040
X029660Y074590
X033010Y075040
X034010Y073890
X041310Y071240
X043210Y073540
X043960Y070740
X047010Y073890
X048010Y073040
X048510Y070390
X049060Y072590
X049510Y071540
X050360Y071390
X050960Y071540
X051010Y073040
X051510Y070390
X053410Y074540
X053510Y070940
X054360Y073190
X055160Y073540
X056510Y071540
X056560Y073940
X056720Y070780
X056860Y073040
X058510Y072590
X059360Y074840
X059660Y073040
X060660Y073940
X061560Y072840
X062510Y073590
X064010Y074890
X067310Y074440
X067510Y075190
X071460Y070440
X072960Y070690
X075310Y070240
X079560Y074790
X080060Y074290
X080960Y075040
X082660Y073790
X083460Y074440
X083610Y070190
X083710Y070190
X085060Y075040
X086960Y072440
X088160Y070240
X088560Y071340
X089210Y073090
X089860Y075040
X089910Y071140
X090610Y071140
X090860Y072840
X091610Y071090
X091860Y072840
X092360Y072840
X093010Y072840
X093560Y072840
X093810Y071140
X093910Y073540
X095110Y073340
X095260Y072840
X097010Y073690
X097360Y071040
X097710Y074340
X098960Y071340
X099210Y074040
X099210Y074690
X099210Y073490
X102010Y071840
X103660Y073740
X104460Y074440
X104560Y072890
X104960Y074090
X104960Y075140
X112660Y074690
X115060Y073690
X117310Y071040
X118710Y070890
X119010Y071640
X119210Y070740
X119510Y074390
X119610Y072790
X121210Y070590
X121710Y070440
X122210Y070240
X123510Y071890
X125010Y070790
X135560Y075240
X137360Y074240
X137860Y074740
X137860Y074240
X139060Y072390
X139060Y075090
X140010Y072690
X140010Y075090
X140760Y074390
X141010Y075090
X141510Y074690
X142560Y075090
X143360Y074390
X143810Y075090
X143860Y074040
X144360Y074390
X145460Y073840
X147010Y073890
X147710Y075040
X150010Y071490
X150810Y071490
X151160Y075090
X151510Y073090
X152010Y073090
X152410Y074740
X152910Y074390
X153460Y070890
X154010Y071190
X155510Y074490
X156860Y071640
X157410Y073190
X157810Y072690
X158010Y074490
X158360Y072040
X159610Y070840
X159810Y072940
X159810Y074990
X159810Y074240
X160210Y070840
X160460Y073490
X160460Y072990
X161010Y074940
X161160Y070840
X161160Y072490
X161810Y074990
X162010Y070640
X162110Y073440
X162360Y074340
X163060Y074340
X163510Y072490
X163610Y073640
X163760Y070840
X163860Y072990
X164610Y074240
X164610Y072690
X165010Y071840
X165510Y071540
X165560Y070640
X166260Y072890
X166260Y073890
X166260Y074990
X166410Y072240
X166460Y070990
X166560Y070440
X167360Y074490
X167710Y070290
X168310Y071790
X168660Y074290
X173510Y075190
X017060Y076390
X023710Y075840
X025160Y076440
X026510Y076090
X027660Y077340
X029360Y077690
X032010Y076540
X034610Y077190
X039810Y075540
X039910Y076540
X040410Y076890
X040810Y077790
X044510Y076640
X045310Y076190
X047560Y075540
X048010Y076540
X049510Y077690
X049710Y075390
X050010Y077690
X050560Y076040
X050960Y076940
X051510Y077690
X052760Y075940
X053410Y076840
X055860Y075690
X057510Y077040
X057510Y075790
X057510Y077540
X059010Y076540
X059210Y075690
X060260Y075690
X063010Y076640
X066810Y077490
X075410Y077290
X075910Y077290
X078910Y077290
X086010Y077590
X088810Y076940
X092310Y075640
X093010Y076640
X093560Y075390
X094260Y075640
X097710Y076840
X100860Y075590
X102660Y076090
X103660Y077240
X104160Y076990
X105110Y075640
X112910Y076990
X116660Y077640
X119010Y077290
X123510Y077390
X126710Y077590
X127310Y077590
X129710Y075790
X129810Y077740
X131210Y076140
X132110Y076540
X134060Y077540
X134560Y077540
X134710Y076690
X136260Y077740
X137180Y077690
X137210Y076740
X138660Y076740
X139410Y076740
X139960Y076740
X140960Y076740
X141460Y076740
X142060Y077090
X142260Y077590
X142760Y076740
X143260Y077540
X144210Y076940
X145160Y077240
X145660Y077290
X146510Y076440
X146810Y077540
X147010Y076190
X149960Y076240
X150410Y075740
X151160Y076790
X154210Y075640
X154510Y076490
X155010Y076890
X158160Y076790
X159810Y077040
X159810Y076540
X160310Y077240
X160810Y077240
X161010Y075440
X161310Y076390
X161310Y077240
X161810Y076640
X162710Y076590
X162710Y077240
X163710Y077140
X163910Y076290
X164260Y077140
X164610Y075740
X166260Y076540
X166260Y077290
X166660Y075990
X167060Y075490
X171760Y076390
X172560Y077690
X174060Y077490
X174560Y077490
X175510Y077490
X176010Y077490
X176510Y077090
X021960Y079040
X028010Y079940
X029010Y080190
X029710Y078640
X030460Y079040
X031010Y078640
X033010Y078540
X034510Y078140
X034560Y080140
X041660Y079040
X043210Y077990
X044960Y079190
X045460Y079190
X046510Y077890
X047060Y078590
X047510Y079490
X048010Y077940
X049510Y079090
X049510Y080040
X050660Y080100
X051810Y078890
X052010Y078140
X052460Y079290
X052610Y080140
X053310Y079490
X053960Y079040
X054260Y080140
X054690Y078510
X054710Y078490
X056510Y079540
X059510Y079440
X060260Y080190
X060960Y079840
X062010Y079590
X072610Y079990
X074760Y079990
X075300Y078690
X075710Y078390
X077810Y079040
X079260Y078690
X080260Y080040
X083010Y078790
X083910Y078190
X084660Y078490
X086960Y077890
X087110Y078490
X088810Y077840
X088810Y080090
X089860Y078190
X091260Y079190
X093560Y079190
X094760Y080140
X095410Y078490
X095910Y078290
X097060Y079640
X097710Y080340
X098560Y078490
X099210Y078490
X100860Y078490
X101610Y079740
X102110Y080040
X103060Y079390
X109210Y079440
X113560Y077890
X114160Y079690
X114860Y079790
X119660Y078590
X120160Y078190
X120310Y079190
X124060Y079740
X125610Y077890
X126310Y080040
X126410Y079090
X126810Y080040
X128210Y080240
X130310Y077990
X130960Y078940
X131060Y079840
X132760Y079540
X133510Y080190
X133860Y078490
X136260Y078340
X136260Y079540
X136760Y079340
X137410Y079690
X138360Y077940
X139510Y078990
X146160Y078740
X146800Y078480
X146810Y079940
X148410Y077840
X148460Y078590
X148960Y078840
X149410Y077840
X149560Y078540
X149910Y079190
X151010Y078490
X151360Y079490
X151710Y078590
X152060Y077890
X152210Y079790
X154960Y079840
X155260Y078390
X157510Y079890
X159410Y078340
X161410Y079440
X162160Y079840
X162960Y078940
X165760Y078640
X171460Y077840
X173010Y079290
X173510Y079090
X176010Y080290
X017060Y082040
X017760Y082890
X028010Y081540
X029010Y082540
X030010Y082540
X031010Y082540
X031660Y082490
X032860Y082040
X034560Y082690
X039110Y081390
X040510Y082690
X041560Y081140
X042410Y080890
X042410Y081390
X043210Y080540
X044160Y080990
X044510Y082040
X048010Y081040
X048510Y081490
X049510Y081040
X050010Y081040
X050510Y081040
X051010Y081040
X051510Y081040
X052660Y080990
X053810Y082540
X054810Y080640
X055160Y082540
X055510Y080540
X056210Y081040
X056510Y082540
X056910Y081040
X057060Y082540
X058010Y082590
X058510Y081490
X059010Y081290
X059410Y082240
X059860Y081290
X060610Y081290
X071010Y080440
X071910Y080590
X075960Y082240
X078260Y081990
X079460Y080690
X080110Y080690
X082060Y081090
X084310Y081640
X085560Y081040
X088810Y082190
X090010Y081890
X090960Y082590
X091510Y080690
X093010Y082390
X094160Y082090
X095410Y082090
X096310Y082640
X096710Y080990
X097410Y080990
X097710Y082390
X098260Y082390
X098560Y081240
X099210Y082590
X105160Y081240
X106710Y082840
X110560Y080690
X111360Y080840
X111510Y082540
X111860Y080840
X112010Y082540
X112510Y082540
X114110Y082540
X114760Y082740
X115060Y081240
X127510Y081940
X129360Y082190
X130610Y081940
X130760Y082440
X131960Y080490
X132610Y080790
X132960Y081490
X133760Y081140
X133860Y082740
X134260Y081140
X134560Y082440
X136260Y081540
X136260Y080390
X136760Y081840
X138010Y082840
X144960Y082840
X145160Y081740
X145660Y082390
X146790Y082530
X146790Y082540
X146810Y081640
X146810Y080440
X148460Y081490
X148860Y082540
X151710Y080890
X158110Y082040
X159710Y081890
X160860Y080690
X162560Y081390
X162960Y080890
X170860Y081290
X172510Y081290
X173460Y081290
X175010Y080540
X017210Y084940
X018560Y084640
X026510Y082990
X027310Y084440
X029710Y084040
X033010Y085390
X033610Y083640
X035210Y083790
X039010Y083540
X039560Y085090
X040010Y084390
X042210Y084290
X042760Y083540
X045510Y085390
X046060Y083340
X052860Y084890
X053010Y083190
X054160Y083590
X055510Y083240
X055510Y084440
X059960Y082940
X075660Y083640
X077060Y084640
X080060Y085390
X081260Y083340
X083610Y085440
X084560Y083990
X085080Y084700
X087260Y084680
X087560Y083340
X088510Y082990
X089460Y083240
X090360Y083240
X090410Y084890
X090610Y085440
X090960Y083240
X091510Y084890
X092260Y083240
X093110Y084890
X093810Y083240
X093960Y084890
X094460Y084940
X096360Y083240
X097260Y083240
X098960Y084590
X098960Y083540
X099660Y083590
X099860Y084590
X100160Y083440
X102910Y083990
X108560Y084390
X110260Y084390
X110310Y083340
X110910Y083390
X111210Y084940
X114270Y083530
X114270Y083520
X114710Y083240
X114760Y083240
X116610Y083490
X116910Y085390
X118210Y085440
X118360Y084790
X122810Y085240
X131510Y083090
X134560Y083690
X134560Y082940
X134560Y084640
X136260Y085090
X145560Y083290
X145660Y084590
X145860Y085090
X146160Y084590
X146310Y083590
X146610Y084090
X146810Y083390
X146810Y084890
X148610Y083090
X150260Y083090
X151060Y083290
X153110Y083640
X158810Y084140
X159310Y084740
X159810Y085040
X160310Y084640
X160560Y083440
X163210Y084140
X164360Y084940
X167260Y083990
X169010Y084490
X170860Y084190
X171760Y085040
X174460Y083040
X175410Y083590
X019260Y085590
X032310Y085540
X035510Y086740
X036160Y086490
X037510Y086740
X038460Y085890
X041510Y086740
X043960Y086940
X049010Y085590
X052510Y085690
X054810Y085540
X064160Y086940
X065910Y087940
X071010Y087640
X071460Y086240
X075960Y086240
X080060Y086690
X084310Y087790
X084610Y086190
X086060Y086290
X086410Y086790
X087960Y087290
X090960Y086690
X092060Y087490
X092710Y086940
X096660Y085540
X098760Y085540
X103460Y086490
X104260Y087390
X107010Y085540
X107060Y086390
X108060Y085640
X108560Y085590
X108560Y086340
X112210Y085590
X112210Y085640
X112810Y087040
X112810Y086540
X116910Y086340
X119360Y086740
X120010Y085990
X123310Y085590
X124560Y087140
X132210Y085590
X133660Y086940
X134510Y087040
X134560Y085890
X136260Y086240
X137310Y087340
X138660Y087290
X140210Y086940
X140560Y086240
X140910Y087140
X141660Y087340
X142160Y087340
X142910Y087340
X143410Y087340
X143910Y086940
X144460Y085990
X145060Y087340
X145760Y086140
X146660Y087340
X146810Y086540
X147510Y086890
X148010Y086890
X148460Y086190
X148960Y086040
X150210Y086940
X150410Y087890
X150710Y086390
X153160Y087890
X153910Y087440
X159260Y087040
X159360Y087740
X161860Y085690
X165010Y086640
X166910Y087840
X167560Y087790
X168510Y086540
X170010Y086790
X171010Y086790
X171860Y086140
X173810Y086790
X174210Y085890
X176510Y086790
X017060Y090890
X024010Y088490
X029510Y088890
X033010Y088190
X034510Y090340
X035010Y088740
X035810Y088740
X036410Y090340
X037960Y088840
X040510Y090340
X041010Y088590
X041510Y092890
X041510Y088740
X042860Y088590
X043510Y088340
X043960Y089040
X044360Y089540
X045010Y093140
X046410Y091890
X052510Y092540
X054510Y090340
X059610Y091590
X060810Y092090
X061910Y091290
X063010Y089540
X063260Y092490
X065510Y091390
X066360Y092190
X067310Y091040
X071010Y090440
X071910Y092140
X076160Y092640
X076960Y088190
X077460Y091390
X077960Y091240
X078510Y090390
X078560Y089540
X078960Y093040
X080060Y091390
X080610Y089340
X083010Y091740
X085160Y089790
X087980Y089410
X088020Y088900
X088040Y089930
X088510Y088190
X089460Y091040
X090010Y088190
X091510Y088190
X092360Y088190
X094460Y092640
X102510Y089340
X103510Y089290
X104510Y091890
X106010Y092890
X111510Y091640
X111860Y091140
X112510Y088740
X113010Y089340
X113410Y092040
X115960Y090740
X116510Y089890
X119010Y092540
X119260Y088790
X120510Y093040
X122910Y092140
X123310Y089590
X123660Y090140
X125010Y089540
X128510Y089590
X129510Y090090
X129860Y088690
X131360Y092940
X132060Y088290
X137260Y092790
X139160Y088990
X140460Y088990
X142260Y089490
X143710Y089690
X143810Y091140
X143810Y091890
X143860Y092990
X144560Y088990
X146010Y088990
X147460Y088490
X147520Y091240
X147680Y089720
X148160Y089340
X148760Y089290
X150960Y090740
X150960Y092690
X152860Y089790
X153910Y088340
X154910Y090740
X160060Y092490
X161260Y091040
X161260Y088940
X161360Y091140
X161560Y092540
X164810Y088090
X165010Y089140
X165110Y090790
X165260Y092040
X166010Y092040
X166510Y089540
X168010Y088290
X168160Y092140
X168560Y090290
X168660Y092140
X169010Y089290
X170860Y090290
X171510Y092140
X172110Y090990
X173010Y091290
X173010Y092790
X174610Y090790
X175510Y091790
X176510Y089140
X021310Y096590
X025760Y097890
X029910Y097490
X030510Y096540
X034600Y097540
X036110Y097540
X036110Y096040
X036260Y094340
X037010Y093890
X037610Y096040
X038360Y095640
X038460Y094140
X039010Y094140
X039560Y094140
X040410Y094140
X040860Y093590
X040960Y095790
X041510Y095890
X042060Y097940
X042210Y093590
X042410Y097040
X043010Y093640
X043310Y094990
X044710Y094590
X047310Y093640
X048260Y097440
X051010Y095840
X053760Y097290
X054110Y096390
X054710Y094190
X055160Y097190
X055510Y094390
X055510Y096690
X056710Y096090
X057010Y094240
X057410Y097890
X057710Y095840
X058260Y094240
X058760Y096240
X059010Y097890
X059260Y096240
X059960Y097890
X060160Y096040
X060960Y098240
X061510Y097890
X061610Y095990
X063160Y094290
X063660Y093940
X063660Y095840
X065510Y093890
X065910Y096990
X066710Y094290
X066860Y096840
X067310Y093890
X067960Y094940
X067980Y094920
X068660Y095840
X068660Y094390
X070360Y095540
X075060Y097040
X075310Y094340
X077710Y095390
X078210Y096190
X078460Y097640
X078710Y095290
X079460Y093790
X079510Y095640
X080010Y094540
X083460Y097690
X084010Y096890
X084560Y095740
X085610Y094890
X085910Y097290
X086160Y098090
X098310Y097540
X104310Y095390
X107810Y096440
X109400Y097620
X109770Y098050
X111210Y096990
X111330Y095440
X111510Y094440
X121410Y097690
X122110Y096790
X123660Y094590
X127360Y094390
X127660Y096540
X128010Y093690
X138010Y096690
X138010Y094390
X138710Y097940
X144760Y094590
X145260Y094590
X145760Y094590
X146760Y093190
X149710Y094140
X151060Y094190
X153010Y094090
X153510Y094090
X153510Y096090
X154520Y094080
X154710Y097990
X154710Y097890
X156510Y096790
X156710Y094490
X158010Y095040
X158510Y093890
X160110Y094090
X164010Y097790
X165360Y093740
X166010Y095190
X167360Y094440
X167510Y096040
X168260Y097540
X168510Y095290
X171510Y094790
X175010Y097140
X175010Y095290
X176010Y095790
X176260Y097140
X176760Y095540
X024260Y100740
X025160Y098740
X025260Y100340
X025760Y100340
X026310Y098740
X035510Y099190
X035760Y100040
X037610Y098640
X037960Y099640
X038010Y099040
X040960Y100440
X042110Y099040
X043910Y099440
X045810Y098290
X046960Y100640
X047010Y099890
X050260Y098640
X056010Y099890
X056560Y099190
X057010Y100740
X058160Y100740
X059560Y098590
X060460Y100140
X060460Y099090
X062260Y099240
X065810Y098890
X066360Y098890
X066660Y099640
X072010Y099690
X072560Y099390
X075610Y099190
X076310Y100540
X078010Y098540
X078360Y099390
X078860Y099390
X079160Y100840
X079260Y098690
X079510Y098690
X080510Y099040
X083460Y100740
X084060Y100840
X095510Y098390
X098510Y099790
X099510Y099890
X100510Y098440
X104360Y099740
X104960Y100190
X105010Y100840
X108410Y100790
X111210Y099940
X112310Y100440
X112310Y098690
X114710Y100490
X115310Y100590
X116510Y099140
X119360Y098390
X122410Y099040
X123610Y099640
X125010Y099740
X126660Y099740
X129210Y099990
X131110Y099990
X133010Y099790
X133660Y099490
X138910Y099500
X141660Y099500
X141810Y100040
X143760Y100790
X147010Y100640
X149010Y100740
X151210Y100040
X163510Y098290
X164610Y098440
X164910Y099140
X166260Y099540
X175560Y099140
X014710Y105440
X015210Y104440
X016710Y103940
X018210Y104440
X018710Y105440
X021510Y104140
X022760Y103190
X023310Y102340
X024260Y103190
X025310Y102340
X027710Y102040
X038410Y102390
X038510Y105890
X039660Y101940
X040010Y105640
X040680Y102010
X044310Y105790
X045810Y105790
X047310Y105790
X047510Y102890
X047980Y101860
X048510Y103140
X048810Y105790
X049210Y102990
X049810Y103090
X050310Y105790
X050710Y103090
X051510Y104490
X051810Y105790
X052010Y101740
X053310Y105790
X054010Y103140
X055310Y104890
X056010Y102190
X056560Y102890
X056560Y101240
X057010Y104340
X057510Y104740
X057610Y102690
X058010Y104740
X058110Y102740
X058960Y102340
X059510Y104490
X060010Y104740
X060110Y102740
X060460Y100890
X061310Y102640
X061710Y104590
X063110Y101740
X063260Y102740
X063760Y102740
X064260Y104740
X064760Y102740
X088510Y102790
X090010Y103640
X091010Y101940
X093510Y103890
X101210Y102090
X101810Y101990
X104360Y101040
X105360Y101340
X105860Y101690
X107910Y101540
X112010Y104390
X112710Y101590
X114110Y105040
X115010Y102140
X124610Y105040
X126110Y102040
X126110Y102540
X126110Y104040
X126510Y105940
X126860Y104540
X127560Y101640
X128010Y103040
X128510Y102690
X129010Y105890
X129210Y102490
X129710Y101790
X130210Y101640
X130710Y102140
X130810Y105040
X130910Y102890
X130910Y104540
X131510Y101090
X132510Y102040
X132960Y103790
X133060Y101890
X133660Y101540
X135110Y105540
X135160Y104390
X136510Y103040
X137010Y105790
X137510Y102890
X138910Y103340
X145060Y101240
X149910Y105040
X149960Y105040
X150760Y103290
X151060Y101540
X152710Y102040
X154260Y103090
X156060Y101340
X161010Y103790
X161090Y102610
X161110Y102590
X162510Y103390
X162760Y100890
X163010Y103390
X170460Y104190
X170910Y103490
X015210Y106440
X016060Y109740
X016710Y106940
X018210Y106440
X018510Y110640
X025010Y107690
X025760Y109840
X026360Y109840
X027260Y109840
X028010Y109390
X028660Y109940
X031010Y109840
X031510Y110240
X032010Y109840
X034310Y108030
X034460Y109640
X035010Y107390
X040730Y106960
X043950Y107080
X044460Y107990
X045010Y109440
X045710Y107940
X045810Y106740
X046510Y109690
X047310Y106740
X047310Y109340
X048960Y107990
X050060Y107990
X050310Y107390
X051010Y109440
X051810Y109440
X051810Y106740
X052510Y109440
X053310Y107690
X054010Y111040
X054010Y109440
X056070Y106120
X057010Y107240
X062260Y106340
X062760Y106340
X066160Y106090
X110860Y106940
X113010Y106940
X113510Y106940
X115860Y107840
X116510Y108570
X117110Y109040
X117160Y109040
X120060Y108890
X121710Y107890
X122460Y108490
X123010Y107890
X124360Y106540
X127010Y106240
X127510Y106440
X128160Y106290
X128510Y108040
X129860Y108040
X130010Y106440
X130860Y108040
X134510Y106890
X136110Y107740
X136910Y107140
X137760Y109690
X138660Y108740
X147420Y106770
X148410Y108290
X149610Y110740
X162760Y109790
X166310Y108540
X025760Y111840
X027610Y112390
X028010Y111690
X029010Y111840
X029510Y111840
X030510Y111840
X034510Y112440
X114710Y112740
X115360Y112140
X024510Y113940
T11
X016040Y071550
X017170Y069890
X018640Y070010
X066810Y071930
X067030Y070510
X069520Y070200
X073180Y072190
X074430Y072200
X106930Y072380
X108210Y072080
X017170Y073070
X018810Y072840
X068490Y073150
X069640Y072830
X072980Y075020
X074360Y075080
X106340Y073460
X106940Y074840
X108220Y075050
X109890Y073570
X115510Y090040
X068010Y102650
X068520Y101540
X068820Y104150
X069930Y101100
X070610Y104210
X071350Y101770
X073140Y105340
X073510Y103550
X074690Y102960
X076110Y103330
X076700Y104660
X106170Y104190
X106600Y105730
X107930Y103070
X109440Y105700
X109570Y103780
X074260Y106220
X075970Y106080
X107970Y106320
X110180Y109770
X111550Y108230
X112980Y108100
X114420Y109850
X169380Y108430
X169980Y107130
X170360Y109770
X171690Y106970
X171890Y109760
X172710Y108500
X112430Y111420
T12
X051260Y018790
X056260Y018790
X061260Y018790
X066260Y018790
X071260Y018790
X076260Y018790
X078510Y018790
X083510Y018790
X088510Y018790
X093510Y018790
X098510Y018790
X103510Y018790
X111510Y018790
X116510Y018790
X121510Y018790
X126510Y018790
X131510Y018790
X136510Y018790
X007010Y022040
X007760Y024540
X011760Y019040
X014260Y019540
X016760Y019040
X019260Y019540
X021760Y019040
X024260Y019540
X026760Y019040
X029260Y019540
X031760Y019040
X034260Y019540
X036760Y019040
X039260Y019540
X044510Y019540
X045510Y025540
X046510Y025540
X047510Y025540
X048510Y025540
X049510Y025540
X049510Y019540
X050510Y025540
X051510Y025540
X052510Y025540
X053510Y025540
X054510Y019540
X054510Y025540
X059510Y019540
X060260Y025540
X061260Y025540
X062260Y025540
X063260Y025540
X064260Y025540
X064510Y019540
X065260Y025540
X066260Y025540
X067260Y025540
X068260Y025540
X069260Y025540
X069510Y019540
X084510Y019540
X089510Y019540
X094510Y019540
X099510Y019540
X104510Y019540
X109510Y019540
X114510Y019540
X119510Y019540
X124510Y019540
X129510Y019540
X134510Y019540
X139510Y019540
X146510Y021790
X146760Y024040
X007010Y027040
X007760Y029540
X014010Y028540
X014010Y029540
X014010Y030540
X014010Y031540
X014010Y027540
X015010Y030540
X015010Y031540
X015010Y028540
X015010Y027540
X015010Y029540
X016010Y028540
X016010Y030540
X016010Y027540
X016010Y029540
X016010Y031540
X045510Y028540
X045510Y031540
X046510Y031540
X046510Y028540
X047510Y031540
X047510Y028540
X048510Y028540
X048510Y031540
X049510Y031540
X049510Y028540
X050510Y031540
X050510Y028540
X051510Y028540
X051510Y031540
X052510Y028540
X052510Y031540
X053510Y028540
X053510Y031540
X054510Y028540
X054510Y031540
X060260Y031540
X060260Y028540
X061260Y031540
X061260Y028540
X062260Y031540
X062260Y028540
X063260Y028540
X063260Y031540
X064260Y031540
X064260Y028540
X065260Y031540
X065260Y028540
X066260Y028540
X066260Y031540
X067260Y028540
X067260Y031540
X068260Y028540
X068260Y031540
X069260Y028540
X069260Y031540
X073760Y028540
X074760Y028540
X075760Y028540
X076760Y028540
X077760Y028540
X078760Y028540
X079760Y028540
X080760Y028540
X081760Y028540
X082760Y028540
X083760Y028540
X084760Y028540
X087510Y029540
X090510Y029540
X092510Y030040
X093510Y030040
X094510Y030040
X096760Y031540
X097760Y031540
X098760Y031540
X100760Y031540
X101760Y031540
X102760Y031540
X146510Y026790
X146760Y029040
X151010Y031540
X152010Y031540
X153010Y031540
X154010Y031540
X155010Y031540
X156010Y031540
X157010Y031540
X158010Y031540
X159010Y031540
X160010Y031540
X161010Y031540
X162010Y031540
X163010Y031540
X164010Y031540
X165010Y031540
X166010Y031540
X167010Y031540
X168010Y031540
X169010Y031540
X170010Y031540
X171010Y031540
X172010Y031540
X173010Y031540
X174010Y031540
X175010Y031540
X176010Y031540
X177010Y031540
X178010Y031540
X007010Y032040
X009660Y033770
X010660Y034220
X010660Y033320
X011660Y033770
X014010Y033540
X014010Y032540
X015010Y032540
X015010Y033540
X016010Y032540
X016010Y033540
X087510Y032540
X090510Y032540
X104760Y033040
X105760Y033040
X109760Y034040
X109760Y032040
X116410Y033040
X146510Y031790
X146760Y034040
X151010Y032540
X151010Y033540
X152010Y033540
X152010Y032540
X153010Y033540
X153010Y032540
X154010Y033540
X154010Y032540
X155010Y033540
X155010Y032540
X156010Y033540
X156010Y032540
X157010Y032540
X157010Y033540
X158010Y033540
X158010Y032540
X159010Y032540
X159010Y033540
X160010Y033540
X160010Y032540
X161010Y033540
X161010Y032540
X162010Y033540
X162010Y032540
X163010Y032540
X163010Y033540
X164010Y033540
X164010Y032540
X165010Y033540
X165010Y032540
X166010Y033540
X166010Y032540
X167010Y033540
X167010Y032540
X168010Y033540
X168010Y032540
X169010Y033540
X169010Y032540
X170010Y032540
X170010Y033540
X171010Y033540
X171010Y032540
X172010Y033540
X172010Y032540
X173010Y033540
X173010Y032540
X174010Y033540
X174010Y032540
X175010Y033540
X175010Y032540
X176010Y032540
X176010Y033540
X177010Y033540
X177010Y032540
X178010Y032540
X178010Y033540
X007760Y034540
X009660Y035570
X009660Y036470
X009660Y034670
X010660Y035120
X010660Y036020
X011660Y034670
X011660Y036470
X011660Y035570
X014010Y035540
X014010Y034540
X014010Y036540
X015010Y036540
X015010Y035540
X015010Y034540
X016010Y035540
X016010Y036540
X016010Y034540
X045510Y034540
X046510Y034540
X047510Y034540
X048510Y034540
X049510Y034540
X050510Y034540
X051510Y034540
X052510Y034540
X053510Y034540
X054510Y034540
X060260Y034540
X061260Y034540
X062260Y034540
X063260Y034540
X064260Y034540
X065260Y034540
X066260Y034540
X067260Y034540
X068260Y034540
X069260Y034540
X073760Y035790
X073760Y034540
X074760Y034540
X075760Y034540
X076760Y034540
X077760Y034540
X077760Y035790
X078760Y034540
X079760Y034540
X080760Y034540
X081760Y034540
X082760Y034540
X083760Y034540
X084760Y034540
X087510Y035540
X090510Y035540
X146510Y036790
X151010Y036540
X151010Y035540
X151010Y034540
X152010Y035540
X152010Y036540
X152010Y034540
X153010Y035540
X153010Y034540
X153010Y036540
X154010Y035540
X154010Y036540
X154010Y034540
X155010Y036540
X155010Y035540
X155010Y034540
X156010Y035540
X156010Y036540
X156010Y034540
X157010Y035540
X157010Y036540
X157010Y034540
X158010Y035540
X158010Y036540
X158010Y034540
X159010Y035540
X159010Y036540
X159010Y034540
X160010Y035540
X160010Y036540
X160010Y034540
X161010Y036540
X161010Y035540
X161010Y034540
X162010Y035540
X162010Y034540
X162010Y036540
X163010Y035540
X163010Y036540
X163010Y034540
X164010Y035540
X164010Y036540
X164010Y034540
X165010Y035540
X165010Y036540
X165010Y034540
X166010Y034540
X166010Y035540
X166010Y036540
X167010Y036540
X167010Y034540
X167010Y035540
X168010Y036540
X168010Y035540
X168010Y034540
X169010Y035540
X169010Y036540
X169010Y034540
X170010Y035540
X170010Y034540
X170010Y036540
X171010Y035540
X171010Y036540
X171010Y034540
X172010Y036540
X172010Y035540
X172010Y034540
X173010Y035540
X173010Y036540
X173010Y034540
X174010Y035540
X174010Y036540
X174010Y034540
X175010Y036540
X175010Y035540
X175010Y034540
X176010Y035540
X176010Y034540
X176010Y036540
X177010Y036540
X177010Y035540
X177010Y034540
X178010Y034540
X178010Y036540
X178010Y035540
X007010Y037040
X007760Y039540
X009660Y037370
X010660Y036920
X011660Y037370
X014010Y041540
X015010Y041540
X016010Y041540
X017010Y041540
X018010Y041540
X019010Y041540
X020010Y041540
X021010Y041540
X022010Y041540
X023510Y041540
X024510Y041540
X025510Y041540
X026510Y041540
X027510Y041540
X028510Y041540
X029510Y041540
X030510Y041540
X031510Y041540
X033010Y041540
X034010Y041540
X035010Y041540
X036010Y041540
X037010Y041540
X038010Y041540
X039010Y041540
X040010Y041540
X041010Y041540
X047510Y039540
X048510Y039540
X049510Y039540
X050510Y039540
X051510Y039540
X052510Y039540
X053510Y039540
X054510Y039540
X055510Y039540
X104760Y037040
X105760Y037040
X109760Y038540
X109760Y040540
X116410Y039540
X146510Y041790
X146760Y039040
X151010Y039540
X151010Y038540
X151010Y041540
X151010Y040540
X151010Y037540
X152010Y039540
X152010Y041540
X152010Y040540
X152010Y038540
X152010Y037540
X153010Y039540
X153010Y040540
X153010Y041540
X153010Y038540
X153010Y037540
X154010Y038540
X154010Y041540
X154010Y039540
X154010Y040540
X154010Y037540
X155010Y039540
X155010Y037540
X155010Y038540
X155010Y040540
X155010Y041540
X156010Y039540
X156010Y040540
X156010Y037540
X156010Y038540
X156010Y041540
X157010Y038540
X157010Y039540
X157010Y037540
X157010Y040540
X157010Y041540
X158010Y039540
X158010Y041540
X158010Y038540
X158010Y040540
X158010Y037540
X159010Y037540
X159010Y041540
X159010Y038540
X159010Y040540
X159010Y039540
X160010Y038540
X160010Y037540
X160010Y041540
X160010Y040540
X160010Y039540
X161010Y038540
X161010Y041540
X161010Y040540
X161010Y037540
X161010Y039540
X162010Y040540
X162010Y041540
X162010Y037540
X162010Y039540
X162010Y038540
X163010Y040540
X163010Y039540
X163010Y037540
X163010Y038540
X163010Y041540
X164010Y040540
X164010Y037540
X164010Y038540
X164010Y039540
X164010Y041540
X165010Y040540
X165010Y039540
X165010Y037540
X165010Y038540
X165010Y041540
X166010Y039540
X166010Y038540
X166010Y037540
X166010Y041540
X166010Y040540
X167010Y037540
X167010Y041540
X167010Y040540
X167010Y039540
X167010Y038540
X168010Y038540
X168010Y037540
X168010Y041540
X168010Y039540
X168010Y040540
X169010Y037540
X169010Y038540
X169010Y039540
X169010Y041540
X169010Y040540
X170010Y041540
X170010Y038540
X170010Y037540
X170010Y040540
X170010Y039540
X171010Y039540
X171010Y037540
X171010Y041540
X171010Y038540
X171010Y040540
X172010Y041540
X172010Y038540
X172010Y040540
X172010Y037540
X172010Y039540
X173010Y041540
X173010Y039540
X173010Y038540
X173010Y040540
X173010Y037540
X174010Y040540
X174010Y037540
X174010Y039540
X174010Y038540
X174010Y041540
X175010Y039540
X175010Y040540
X175010Y041540
X175010Y038540
X175010Y037540
X176010Y040540
X176010Y039540
X176010Y041540
X176010Y037540
X176010Y038540
X177010Y041540
X177010Y040540
X177010Y037540
X177010Y038540
X177010Y039540
X178010Y040540
X178010Y039540
X178010Y037540
X178010Y038540
X178010Y041540
X007010Y047040
X007010Y042040
X007760Y046290
X007760Y044540
X009660Y046360
X010660Y046810
X010660Y045910
X011660Y046360
X014010Y046040
X014010Y044040
X014010Y045040
X014010Y043040
X014010Y047040
X015010Y043040
X015010Y047040
X015010Y046040
X015010Y045040
X015010Y044040
X016010Y045040
X016010Y047040
X016010Y044040
X016010Y046040
X016010Y043040
X018010Y043040
X018760Y045290
X018760Y046290
X019010Y043040
X020010Y043040
X021260Y045940
X021260Y044940
X022260Y045940
X022260Y044940
X023260Y045940
X023260Y044940
X024260Y045940
X024260Y044940
X025260Y044940
X025260Y045940
X026260Y045940
X026260Y044940
X027260Y045940
X027260Y044940
X028260Y044940
X028260Y045940
X029260Y045940
X029260Y044940
X030260Y045940
X030260Y044940
X031260Y045940
X031260Y044940
X032260Y045940
X032260Y044940
X033260Y044940
X033260Y045940
X034260Y044940
X034260Y045940
X035260Y045940
X035260Y044940
X064510Y044540
X096230Y045940
X096230Y044940
X097230Y045940
X097230Y044940
X098230Y044940
X098230Y045940
X099230Y045940
X099230Y044940
X100230Y044940
X100230Y045940
X101230Y044940
X101230Y045940
X102230Y044940
X102230Y045940
X103230Y044940
X103230Y045940
X104230Y045940
X104230Y044940
X105230Y044940
X105230Y045940
X106230Y045940
X106230Y044940
X107230Y044940
X107230Y045940
X108230Y044940
X108230Y045940
X109230Y044940
X109230Y045940
X110230Y044940
X110230Y045940
X115510Y043540
X116510Y043540
X146510Y046790
X146760Y044040
X151010Y042540
X152010Y042540
X153010Y042540
X154010Y042540
X155010Y042540
X156010Y042540
X157010Y042540
X158010Y042540
X159010Y042540
X160010Y042540
X161010Y042540
X162010Y042540
X163010Y042540
X164010Y042540
X165010Y042540
X166010Y042540
X167010Y042540
X168010Y042540
X169010Y042540
X170010Y042540
X171010Y042540
X172010Y042540
X173010Y042540
X174010Y042540
X175010Y042540
X176010Y042540
X177010Y042540
X178010Y042540
X007760Y049540
X007760Y051290
X009660Y049060
X009660Y049960
X009660Y047260
X009660Y048160
X010660Y048610
X010660Y049510
X010660Y047710
X011660Y049960
X011660Y047260
X011660Y048160
X011660Y049060
X014010Y051040
X014010Y049040
X014010Y050040
X014010Y048040
X015010Y048040
X015010Y049040
X015010Y050040
X015010Y051040
X016010Y050040
X016010Y051040
X016010Y048040
X016010Y049040
X018760Y047290
X064510Y048540
X145010Y052040
X146010Y052040
X146760Y049040
X147010Y052040
X148010Y049040
X148010Y052040
X149010Y052040
X149510Y049540
X150010Y052040
X151010Y052040
X152010Y052040
X153010Y049040
X153010Y052040
X154010Y052040
X154510Y049540
X155010Y052040
X156010Y052040
X158010Y049040
X159510Y049540
X163010Y049040
X164510Y049540
X168010Y049040
X169510Y049540
X173010Y049040
X174510Y049540
X007760Y056290
X007760Y059790
X039010Y059540
X040010Y059540
X041010Y059540
X042010Y059540
X043010Y059540
X044010Y059540
X045010Y059540
X046010Y059540
X047010Y059540
X048510Y059540
X049510Y059540
X050510Y059540
X051510Y059540
X052510Y059540
X053510Y059540
X054510Y059540
X055510Y059540
X056510Y059540
X058510Y059540
X059510Y059540
X060510Y059540
X061510Y059540
X062510Y059540
X063510Y059540
X064510Y059540
X065510Y059540
X066510Y059540
X084010Y056040
X084010Y057540
X088010Y056040
X090010Y057540
X145010Y058040
X146010Y058040
X147010Y058040
X148010Y058040
X149010Y058040
X150010Y058040
X151010Y058040
X152010Y058040
X153010Y058040
X154010Y058040
X155010Y058040
X156010Y058040
X171010Y058790
X171010Y056790
X171010Y057790
X171010Y059790
X173340Y055790
X173340Y058790
X173340Y057790
X173340Y059790
X178010Y053540
X178010Y058540
X178060Y057690
X007760Y061290
X007760Y064790
X015510Y061040
X016510Y061040
X017510Y061040
X018510Y061040
X019510Y061040
X020510Y061040
X021510Y061040
X022510Y061040
X023510Y061040
X025510Y061040
X026510Y061040
X027510Y061040
X028510Y061040
X029510Y061040
X030510Y061040
X031510Y061040
X032510Y061040
X033510Y061040
X038790Y062560
X038790Y063560
X039790Y063560
X039790Y062560
X040790Y062560
X040790Y063560
X041790Y063560
X041790Y062560
X042790Y063560
X042790Y062560
X043790Y062560
X043790Y063560
X044790Y062560
X044790Y063560
X045790Y063560
X045790Y062560
X046790Y063560
X046790Y062560
X047790Y062560
X047790Y063560
X048790Y062560
X048790Y063560
X049790Y062560
X049790Y063560
X050790Y062560
X050790Y063560
X051790Y062560
X051790Y063560
X052790Y063560
X052790Y062560
X053790Y063560
X053790Y062560
X054790Y062560
X054790Y063560
X055790Y063560
X055790Y062560
X056790Y063560
X056790Y062560
X057790Y062560
X057790Y063560
X058790Y063560
X058790Y062560
X059790Y062560
X059790Y063560
X060790Y062560
X060790Y063560
X061790Y062560
X061790Y063560
X062790Y063560
X062790Y062560
X074010Y064540
X116230Y062940
X116230Y061940
X117230Y061940
X117230Y062940
X118230Y062940
X118230Y061940
X119230Y062940
X119230Y061940
X120230Y062940
X120230Y061940
X121230Y062940
X121230Y061940
X122230Y062940
X122230Y061940
X123230Y062940
X123230Y061940
X124230Y062940
X124230Y061940
X125230Y061940
X125230Y062940
X126230Y062940
X126230Y061940
X127230Y061940
X127230Y062940
X128230Y061940
X128230Y062940
X129230Y061940
X129230Y062940
X130230Y062940
X130230Y061940
X131230Y062940
X131230Y061940
X132230Y061940
X132230Y062940
X133230Y061940
X133230Y062940
X134230Y061940
X134230Y062940
X135230Y061940
X135230Y062940
X136230Y062940
X136230Y061940
X137230Y061940
X137230Y062940
X138230Y061940
X138230Y062940
X139230Y061940
X139230Y062940
X140230Y062940
X140230Y061940
X145010Y064040
X145010Y061040
X146010Y061040
X146010Y064040
X147010Y061040
X147010Y064040
X148010Y064040
X148010Y061040
X149010Y061040
X149010Y064040
X150010Y061040
X150010Y064040
X151010Y064040
X151010Y061040
X152010Y064040
X152010Y061040
X153010Y061040
X153010Y064040
X154010Y064040
X154010Y061040
X155010Y064040
X155010Y061040
X156010Y064040
X156010Y061040
X171010Y061790
X171010Y063790
X171010Y062790
X171010Y060790
X171010Y064790
X173340Y060790
X173340Y064790
X173340Y062790
X173340Y061790
X173340Y063790
X178010Y063540
X178060Y062690
X007760Y069790
X007760Y071290
X007760Y066290
X026360Y072040
X033010Y071040
X050510Y069290
X051510Y069290
X052510Y069290
X053510Y069290
X054510Y069290
X055510Y069290
X056510Y069290
X057510Y069290
X058510Y069290
X059010Y066790
X060010Y066790
X061010Y066790
X062010Y066790
X063010Y066790
X064010Y066790
X065010Y066790
X066010Y066790
X067010Y066790
X074010Y068540
X087010Y066540
X087010Y069540
X090010Y066540
X090010Y069540
X093010Y066540
X093010Y069540
X114810Y066490
X115810Y066490
X116810Y066490
X117810Y066490
X178010Y068540
X178060Y067690
X010510Y076090
X010510Y078290
X014870Y079020
X014870Y077440
X014870Y076650
X014870Y075860
X014870Y079810
X014870Y078230
X016440Y079810
X016440Y076650
X016440Y078230
X016440Y077440
X016440Y079020
X016440Y075860
X033010Y073040
X061260Y077040
X069260Y077040
X117510Y074290
X120910Y074220
X120910Y076220
X120910Y075220
X120910Y077220
X120910Y079220
X120910Y080220
X120910Y073220
X120910Y078220
X121910Y073220
X121910Y079220
X121910Y078220
X121910Y080220
X121910Y076220
X121910Y074220
X121910Y077220
X121910Y075220
X153760Y077290
X153760Y080290
X153760Y074290
X156760Y080290
X156760Y074290
X156760Y077290
X178010Y073540
X178010Y078540
X178060Y072690
X178060Y077690
X010510Y083290
X010510Y081090
X014870Y085340
X014870Y082180
X014870Y084550
X014870Y080600
X014870Y081390
X014870Y082970
X014870Y083760
X016440Y085340
X016440Y082180
X016440Y084550
X016440Y080600
X016440Y081390
X016440Y082970
X016440Y083760
X081510Y085040
X082300Y085040
X101760Y084040
X117510Y082290
X120910Y084220
X120910Y083220
X120910Y082220
X120910Y085220
X120910Y081220
X121910Y083220
X121910Y081220
X121910Y082220
X121910Y085220
X121910Y084220
X154510Y084540
X162510Y084540
X167010Y084790
X174010Y084790
X178010Y081790
X178010Y083790
X178060Y082690
X010510Y086090
X010510Y088290
X014870Y086130
X014870Y090080
X014870Y089290
X014870Y087710
X014870Y088500
X014870Y086920
X016440Y088500
X016440Y086920
X016440Y086130
X016440Y089290
X016440Y090080
X016440Y087710
X020010Y086040
X021010Y086040
X022010Y086040
X023010Y086040
X024010Y086040
X025010Y086040
X026010Y086040
X027010Y086040
X028010Y086040
X029010Y086040
X030010Y086040
X031010Y086040
X047010Y088540
X047010Y086540
X048010Y088540
X049010Y088540
X050010Y088540
X051010Y088540
X052010Y088540
X053010Y088540
X054010Y086540
X055510Y087540
X081510Y086620
X081510Y088200
X081510Y089780
X081510Y088990
X081510Y085830
X081510Y090570
X081510Y087410
X082300Y088990
X082300Y086620
X082300Y087410
X082300Y089780
X082300Y088200
X082300Y085830
X082300Y090570
X090010Y090040
X092260Y089790
X093260Y089790
X094260Y089790
X097510Y090520
X097510Y089540
X098200Y089540
X098890Y090520
X098890Y089540
X099720Y090520
X099720Y089540
X100410Y089540
X101100Y089540
X101100Y090520
X105510Y089040
X106400Y089040
X107280Y089040
X117510Y087540
X117510Y088540
X120910Y088220
X120910Y086220
X120910Y087220
X120910Y089220
X121910Y088220
X121910Y086220
X121910Y087220
X121910Y089220
X162260Y087040
X178010Y088790
X178010Y086790
X014870Y090870
X016010Y094540
X016440Y090870
X020010Y092040
X021010Y092040
X021010Y094540
X022010Y092040
X023010Y092040
X024010Y092040
X025010Y092040
X026010Y092040
X027010Y092040
X028010Y092040
X029010Y092040
X030010Y092040
X031010Y092040
X046510Y095040
X047010Y091540
X047510Y095040
X048010Y091540
X048510Y095040
X049010Y091540
X049510Y095040
X050010Y091540
X050510Y095040
X051010Y091540
X051510Y095040
X052010Y091540
X052510Y095040
X053010Y091540
X053510Y095040
X055510Y091540
X081510Y092150
X081510Y091360
X081510Y093730
X081510Y095310
X081510Y092940
X081510Y094520
X082300Y092940
X082300Y093730
X082300Y091360
X082300Y094520
X082300Y092150
X082300Y095310
X088510Y091040
X088510Y095040
X090010Y093040
X092010Y095040
X092010Y091040
X094010Y092040
X094010Y095040
X095010Y092040
X095010Y095040
X096010Y092040
X096010Y095040
X097010Y095040
X097010Y092040
X098010Y092040
X098010Y095040
X099010Y092040
X099010Y095040
X100010Y095040
X100010Y092040
X101010Y092040
X101010Y095040
X102010Y092040
X102010Y095040
X103010Y092040
X103010Y095040
X105510Y090810
X106510Y092040
X107280Y090810
X109010Y092540
X110010Y092540
X113510Y094540
X114510Y094540
X115510Y094540
X116510Y094540
X117510Y094540
X118510Y094540
X119510Y094540
X120510Y094540
X123510Y091540
X124510Y091540
X125510Y091540
X126510Y091540
X127510Y091540
X128510Y091540
X129510Y091540
X130510Y091540
X131510Y091540
X132510Y091540
X133510Y091540
X134510Y091540
X135510Y091540
X136510Y091540
X141260Y093790
X150010Y091290
X155510Y091290
X162260Y093040
X176510Y092540
X178010Y093790
X178010Y091790
X014510Y100540
X014510Y098290
X014510Y097290
X014510Y099290
X016010Y096540
X016010Y100540
X018010Y097040
X018510Y099040
X019510Y099040
X020510Y099040
X026010Y097040
X030510Y100540
X030510Y097540
X033510Y097540
X033510Y100540
X046510Y098040
X047510Y098040
X048510Y098040
X049510Y098040
X050510Y098040
X051510Y098040
X052510Y098040
X053510Y098040
X081510Y099260
X081510Y096100
X081510Y097680
X081510Y096890
X081510Y100050
X081510Y098470
X081510Y100840
X082300Y096890
X082300Y096100
X082300Y099260
X082300Y098470
X082300Y100840
X082300Y097680
X082300Y100050
X089260Y099790
X090010Y096540
X096010Y096540
X097260Y099790
X097510Y098540
X097510Y096540
X097510Y097540
X099510Y099040
X106510Y096040
X107510Y099040
X109010Y100040
X109010Y096040
X110010Y096040
X110010Y100040
X113510Y097540
X114510Y097540
X115510Y097540
X116510Y097540
X117510Y097540
X118510Y097540
X119510Y097540
X120510Y097540
X123510Y097540
X123510Y099040
X124510Y097540
X124510Y099040
X125510Y099040
X125510Y097540
X126510Y099040
X126510Y097540
X127510Y097540
X127510Y099040
X128510Y097540
X128510Y099040
X129510Y099040
X129510Y097540
X130510Y097540
X130510Y099040
X131510Y097540
X131510Y099040
X132510Y097540
X133510Y097540
X134510Y097540
X135510Y097540
X135760Y100040
X135760Y099040
X136510Y097540
X137760Y099040
X137760Y100040
X141260Y100790
X143010Y097290
X144010Y097290
X145010Y097290
X150010Y098290
X152510Y098540
X155510Y098290
X159010Y098540
X161760Y098540
X165510Y098540
X166010Y096540
X166510Y098540
X167510Y098540
X168510Y098540
X169510Y098540
X170510Y098540
X171510Y098540
X172010Y096540
X172510Y098540
X173510Y098540
X176510Y096540
X178010Y098790
X178010Y096790
X014510Y101540
X014510Y102540
X018510Y102040
X019510Y102040
X020010Y108040
X020510Y102040
X021510Y108040
X027010Y106040
X030510Y103540
X033510Y103540
X034010Y107040
X034010Y106040
X036010Y106040
X037510Y108040
X041510Y108040
X043010Y106040
X081510Y101630
X082300Y101630
X092010Y104540
X092010Y105540
X092010Y106540
X094510Y104290
X094510Y105290
X098510Y105290
X098510Y104290
X116010Y102540
X117010Y102540
X118010Y102540
X133510Y107540
X135510Y102290
X135760Y105790
X135760Y104790
X135760Y103790
X135760Y101040
X137510Y107540
X137760Y101040
X139260Y105290
X141510Y102290
X147010Y106290
X147010Y103290
X148010Y103290
X148010Y106290
X149010Y103290
X149010Y106290
X150010Y103290
X150010Y106290
X152510Y106540
X159010Y106540
X161760Y106540
X178010Y103790
X178010Y101790
X178010Y106790
X014510Y111040
X014510Y109040
X014510Y110040
X018510Y109540
X020010Y109040
X020010Y110040
X021510Y109040
X021510Y110040
X036510Y109040
X037510Y109040
X038510Y109040
X039510Y109040
X040510Y109040
X041510Y109040
X042510Y109040
X055510Y110040
X055510Y111040
X055510Y109040
X057010Y109040
X057010Y110040
X057010Y111040
X058510Y110040
X058510Y109040
X058510Y111040
X060010Y110040
X060010Y109040
X060010Y111040
X061510Y110040
X061510Y109040
X061510Y111040
X063010Y109040
X063010Y110040
X063010Y111040
X064510Y110040
X064510Y111040
X064510Y109040
X066010Y109040
X066010Y110040
X066010Y111040
X067510Y109040
X067510Y111040
X067510Y110040
X069010Y110040
X069010Y111040
X069010Y109040
X070510Y110040
X070510Y111040
X070510Y109040
X072010Y111040
X072010Y109040
X072010Y110040
X073510Y109040
X073510Y111040
X073510Y110040
X075010Y111040
X075010Y109040
X075010Y110040
X076510Y109040
X076510Y111040
X076510Y110040
X078010Y111040
X078010Y110040
X078010Y109040
X079510Y110040
X079510Y111040
X079510Y109040
X081010Y109040
X081010Y110040
X081010Y111040
X082510Y109040
X082510Y111040
X082510Y110040
X084010Y109040
X084010Y111040
X084010Y110040
X107010Y110540
X107010Y109540
X108010Y110540
X108010Y109540
X124010Y111040
X124010Y109040
X124010Y110040
X131510Y110540
X132510Y110540
X133010Y109040
X133510Y110540
X134510Y110540
X135510Y110540
X136510Y110540
X137510Y110540
X138010Y109040
X138510Y110540
X139260Y109290
X178010Y108790
X014510Y113540
X014510Y112540
X016640Y113190
X016640Y111230
X016640Y112210
X018510Y113540
X019510Y113540
X026510Y113540
X028010Y113040
X032010Y113040
X036510Y112040
X037510Y112040
X038510Y112040
X039510Y112040
X040510Y112040
X041510Y112040
X042510Y112040
X048360Y112920
X049190Y112920
X050050Y112920
X051040Y112920
X058210Y113350
X059300Y113350
X060390Y113350
X061480Y113350
X062570Y113350
X072340Y113350
X073420Y113350
X074510Y113350
X075600Y113350
X076680Y113350
X077770Y113350
X078860Y113350
X079940Y113350
X081030Y113350
X082110Y113350
X083200Y113350
X084290Y113350
X085370Y113350
X107010Y111540
X108010Y111540
X109000Y113550
X110080Y113550
X111170Y113550
X112260Y113550
X113340Y113550
X114430Y113550
X115520Y113550
X116600Y113550
X117690Y113550
X118770Y113550
X125510Y112040
X126510Y112040
X127510Y112040
X128510Y112040
X129510Y112040
X129550Y113550
X130510Y112040
X130550Y113550
X131510Y112040
X131550Y113550
X132510Y112040
X132550Y113550
X133550Y113550
X134550Y113550
X135550Y113550
X136550Y113550
X137510Y112040
X137550Y113550
X138510Y112040
X138550Y113550
X139510Y112040
X139550Y113550
X140510Y112040
X140550Y113550
X141510Y112040
X141550Y113550
X142510Y112040
X143510Y112040
X144510Y112040
X167410Y113290
X167860Y112290
X168310Y113290
X168760Y112290
X169210Y113290
X169660Y112290
X170110Y113290
X170560Y112290
X171010Y113290
X171460Y112290
X171910Y113290
X172360Y112290
X172810Y113290
X173260Y112290
X173710Y113290
X174160Y112290
X174610Y113290
X175060Y112290
X014510Y114540
X020260Y115790
X025260Y115790
X028010Y114040
X030260Y115790
X032010Y114040
X034010Y114040
X035260Y115790
X035510Y114040
X040260Y115790
X042510Y114040
X045260Y115790
X048360Y113920
X049190Y113920
X050210Y113920
X051040Y113920
X058760Y114470
X059850Y114470
X060940Y114470
X062030Y114470
X072880Y114480
X073970Y114480
X075050Y114480
X076140Y114480
X077230Y114480
X078310Y114480
X078510Y115790
X079400Y114480
X080480Y114480
X081570Y114480
X082660Y114480
X083510Y115790
X083740Y114480
X084830Y114480
X088510Y115790
X109540Y114680
X110630Y114680
X111710Y114680
X112800Y114680
X113890Y114680
X114970Y114680
X116060Y114680
X117140Y114680
X118230Y114680
X129550Y115050
X130050Y115800
X130050Y114300
X130550Y115050
X131050Y115800
X131050Y114300
X131550Y115050
X132050Y114300
X132050Y115800
X132550Y115050
X133050Y114300
X133050Y115800
X133550Y115050
X134050Y114300
X134050Y115800
X134550Y115050
X135050Y115800
X135050Y114300
X135550Y115050
X136050Y114300
X136050Y115800
X136550Y115050
X137050Y114300
X137050Y115800
X137550Y115050
X138050Y115800
X138050Y114300
X138550Y115050
X139050Y114300
X139050Y115800
X139550Y115050
X140050Y114300
X140050Y115800
X140550Y115050
X141050Y114300
X141550Y115050
X167860Y114290
X168760Y114290
X169660Y114290
X170560Y114290
X171460Y114290
X172360Y114290
X173260Y114290
X174160Y114290
X141050Y115800
T13
X021510Y031040
X023760Y024290
X028760Y024290
X095760Y033540
X101760Y033540
X107760Y031540
X014010Y039540
X014010Y038040
X019010Y039540
X019010Y038040
X021510Y036040
X047010Y042040
X052010Y042040
X085010Y038040
X090010Y038040
X093510Y039540
X093510Y034540
X097260Y037040
X103260Y037040
X107760Y037540
X014010Y052540
X014010Y055540
X019010Y052540
X019010Y055540
X073760Y062290
X078760Y062290
X080510Y059540
X081510Y061540
X085510Y059540
X097010Y069040
X102010Y069040
X018010Y078540
X018010Y081540
X018010Y077040
X018010Y080040
X023010Y078540
X023010Y081540
X023010Y077040
X023010Y080040
X036760Y075040
X041760Y075040
X081510Y079540
X133010Y073040
X133010Y078040
X169510Y082540
X169510Y077540
X048010Y093040
X054010Y093040
X055760Y093040
X057510Y084290
X059760Y093040
X062510Y084290
X073010Y092640
X077010Y090290
X102760Y086540
X104940Y089930
X107760Y086540
X107850Y089930
X126510Y084290
X126510Y086040
X128010Y088540
X131510Y086040
X131510Y084290
X133010Y088540
X150760Y089290
X160260Y089290
X023010Y094540
X028010Y094540
X062510Y096040
X062510Y101040
X073010Y097640
X077010Y101790
X087760Y099790
X097150Y102680
X098150Y102680
X099150Y102680
X155760Y099290
X164010Y094040
X164010Y100040
X164010Y099040
X165510Y100040
X167010Y100040
X168510Y100040
X170010Y100040
X171510Y100040
X173010Y100040
X174510Y100040
X176010Y100040
X017110Y109970
X023510Y105040
X023510Y110040
X036510Y104040
X042510Y104040
X087760Y110790
X105010Y106540
X116510Y106540
X119010Y106540
X121510Y106540
X148010Y107540
X150010Y107540
X152010Y107540
X155760Y108790
X159510Y107540
X161010Y107540
X162510Y107540
X164010Y106040
X164010Y105040
X164010Y111040
X165510Y106040
X165510Y105040
X165510Y111040
X167010Y106040
X167010Y105040
X167010Y111040
X168510Y105040
X170010Y105040
X171510Y105040
X173010Y105040
X174510Y105040
X174510Y106040
X174510Y111040
X176010Y105040
X176010Y106040
X176010Y111040
X015770Y114410
X105010Y111540
X116510Y111540
X119010Y111540
X121510Y111540
X148010Y112540
X148100Y115870
X148100Y116850
X150010Y112540
X150100Y113910
X152010Y112540
X152100Y115870
X152100Y116850
X158340Y116850
X158340Y115870
X159510Y112540
X160340Y113910
X161010Y112540
X162340Y115870
X162510Y112540
X162340Y116850
T14
X108260Y041040
X108260Y039040
X069790Y105240
X074900Y107210
X107970Y107210
X016640Y107990
T15
X073880Y081820
X073880Y080260
X073880Y078700
X007090Y102680
X007090Y098740
X007090Y108190
X073880Y083380
X073880Y086500
X073880Y084940
X073880Y088060
X007090Y112130
X148100Y113910
X149100Y113910
X150100Y115870
X151100Y113910
X152100Y113910
X158340Y113910
X159340Y113910
X161340Y113910
X162340Y113910
X160340Y115870
T16
X011030Y097760
X073880Y089620
X011030Y100710
X011030Y107210
X011030Y103660
X011030Y110160
X012010Y108190
X012010Y098740
X012010Y112130
X012010Y102680
X011030Y113110
T17
X047040Y115110
X052360Y115110
X049700Y115420
T18
X010010Y096170
X010010Y070600
X126350Y115050
X164710Y113290
X177810Y113290
X144750Y115050
T19
X119000Y041650
X119000Y027490
X130510Y034540
X142220Y041650
X142220Y027490
X055460Y113910
X065310Y113910
X069610Y113910
X088110Y113910
X091150Y108390
X103150Y108390
X106270Y114110
X121520Y114050
X095970Y116740
T20
X010660Y030550
X010660Y043140
X010660Y040390
X077070Y020400
X010660Y052980
X017810Y071580
X068610Y071580
X073720Y073550
X176880Y050320
X107970Y073550
T21
X145770Y020400
T22
X016640Y105440
X069790Y102690
X074900Y104660
X107970Y104660
X112310Y109770
X155210Y113320
T23
X011010Y023040
X174010Y023040
X011010Y122040
X174010Y122040
T24
T25
X006410Y063510
X047140Y018240
X106590Y018240
X179030Y070000
X179030Y099930
T26
X095850Y107510
X171010Y108390
T27
X143410Y071390
X171010Y071390
X143410Y108390
T28
M30

