M48
; Falcon rev4 PTH drills r2 - gerbers2 (rev2 KiCad) coordinate frame - flash + drawn-pad analysis
; Units: inches; coordinate format: 2.3; leading zero suppression
INCH,LZ
T01C0.02000
T02C0.02500
T03C0.03800
T04C0.05000
T05C0.05500
T06C0.06200
T07C0.07500
T08C0.09000
T09C0.10900
T10C0.12500
T11C0.13800
T12C0.13900
T13C0.15000
T14C0.15800
T15C0.16500
T16C0.19600
T17C0.23700
T18C0.27600
T19C0.31500
%
T01
X07296Y02294
X03271Y02419
X03351Y02419
X03466Y02419
X03701Y02419
X03516Y02449
X03416Y02464
X03566Y02509
X03401Y02514
X03616Y02524
X03306Y02599
X05851Y02604
X03241Y02609
X06926Y02629
X04201Y02689
X07056Y02699
X05266Y02709
X05752Y02729
X07123Y02729
X03201Y02759
X04346Y02774
X03416Y02814
X05934Y02814
X02566Y02829
X10876Y02839
X01676Y02854
X02516Y02859
X02616Y02859
X02851Y02859
X03291Y02864
X03491Y02864
X03701Y02864
X10326Y02869
X10476Y02869
X07181Y02899
X04201Y02919
X04376Y02919
X07081Y02919
X07231Y02919
X01801Y02934
X05851Y02964
X06476Y02969
X08976Y02979
X05746Y02984
X02356Y02989
X10426Y02989
X10526Y02989
X02201Y03019
X03721Y03019
X05801Y03029
X02251Y03054
X10876Y03069
X02441Y03074
X03281Y03074
X03381Y03074
X07176Y03089
X02376Y03114
X03586Y03114
X02526Y03139
X07151Y03139
X02246Y03154
X05601Y03154
X03426Y03164
X03666Y03174
X01951Y03189
X08901Y03194
X03091Y03204
X03201Y03219
X03346Y03219
X06986Y03224
X08021Y03224
X09901Y03234
X02456Y03239
X03551Y03239
X03636Y03239
X03141Y03249
X03051Y03254
X04226Y03254
X05751Y03264
X02031Y03284
X04776Y03294
X07976Y03304
X04351Y03314
X05151Y03339
X08496Y03339
X10671Y03339
X03191Y03344
X05051Y03344
X05871Y03349
X10326Y03364
X07436Y03389
X10721Y03389
X02401Y03394
X02526Y03394
X02636Y03394
X02786Y03394
X02851Y03394
X03241Y03394
X03376Y03394
X03426Y03394
X03556Y03394
X07016Y03394
X09831Y03404
X03686Y03414
X09636Y03424
X02541Y03444
X02901Y03459
X03276Y03459
X03456Y03459
X04381Y03459
X03701Y03464
X01851Y03469
X11756Y03489
X05751Y03494
X05901Y03494
X02801Y03514
X09176Y03514
X02701Y03519
X05401Y03554
X10776Y03569
X02486Y03574
X07056Y03604
X03751Y03624
X02501Y03634
X06081Y03639
X03436Y03654
X05501Y03659
X03901Y03664
X09526Y03669
X05711Y03674
X04651Y03679
X06426Y03679
X04001Y03694
X08701Y03734
X07976Y03744
X08101Y03744
X04101Y03749
X09601Y03749
X07526Y03754
X03426Y03764
X09876Y03769
X10026Y03769
X03321Y03774
X03951Y03794
X09176Y03794
X07485Y03809
X03341Y03824
X09876Y03824
X09976Y03824
X10026Y03824
X10076Y03824
X10376Y03824
X10476Y03824
X10576Y03824
X10626Y03824
X06326Y03829
X06526Y03829
X06626Y03829
X06701Y03829
X03491Y03839
X03586Y03839
X03681Y03839
X10176Y03839
X09636Y03844
X04851Y03869
X09731Y03869
X03151Y03904
X04426Y03919
X07025Y03924
X07876Y03929
X08046Y03929
X07241Y03944
X07299Y03963
X05761Y03964
X04316Y03974
X04151Y03979
X04226Y03979
X08701Y03979
X07576Y03989
X08476Y03989
X03251Y03994
X03371Y03994
X03426Y03994
X09916Y03999
X08896Y04014
X09821Y04024
X10326Y04024
X10426Y04024
X05606Y04029
X06751Y04029
X07796Y04034
X10176Y04069
X04886Y04094
X10721Y04099
X06786Y04119
X05976Y04139
X09671Y04149
X06401Y04154
X10901Y04154
X06931Y04164
X08531Y04174
X07435Y04179
X08261Y04179
X09776Y04184
X09926Y04184
X09976Y04184
X10026Y04184
X10076Y04184
X10521Y04184
X07509Y04192
X09381Y04194
X11476Y04214
X04851Y04219
X08176Y04219
X05876Y04224
X07991Y04224
X07096Y04234
X06576Y04244
X05301Y04249
X05826Y04249
X06931Y04249
X07481Y04249
X07531Y04249
X07601Y04249
X07681Y04249
X07371Y04251
X04166Y04254
X04371Y04254
X07321Y04266
X08081Y04274
X08011Y04294
X08261Y04299
X04986Y04304
X07026Y04314
X07306Y04314
X07486Y04314
X07671Y04314
X07726Y04314
X07901Y04314
X04641Y04319
X05151Y04319
X05236Y04319
X05386Y04319
X04751Y04329
X04916Y04334
X06651Y04334
X04476Y04339
X04866Y04344
X05316Y04354
X06506Y04354
X04531Y04359
X10576Y04369
X06052Y04379
X06101Y04379
X06351Y04379
X09486Y04384
X08651Y04389
X04401Y04394
X04746Y04394
X04841Y04394
X05016Y04394
X05151Y04394
X03586Y04399
X05666Y04399
X08161Y04399
X11821Y04414
X06711Y04419
X04031Y04439
X08076Y04469
X06361Y04474
X07371Y04474
X07193Y04475
X07467Y04483
X07956Y04489
X08506Y04489
X07144Y04492
X06986Y04499
X07541Y04504
X08246Y04509
X05451Y04514
X08166Y04514
X06576Y04519
X07721Y04519
X09531Y04524
X05751Y04529
X06376Y04529
X06786Y04539
X07356Y04539
X07516Y04559
X04276Y04564
X04376Y04564
X04676Y04564
X04916Y04564
X04966Y04564
X05051Y04564
X05326Y04564
X05486Y04564
X06966Y04564
X07211Y04564
X07109Y04568
X04476Y04569
X07901Y04569
X05216Y04579
X07461Y04579
X07721Y04579
X05551Y04589
X04561Y04594
X08246Y04594
X08381Y04594
X03996Y04604
X11651Y04604
X04716Y04614
X07312Y04617
X05906Y04619
X08651Y04619
X08801Y04619
X08451Y04624
X05191Y04629
X06661Y04629
X06711Y04629
X06946Y04629
X07661Y04629
X04076Y04639
X04371Y04639
X06366Y04639
X04571Y04644
X05141Y04644
X06996Y04644
X06046Y04649
X08986Y04654
X07431Y04659
X07956Y04664
X02666Y04669
X06151Y04669
X02716Y04674
X09541Y04684
X07481Y04689
X08421Y04689
X08471Y04689
X08301Y04694
X06236Y04704
X03101Y04709
X08956Y04709
X07551Y04719
X14521Y04719
X02876Y04729
X04411Y04729
X05151Y04729
X04961Y04739
X06106Y04739
X06301Y04744
X06476Y04744
X06596Y04744
X07956Y04744
X06773Y04746
X07026Y04749
X14571Y04749
X04166Y04754
X05216Y04754
X08706Y04754
X06726Y04764
X08166Y04764
X04336Y04779
X06011Y04779
X08006Y04779
X02251Y04789
X02401Y04789
X03151Y04789
X03351Y04789
X06951Y04789
X07091Y04789
X05141Y04794
X09601Y04795
X08536Y04799
X14551Y04799
X04131Y04804
X04451Y04804
X05216Y04804
X06066Y04804
X09736Y04809
X06146Y04814
X07570Y04821
X07996Y04829
X08896Y04834
X13016Y04834
X09576Y04844
X11821Y04844
X06316Y04849
X08571Y04849
X05386Y04854
X07466Y04864
X04166Y04869
X05441Y04869
X04517Y04873
X03206Y04879
X04791Y04879
X04066Y04884
X08718Y04884
X03716Y04889
X05141Y04889
X08861Y04889
X13271Y04894
X06786Y04899
X07931Y04899
X04461Y04904
X06201Y04914
X07096Y04914
X05496Y04919
X08676Y04919
X08801Y04919
X06591Y04924
X06736Y04924
X05436Y04929
X05146Y04939
X08591Y04939
X08006Y04944
X05696Y04954
X11511Y04954
X11701Y04954
X11811Y04954
X03296Y04959
X09511Y04959
X14551Y04959
X07651Y04964
X07851Y04964
X08451Y04964
X05391Y04969
X07351Y04969
X08246Y04969
X04166Y04974
X11406Y04974
X09676Y04979
X11151Y04979
X05051Y04984
X04696Y04989
X06351Y04989
X08166Y04989
X08301Y04989
X04346Y04994
X06771Y05004
X01901Y05019
X02851Y05019
X08526Y05019
X02251Y05024
X02401Y05024
X02551Y05024
X03001Y05024
X03051Y05024
X03151Y05024
X03301Y05024
X04476Y05024
X05681Y05024
X07481Y05024
X08006Y05024
X09836Y05034
X06996Y05039
X15066Y05039
X07941Y05044
X12196Y05049
X03776Y05054
X03951Y05054
X04156Y05054
X06421Y05054
X06786Y05054
X08166Y05054
X14851Y05054
X12001Y05059
X05216Y05064
X05401Y05064
X04886Y05069
X08541Y05069
X12146Y05069
X06946Y05074
X08006Y05074
X13426Y05079
X04426Y05089
X05481Y05094
X07571Y05094
X07921Y05094
X08381Y05094
X10346Y05094
X11301Y05094
X02936Y05104
X12606Y05104
X05051Y05109
X07011Y05109
X07211Y05109
X05431Y05114
X09591Y05119
X15196Y05124
X03826Y05129
X04076Y05129
X04166Y05129
X16951Y05149
X17051Y05149
X17151Y05149
X11516Y05154
X04341Y05159
X02196Y05164
X15726Y05164
X04116Y05169
X06946Y05169
X07401Y05174
X05016Y05189
X05216Y05189
X07021Y05199
X07766Y05199
X13241Y05199
X03941Y05204
X12471Y05204
X07926Y05209
X06201Y05219
X06351Y05219
X08801Y05219
X03206Y05224
X04601Y05229
X08306Y05229
X06626Y05234
X11951Y05234
X02886Y05239
X08718Y05239
X16781Y05239
X13071Y05244
X06676Y05249
X07991Y05249
X04056Y05254
X04751Y05254
X05216Y05254
X10056Y05254
X04666Y05259
X07766Y05259
X06451Y05264
X05401Y05269
X07305Y05269
X07471Y05269
X07569Y05269
X07621Y05269
X16176Y05269
X16526Y05269
X07904Y05270
X08431Y05274
X09971Y05274
X16576Y05274
X16626Y05274
X08166Y05276
X15346Y05279
X02676Y05284
X06946Y05289
X16126Y05289
X06740Y05294
X07671Y05294
X07831Y05294
X16241Y05299
X05676Y05304
X06051Y05304
X08919Y05309
X04926Y05314
X12106Y05314
X03486Y05319
X04001Y05319
X05401Y05319
X11301Y05319
X16631Y05324
X06421Y05329
X02776Y05334
X04166Y05334
X04426Y05334
X04671Y05344
X04996Y05344
X05216Y05344
X16906Y05349
X17001Y05349
X17101Y05349
X05551Y05350
X14626Y05354
X06521Y05359
X07056Y05359
X07351Y05364
X06946Y05369
X06626Y05374
X08596Y05374
X08711Y05374
X10021Y05374
X15981Y05374
X16061Y05374
X16276Y05374
X16676Y05374
X07741Y05376
X04746Y05379
X02251Y05384
X02351Y05384
X02441Y05384
X03001Y05384
X03101Y05384
X03151Y05384
X03201Y05384
X03816Y05384
X07471Y05384
X07571Y05384
X07100Y05386
X07906Y05387
X02051Y05389
X02801Y05389
X04526Y05389
X04576Y05389
X07852Y05389
X16601Y05389
X04996Y05394
X11236Y05394
X07247Y05400
X04051Y05404
X08166Y05404
X08301Y05404
X07781Y05405
X07999Y05407
X06561Y05409
X06471Y05414
X15001Y05419
X08796Y05424
X10896Y05429
X07316Y05433
X06316Y05434
X07176Y05434
X07384Y05434
X03861Y05444
X04396Y05444
X04466Y05444
X04651Y05444
X04766Y05444
X04816Y05444
X04995Y05444
X15726Y05444
X06746Y05449
X06946Y05449
X15301Y05454
X11301Y05464
X15801Y05464
X09771Y05469
X11451Y05469
X13941Y05489
X08166Y05494
X15401Y05494
X07616Y05499
X13891Y05504
X16851Y05509
X17011Y05509
X07784Y05514
X07016Y05519
X07235Y05520
X07185Y05526
X07469Y05527
X08431Y05529
X15331Y05529
X16706Y05529
X07908Y05531
X03006Y05534
X02856Y05539
X15976Y05544
X16386Y05544
X16471Y05544
X16566Y05544
X03336Y05549
X08541Y05554
X05661Y05564
X06666Y05564
X11951Y05564
X08026Y05569
X08196Y05569
X12101Y05569
X14106Y05569
X16091Y05574
X14201Y05579
X02446Y05584
X05827Y05584
X06856Y05584
X08126Y05589
X13861Y05589
X16831Y05589
X08626Y05594
X11581Y05604
X11701Y05604
X11816Y05604
X12976Y05604
X15301Y05604
X08716Y05609
X11116Y05609
X15991Y05609
X16211Y05609
X04591Y05614
X04641Y05614
X04836Y05614
X05151Y05614
X06946Y05614
X02501Y05619
X03101Y05619
X04526Y05619
X08861Y05629
X08021Y05639
X08256Y05639
X08476Y05639
X16061Y05639
X16141Y05639
X16421Y05639
X05481Y05644
X02786Y05654
X08206Y05654
X05840Y05679
X09426Y05679
X11331Y05679
X13966Y05679
X03471Y05684
X03901Y05684
X06396Y05684
X06451Y05684
X04201Y05699
X07481Y05699
X14276Y05699
X06176Y05704
X14041Y05704
X08256Y05719
X08601Y05719
X07806Y05724
X07876Y05724
X10796Y05724
X11076Y05724
X02641Y05729
X07666Y05729
X15451Y05729
X05301Y05734
X06416Y05734
X07741Y05739
X08021Y05739
X11151Y05744
X06516Y05754
X11466Y05754
X11636Y05754
X07371Y05759
X04101Y05764
X04746Y05764
X04796Y05764
X04926Y05764
X08676Y05764
X11516Y05769
X01651Y05779
X01751Y05779
X01851Y05779
X01951Y05779
X02051Y05779
X02151Y05779
X02251Y05779
X02351Y05779
X02651Y05779
X02751Y05779
X02851Y05779
X02951Y05779
X03051Y05779
X03151Y05779
X03251Y05779
X03351Y05779
X07496Y05779
X11866Y05784
X06151Y05794
X16166Y05794
X16241Y05794
X16626Y05794
X14136Y05799
X08066Y05809
X08856Y05809
X11686Y05809
X16311Y05809
X04051Y05814
X04301Y05814
X12001Y05819
X07374Y05828
X06266Y05829
X03816Y05844
X08201Y05844
X11736Y05844
X16756Y05844
X10521Y05864
X14571Y05864
X13636Y05869
X10471Y05874
X11586Y05879
X15826Y05879
X03586Y05884
X14136Y05884
X06901Y05889
X07031Y05889
X07176Y05889
X10171Y05894
X06781Y05909
X04781Y05914
X07876Y05914
X16146Y05914
X16656Y05914
X11266Y05919
X11331Y05919
X08816Y05929
X13381Y05934
X14016Y05949
X08161Y05959
X07746Y05964
X13571Y05964
X15026Y05964
X16886Y05964
X10266Y06004
X04086Y06014
X04296Y06024
X04541Y06024
X14061Y06024
X06121Y06029
X13671Y06029
X02121Y06034
X04376Y06034
X07746Y06064
X10121Y06064
X06516Y06069
X15996Y06069
X16216Y06069
X16311Y06069
X16371Y06069
X16636Y06069
X12471Y06074
X15926Y06074
X03871Y06079
X13756Y06079
X12386Y06084
X16476Y06084
X11211Y06090
X03941Y06099
X05551Y06099
X05681Y06099
X10521Y06099
X12071Y06099
X16076Y06104
X16126Y06104
X04746Y06114
X07856Y06114
X07451Y06119
X07249Y06120
X16321Y06124
X06901Y06129
X08236Y06134
X13821Y06134
X16011Y06139
X16596Y06139
X16456Y06159
X03011Y06164
X15961Y06174
X16061Y06174
X16196Y06174
X04461Y06179
X05131Y06179
X02011Y06184
X06451Y06184
X14136Y06184
X11326Y06189
X16351Y06189
X16626Y06189
X07771Y06199
X06771Y06204
X03641Y06209
X03011Y06224
X14251Y06239
X15896Y06239
X02496Y06249
X06341Y06249
X09476Y06249
X16866Y06254
X02571Y06259
X10501Y06274
X07486Y06279
X06651Y06284
X11466Y06284
X02086Y06289
X02226Y06289
X02921Y06289
X16801Y06289
X16926Y06289
X11150Y06302
X11211Y06304
X10421Y06309
X11416Y06309
X14816Y06319
X10736Y06324
X14321Y06324
X15931Y06329
X14381Y06334
X16291Y06344
X16421Y06344
X16491Y06344
X06341Y06349
X07561Y06349
X16186Y06349
X16626Y06369
X03706Y06379
X06526Y06384
X07246Y06394
X10921Y06394
X11571Y06394
X16741Y06399
X08371Y06414
X10151Y06414
X16206Y06414
X06366Y06419
X07106Y06419
X15871Y06419
X04951Y06434
X06021Y06434
X16406Y06434
X16626Y06434
X17561Y06434
X01341Y06439
X03286Y06439
X03766Y06439
X07581Y06439
X09836Y06439
X02766Y06444
X13521Y06444
X05021Y06449
X10086Y06449
X16271Y06449
X06076Y06454
X06701Y06457
X02706Y06459
X16091Y06464
X07046Y06469
X14251Y06469
X03086Y06479
X07856Y06479
X12921Y06479
X07176Y06494
X02351Y06509
X02626Y06514
X16796Y06519
X05401Y06529
X01801Y06539
X07436Y06544
X09751Y06544
X09901Y06544
X10381Y06544
X11821Y06544
X12016Y06544
X13321Y06544
X13421Y06544
X14816Y06544
X03351Y06564
X01471Y06574
X02401Y06574
X15051Y06579
X02051Y06589
X05781Y06589
X05631Y06599
X08266Y06599
X10401Y06609
X06081Y06619
X16001Y06619
X16176Y06619
X16281Y06619
X01396Y06624
X07611Y06624
X11841Y06629
X16226Y06629
X03151Y06639
X02041Y06659
X02596Y06659
X02661Y06659
X15926Y06659
X02856Y06664
X08851Y06664
X14046Y06664
X03371Y06669
X05581Y06669
X07916Y06669
X03276Y06674
X11201Y06679
X11326Y06679
X15736Y06689
X13776Y06694
X03166Y06709
X16421Y06709
X10311Y06719
X15786Y06724
X11096Y06739
X16271Y06744
X07826Y06749
X12621Y06749
X14551Y06749
X13031Y06759
X16626Y06759
X06031Y06764
X11961Y06769
X05081Y06774
X15961Y06779
X04381Y06784
X08021Y06784
X03166Y06789
X08136Y06789
X13831Y06789
X15836Y06814
X01776Y06819
X01941Y06819
X02136Y06819
X03066Y06819
X06766Y06829
X02451Y06834
X02886Y06834
X02086Y06839
X03796Y06844
X16351Y06849
X16491Y06859
X16176Y06869
X09506Y06879
X10346Y06879
X09031Y06889
X08636Y06894
X02676Y06899
X05911Y06899
X07221Y06899
X08101Y06914
X09216Y06924
X12351Y06924
X02861Y06929
X08851Y06944
X15036Y06949
X15506Y06949
X12521Y06959
X04446Y06964
X02251Y06969
X07761Y06969
X07361Y06984
X13781Y06984
X16216Y06984
X02921Y06994
X03201Y06994
X12421Y06994
X04616Y07004
X12271Y07009
X08371Y07019
X07531Y07024
X08816Y07024
X12221Y07024
X16771Y07029
X04851Y07039
X05151Y07039
X07146Y07044
X12171Y07044
X16656Y07044
X12121Y07059
X16201Y07064
X16556Y07064
X07296Y07069
X04396Y07074
X11921Y07074
X05672Y07078
X12501Y07079
X15961Y07084
X16021Y07084
X16116Y07084
X16376Y07084
X11871Y07089
X15346Y07089
X05351Y07094
X16646Y07099
X09736Y07104
X11731Y07104
X09161Y07109
X08991Y07114
X09061Y07114
X09381Y07114
X15401Y07119
X04131Y07124
X08856Y07134
X09896Y07134
X05036Y07139
X15001Y07149
X15081Y07149
X04951Y07154
X05096Y07154
X05651Y07154
X16551Y07154
X11901Y07164
X15686Y07164
X16831Y07179
X10201Y07184
X16501Y07184
X12351Y07189
X15836Y07204
X16641Y07224
X13906Y07239
X08696Y07244
X16116Y07249
X16351Y07249
X04906Y07259
X05851Y07259
X14001Y07269
X15781Y07269
X16461Y07269
X11961Y07279
X06156Y07284
X09086Y07284
X09186Y07284
X09236Y07284
X09301Y07284
X09356Y07284
X09526Y07284
X10456Y07289
X16626Y07289
X15981Y07294
X16046Y07299
X16386Y07299
X04801Y07304
X05101Y07304
X05686Y07304
X05966Y07304
X08921Y07309
X15151Y07309
X15201Y07309
X05436Y07319
X15741Y07319
X09511Y07334
X16211Y07344
X09921Y07349
X16046Y07349
X04321Y07354
X05516Y07354
X09391Y07354
X06251Y07359
X16361Y07364
X09701Y07369
X11506Y07369
X10366Y07374
X08266Y07379
X14546Y07384
X03401Y07389
X04701Y07389
X14701Y07389
X16626Y07389
X05656Y07394
X06066Y07394
X09921Y07404
X14386Y07404
X10496Y07409
X02416Y07424
X13736Y07424
X13786Y07424
X15981Y07424
X16461Y07424
X08006Y07429
X16866Y07429
X09771Y07434
X16236Y07434
X16306Y07434
X11951Y07439
X14076Y07439
X14336Y07439
X14436Y07439
X15291Y07439
X06731Y07444
X08346Y07444
X10446Y07444
X15551Y07449
X15801Y07449
X16736Y07449
X05341Y07454
X02966Y07459
X09921Y07469
X11266Y07469
X14151Y07469
X13786Y07474
X15241Y07474
X07956Y07479
X05936Y07484
X06401Y07489
X16101Y07494
X15981Y07499
X16181Y07499
X16626Y07499
X02801Y07504
X02901Y07504
X03301Y07504
X08096Y07504
X08506Y07504
X08986Y07504
X14771Y07504
X13906Y07509
X14001Y07509
X14101Y07509
X14256Y07509
X14381Y07509
X15116Y07509
X10496Y07514
X06751Y07519
X17351Y07519
X13556Y07524
X04971Y07539
X09356Y07539
X16101Y07544
X16706Y07549
X03981Y07554
X04756Y07554
X10086Y07559
X09231Y07564
X09426Y07564
X10511Y07564
X15421Y07564
X05586Y07569
X05921Y07569
X06026Y07569
X15041Y07574
X16461Y07574
X05751Y07579
X12971Y07579
X02371Y07584
X05276Y07594
X16666Y07599
X05056Y07604
X02651Y07609
X10266Y07609
X13121Y07614
X04531Y07619
X14701Y07619
X14996Y07624
X16391Y07629
X01706Y07639
X16131Y07639
X17176Y07639
X02516Y07644
X14651Y07644
X15451Y07649
X03201Y07654
X03991Y07654
X04801Y07654
X05901Y07654
X13211Y07654
X15981Y07654
X16626Y07654
X16271Y07659
X04451Y07664
X06301Y07664
X09301Y07664
X16181Y07664
X13471Y07669
X13721Y07674
X13866Y07674
X13941Y07674
X13996Y07674
X14096Y07674
X14146Y07674
X14276Y07674
X15116Y07679
X15816Y07679
X05341Y07684
X09771Y07684
X04041Y07689
X15501Y07689
X05096Y07694
X08881Y07694
X14421Y07694
X10416Y07699
X11291Y07699
X05751Y07704
X15981Y07704
X14206Y07709
X17651Y07709
X16371Y07714
X16426Y07714
X03461Y07719
X10366Y07724
X14516Y07724
X16031Y07724
X16081Y07724
X16131Y07724
X16271Y07724
X07541Y07729
X07591Y07729
X07891Y07729
X11901Y07729
X14566Y07729
X16626Y07729
X02766Y07734
X12351Y07739
X06681Y07749
X17406Y07749
X17456Y07749
X17551Y07749
X17601Y07749
X05751Y07754
X13406Y07754
X13456Y07754
X14326Y07754
X14681Y07754
X08601Y07759
X12671Y07759
X12731Y07759
X14226Y07759
X11666Y07764
X02936Y07769
X04951Y07769
X05001Y07769
X05151Y07769
X13718Y07769
X17256Y07769
X12981Y07774
X13626Y07774
X04081Y07779
X08881Y07784
X14841Y07784
X14941Y07784
X17146Y07784
X04651Y07789
X08696Y07789
X11356Y07789
X12561Y07789
X15206Y07789
X04801Y07794
X13836Y07794
X04321Y07799
X13031Y07799
X03451Y07814
X05201Y07814
X08391Y07819
X08986Y07819
X12016Y07819
X09591Y07829
X13626Y07834
X15941Y07834
X07571Y07839
X15526Y07839
X14680Y07848
X08466Y07849
X08711Y07849
X09541Y07849
X09856Y07849
X09921Y07849
X10086Y07849
X13386Y07849
X15101Y07849
X05470Y07850
X03301Y07854
X14956Y07854
X04706Y07859
X11966Y07859
X14846Y07859
X15171Y07859
X02971Y07864
X03101Y07864
X16576Y07864
X07530Y07869
X07926Y07869
X14616Y07874
X08301Y07879
X14896Y07884
X05181Y07889
X13096Y07894
X16296Y07894
X13951Y07899
X02196Y07904
X03046Y07904
X04166Y07904
X05396Y07904
X07781Y07904
X04951Y07909
X12641Y07909
X17351Y07909
X04496Y07919
X04546Y07919
X09126Y07919
X09356Y07919
X12031Y07919
X14991Y07919
X05246Y07929
X17301Y07929
X13676Y07934
X10306Y07939
X05951Y07944
X10921Y07944
X16141Y07944
X04751Y07949
X05331Y07949
X15136Y07949
X05651Y07954
X13276Y07954
X13626Y07954
X06201Y07959
X09706Y07964
X11416Y07969
X13741Y07969
X10161Y07974
X12406Y07974
X11486Y07979
X15221Y07979
X06096Y07984
X13106Y07984
X15496Y07984
X16216Y07984
X15751Y07989
X02801Y07994
X14681Y07994
X07261Y07999
X07476Y07999
X04951Y08004
X08026Y08004
X10211Y08004
X12631Y08004
X12681Y08004
X08881Y08009
X05066Y08010
X03456Y08014
X05261Y08014
X05426Y08014
X09476Y08014
X02901Y08019
X06026Y08019
X13351Y08019
X12821Y08024
X17601Y08029
X09771Y08034
X13626Y08039
X07101Y08044
X14681Y08044
X13196Y08049
X04321Y08054
X05551Y08054
X17501Y08054
X07191Y08059
X05481Y08064
X07946Y08069
X08011Y08069
X09151Y08069
X11056Y08069
X16086Y08069
X13261Y08079
X11136Y08084
X11186Y08084
X04241Y08089
X15171Y08089
X16296Y08089
X04416Y08099
X05266Y08099
X09671Y08099
X09741Y08099
X04801Y08104
X04951Y08104
X05001Y08104
X05051Y08104
X05101Y08104
X05151Y08104
X05621Y08104
X05691Y08104
X08556Y08104
X08206Y08109
X04156Y08114
X13376Y08114
X13426Y08114
X09856Y08124
X10516Y08124
X11506Y08124
X05901Y08129
X05986Y08129
X06061Y08129
X17086Y08129
X17251Y08129
X17346Y08129
X03911Y08139
X04241Y08139
X16256Y08139
X04851Y08149
X05851Y08149
X13296Y08149
X14846Y08149
X02801Y08154
X13626Y08154
X08431Y08164
X14681Y08164
X14516Y08174
X13676Y08184
X09001Y08189
X15971Y08189
X12751Y08194
X13061Y08194
X07826Y08199
X01706Y08204
X03286Y08204
X04451Y08204
X15811Y08204
X09416Y08209
X09541Y08209
X08881Y08219
X12936Y08219
X05941Y08224
X07596Y08224
X09301Y08239
X09771Y08239
X09826Y08239
X14566Y08239
X13076Y08244
X13456Y08244
X03166Y08249
X02901Y08254
X03001Y08254
X03101Y08254
X05381Y08254
X05516Y08254
X05651Y08254
X05706Y08254
X11151Y08254
X11201Y08254
X11251Y08254
X11411Y08254
X14679Y08254
X14886Y08254
X05801Y08259
X09096Y08259
X09921Y08259
X09631Y08264
X03456Y08269
X04051Y08269
X11476Y08274
X13386Y08274
X10671Y08284
X13801Y08284
X14496Y08284
X01776Y08289
X05996Y08294
X13456Y08294
X02651Y08299
X08851Y08299
X17446Y08304
X13151Y08309
X14861Y08309
X15026Y08309
X05301Y08319
X05551Y08324
X08946Y08324
X09036Y08324
X09096Y08324
X09226Y08324
X09381Y08324
X09636Y08324
X09726Y08324
X11476Y08324
X14556Y08329
X15106Y08329
X04606Y08334
X08126Y08334
X08756Y08334
X11031Y08334
X11091Y08339
X14681Y08339
X10016Y08344
X16056Y08344
X11661Y08349
X11427Y08352
X03901Y08354
X04276Y08354
X09896Y08354
X05416Y08359
X09966Y08359
X14631Y08359
X17541Y08359
X03361Y08364
X07566Y08364
X15311Y08364
X13456Y08369
X03521Y08379
X08456Y08399
X10291Y08399
X16726Y08399
X02971Y08404
X14661Y08409
X15881Y08414
X16321Y08414
X17086Y08419
X04221Y08429
X04001Y08439
X10856Y08439
X11026Y08439
X02731Y08444
X05551Y08444
X16901Y08449
X09896Y08459
X09986Y08459
X14566Y08459
X14616Y08459
X01856Y08464
X07706Y08464
X13456Y08464
X16031Y08464
X08726Y08468
X08508Y08470
X15931Y08474
X11836Y08479
X05286Y08489
X09041Y08489
X09151Y08489
X09311Y08489
X09396Y08489
X14681Y08489
X01721Y08494
X09446Y08494
X11121Y08494
X16436Y08494
X15981Y08504
X17176Y08504
X03956Y08509
X13626Y08509
X14586Y08509
X12281Y08524
X03301Y08539
X04551Y08539
X08006Y08539
X11691Y08539
X08361Y08544
X09061Y08544
X11821Y08544
X03231Y08554
X05481Y08554
X09666Y08554
X09876Y08554
X10701Y08554
X01926Y08559
X04901Y08559
X10856Y08559
X12331Y08559
X13221Y08559
X11221Y08562
X10806Y08564
X05251Y08569
X16186Y08569
X03846Y08589
X13456Y08589
X17421Y08589
X12001Y08599
X14446Y08599
X14896Y08604
X14576Y08614
X17186Y08614
X08461Y08619
X14846Y08619
X07146Y08624
X07596Y08624
X13626Y08624
X14056Y08624
X08606Y08629
X10856Y08634
X11691Y08634
X10706Y08639
X15071Y08639
X03616Y08649
X10346Y08649
X11281Y08654
X14681Y08654
X16851Y08654
X16501Y08664
X08006Y08669
X09096Y08669
X03551Y08674
X03751Y08674
X04151Y08674
X11936Y08674
X08641Y08679
X17001Y08679
X17101Y08679
X17381Y08679
X17651Y08679
X14751Y08689
X14801Y08689
X04396Y08694
X06416Y08694
X09271Y08694
X13366Y08694
X14021Y08694
X14391Y08694
X15021Y08694
X11281Y08704
X13451Y08704
X15926Y08704
X12456Y08714
X14091Y08714
X08796Y08729
X13866Y08729
X13731Y08734
X14166Y08734
X14216Y08734
X14291Y08734
X14341Y08734
X14506Y08734
X14666Y08734
X10426Y08739
X15391Y08744
X09206Y08749
X07101Y08764
X15936Y08774
X08431Y08779
X16756Y08779
X16691Y08784
X15041Y08789
X15316Y08789
X06591Y08794
X16481Y08809
X03301Y08819
X07696Y08819
X08851Y08819
X09001Y08819
X09151Y08819
X09236Y08819
X13206Y08829
X16801Y08829
X04351Y08834
X15391Y08834
X02401Y08849
X14746Y08849
X04101Y08859
X04286Y08859
X12986Y08869
X03501Y08874
X03581Y08874
X04151Y08874
X11251Y08874
X11926Y08879
X03796Y08884
X02951Y08889
X08802Y08890
X16126Y08894
X13916Y08899
X14046Y08899
X14456Y08899
X14601Y08899
X04396Y08904
X16501Y08914
X17651Y08914
X10351Y08929
X14876Y08929
X16901Y08929
X08061Y08934
X10251Y08934
X11301Y08934
X14816Y08934
X08798Y08941
X14226Y08949
X04436Y08954
X06301Y08954
X07856Y08954
X12501Y08954
X16651Y08954
X12331Y08959
X12851Y08959
X14371Y08969
X14768Y08972
X11651Y08974
X08516Y08979
X15286Y08979
X08804Y08993
X11501Y09004
X12951Y09009
X12366Y09014
X16856Y09029
X17086Y09029
X03451Y09034
X03641Y09034
X04051Y09034
X05451Y09034
X07851Y09039
X07101Y09044
X11596Y09074
X15096Y09074
X15491Y09074
X16511Y09079
X17461Y09079
X01706Y09089
X17211Y09099
X06731Y09104
X08946Y09104
X16126Y09104
X11186Y09114
X14381Y09114
X07796Y09124
X14752Y09124
X06191Y09129
X17301Y09129
X06551Y09139
X07746Y09139
X08006Y09139
X05961Y09159
X11151Y09164
X08301Y09174
X17551Y09179
X04641Y09189
X10451Y09189
X14381Y09189
X11341Y09204
X16526Y09204
X16601Y09204
X06081Y09209
X07191Y09214
X12291Y09214
X16816Y09214
X16866Y09214
X17151Y09214
X06636Y09219
X06326Y09249
X16006Y09249
X05251Y09254
X11901Y09254
X16156Y09254
X07616Y09264
X09446Y09264
X15096Y09269
X13726Y09279
X17301Y09279
X04151Y09289
X10601Y09289
X13136Y09294
X14386Y09299
X07896Y09304
X12051Y09304
X04501Y09314
X14676Y09319
X04086Y09359
X04221Y09359
X04301Y09364
X04731Y09364
X12801Y09369
X16536Y09374
X07946Y09379
X03701Y09389
X06551Y09389
X06731Y09389
X15851Y09389
X06366Y09394
X15452Y09408
X15301Y09409
X15351Y09409
X16011Y09409
X03846Y09414
X03901Y09414
X03956Y09414
X04041Y09414
X14971Y09414
X05471Y09419
X15106Y09419
X05701Y09424
X05826Y09424
X06316Y09429
X06671Y09429
X03626Y09434
X07531Y09434
X05551Y09439
X06866Y09439
X12736Y09439
X13801Y09439
X11151Y09444
X16736Y09444
X15671Y09449
X08001Y09454
X04471Y09459
X12366Y09459
X14476Y09459
X14526Y09459
X14576Y09459
X17151Y09479
X08561Y09489
X06797Y09493
X04331Y09499
X15801Y09504
X16601Y09519
X07871Y09529
X16851Y09529
X17501Y09529
X07771Y09539
X10431Y09539
X11133Y09544
X07036Y09554
X17676Y09554
X03836Y09564
X07951Y09564
X08456Y09574
X04096Y09579
X17601Y09579
X05101Y09584
X05771Y09584
X06366Y09584
X06866Y09584
X04151Y09589
X06161Y09599
X03611Y09604
X03761Y09604
X06016Y09604
X16751Y09604
X05671Y09609
X15351Y09609
X07821Y09619
X05876Y09624
X05926Y09624
X05411Y09639
X10781Y09644
X03051Y09654
X12766Y09654
X02131Y09659
X05551Y09669
X13801Y09669
X12211Y09679
X15651Y09679
X06686Y09684
X08401Y09689
X06591Y09699
X11121Y09699
X04241Y09704
X07506Y09704
X17501Y09714
X17626Y09714
X05516Y09719
X05376Y09729
X08591Y09729
X10276Y09729
X04826Y09744
X02991Y09749
X03460Y09754
X03611Y09754
X09831Y09754
X16826Y09754
X10940Y09762
X07846Y09764
X08346Y09769
X12141Y09769
X16401Y09779
X02576Y09789
X05741Y09789
X05901Y09789
X05996Y09789
X06151Y09789
X04206Y09794
X13871Y09794
X15471Y09794
X10977Y09805
X08616Y09809
X06096Y09824
X04581Y09829
X16351Y09829
X09551Y09839
X11936Y09839
X16461Y09844
X07801Y09854
X10051Y09854
X05956Y09859
X03761Y09864
X05026Y09864
X07926Y09869
X07951Y09869
X11231Y09869
X02516Y09874
X02631Y09874
X06581Y09889
X06636Y09889
X03801Y09904
X04211Y09904
X08051Y09904
X12241Y09904
X06046Y09909
X11651Y09914
X16491Y09914
X17556Y09914
X03551Y09919
X05656Y09919
X07561Y09919
X07256Y09939
X07836Y09939
X07886Y09939
X04391Y09944
X13366Y09949
X13891Y09950
X14166Y09950
X16626Y09954
X03796Y09964
X06666Y09964
X12361Y09964
X07201Y09969
X10436Y09974
X12501Y09974
X12666Y09974
X09851Y09979
X13301Y09979
X04701Y09989
X05601Y09989
X09951Y09989
X11121Y09994
X12921Y09999
X13111Y09999
X03576Y10004
X14181Y10004
X15121Y10004
X06046Y10014
X11611Y10014
X10496Y10019
X02526Y10034
X02576Y10034
X04096Y10044
X11231Y10044
X07631Y10054
X11531Y10059
X04696Y10064
X14701Y10064
X02426Y10074
X05701Y10074
X05816Y10074
X08346Y10074
X14901Y10074
X10841Y10079
X14376Y10079
X07916Y10084
X08406Y10084
X10501Y10084
X06046Y10089
X16276Y10089
X10436Y10104
X13151Y10109
X05656Y10124
X14506Y10124
X10536Y10134
X15606Y10134
X10791Y10154
X13366Y10154
X15106Y10154
X11271Y10159
X12756Y10164
X13021Y10164
X10586Y10169
X05201Y10174
X06311Y10174
X12971Y10179
X04798Y10186
X13306Y10189
X03966Y10194
X09101Y10194
X10181Y10199
X04068Y10201
X02771Y10204
X12611Y10204
X13251Y10204
X15271Y10204
X13071Y10214
X05601Y10219
X02331Y10234
X02531Y10234
X05896Y10234
X03841Y10239
X12921Y10249
X12611Y10254
X16110Y10260
X06131Y10264
X05761Y10269
X12851Y10269
X05811Y10274
X06011Y10274
X06326Y10274
X06376Y10274
X06476Y10274
X08851Y10279
X10051Y10279
X04751Y10289
X05656Y10289
X13091Y10289
X13751Y10289
X04921Y10299
X12801Y10304
X13651Y10304
X04981Y10309
X05071Y10309
X15426Y10309
X04851Y10314
X05401Y10314
X02276Y10319
X02426Y10319
X15076Y10329
X13891Y10334
X16251Y10339
X16301Y10339
X17091Y10349
X09001Y10364
X13296Y10379
X16101Y10379
X09351Y10389
X01671Y10394
X12611Y10404
X02151Y10414
X17046Y10419
X05701Y10434
X11201Y10439
X13516Y10439
X01521Y10444
X01821Y10444
X05151Y10449
X05951Y10449
X12686Y10454
X13091Y10454
X06171Y10459
X05751Y10474
X05801Y10474
X06001Y10474
X06426Y10474
X05531Y10489
X11411Y10504
X12461Y10504
X13081Y10504
X14993Y10504
X01471Y10544
X01871Y10544
X13511Y10554
X04001Y10564
X04431Y10579
X04581Y10579
X04731Y10579
X04881Y10579
X05031Y10579
X05181Y10579
X05331Y10579
X13701Y10579
X03851Y10589
X12901Y10589
X12651Y10594
X06616Y10609
X05607Y10612
X12701Y10624
X12816Y10629
X06226Y10634
X06276Y10634
X01521Y10644
X01821Y10644
X12751Y10644
X13001Y10644
X12436Y10654
X04581Y10674
X04731Y10674
X05181Y10674
X14742Y10677
X13451Y10689
X01671Y10694
X11086Y10694
X11301Y10694
X11351Y10694
X04073Y10696
X04395Y10708
X13691Y10714
X05701Y10724
X03501Y10739
X05031Y10739
X02501Y10769
X05331Y10769
X13611Y10774
X11586Y10784
X12171Y10789
X12301Y10789
X04571Y10794
X04446Y10799
X04896Y10799
X05006Y10799
X03431Y10803
X12851Y10804
X12986Y10804
X13086Y10804
X14841Y10829
X12246Y10849
X16631Y10854
X11651Y10857
X13866Y10874
X12006Y10889
X11713Y10904
X04731Y10934
X02801Y10939
X04501Y10944
X05101Y10944
X05181Y10944
X05251Y10944
X05401Y10944
X03446Y10964
X04651Y10969
X13776Y10969
X01606Y10974
X16276Y10979
X02576Y10984
X02636Y10984
X02726Y10984
X03101Y10984
X03201Y10984
X02866Y10994
X03151Y11024
X01851Y11064
X14961Y11074
X05401Y11104
X02801Y11169
X02576Y11184
X02901Y11184
X02951Y11184
X03051Y11184
X11536Y11214
X02761Y11239
X03451Y11244
X11471Y11274
X02451Y11394
T02
X01717Y06989
X01864Y07001
X06952Y07020
X06703Y07051
X01604Y07155
X06681Y07193
X10821Y07208
X07318Y07219
X07443Y07220
X10693Y07238
X06964Y07283
X01881Y07284
X01717Y07307
X06849Y07315
X10634Y07346
X10989Y07357
X10694Y07484
X07298Y07502
X10822Y07505
X07436Y07508
X11571Y09004
X06993Y10110
X06852Y10154
X07135Y10177
X06801Y10265
X07469Y10296
X10793Y10307
X07611Y10333
X07351Y10355
X10957Y10378
X06882Y10415
X10617Y10419
X07061Y10421
X07670Y10466
X07314Y10534
X10944Y10570
X10660Y10573
X07597Y10608
X07426Y10622
X10797Y10632
X17169Y10697
X16998Y10713
X11298Y10810
X11155Y10823
X16938Y10843
X17271Y10850
X17189Y10976
X11018Y10977
X17036Y10977
X11442Y10985
X11243Y11142
T03
X05126Y01879
X05626Y01879
X06126Y01879
X06626Y01879
X07126Y01879
X07626Y01879
X07851Y01879
X08351Y01879
X08851Y01879
X09351Y01879
X09851Y01879
X10351Y01879
X11151Y01879
X11651Y01879
X12151Y01879
X12651Y01879
X13151Y01879
X13651Y01879
X01176Y01904
X01676Y01904
X02176Y01904
X02676Y01904
X03176Y01904
X03676Y01904
X01426Y01954
X01926Y01954
X02426Y01954
X02926Y01954
X03426Y01954
X03926Y01954
X04451Y01954
X04951Y01954
X05451Y01954
X05951Y01954
X06451Y01954
X06951Y01954
X08451Y01954
X08951Y01954
X09451Y01954
X09951Y01954
X10451Y01954
X10951Y01954
X11451Y01954
X11951Y01954
X12451Y01954
X12951Y01954
X13451Y01954
X13951Y01954
X14651Y02179
X00701Y02204
X14676Y02404
X00776Y02454
X04551Y02554
X04651Y02554
X04751Y02554
X04851Y02554
X04951Y02554
X05051Y02554
X05151Y02554
X05251Y02554
X05351Y02554
X05451Y02554
X06026Y02554
X06126Y02554
X06226Y02554
X06326Y02554
X06426Y02554
X06526Y02554
X06626Y02554
X06726Y02554
X06826Y02554
X06926Y02554
X14651Y02679
X00701Y02704
X01401Y02754
X01501Y02754
X01601Y02754
X01401Y02854
X01501Y02854
X01601Y02854
X04551Y02854
X04651Y02854
X04751Y02854
X04851Y02854
X04951Y02854
X05051Y02854
X05151Y02854
X05251Y02854
X05351Y02854
X05451Y02854
X06026Y02854
X06126Y02854
X06226Y02854
X06326Y02854
X06426Y02854
X06526Y02854
X06626Y02854
X06726Y02854
X06826Y02854
X06926Y02854
X07376Y02854
X07476Y02854
X07576Y02854
X07676Y02854
X07776Y02854
X07876Y02854
X07976Y02854
X08076Y02854
X08176Y02854
X08276Y02854
X08376Y02854
X08476Y02854
X14676Y02904
X00776Y02954
X01401Y02954
X01501Y02954
X01601Y02954
X08751Y02954
X09051Y02954
X09251Y03004
X09351Y03004
X09451Y03004
X01401Y03054
X01501Y03054
X01601Y03054
X01401Y03154
X01501Y03154
X01601Y03154
X04551Y03154
X04651Y03154
X04751Y03154
X04851Y03154
X04951Y03154
X05051Y03154
X05151Y03154
X05251Y03154
X05351Y03154
X05451Y03154
X06026Y03154
X06126Y03154
X06226Y03154
X06326Y03154
X06426Y03154
X06526Y03154
X06626Y03154
X06726Y03154
X06826Y03154
X06926Y03154
X09676Y03154
X09776Y03154
X09876Y03154
X10076Y03154
X10176Y03154
X10276Y03154
X14651Y03179
X00701Y03204
X10976Y03204
X01401Y03254
X01501Y03254
X01601Y03254
X08751Y03254
X09051Y03254
X10476Y03304
X10576Y03304
X11641Y03304
X01066Y03332
X01401Y03354
X01501Y03354
X01601Y03354
X00966Y03377
X01166Y03377
X10976Y03404
X14676Y03404
X01066Y03422
X00776Y03454
X01401Y03454
X01501Y03454
X01601Y03454
X04551Y03454
X04651Y03454
X04751Y03454
X04851Y03454
X04951Y03454
X05051Y03454
X05151Y03454
X05251Y03454
X05351Y03454
X05451Y03454
X06026Y03454
X06126Y03454
X06226Y03454
X06326Y03454
X06426Y03454
X06526Y03454
X06626Y03454
X06726Y03454
X06826Y03454
X06926Y03454
X07376Y03454
X07476Y03454
X07576Y03454
X07676Y03454
X07776Y03454
X07876Y03454
X07976Y03454
X08076Y03454
X08176Y03454
X08276Y03454
X08376Y03454
X08476Y03454
X00966Y03467
X01166Y03467
X01066Y03512
X01401Y03554
X01501Y03554
X01601Y03554
X08751Y03554
X09051Y03554
X00966Y03557
X01166Y03557
X07376Y03579
X07776Y03579
X01066Y03602
X00966Y03647
X01166Y03647
X01401Y03654
X01501Y03654
X01601Y03654
X14651Y03679
X01066Y03692
X00701Y03704
X10476Y03704
X10576Y03704
X00966Y03737
X01166Y03737
X10976Y03854
X14676Y03904
X00776Y03954
X04751Y03954
X04851Y03954
X04951Y03954
X05051Y03954
X05151Y03954
X05251Y03954
X05351Y03954
X05451Y03954
X05551Y03954
X11641Y03954
X10976Y04054
X01401Y04154
X01501Y04154
X01601Y04154
X01701Y04154
X01801Y04154
X01901Y04154
X02001Y04154
X02101Y04154
X02201Y04154
X02351Y04154
X02451Y04154
X02551Y04154
X02651Y04154
X02751Y04154
X02851Y04154
X02951Y04154
X03051Y04154
X03151Y04154
X03301Y04154
X03401Y04154
X03501Y04154
X03601Y04154
X03701Y04154
X03801Y04154
X03901Y04154
X04001Y04154
X04101Y04154
X14651Y04179
X00701Y04204
X01401Y04304
X01501Y04304
X01601Y04304
X01801Y04304
X01901Y04304
X02001Y04304
X10451Y04354
X10851Y04354
X11551Y04354
X11651Y04354
X01401Y04404
X01501Y04404
X01601Y04404
X14676Y04404
X00776Y04454
X06451Y04454
X02126Y04494
X02226Y04494
X02326Y04494
X02426Y04494
X02526Y04494
X02626Y04494
X02726Y04494
X02826Y04494
X02926Y04494
X03026Y04494
X03126Y04494
X03226Y04494
X03326Y04494
X03426Y04494
X03526Y04494
X09623Y04494
X09723Y04494
X09823Y04494
X09923Y04494
X10023Y04494
X10123Y04494
X10223Y04494
X10323Y04494
X10423Y04494
X10523Y04494
X10623Y04494
X10723Y04494
X10823Y04494
X10923Y04494
X11023Y04494
X01401Y04504
X01501Y04504
X01601Y04504
X01876Y04529
X01066Y04591
X02126Y04594
X02226Y04594
X02326Y04594
X02426Y04594
X02526Y04594
X02626Y04594
X02726Y04594
X02826Y04594
X02926Y04594
X03026Y04594
X03126Y04594
X03226Y04594
X03326Y04594
X03426Y04594
X03526Y04594
X09623Y04594
X09723Y04594
X09823Y04594
X09923Y04594
X10023Y04594
X10123Y04594
X10223Y04594
X10323Y04594
X10423Y04594
X10523Y04594
X10623Y04594
X10723Y04594
X10823Y04594
X10923Y04594
X11023Y04594
X01401Y04604
X01501Y04604
X01601Y04604
X00776Y04629
X01876Y04629
X00966Y04636
X01166Y04636
X14651Y04679
X01066Y04681
X00701Y04704
X01401Y04704
X01501Y04704
X01601Y04704
X00966Y04726
X01166Y04726
X01876Y04729
X01066Y04771
X01401Y04804
X01501Y04804
X01601Y04804
X00966Y04816
X01166Y04816
X06451Y04854
X01066Y04861
X01401Y04904
X01501Y04904
X01601Y04904
X14676Y04904
X14801Y04904
X15301Y04904
X15801Y04904
X16301Y04904
X16801Y04904
X17301Y04904
X00966Y04906
X01166Y04906
X01066Y04951
X00776Y04954
X14951Y04954
X15451Y04954
X15951Y04954
X16451Y04954
X16951Y04954
X17451Y04954
X00966Y04996
X01166Y04996
X01401Y05004
X01501Y05004
X01601Y05004
X01401Y05104
X01501Y05104
X01601Y05104
X00776Y05129
X14501Y05204
X14601Y05204
X14701Y05204
X14801Y05204
X14901Y05204
X15001Y05204
X15101Y05204
X15201Y05204
X15301Y05204
X15401Y05204
X15501Y05204
X15601Y05204
X17801Y05354
X17334Y05579
X08401Y05604
X08801Y05604
X00776Y05629
X17101Y05679
X08401Y05754
X09001Y05754
X17806Y05769
X17101Y05779
X17334Y05779
X14501Y05804
X14601Y05804
X14701Y05804
X14801Y05804
X14901Y05804
X15001Y05804
X15101Y05804
X15201Y05804
X15301Y05804
X15401Y05804
X15501Y05804
X15601Y05804
X17801Y05854
X17101Y05879
X17334Y05879
X03901Y05954
X04001Y05954
X04101Y05954
X04201Y05954
X04301Y05954
X04401Y05954
X04501Y05954
X04601Y05954
X04701Y05954
X04851Y05954
X04951Y05954
X05051Y05954
X05151Y05954
X05251Y05954
X05351Y05954
X05451Y05954
X05551Y05954
X05651Y05954
X05851Y05954
X05951Y05954
X06051Y05954
X06151Y05954
X06251Y05954
X06351Y05954
X06451Y05954
X06551Y05954
X06651Y05954
X00776Y05979
X17101Y05979
X17334Y05979
X17101Y06079
X17334Y06079
X01551Y06104
X01651Y06104
X01751Y06104
X01851Y06104
X01951Y06104
X02051Y06104
X02151Y06104
X02251Y06104
X02351Y06104
X02551Y06104
X02651Y06104
X02751Y06104
X02851Y06104
X02951Y06104
X03051Y06104
X03151Y06104
X03251Y06104
X03351Y06104
X14501Y06104
X14601Y06104
X14701Y06104
X14801Y06104
X14901Y06104
X15001Y06104
X15101Y06104
X15201Y06104
X15301Y06104
X15401Y06104
X15501Y06104
X15601Y06104
X00776Y06129
X17101Y06179
X17334Y06179
X11623Y06194
X11723Y06194
X11823Y06194
X11923Y06194
X12023Y06194
X12123Y06194
X12223Y06194
X12323Y06194
X12423Y06194
X12523Y06194
X12623Y06194
X12723Y06194
X12823Y06194
X12923Y06194
X13023Y06194
X13123Y06194
X13223Y06194
X13323Y06194
X13423Y06194
X13523Y06194
X13623Y06194
X13723Y06194
X13823Y06194
X13923Y06194
X14023Y06194
X03879Y06256
X03979Y06256
X04079Y06256
X04179Y06256
X04279Y06256
X04379Y06256
X04479Y06256
X04579Y06256
X04679Y06256
X04779Y06256
X04879Y06256
X04979Y06256
X05079Y06256
X05179Y06256
X05279Y06256
X05379Y06256
X05479Y06256
X05579Y06256
X05679Y06256
X05779Y06256
X05879Y06256
X05979Y06256
X06079Y06256
X06179Y06256
X06279Y06256
X17806Y06269
X17101Y06279
X17334Y06279
X11623Y06294
X11723Y06294
X11823Y06294
X11923Y06294
X12023Y06294
X12123Y06294
X12223Y06294
X12323Y06294
X12423Y06294
X12523Y06294
X12623Y06294
X12723Y06294
X12823Y06294
X12923Y06294
X13023Y06294
X13123Y06294
X13223Y06294
X13323Y06294
X13423Y06294
X13523Y06294
X13623Y06294
X13723Y06294
X13823Y06294
X13923Y06294
X14023Y06294
X17801Y06354
X03879Y06356
X03979Y06356
X04079Y06356
X04179Y06356
X04279Y06356
X04379Y06356
X04479Y06356
X04579Y06356
X04679Y06356
X04779Y06356
X04879Y06356
X04979Y06356
X05079Y06356
X05179Y06356
X05279Y06356
X05379Y06356
X05479Y06356
X05579Y06356
X05679Y06356
X05779Y06356
X05879Y06356
X05979Y06356
X06079Y06356
X06179Y06356
X06279Y06356
X17101Y06379
X17334Y06379
X14501Y06404
X14601Y06404
X14701Y06404
X14801Y06404
X14901Y06404
X15001Y06404
X15101Y06404
X15201Y06404
X15301Y06404
X15401Y06404
X15501Y06404
X15601Y06404
X07401Y06454
X00776Y06479
X17101Y06479
X17334Y06479
X00776Y06629
X11481Y06649
X11581Y06649
X11681Y06649
X11781Y06649
X08701Y06654
X09001Y06654
X09301Y06654
X05901Y06679
X06001Y06679
X06101Y06679
X06201Y06679
X06301Y06679
X06401Y06679
X06501Y06679
X06601Y06679
X06701Y06679
X17806Y06769
X07401Y06854
X17801Y06854
X05051Y06929
X05151Y06929
X05251Y06929
X05351Y06929
X05451Y06929
X05551Y06929
X05651Y06929
X05751Y06929
X05851Y06929
X08701Y06954
X09001Y06954
X09301Y06954
X00776Y06979
X03301Y07104
X00776Y07129
X02636Y07204
X17806Y07269
X03301Y07304
X12091Y07322
X12191Y07322
X17801Y07354
X12091Y07422
X12191Y07422
X15376Y07429
X15676Y07429
X12091Y07522
X12191Y07522
X01487Y07586
X01644Y07586
X01051Y07609
X12091Y07622
X12191Y07622
X01487Y07665
X01644Y07665
X06126Y07704
X06926Y07704
X12091Y07722
X12191Y07722
X15376Y07729
X15676Y07729
X01487Y07744
X01644Y07744
X17806Y07769
X12091Y07822
X12191Y07822
X01487Y07823
X01644Y07823
X01051Y07829
X17801Y07854
X01487Y07902
X01644Y07902
X12091Y07922
X12191Y07922
X01487Y07981
X01644Y07981
X11751Y08004
X12091Y08022
X12191Y08022
X15376Y08029
X15676Y08029
X01487Y08060
X01644Y08060
X11751Y08104
X01051Y08109
X12091Y08122
X12191Y08122
X01487Y08139
X01644Y08139
X17801Y08179
X01487Y08218
X01644Y08218
X12091Y08222
X12191Y08222
X17806Y08269
X01487Y08297
X01644Y08297
X12091Y08322
X12191Y08322
X01051Y08329
X01487Y08376
X01644Y08376
X17801Y08379
X10176Y08404
X12091Y08422
X12191Y08422
X15451Y08454
X16251Y08454
X01487Y08455
X01644Y08455
X16701Y08479
X17401Y08479
X08151Y08504
X08230Y08504
X12091Y08522
X12191Y08522
X01487Y08534
X01644Y08534
X08151Y08583
X08230Y08583
X02001Y08604
X02101Y08604
X02201Y08604
X02301Y08604
X02401Y08604
X02501Y08604
X02601Y08604
X02701Y08604
X02801Y08604
X02901Y08604
X03001Y08604
X03101Y08604
X01051Y08609
X01487Y08613
X01644Y08613
X12091Y08622
X12191Y08622
X04701Y08654
X05401Y08654
X08151Y08662
X08230Y08662
X17801Y08679
X01487Y08692
X01644Y08692
X16226Y08704
X12091Y08722
X12191Y08722
X08151Y08741
X08230Y08741
X05551Y08754
X11751Y08754
X01487Y08771
X01644Y08771
X08151Y08820
X08230Y08820
X12091Y08822
X12191Y08822
X01051Y08829
X01487Y08850
X01644Y08850
X04701Y08854
X04801Y08854
X04901Y08854
X05001Y08854
X05101Y08854
X05201Y08854
X05301Y08854
X11751Y08854
X17801Y08879
X08151Y08899
X08230Y08899
X10551Y08904
X10640Y08904
X10728Y08904
X12091Y08922
X12191Y08922
X01487Y08929
X01644Y08929
X09751Y08954
X09820Y08954
X09889Y08954
X09972Y08954
X10041Y08954
X10110Y08954
X08151Y08978
X08230Y08978
X09226Y08979
X09326Y08979
X09426Y08979
X09001Y09004
X01487Y09008
X01644Y09008
X09751Y09052
X09889Y09052
X09972Y09052
X10110Y09052
X08151Y09057
X08230Y09057
X10551Y09081
X10728Y09081
X01487Y09087
X01644Y09087
X08851Y09104
X09201Y09104
X15001Y09129
X15551Y09129
X08151Y09136
X08230Y09136
X04701Y09154
X04801Y09154
X04901Y09154
X05001Y09154
X05101Y09154
X05201Y09154
X05301Y09154
X05551Y09154
X12351Y09154
X12451Y09154
X12551Y09154
X12651Y09154
X12751Y09154
X12851Y09154
X12951Y09154
X13051Y09154
X13151Y09154
X13251Y09154
X13351Y09154
X13451Y09154
X13551Y09154
X13651Y09154
X17801Y09179
X02001Y09204
X02101Y09204
X02201Y09204
X02301Y09204
X02401Y09204
X02501Y09204
X02601Y09204
X02701Y09204
X02801Y09204
X02901Y09204
X03001Y09204
X03101Y09204
X09401Y09204
X09501Y09204
X09601Y09204
X09701Y09204
X09801Y09204
X09901Y09204
X10001Y09204
X10101Y09204
X10201Y09204
X10301Y09204
X10651Y09204
X08151Y09215
X08230Y09215
X10901Y09254
X11001Y09254
X17651Y09254
X08151Y09294
X08230Y09294
X09001Y09304
X16226Y09304
X08151Y09373
X08230Y09373
X14126Y09379
X17801Y09379
X08151Y09452
X08230Y09452
X01601Y09454
X02101Y09454
X11351Y09454
X11451Y09454
X11551Y09454
X11651Y09454
X11751Y09454
X11851Y09454
X11951Y09454
X12051Y09454
X04651Y09504
X04751Y09504
X04851Y09504
X04951Y09504
X05051Y09504
X05151Y09504
X05251Y09504
X05351Y09504
X08851Y09504
X09201Y09504
X09401Y09504
X09501Y09504
X09601Y09504
X09701Y09504
X09801Y09504
X09901Y09504
X10001Y09504
X10101Y09504
X10201Y09504
X10301Y09504
X08151Y09531
X08230Y09531
X10651Y09604
X10901Y09604
X11001Y09604
X08151Y09610
X08230Y09610
X01601Y09654
X09001Y09654
X09601Y09654
X09751Y09654
X16601Y09654
X17201Y09654
X17651Y09654
X17801Y09679
X08151Y09689
X08230Y09689
X01801Y09704
X02601Y09704
X01451Y09729
X14301Y09729
X14401Y09729
X14501Y09729
X03051Y09754
X03351Y09754
X09751Y09754
X11351Y09754
X11451Y09754
X11551Y09754
X11651Y09754
X11751Y09754
X11851Y09754
X11951Y09754
X12051Y09754
X12351Y09754
X12451Y09754
X12551Y09754
X12651Y09754
X12751Y09754
X12851Y09754
X12951Y09754
X13051Y09754
X13151Y09754
X13251Y09754
X13351Y09754
X13451Y09754
X13551Y09754
X13651Y09754
X08151Y09768
X08230Y09768
X04651Y09804
X04751Y09804
X04851Y09804
X04951Y09804
X05051Y09804
X05151Y09804
X05251Y09804
X05351Y09804
X01451Y09829
X15001Y09829
X15551Y09829
X08151Y09847
X08230Y09847
X09751Y09854
X15251Y09854
X15901Y09854
X16176Y09854
X16551Y09854
X16651Y09854
X16751Y09854
X16851Y09854
X16951Y09854
X17051Y09854
X17151Y09854
X17251Y09854
X17351Y09854
X17801Y09879
X01851Y09904
X01951Y09904
X02051Y09904
X09951Y09904
X10751Y09904
X12351Y09904
X12451Y09904
X12551Y09904
X12651Y09904
X12751Y09904
X12851Y09904
X12951Y09904
X13051Y09904
X13151Y09904
X13576Y09904
X13776Y09904
X08151Y09926
X08230Y09926
X01451Y09929
X08926Y09979
X09726Y09979
X10901Y10004
X11001Y10004
X13576Y10004
X13776Y10004
X08151Y10005
X08230Y10005
X01451Y10054
X01601Y10054
X03051Y10054
X03351Y10054
X14126Y10079
X08151Y10084
X08230Y10084
X13576Y10104
X13776Y10104
X01451Y10154
X08151Y10163
X08230Y10163
X17801Y10179
X01851Y10204
X01951Y10204
X02051Y10204
X13551Y10229
X14151Y10229
X01451Y10254
X11601Y10254
X11701Y10254
X11801Y10254
X14701Y10329
X14801Y10329
X14901Y10329
X15001Y10329
X03051Y10354
X03351Y10354
X13576Y10379
X17801Y10379
X09451Y10429
X09851Y10429
X09201Y10454
X13576Y10479
X09451Y10529
X09851Y10529
X13926Y10529
X09201Y10554
X13576Y10579
X02701Y10604
X03301Y10604
X03601Y10604
X04301Y10604
X14701Y10629
X14801Y10629
X14901Y10629
X15001Y10629
X09201Y10654
X15251Y10654
X15901Y10654
X16176Y10654
X17801Y10679
X03401Y10704
X13351Y10754
X13751Y10754
X02001Y10804
X02151Y10804
X03751Y10804
X04151Y10804
X17801Y10879
X01451Y10904
X02001Y10904
X02151Y10904
X03651Y10904
X03751Y10904
X03851Y10904
X03951Y10904
X04051Y10904
X04151Y10904
X04251Y10904
X05551Y10904
X05701Y10904
X05851Y10904
X06001Y10904
X06151Y10904
X06301Y10904
X06451Y10904
X06601Y10904
X06751Y10904
X06901Y10904
X07051Y10904
X07201Y10904
X07351Y10904
X07501Y10904
X07651Y10904
X07801Y10904
X07951Y10904
X08101Y10904
X08251Y10904
X08401Y10904
X12401Y10904
X13301Y10904
X13801Y10904
X13926Y10929
X01851Y10954
X10701Y10954
X10801Y10954
X01451Y11004
X02001Y11004
X02151Y11004
X05551Y11004
X05701Y11004
X05851Y11004
X06001Y11004
X06151Y11004
X06301Y11004
X06451Y11004
X06601Y11004
X06751Y11004
X06901Y11004
X07051Y11004
X07201Y11004
X07351Y11004
X07501Y11004
X07651Y11004
X07801Y11004
X07951Y11004
X08101Y11004
X08251Y11004
X08401Y11004
X12401Y11004
X10701Y11054
X10801Y11054
X13151Y11054
X13251Y11054
X13351Y11054
X13451Y11054
X13551Y11054
X13651Y11054
X13751Y11054
X13851Y11054
X01451Y11104
X05551Y11104
X05701Y11104
X05851Y11104
X06001Y11104
X06151Y11104
X06301Y11104
X06451Y11104
X06601Y11104
X06751Y11104
X06901Y11104
X07051Y11104
X07201Y11104
X07351Y11104
X07501Y11104
X07651Y11104
X07801Y11104
X07951Y11104
X08101Y11104
X08251Y11104
X08401Y11104
X12401Y11104
X01664Y11123
X10701Y11154
X10801Y11154
X03651Y11204
X03751Y11204
X03851Y11204
X03951Y11204
X04051Y11204
X04151Y11204
X04251Y11204
X12551Y11204
X12651Y11204
X12751Y11204
X12851Y11204
X12951Y11204
X13051Y11204
X13151Y11204
X13251Y11204
X13751Y11204
X13851Y11204
X13951Y11204
X14051Y11204
X14151Y11204
X14251Y11204
X14351Y11204
X14451Y11204
X01664Y11221
X16786Y11229
X16876Y11229
X16966Y11229
X17056Y11229
X17146Y11229
X17236Y11229
X17326Y11229
X17416Y11229
X17506Y11229
X01451Y11254
X04836Y11292
X04919Y11292
X05005Y11292
X05104Y11292
X02801Y11304
X03201Y11304
X01664Y11319
X16741Y11329
X16831Y11329
X16921Y11329
X17011Y11329
X17101Y11329
X17191Y11329
X17281Y11329
X17371Y11329
X17461Y11329
X05821Y11335
X05930Y11335
X06039Y11335
X06148Y11335
X06257Y11335
X07234Y11335
X07342Y11335
X07451Y11335
X07560Y11335
X07668Y11335
X07777Y11335
X07886Y11335
X07994Y11335
X08103Y11335
X08211Y11335
X08320Y11335
X08429Y11335
X08537Y11335
X01451Y11354
X01851Y11354
X01951Y11354
X02651Y11354
X10900Y11355
X11008Y11355
X11117Y11355
X11226Y11355
X11334Y11355
X11443Y11355
X11552Y11355
X11660Y11355
X11769Y11355
X11877Y11355
X12955Y11355
X13055Y11355
X13155Y11355
X13255Y11355
X13355Y11355
X13455Y11355
X13555Y11355
X13655Y11355
X13755Y11355
X13855Y11355
X13955Y11355
X14055Y11355
X14155Y11355
X04836Y11392
X04919Y11392
X05021Y11392
X05104Y11392
X02801Y11404
X03201Y11404
X03401Y11404
X03551Y11404
X04251Y11404
X16786Y11429
X16876Y11429
X16966Y11429
X17056Y11429
X17146Y11429
X17236Y11429
X17326Y11429
X17416Y11429
X13005Y11430
X13105Y11430
X13205Y11430
X13305Y11430
X13405Y11430
X13505Y11430
X13605Y11430
X13705Y11430
X13805Y11430
X13905Y11430
X14005Y11430
X14105Y11430
X05876Y11447
X05985Y11447
X06094Y11447
X06203Y11447
X07288Y11448
X07397Y11448
X07505Y11448
X07614Y11448
X07723Y11448
X07831Y11448
X07940Y11448
X08048Y11448
X08157Y11448
X08266Y11448
X08374Y11448
X08483Y11448
X01451Y11454
X10954Y11468
X11063Y11468
X11171Y11468
X11280Y11468
X11389Y11468
X11497Y11468
X11606Y11468
X11714Y11468
X11823Y11468
X12955Y11505
X13055Y11505
X13155Y11505
X13255Y11505
X13355Y11505
X13455Y11505
X13555Y11505
X13655Y11505
X13755Y11505
X13855Y11505
X13955Y11505
X14055Y11505
X14155Y11505
X02026Y11579
X02526Y11579
X03026Y11579
X03526Y11579
X04026Y11579
X04526Y11579
X07851Y11579
X08351Y11579
X08851Y11579
X13005Y11580
X13105Y11580
X13205Y11580
X13305Y11580
X13405Y11580
X13505Y11580
X13605Y11580
X13705Y11580
X13805Y11580
X13905Y11580
X14005Y11580
X14105Y11580
T04
X02376Y02429
X02876Y02429
X02151Y03104
X10776Y03154
X09576Y03354
X10176Y03354
X09351Y03454
X02151Y03604
X09726Y03704
X10326Y03704
X10776Y03754
X01401Y03804
X01901Y03804
X08501Y03804
X09001Y03804
X01401Y03954
X01901Y03954
X09351Y03954
X04701Y04204
X05201Y04204
X01401Y05254
X01901Y05254
X01401Y05554
X01901Y05554
X08051Y05954
X08551Y05954
X08151Y06154
X07376Y06229
X07876Y06229
X09701Y06904
X10201Y06904
X13301Y07304
X03676Y07504
X04176Y07504
X01801Y07704
X02301Y07704
X16951Y07754
X13301Y07804
X01801Y07854
X02301Y07854
X08151Y07954
X01801Y08004
X02301Y08004
X01801Y08154
X02301Y08154
X16951Y08254
X05751Y08429
X06251Y08429
X12651Y08429
X13151Y08429
X12651Y08604
X13151Y08604
X10276Y08654
X10776Y08654
X12801Y08854
X13301Y08854
X15076Y08929
X16026Y08929
X10494Y08993
X10785Y08993
X07301Y09264
X04801Y09304
X05401Y09304
X05576Y09304
X05976Y09304
X16401Y09404
X02301Y09454
X02801Y09454
X06251Y09604
X07301Y09764
X16401Y09904
X15576Y09929
X08776Y09979
X16401Y10004
X16551Y10004
X16701Y10004
X16851Y10004
X17001Y10004
X17151Y10004
X17301Y10004
X17451Y10004
X17601Y10004
X06251Y10104
X09715Y10268
X09815Y10268
X09915Y10268
X03651Y10404
X04251Y10404
X02351Y10504
X16401Y10504
X16551Y10504
X16701Y10504
X16851Y10504
X17001Y10504
X17151Y10504
X17301Y10504
X17451Y10504
X17601Y10504
X16401Y10604
X16551Y10604
X16701Y10604
X17451Y10604
X17601Y10604
X10501Y10654
X11651Y10654
X11901Y10654
X12151Y10654
X14801Y10754
X15001Y10754
X15201Y10754
X15951Y10754
X16101Y10754
X16251Y10754
X15576Y10879
X01711Y10997
X02351Y11004
X08776Y11079
X16401Y11104
X16551Y11104
X16701Y11104
X17451Y11104
X17601Y11104
X10501Y11154
X11651Y11154
X11901Y11154
X12151Y11154
X14801Y11254
X15001Y11254
X15201Y11254
X15951Y11254
X16101Y11254
X16251Y11254
X15010Y11391
X16034Y11391
X01577Y11441
X14810Y11587
X15210Y11587
X15834Y11587
X16234Y11587
X14810Y11685
X15210Y11685
X15834Y11685
X16234Y11685
T05
X10826Y03904
X10826Y04104
X06979Y10524
X07490Y10721
X10797Y10721
X01664Y10799
T06
X07388Y07870
X07388Y08026
X07388Y08182
X07388Y08338
X07388Y08494
X07388Y08650
X07388Y08806
X00709Y09874
X00709Y10268
X00709Y10819
X00709Y11213
X14810Y11391
X14910Y11391
X15110Y11391
X15210Y11391
X15834Y11391
X15934Y11391
X16134Y11391
X16234Y11391
X15010Y11587
X16034Y11587
T07
X07388Y08962
X01103Y09776
X01201Y09874
X01103Y10071
X01201Y10268
X01103Y10366
X01103Y10721
X01201Y10819
X01103Y11016
X01201Y11213
X01103Y11311
T08
X04704Y11511
X05236Y11511
X04970Y11542
T09
X01001Y07060
X01001Y09617
X16471Y11329
X17781Y11329
X12635Y11505
X14475Y11505
T10
X11900Y02749
X14222Y02749
X13051Y03454
X11900Y04165
X14222Y04165
X09115Y10839
X10315Y10839
X05546Y11391
X06531Y11391
X06961Y11391
X08811Y11391
X12152Y11405
X10627Y11411
X09597Y11674
T11
X00837Y02040
X07707Y02040
X01066Y03055
X01066Y04039
X01066Y04314
X17688Y05032
X01066Y05298
X01781Y07158
X06861Y07158
X07372Y07355
X10797Y07355
T12
X14577Y02040
T13
X06979Y10269
X07490Y10466
X10797Y10466
X01664Y10544
X11231Y10977
X15521Y11332
T14
X00601Y01304
X01101Y02304
X17401Y02304
X00601Y12204
X01101Y12204
X17401Y12204
X17926Y12204
T15
X09261Y02198
T16
X04714Y01824
X10659Y01824
X00641Y06351
X17903Y07000
X17903Y09993
T17
X09585Y10751
X17101Y10839
X09335Y11095
T18
X14341Y07139
X17101Y07139
X14341Y10839
T19
X09261Y04757
M30
