%TF.GenerationSoftware,KiCad,Pcbnew,9.0.6*%
%TF.CreationDate,2026-07-06T22:47:55+02:00*%
%TF.ProjectId,Falcon,46616c63-6f6e-42e6-9b69-6361645f7063,rev?*%
%TF.SameCoordinates,Original*%
%TF.FileFunction,Copper,L5,Inr*%
%TF.FilePolarity,Positive*%
%FSLAX46Y46*%
G04 Gerber Fmt 4.6, Leading zero omitted, Abs format (unit mm)*
G04 Created by KiCad (PCBNEW 9.0.6) date 2026-07-06 22:47:55*
%MOMM*%
%LPD*%
G04 Aligned to cleaned set: shifted X +86.779100 mm, Y +276.555200 mm*
G01*
G04 APERTURE LIST*
%ADD10C,0.381000*%
%TA.AperFunction,NonConductor*%
%ADD11C,0.381000*%
%TD*%
%TA.AperFunction,ComponentPad*%
%ADD12C,1.270000*%
%TD*%
%TA.AperFunction,ComponentPad*%
%ADD13R,1.270000X1.270000*%
%TD*%
%TA.AperFunction,ComponentPad*%
%ADD14C,6.350000*%
%TD*%
%TA.AperFunction,ComponentPad*%
%ADD15C,1.905000*%
%TD*%
%TA.AperFunction,ComponentPad*%
%ADD16C,2.540000*%
%TD*%
%TA.AperFunction,ComponentPad*%
%ADD17R,1.905000X1.905000*%
%TD*%
%TA.AperFunction,ComponentPad*%
%ADD18C,1.016000*%
%TD*%
%TA.AperFunction,ComponentPad*%
%ADD19C,4.191000*%
%TD*%
%TA.AperFunction,ComponentPad*%
%ADD20C,5.080000*%
%TD*%
%TA.AperFunction,ComponentPad*%
%ADD21C,3.810000*%
%TD*%
%TA.AperFunction,ComponentPad*%
%ADD22R,10.287000X1.397000*%
%TD*%
%TA.AperFunction,ComponentPad*%
%ADD23O,1.524000X1.879600*%
%TD*%
%TA.AperFunction,ComponentPad*%
%ADD24R,2.032000X2.286000*%
%TD*%
%TA.AperFunction,ComponentPad*%
%ADD25R,2.286000X2.032000*%
%TD*%
%TA.AperFunction,ComponentPad*%
%ADD26C,3.987800*%
%TD*%
%TA.AperFunction,ComponentPad*%
%ADD27O,8.001000X15.976600*%
%TD*%
%TA.AperFunction,ComponentPad*%
%ADD28R,1.397000X1.397000*%
%TD*%
%TA.AperFunction,ComponentPad*%
%ADD29O,5.994400X3.505200*%
%TD*%
%TA.AperFunction,ComponentPad*%
%ADD30C,8.001000*%
%TD*%
%TA.AperFunction,ComponentPad*%
%ADD31C,3.302000*%
%TD*%
%TA.AperFunction,ViaPad*%
%ADD32C,1.016000*%
%TD*%
%TA.AperFunction,Conductor*%
%ADD33C,1.016000*%
%TD*%
%TA.AperFunction,Conductor*%
%ADD34C,0.381000*%
%TD*%
%TA.AperFunction,Conductor*%
%ADD35C,0.279400*%
%TD*%
G04 APERTURE END LIST*
D10*
D11*
X263470857Y22663647D02*
X262412523Y22663647D01*
X262412523Y22663647D02*
X262306690Y21605314D01*
X262306690Y21605314D02*
X262412523Y21711147D01*
X262412523Y21711147D02*
X262624190Y21816980D01*
X262624190Y21816980D02*
X263153357Y21816980D01*
X263153357Y21816980D02*
X263365023Y21711147D01*
X263365023Y21711147D02*
X263470857Y21605314D01*
X263470857Y21605314D02*
X263576690Y21393647D01*
X263576690Y21393647D02*
X263576690Y20864480D01*
X263576690Y20864480D02*
X263470857Y20652814D01*
X263470857Y20652814D02*
X263365023Y20546980D01*
X263365023Y20546980D02*
X263153357Y20441147D01*
X263153357Y20441147D02*
X262624190Y20441147D01*
X262624190Y20441147D02*
X262412523Y20546980D01*
X262412523Y20546980D02*
X262306690Y20652814D01*
D10*
D11*
X245796690Y17477814D02*
X245585023Y17583647D01*
X245585023Y17583647D02*
X245267523Y17583647D01*
X245267523Y17583647D02*
X244950023Y17477814D01*
X244950023Y17477814D02*
X244738357Y17266147D01*
X244738357Y17266147D02*
X244632523Y17054480D01*
X244632523Y17054480D02*
X244526690Y16631147D01*
X244526690Y16631147D02*
X244526690Y16313647D01*
X244526690Y16313647D02*
X244632523Y15890314D01*
X244632523Y15890314D02*
X244738357Y15678647D01*
X244738357Y15678647D02*
X244950023Y15466980D01*
X244950023Y15466980D02*
X245267523Y15361147D01*
X245267523Y15361147D02*
X245479190Y15361147D01*
X245479190Y15361147D02*
X245796690Y15466980D01*
X245796690Y15466980D02*
X245902523Y15572814D01*
X245902523Y15572814D02*
X245902523Y16313647D01*
X245902523Y16313647D02*
X245479190Y16313647D01*
X246855023Y15361147D02*
X246855023Y17583647D01*
X246855023Y17583647D02*
X248125023Y15361147D01*
X248125023Y15361147D02*
X248125023Y17583647D01*
X249183356Y15361147D02*
X249183356Y17583647D01*
X249183356Y17583647D02*
X249712523Y17583647D01*
X249712523Y17583647D02*
X250030023Y17477814D01*
X250030023Y17477814D02*
X250241690Y17266147D01*
X250241690Y17266147D02*
X250347523Y17054480D01*
X250347523Y17054480D02*
X250453356Y16631147D01*
X250453356Y16631147D02*
X250453356Y16313647D01*
X250453356Y16313647D02*
X250347523Y15890314D01*
X250347523Y15890314D02*
X250241690Y15678647D01*
X250241690Y15678647D02*
X250030023Y15466980D01*
X250030023Y15466980D02*
X249712523Y15361147D01*
X249712523Y15361147D02*
X249183356Y15361147D01*
X253099189Y15361147D02*
X253099189Y17583647D01*
X253099189Y17583647D02*
X253945856Y17583647D01*
X253945856Y17583647D02*
X254157523Y17477814D01*
X254157523Y17477814D02*
X254263356Y17371980D01*
X254263356Y17371980D02*
X254369189Y17160314D01*
X254369189Y17160314D02*
X254369189Y16842814D01*
X254369189Y16842814D02*
X254263356Y16631147D01*
X254263356Y16631147D02*
X254157523Y16525314D01*
X254157523Y16525314D02*
X253945856Y16419480D01*
X253945856Y16419480D02*
X253099189Y16419480D01*
X256380023Y15361147D02*
X255321689Y15361147D01*
X255321689Y15361147D02*
X255321689Y17583647D01*
X257015023Y15996147D02*
X258073356Y15996147D01*
X256803356Y15361147D02*
X257544190Y17583647D01*
X257544190Y17583647D02*
X258285023Y15361147D01*
X259025856Y15361147D02*
X259025856Y17583647D01*
X259025856Y17583647D02*
X260295856Y15361147D01*
X260295856Y15361147D02*
X260295856Y17583647D01*
X261354189Y16525314D02*
X262095023Y16525314D01*
X262412523Y15361147D02*
X261354189Y15361147D01*
X261354189Y15361147D02*
X261354189Y17583647D01*
X261354189Y17583647D02*
X262412523Y17583647D01*
D12*
%TO.N,14*%
%TO.C,H7987*%
X293382700Y228701600D03*
%TD*%
%TO.N,14*%
%TO.C,C117*%
X298462700Y188696600D03*
D13*
%TO.N,356*%
X298462700Y209016600D03*
%TD*%
D12*
%TO.N,844*%
%TO.C,H58568*%
X432701700Y278815800D03*
%TD*%
%TO.N,844*%
%TO.C,H5578*%
X436587900Y278790400D03*
%TD*%
%TO.N,844*%
%TO.C,H4567*%
X438670700Y275590000D03*
%TD*%
%TO.N,844*%
%TO.C,H658*%
X436079900Y271703800D03*
%TD*%
%TO.N,844*%
%TO.C,H5467*%
X431736500Y272110200D03*
%TD*%
D14*
%TO.N,N/C*%
%TO.C,H8*%
X42252900Y267817600D03*
%TD*%
D12*
%TO.N,844*%
%TO.C,H5866*%
X430212500Y275412200D03*
%TD*%
%TO.N,848*%
%TO.C,H8656*%
X290614100Y279019000D03*
%TD*%
%TO.N,848*%
%TO.C,H8965*%
X279844500Y278815800D03*
%TD*%
%TO.N,848*%
%TO.C,H56878*%
X285559500Y283006800D03*
%TD*%
%TO.N,848*%
%TO.C,H865*%
X286956500Y274574000D03*
%TD*%
%TO.N,848*%
%TO.C,H7478*%
X283324300Y274904200D03*
%TD*%
%TO.N,846*%
%TO.C,H68565*%
X274129500Y261797800D03*
%TD*%
%TO.N,846*%
%TO.C,H6853*%
X278295100Y263601200D03*
%TD*%
%TO.N,846*%
%TO.C,H7667U*%
X277964900Y268478000D03*
%TD*%
%TO.N,846*%
%TO.C,H797*%
X274231100Y270052800D03*
%TD*%
D15*
%TO.N,14*%
%TO.C,C224*%
X274967700Y104241600D03*
%TO.N,16*%
X274967700Y99161600D03*
%TD*%
D12*
%TO.N,846*%
%TO.C,H85668*%
X270751300Y268554200D03*
%TD*%
%TO.N,846*%
%TO.C,H457*%
X269659100Y264642600D03*
%TD*%
%TO.N,849*%
%TO.C,H5496*%
X279107900Y186867800D03*
%TD*%
%TO.N,849*%
%TO.C,H589*%
X274840700Y183083200D03*
%TD*%
%TO.N,849*%
%TO.C,H6797*%
X271589500Y183845200D03*
%TD*%
%TO.N,849*%
%TO.C,H677*%
X270090900Y186588400D03*
%TD*%
%TO.N,849*%
%TO.C,H89867*%
X274866100Y190627000D03*
%TD*%
%TO.N,849*%
%TO.C,H97766*%
X271614900Y190093600D03*
%TD*%
%TO.N,505*%
%TO.C,H5638*%
X185864500Y183362600D03*
%TD*%
%TO.N,505*%
%TO.C,H69987*%
X189039500Y183388000D03*
%TD*%
%TO.N,505*%
%TO.C,H9475*%
X188861700Y190703200D03*
%TD*%
%TO.N,505*%
%TO.C,H3568*%
X185356500Y190550800D03*
%TD*%
%TO.N,437*%
%TO.C,H587*%
X176872900Y184988200D03*
%TD*%
%TO.N,437*%
%TO.C,H58*%
X176568100Y178308000D03*
%TD*%
%TO.N,437*%
%TO.C,H679*%
X173951900Y185801000D03*
%TD*%
%TO.N,437*%
%TO.C,H37956*%
X170243500Y179095400D03*
%TD*%
%TO.N,437*%
%TO.C,H9500*%
X169684700Y182702200D03*
%TD*%
%TO.N,348*%
%TO.C,H69067*%
X194805300Y265836400D03*
%TD*%
%TO.N,348*%
%TO.C,H0899*%
X193306700Y262458200D03*
%TD*%
%TO.N,348*%
%TO.C,H079*%
X186702700Y263017000D03*
%TD*%
%TO.N,348*%
%TO.C,H709*%
X192951100Y269443200D03*
%TD*%
%TO.N,348*%
%TO.C,H80980*%
X188607700Y269798800D03*
%TD*%
%TO.N,348*%
%TO.C,H9769*%
X185762900Y267563600D03*
%TD*%
%TO.N,348*%
%TO.C,H8789*%
X189699900Y261518400D03*
%TD*%
%TO.N,433*%
%TO.C,H97698*%
X174028100Y257911600D03*
%TD*%
%TO.N,433*%
%TO.C,H9679*%
X179336700Y264693400D03*
%TD*%
%TO.N,433*%
%TO.C,H9678*%
X181216300Y258495800D03*
%TD*%
%TO.N,433*%
%TO.C,H967*%
X177609500Y256794000D03*
%TD*%
%TO.N,433*%
%TO.C,H8966*%
X172732700Y260731000D03*
%TD*%
%TO.N,433*%
%TO.C,H8568*%
X174790100Y264541000D03*
%TD*%
%TO.N,840*%
%TO.C,H8576*%
X47764700Y185013600D03*
%TD*%
%TO.N,840*%
%TO.C,H769*%
X47332900Y177825400D03*
%TD*%
%TO.N,840*%
%TO.C,H568*%
X43599100Y177520600D03*
%TD*%
%TO.N,840*%
%TO.C,H853*%
X43599100Y185597800D03*
%TD*%
%TO.N,840*%
%TO.C,H54667*%
X40728900Y181737000D03*
%TD*%
D14*
%TO.N,N/C*%
%TO.C,M3*%
X331482700Y87731600D03*
%TD*%
D12*
%TO.N,N/C*%
%TO.C,H54*%
X452132700Y85191600D03*
X449592700Y85191600D03*
X447052700Y85191600D03*
X444512700Y85191600D03*
X444512700Y82651600D03*
X447052700Y82651600D03*
X449592700Y82651600D03*
X452132700Y82651600D03*
X452132700Y80111600D03*
X449592700Y80111600D03*
X447052700Y80111600D03*
X444512700Y80111600D03*
%TD*%
%TO.N,N/C*%
%TO.C,H547*%
X441972700Y85191600D03*
X439432700Y85191600D03*
X436892700Y85191600D03*
X434352700Y85191600D03*
X434352700Y82651600D03*
X436892700Y82651600D03*
X439432700Y82651600D03*
X441972700Y82651600D03*
X441972700Y80111600D03*
X439432700Y80111600D03*
X436892700Y80111600D03*
X434352700Y80111600D03*
%TD*%
%TO.N,N/C*%
%TO.C,H3856*%
X431812700Y85191600D03*
X429272700Y85191600D03*
X426732700Y85191600D03*
X424192700Y85191600D03*
X424192700Y82651600D03*
X426732700Y82651600D03*
X429272700Y82651600D03*
X431812700Y82651600D03*
X431812700Y80111600D03*
X429272700Y80111600D03*
X426732700Y80111600D03*
X424192700Y80111600D03*
%TD*%
%TO.N,N/C*%
%TO.C,H85*%
X421652700Y85191600D03*
X419112700Y85191600D03*
X416572700Y85191600D03*
X414032700Y85191600D03*
X414032700Y82651600D03*
X416572700Y82651600D03*
X419112700Y82651600D03*
X421652700Y82651600D03*
X421652700Y80111600D03*
X419112700Y80111600D03*
X416572700Y80111600D03*
X414032700Y80111600D03*
%TD*%
%TO.N,N/C*%
%TO.C,H3685*%
X411492700Y85191600D03*
X408952700Y85191600D03*
X406412700Y85191600D03*
X403872700Y85191600D03*
X403872700Y82651600D03*
X406412700Y82651600D03*
X408952700Y82651600D03*
X411492700Y82651600D03*
X411492700Y80111600D03*
X408952700Y80111600D03*
X406412700Y80111600D03*
X403872700Y80111600D03*
%TD*%
%TO.N,N/C*%
%TO.C,H794*%
X401332700Y85191600D03*
X398792700Y85191600D03*
X396252700Y85191600D03*
X393712700Y85191600D03*
X393712700Y82651600D03*
X396252700Y82651600D03*
X398792700Y82651600D03*
X401332700Y82651600D03*
X401332700Y80111600D03*
X398792700Y80111600D03*
X396252700Y80111600D03*
X393712700Y80111600D03*
%TD*%
%TO.N,N/C*%
%TO.C,H5486*%
X391172700Y85191600D03*
X388632700Y85191600D03*
X386092700Y85191600D03*
X383552700Y85191600D03*
X383552700Y82651600D03*
X386092700Y82651600D03*
X388632700Y82651600D03*
X391172700Y82651600D03*
X391172700Y80111600D03*
X388632700Y80111600D03*
X386092700Y80111600D03*
X383552700Y80111600D03*
%TD*%
%TO.N,N/C*%
%TO.C,H7489*%
X452132700Y92811600D03*
X449592700Y92811600D03*
X447052700Y92811600D03*
X444512700Y92811600D03*
X444512700Y90271600D03*
X447052700Y90271600D03*
X449592700Y90271600D03*
X452132700Y90271600D03*
X452132700Y87731600D03*
X449592700Y87731600D03*
X447052700Y87731600D03*
X444512700Y87731600D03*
%TD*%
%TO.N,N/C*%
%TO.C,H7444*%
X441972700Y92811600D03*
X439432700Y92811600D03*
X436892700Y92811600D03*
X434352700Y92811600D03*
X434352700Y90271600D03*
X436892700Y90271600D03*
X439432700Y90271600D03*
X441972700Y90271600D03*
X441972700Y87731600D03*
X439432700Y87731600D03*
X436892700Y87731600D03*
X434352700Y87731600D03*
%TD*%
%TO.N,N/C*%
%TO.C,H5386*%
X431812700Y92811600D03*
X429272700Y92811600D03*
X426732700Y92811600D03*
X424192700Y92811600D03*
X424192700Y90271600D03*
X426732700Y90271600D03*
X429272700Y90271600D03*
X431812700Y90271600D03*
X431812700Y87731600D03*
X429272700Y87731600D03*
X426732700Y87731600D03*
X424192700Y87731600D03*
%TD*%
%TO.N,N/C*%
%TO.C,H538*%
X421652700Y92811600D03*
X419112700Y92811600D03*
X416572700Y92811600D03*
X414032700Y92811600D03*
X414032700Y90271600D03*
X416572700Y90271600D03*
X419112700Y90271600D03*
X421652700Y90271600D03*
X421652700Y87731600D03*
X419112700Y87731600D03*
X416572700Y87731600D03*
X414032700Y87731600D03*
%TD*%
%TO.N,N/C*%
%TO.C,H586*%
X411492700Y92811600D03*
X408952700Y92811600D03*
X406412700Y92811600D03*
X403872700Y92811600D03*
X403872700Y90271600D03*
X406412700Y90271600D03*
X408952700Y90271600D03*
X411492700Y90271600D03*
X411492700Y87731600D03*
X408952700Y87731600D03*
X406412700Y87731600D03*
X403872700Y87731600D03*
%TD*%
%TO.N,N/C*%
%TO.C,H6786*%
X401332700Y92811600D03*
X398792700Y92811600D03*
X396252700Y92811600D03*
X393712700Y92811600D03*
X393712700Y90271600D03*
X396252700Y90271600D03*
X398792700Y90271600D03*
X401332700Y90271600D03*
X401332700Y87731600D03*
X398792700Y87731600D03*
X396252700Y87731600D03*
X393712700Y87731600D03*
%TD*%
%TO.N,N/C*%
%TO.C,H473*%
X391172700Y92811600D03*
X388632700Y92811600D03*
X386092700Y92811600D03*
X383552700Y92811600D03*
X383552700Y90271600D03*
X386092700Y90271600D03*
X388632700Y90271600D03*
X391172700Y90271600D03*
X391172700Y87731600D03*
X388632700Y87731600D03*
X386092700Y87731600D03*
X383552700Y87731600D03*
%TD*%
%TO.N,N/C*%
%TO.C,H2345*%
X452132700Y100431600D03*
X449592700Y100431600D03*
X447052700Y100431600D03*
X444512700Y100431600D03*
X444512700Y97891600D03*
X447052700Y97891600D03*
X449592700Y97891600D03*
X452132700Y97891600D03*
X452132700Y95351600D03*
X449592700Y95351600D03*
X447052700Y95351600D03*
X444512700Y95351600D03*
%TD*%
%TO.N,N/C*%
%TO.C,H856*%
X441972700Y100431600D03*
X439432700Y100431600D03*
X436892700Y100431600D03*
X434352700Y100431600D03*
X434352700Y97891600D03*
X436892700Y97891600D03*
X439432700Y97891600D03*
X441972700Y97891600D03*
X441972700Y95351600D03*
X439432700Y95351600D03*
X436892700Y95351600D03*
X434352700Y95351600D03*
%TD*%
%TO.N,N/C*%
%TO.C,H5836*%
X431812700Y100431600D03*
X429272700Y100431600D03*
X426732700Y100431600D03*
X424192700Y100431600D03*
X424192700Y97891600D03*
X426732700Y97891600D03*
X429272700Y97891600D03*
X431812700Y97891600D03*
X431812700Y95351600D03*
X429272700Y95351600D03*
X426732700Y95351600D03*
X424192700Y95351600D03*
%TD*%
%TO.N,N/C*%
%TO.C,H8956*%
X421652700Y100431600D03*
X419112700Y100431600D03*
X416572700Y100431600D03*
X414032700Y100431600D03*
X414032700Y97891600D03*
X416572700Y97891600D03*
X419112700Y97891600D03*
X421652700Y97891600D03*
X421652700Y95351600D03*
X419112700Y95351600D03*
X416572700Y95351600D03*
X414032700Y95351600D03*
%TD*%
%TO.N,N/C*%
%TO.C,H56978*%
X411492700Y100431600D03*
X408952700Y100431600D03*
X406412700Y100431600D03*
X403872700Y100431600D03*
X403872700Y97891600D03*
X406412700Y97891600D03*
X408952700Y97891600D03*
X411492700Y97891600D03*
X411492700Y95351600D03*
X408952700Y95351600D03*
X406412700Y95351600D03*
X403872700Y95351600D03*
%TD*%
%TO.N,N/C*%
%TO.C,H3457*%
X401332700Y100431600D03*
X398792700Y100431600D03*
X396252700Y100431600D03*
X393712700Y100431600D03*
X393712700Y97891600D03*
X396252700Y97891600D03*
X398792700Y97891600D03*
X401332700Y97891600D03*
X401332700Y95351600D03*
X398792700Y95351600D03*
X396252700Y95351600D03*
X393712700Y95351600D03*
%TD*%
%TO.N,N/C*%
%TO.C,H3687*%
X391172700Y100431600D03*
X388632700Y100431600D03*
X386092700Y100431600D03*
X383552700Y100431600D03*
X383552700Y97891600D03*
X386092700Y97891600D03*
X388632700Y97891600D03*
X391172700Y97891600D03*
X391172700Y95351600D03*
X388632700Y95351600D03*
X386092700Y95351600D03*
X383552700Y95351600D03*
%TD*%
%TO.N,N/C*%
%TO.C,H764*%
X452132700Y108051600D03*
X449592700Y108051600D03*
X447052700Y108051600D03*
X444512700Y108051600D03*
X444512700Y105511600D03*
X447052700Y105511600D03*
X449592700Y105511600D03*
X452132700Y105511600D03*
X452132700Y102971600D03*
X449592700Y102971600D03*
X447052700Y102971600D03*
X444512700Y102971600D03*
%TD*%
%TO.N,N/C*%
%TO.C,H4556*%
X441972700Y108051600D03*
X439432700Y108051600D03*
X436892700Y108051600D03*
X434352700Y108051600D03*
X434352700Y105511600D03*
X436892700Y105511600D03*
X439432700Y105511600D03*
X441972700Y105511600D03*
X441972700Y102971600D03*
X439432700Y102971600D03*
X436892700Y102971600D03*
X434352700Y102971600D03*
%TD*%
%TO.N,N/C*%
%TO.C,H475*%
X431812700Y108051600D03*
X429272700Y108051600D03*
X426732700Y108051600D03*
X424192700Y108051600D03*
X424192700Y105511600D03*
X426732700Y105511600D03*
X429272700Y105511600D03*
X431812700Y105511600D03*
X431812700Y102971600D03*
X429272700Y102971600D03*
X426732700Y102971600D03*
X424192700Y102971600D03*
%TD*%
%TO.N,N/C*%
%TO.C,H3456*%
X421652700Y108051600D03*
X419112700Y108051600D03*
X416572700Y108051600D03*
X414032700Y108051600D03*
X414032700Y105511600D03*
X416572700Y105511600D03*
X419112700Y105511600D03*
X421652700Y105511600D03*
X421652700Y102971600D03*
X419112700Y102971600D03*
X416572700Y102971600D03*
X414032700Y102971600D03*
%TD*%
%TO.N,N/C*%
%TO.C,H3467*%
X411492700Y108051600D03*
X408952700Y108051600D03*
X406412700Y108051600D03*
X403872700Y108051600D03*
X403872700Y105511600D03*
X406412700Y105511600D03*
X408952700Y105511600D03*
X411492700Y105511600D03*
X411492700Y102971600D03*
X408952700Y102971600D03*
X406412700Y102971600D03*
X403872700Y102971600D03*
%TD*%
%TO.N,N/C*%
%TO.C,H456*%
X401332700Y108051600D03*
X398792700Y108051600D03*
X396252700Y108051600D03*
X393712700Y108051600D03*
X393712700Y105511600D03*
X396252700Y105511600D03*
X398792700Y105511600D03*
X401332700Y105511600D03*
X401332700Y102971600D03*
X398792700Y102971600D03*
X396252700Y102971600D03*
X393712700Y102971600D03*
%TD*%
%TO.N,N/C*%
%TO.C,H869*%
X391172700Y108051600D03*
X388632700Y108051600D03*
X386092700Y108051600D03*
X383552700Y108051600D03*
X383552700Y105511600D03*
X386092700Y105511600D03*
X388632700Y105511600D03*
X391172700Y105511600D03*
X391172700Y102971600D03*
X388632700Y102971600D03*
X386092700Y102971600D03*
X383552700Y102971600D03*
%TD*%
%TO.N,317*%
%TO.C,C138*%
X412762700Y214731600D03*
D13*
%TO.N,303*%
X392442700Y214731600D03*
%TD*%
D12*
%TO.N,319*%
%TO.C,C56*%
X387362700Y270611600D03*
D13*
%TO.N,513*%
X387362700Y250291600D03*
%TD*%
D12*
%TO.N,319*%
%TO.C,Q5*%
X349897700Y251561600D03*
%TO.N,316*%
X349897700Y254101600D03*
D13*
%TO.N,303*%
X349897700Y256641600D03*
%TD*%
D12*
%TO.N,14*%
%TO.C,C1*%
X49542700Y288391600D03*
D13*
%TO.N,71*%
X67322700Y288391600D03*
%TD*%
D12*
%TO.N,632*%
%TO.C,P5*%
X440702700Y250291600D03*
%TO.N,772*%
X438162700Y250291600D03*
%TO.N,614*%
X435622700Y250291600D03*
%TO.N,612*%
X433082700Y250291600D03*
%TO.N,613*%
X430542700Y250291600D03*
%TO.N,771*%
X428002700Y250291600D03*
%TO.N,626*%
X425462700Y250291600D03*
%TO.N,625*%
X422922700Y250291600D03*
D13*
%TO.N,14*%
X420382700Y250291600D03*
%TD*%
D12*
%TO.N,318*%
%TO.C,C78*%
X358787700Y256006600D03*
D13*
%TO.N,770*%
X358787700Y238226600D03*
%TD*%
D16*
%TO.N,14*%
%TO.C,J10*%
X17995900Y284810200D03*
X17995900Y274802600D03*
%TO.N,61*%
X30492700Y284810200D03*
%TO.N,60*%
X30492700Y274802600D03*
%TO.N,59*%
X28003500Y287299400D03*
%TO.N,14*%
X28003500Y279806400D03*
%TO.N,58*%
X28003500Y272313400D03*
%TD*%
D12*
%TO.N,226*%
%TO.C,D6*%
X353707700Y277596600D03*
D13*
%TO.N,852*%
X353707700Y267436600D03*
%TD*%
D12*
%TO.N,319*%
%TO.C,C88*%
X381012700Y249656600D03*
D13*
%TO.N,315*%
X381012700Y231876600D03*
%TD*%
D12*
%TO.N,319*%
%TO.C,C91*%
X394982700Y249656600D03*
D13*
%TO.N,308*%
X394982700Y231876600D03*
%TD*%
D12*
%TO.N,443*%
%TO.C,C84*%
X410857700Y270611600D03*
D13*
%TO.N,309*%
X410857700Y250291600D03*
%TD*%
D12*
%TO.N,441*%
%TO.C,C83*%
X403872700Y270611600D03*
D13*
%TO.N,301*%
X403872700Y250291600D03*
%TD*%
D15*
%TO.N,319*%
%TO.C,C57*%
X395617700Y276326600D03*
D17*
%TO.N,445*%
X395617700Y252196600D03*
%TD*%
D12*
%TO.N,353*%
%TO.C,C54*%
X344182700Y259816600D03*
D13*
%TO.N,263*%
X359422700Y259816600D03*
%TD*%
D12*
%TO.N,319*%
%TO.C,C127*%
X412127700Y221081600D03*
D13*
%TO.N,262*%
X412127700Y236321600D03*
%TD*%
D12*
%TO.N,319*%
%TO.C,C92*%
X421652700Y245211600D03*
D13*
%TO.N,260*%
X436892700Y245211600D03*
%TD*%
D12*
%TO.N,260*%
%TO.C,R135*%
X448322700Y245211600D03*
D13*
%TO.N,261*%
X448322700Y235051600D03*
%TD*%
D12*
%TO.N,297*%
%TO.C,L12*%
X163842700Y282041600D03*
%TO.N,14*%
X163842700Y279501600D03*
D13*
%TO.N,287*%
X163842700Y276961600D03*
%TD*%
D12*
%TO.N,78*%
%TO.C,L19*%
X190512700Y282041600D03*
%TO.N,14*%
X190512700Y279501600D03*
D13*
%TO.N,643*%
X190512700Y276961600D03*
%TD*%
D15*
%TO.N,852*%
%TO.C,L63*%
X158762700Y214096600D03*
D17*
X146062700Y214096600D03*
%TD*%
D15*
%TO.N,311*%
%TO.C,L38*%
X412762700Y285851600D03*
D17*
%TO.N,443*%
X412762700Y273151600D03*
%TD*%
D15*
%TO.N,310*%
%TO.C,L36*%
X405142700Y285851600D03*
D17*
%TO.N,441*%
X405142700Y273151600D03*
%TD*%
D15*
%TO.N,312*%
%TO.C,L37*%
X408952700Y285851600D03*
D17*
%TO.N,319*%
X408952700Y273151600D03*
%TD*%
D15*
%TO.N,300*%
%TO.C,L35*%
X386092700Y285851600D03*
D17*
%TO.N,510*%
X386092700Y273151600D03*
%TD*%
D15*
%TO.N,314*%
%TO.C,L34*%
X381012700Y285851600D03*
D17*
%TO.N,319*%
X381012700Y273151600D03*
%TD*%
D15*
%TO.N,506*%
%TO.C,L33*%
X375932700Y273151600D03*
D17*
%TO.N,313*%
X375932700Y285851600D03*
%TD*%
D15*
%TO.N,258*%
%TO.C,L47*%
X420382700Y266801600D03*
D17*
%TO.N,259*%
X420382700Y254101600D03*
%TD*%
D15*
%TO.N,256*%
%TO.C,L48*%
X424192700Y266801600D03*
D17*
%TO.N,257*%
X424192700Y254101600D03*
%TD*%
D15*
%TO.N,254*%
%TO.C,L58*%
X416572700Y251561600D03*
D17*
%TO.N,255*%
X416572700Y238861600D03*
%TD*%
D15*
%TO.N,252*%
%TO.C,L53*%
X443242700Y266801600D03*
D17*
%TO.N,253*%
X443242700Y254101600D03*
%TD*%
D15*
%TO.N,250*%
%TO.C,L51*%
X435622700Y266801600D03*
D17*
%TO.N,251*%
X435622700Y254101600D03*
%TD*%
D16*
%TO.N,14*%
%TO.C,J11*%
X17995900Y260807200D03*
X17995900Y250799600D03*
%TO.N,66*%
X30492700Y260807200D03*
%TO.N,67*%
X30492700Y250799600D03*
%TO.N,N/C*%
X28003500Y263296400D03*
X28003500Y255803400D03*
X28003500Y248310400D03*
%TD*%
D15*
%TO.N,248*%
%TO.C,L54*%
X447052700Y266801600D03*
D17*
%TO.N,249*%
X447052700Y254101600D03*
%TD*%
D15*
%TO.N,246*%
%TO.C,L46*%
X416572700Y266801600D03*
D17*
%TO.N,247*%
X416572700Y254101600D03*
%TD*%
D15*
%TO.N,244*%
%TO.C,L40*%
X420382700Y282041600D03*
D17*
%TO.N,245*%
X420382700Y269341600D03*
%TD*%
D15*
%TO.N,242*%
%TO.C,L41*%
X424192700Y282041600D03*
D17*
%TO.N,243*%
X424192700Y269341600D03*
%TD*%
D15*
%TO.N,852*%
%TO.C,L72*%
X430542700Y196951600D03*
D17*
%TO.N,261*%
X430542700Y209651600D03*
%TD*%
D15*
%TO.N,35*%
%TO.C,L78*%
X200037700Y158216600D03*
D17*
%TO.N,32*%
X187337700Y158216600D03*
%TD*%
D15*
%TO.N,852*%
%TO.C,L64*%
X273697700Y219811600D03*
D17*
X260997700Y219811600D03*
%TD*%
D15*
%TO.N,852*%
%TO.C,L80*%
X204482700Y151231600D03*
D17*
X217182700Y151231600D03*
%TD*%
D15*
%TO.N,852*%
%TO.C,L75*%
X93357700Y190601600D03*
D17*
X106057700Y190601600D03*
%TD*%
D15*
%TO.N,852*%
%TO.C,L76*%
X337832700Y198221600D03*
D17*
X337832700Y185521600D03*
%TD*%
D12*
%TO.N,852*%
%TO.C,U64*%
X187337700Y87731600D03*
%TO.N,N/C*%
X189877700Y87731600D03*
X192417700Y87731600D03*
X194957700Y87731600D03*
X197497700Y87731600D03*
X200037700Y87731600D03*
%TO.N,72*%
X202577700Y87731600D03*
%TO.N,620*%
X205117700Y87731600D03*
%TO.N,N/C*%
X207657700Y87731600D03*
%TO.N,621*%
X210197700Y87731600D03*
%TO.N,618*%
X212737700Y87731600D03*
%TO.N,619*%
X215277700Y87731600D03*
%TO.N,14*%
X215277700Y72491600D03*
%TO.N,396*%
X212737700Y72491600D03*
%TO.N,395*%
X210197700Y72491600D03*
%TO.N,394*%
X207657700Y72491600D03*
%TO.N,393*%
X205117700Y72491600D03*
%TO.N,392*%
X202577700Y72491600D03*
%TO.N,391*%
X200037700Y72491600D03*
%TO.N,390*%
X197497700Y72491600D03*
%TO.N,389*%
X194957700Y72491600D03*
%TO.N,N/C*%
X192417700Y72491600D03*
X189877700Y72491600D03*
D13*
%TO.N,852*%
X187337700Y72491600D03*
%TD*%
D15*
%TO.N,852*%
%TO.C,L117*%
X60337700Y61696600D03*
D17*
X73037700Y61696600D03*
%TD*%
D15*
%TO.N,852*%
%TO.C,L56*%
X158762700Y243941600D03*
D17*
X158762700Y256641600D03*
%TD*%
D15*
%TO.N,852*%
%TO.C,L77*%
X246392700Y175361600D03*
D17*
X259092700Y175361600D03*
%TD*%
D15*
%TO.N,852*%
%TO.C,L98*%
X119392700Y106781600D03*
D17*
X132092700Y106781600D03*
%TD*%
D15*
%TO.N,14*%
%TO.C,L5*%
X59702700Y279501600D03*
D17*
X59702700Y266801600D03*
%TD*%
D15*
%TO.N,33*%
%TO.C,L73*%
X45732700Y195681600D03*
D17*
%TO.N,819*%
X58432700Y195681600D03*
%TD*%
D15*
%TO.N,29*%
%TO.C,L71*%
X45732700Y199491600D03*
D17*
%TO.N,836*%
X58432700Y199491600D03*
%TD*%
D15*
%TO.N,34*%
%TO.C,L68*%
X45732700Y203301600D03*
D17*
%TO.N,833*%
X58432700Y203301600D03*
%TD*%
D15*
%TO.N,30*%
%TO.C,L67*%
X45732700Y207111600D03*
D17*
%TO.N,832*%
X58432700Y207111600D03*
%TD*%
D15*
%TO.N,28*%
%TO.C,L104*%
X237502700Y87731600D03*
D17*
%TO.N,852*%
X237502700Y100431600D03*
%TD*%
D12*
%TO.N,14*%
%TO.C,C141*%
X424192700Y215366600D03*
D13*
%TO.N,261*%
X441972700Y215366600D03*
%TD*%
D12*
%TO.N,357*%
%TO.C,H678*%
X452132700Y207746600D03*
X452132700Y220446600D03*
X452132700Y233146600D03*
X452132700Y245846600D03*
%TO.N,784*%
X452132700Y258546600D03*
X452132700Y271246600D03*
%TD*%
%TO.N,357*%
%TO.C,H684*%
X452259700Y146532600D03*
X452259700Y159232600D03*
X452259700Y171932600D03*
X452259700Y184632600D03*
X452259700Y197332600D03*
X452259700Y210032600D03*
%TD*%
%TO.N,14*%
%TO.C,H57*%
X375932700Y124561600D03*
X388632700Y124561600D03*
X401332700Y124561600D03*
X414032700Y124561600D03*
X426732700Y124561600D03*
X439432700Y124561600D03*
%TD*%
%TO.N,14*%
%TO.C,H573*%
X372122700Y55346600D03*
X372122700Y68046600D03*
X372122700Y80746600D03*
X372122700Y93446600D03*
X372122700Y106146600D03*
X372122700Y118846600D03*
%TD*%
%TO.N,14*%
%TO.C,H64*%
X346722700Y47726600D03*
X334022700Y47726600D03*
X321322700Y47726600D03*
X308622700Y47726600D03*
X295922700Y47726600D03*
X283222700Y47726600D03*
%TD*%
%TO.N,14*%
%TO.C,H8645*%
X262902700Y47726600D03*
X250202700Y47726600D03*
X237502700Y47726600D03*
X224802700Y47726600D03*
X212102700Y47726600D03*
X199402700Y47726600D03*
%TD*%
%TO.N,14*%
%TO.C,H537*%
X17792700Y119481600D03*
X17792700Y106781600D03*
%TO.N,841*%
X17792700Y94081600D03*
X17792700Y81381600D03*
X17792700Y68681600D03*
%TO.N,N/C*%
X17792700Y55981600D03*
%TD*%
%TO.N,14*%
%TO.C,H436*%
X193687700Y47726600D03*
X180987700Y47726600D03*
X168287700Y47726600D03*
X155587700Y47726600D03*
X142887700Y47726600D03*
X130187700Y47726600D03*
%TD*%
%TO.N,14*%
%TO.C,H345*%
X93357700Y48361600D03*
X80657700Y48361600D03*
X67957700Y48361600D03*
X55257700Y48361600D03*
X42557700Y48361600D03*
X29857700Y48361600D03*
%TD*%
%TO.N,14*%
%TO.C,H3245*%
X19697700Y181076600D03*
X19697700Y168376600D03*
X19697700Y155676600D03*
X19697700Y142976600D03*
X19697700Y130276600D03*
X19697700Y117576600D03*
%TD*%
%TO.N,14*%
%TO.C,H643*%
X26682700Y218668600D03*
X26682700Y205968600D03*
X26682700Y193268600D03*
%TD*%
D18*
%TO.N,57*%
%TO.C,H453*%
X42430700Y264007600D03*
X46240700Y265277600D03*
X47510700Y267817600D03*
X46240700Y270357600D03*
X42430700Y271627600D03*
X38620700Y270357600D03*
X37350700Y267817600D03*
X38620700Y265277600D03*
%TD*%
D19*
%TO.N,N/C*%
%TO.C,H630*%
X27952700Y309981600D03*
%TD*%
%TO.N,N/C*%
%TO.C,H649*%
X441972700Y58521600D03*
%TD*%
%TO.N,N/C*%
%TO.C,H648*%
X27952700Y58521600D03*
%TD*%
%TO.N,N/C*%
%TO.C,H647*%
X441972700Y309981600D03*
%TD*%
D20*
%TO.N,N/C*%
%TO.C,H56*%
X243446300Y273075400D03*
%TD*%
D14*
%TO.N,357*%
%TO.C,H49*%
X454723500Y253822200D03*
%TD*%
%TO.N,357*%
%TO.C,H48*%
X454723500Y177800000D03*
%TD*%
%TO.N,14*%
%TO.C,H47*%
X270725900Y46329600D03*
%TD*%
%TO.N,14*%
%TO.C,H46*%
X119722900Y46329600D03*
%TD*%
%TO.N,14*%
%TO.C,H45*%
X16268700Y161315400D03*
%TD*%
D15*
%TO.N,235*%
%TO.C,L52*%
X439432700Y266801600D03*
D17*
%TO.N,237*%
X439432700Y254101600D03*
%TD*%
D15*
%TO.N,120*%
%TO.C,L30*%
X302272700Y283311600D03*
D17*
%TO.N,444*%
X302272700Y270611600D03*
%TD*%
D15*
%TO.N,119*%
%TO.C,L32*%
X308622700Y283311600D03*
D17*
%TO.N,387*%
X308622700Y270611600D03*
%TD*%
D15*
%TO.N,116*%
%TO.C,L27*%
X266712700Y283311600D03*
D17*
%TO.N,353*%
X266712700Y270611600D03*
%TD*%
D15*
%TO.N,83*%
%TO.C,L29*%
X295922700Y283311600D03*
D17*
%TO.N,790*%
X295922700Y270611600D03*
%TD*%
D15*
%TO.N,234*%
%TO.C,L42*%
X443242700Y282041600D03*
D17*
%TO.N,236*%
X443242700Y269341600D03*
%TD*%
D15*
%TO.N,233*%
%TO.C,L50*%
X431812700Y266801600D03*
D17*
%TO.N,238*%
X431812700Y254101600D03*
%TD*%
D15*
%TO.N,232*%
%TO.C,L49*%
X428002700Y266801600D03*
D17*
%TO.N,239*%
X428002700Y254101600D03*
%TD*%
D15*
%TO.N,231*%
%TO.C,L43*%
X447052700Y282041600D03*
D17*
%TO.N,240*%
X447052700Y269341600D03*
%TD*%
D15*
%TO.N,230*%
%TO.C,L39*%
X416572700Y282041600D03*
D17*
%TO.N,241*%
X416572700Y269341600D03*
%TD*%
D12*
%TO.N,427*%
%TO.C,U20*%
X313702700Y247751600D03*
%TO.N,428*%
X316242700Y247751600D03*
%TO.N,14*%
X318782700Y247751600D03*
%TO.N,223*%
X321322700Y247751600D03*
%TO.N,225*%
X323862700Y247751600D03*
%TO.N,224*%
X326402700Y247751600D03*
%TO.N,211*%
X328942700Y247751600D03*
%TO.N,212*%
X331482700Y247751600D03*
%TO.N,208*%
X334022700Y247751600D03*
%TO.N,222*%
X336562700Y247751600D03*
%TO.N,425*%
X339102700Y247751600D03*
%TO.N,210*%
X341642700Y247751600D03*
%TO.N,209*%
X344182700Y247751600D03*
%TO.N,852*%
X346722700Y247751600D03*
%TO.N,14*%
X346722700Y232511600D03*
%TO.N,830*%
X344182700Y232511600D03*
%TO.N,376*%
X341642700Y232511600D03*
%TO.N,375*%
X339102700Y232511600D03*
%TO.N,374*%
X336562700Y232511600D03*
%TO.N,373*%
X334022700Y232511600D03*
%TO.N,372*%
X331482700Y232511600D03*
%TO.N,371*%
X328942700Y232511600D03*
%TO.N,370*%
X326402700Y232511600D03*
%TO.N,369*%
X323862700Y232511600D03*
%TO.N,365*%
X321322700Y232511600D03*
%TO.N,364*%
X318782700Y232511600D03*
%TO.N,386*%
X316242700Y232511600D03*
D13*
%TO.N,426*%
X313702700Y232511600D03*
%TD*%
D12*
%TO.N,32*%
%TO.C,R178*%
X187972700Y163931600D03*
D13*
%TO.N,320*%
X187972700Y174091600D03*
%TD*%
D12*
%TO.N,14*%
%TO.C,J22*%
X295922700Y110591600D03*
D13*
%TO.N,35*%
X293382700Y110591600D03*
%TD*%
D14*
%TO.N,N/C*%
%TO.C,H934*%
X361226100Y69824600D03*
%TD*%
%TO.N,N/C*%
%TO.C,H53*%
X361226100Y105791000D03*
%TD*%
%TO.N,N/C*%
%TO.C,H463*%
X302247300Y105791000D03*
%TD*%
D12*
%TO.N,14*%
%TO.C,J13*%
X37757100Y192684400D03*
X41744900Y192684400D03*
X37757100Y194691000D03*
%TO.N,33*%
X41744900Y194691000D03*
%TO.N,325*%
X37757100Y196697600D03*
%TO.N,29*%
X41744900Y196697600D03*
%TO.N,326*%
X37757100Y198704200D03*
%TO.N,34*%
X41744900Y198704200D03*
%TO.N,327*%
X37757100Y200710800D03*
%TO.N,30*%
X41744900Y200710800D03*
%TO.N,328*%
X37757100Y202717400D03*
%TO.N,335*%
X41744900Y202717400D03*
%TO.N,336*%
X37757100Y204724000D03*
%TO.N,329*%
X41744900Y204724000D03*
%TO.N,334*%
X37757100Y206730600D03*
%TO.N,330*%
X41744900Y206730600D03*
%TO.N,333*%
X37757100Y208737200D03*
%TO.N,331*%
X41744900Y208737200D03*
%TO.N,338*%
X37757100Y210743800D03*
%TO.N,332*%
X41744900Y210743800D03*
%TO.N,339*%
X37757100Y212750400D03*
%TO.N,337*%
X41744900Y212750400D03*
%TO.N,390*%
X37757100Y214757000D03*
%TO.N,389*%
X41744900Y214757000D03*
%TO.N,392*%
X37757100Y216763600D03*
%TO.N,391*%
X41744900Y216763600D03*
%TO.N,394*%
X37757100Y218770200D03*
%TO.N,393*%
X41744900Y218770200D03*
%TO.N,396*%
X37757100Y220776800D03*
%TO.N,395*%
X41744900Y220776800D03*
%TO.N,398*%
X37757100Y222783400D03*
%TO.N,397*%
X41744900Y222783400D03*
%TO.N,400*%
X37757100Y224790000D03*
%TO.N,399*%
X41744900Y224790000D03*
%TO.N,402*%
X37757100Y226796600D03*
%TO.N,401*%
X41744900Y226796600D03*
%TO.N,404*%
X37757100Y228803200D03*
%TO.N,403*%
X41744900Y228803200D03*
%TO.N,31*%
X37757100Y230809800D03*
D13*
X41744900Y230809800D03*
%TD*%
D14*
%TO.N,N/C*%
%TO.C,H43*%
X302247300Y69824600D03*
%TD*%
D21*
%TO.N,N/C*%
%TO.C,H864*%
X243751100Y296519600D03*
%TD*%
D12*
%TO.N,31*%
%TO.C,F2*%
X40652700Y240131600D03*
D13*
%TO.N,15*%
X53352700Y240131600D03*
%TD*%
D12*
%TO.N,852*%
%TO.C,U12*%
X85102700Y262991600D03*
%TO.N,589*%
X85102700Y255371600D03*
X85102700Y247751600D03*
%TO.N,14*%
X77482700Y247751600D03*
X77482700Y255371600D03*
D13*
%TO.N,N/C*%
X77482700Y262991600D03*
%TD*%
D12*
%TO.N,852*%
%TO.C,U19*%
X288302700Y247751600D03*
%TO.N,622*%
X290842700Y247751600D03*
%TO.N,221*%
X293382700Y247751600D03*
%TO.N,N/C*%
X295922700Y247751600D03*
%TO.N,14*%
X298462700Y247751600D03*
%TO.N,N/C*%
X301002700Y247751600D03*
X303542700Y247751600D03*
%TO.N,852*%
X306082700Y247751600D03*
%TO.N,14*%
X306082700Y240131600D03*
%TO.N,388*%
X303542700Y240131600D03*
%TO.N,216*%
X301002700Y240131600D03*
%TO.N,N/C*%
X298462700Y240131600D03*
%TO.N,213*%
X295922700Y240131600D03*
%TO.N,N/C*%
X293382700Y240131600D03*
X290842700Y240131600D03*
D13*
%TO.N,214*%
X288302700Y240131600D03*
%TD*%
D12*
%TO.N,307*%
%TO.C,U9*%
X381012700Y262356600D03*
%TO.N,306*%
X378472700Y262356600D03*
%TO.N,853*%
X375932700Y262356600D03*
%TO.N,511*%
X373392700Y262356600D03*
%TO.N,507*%
X373392700Y269976600D03*
%TO.N,319*%
X375932700Y269976600D03*
%TO.N,299*%
X378472700Y269976600D03*
D13*
%TO.N,305*%
X381012700Y269976600D03*
%TD*%
D12*
%TO.N,418*%
%TO.C,W10*%
X239407700Y228066600D03*
%TO.N,91*%
X236867700Y228066600D03*
D13*
%TO.N,444*%
X234327700Y228066600D03*
%TD*%
D12*
%TO.N,320*%
%TO.C,J15*%
X299224700Y168884600D03*
%TO.N,14*%
X296684700Y168884600D03*
X294144700Y168884600D03*
D13*
%TO.N,852*%
X291604700Y168884600D03*
%TD*%
D22*
%TO.N,N/C*%
%TO.C,H71*%
X274231100Y272313400D03*
%TD*%
%TO.N,N/C*%
%TO.C,H70*%
X190233300Y272313400D03*
%TD*%
D20*
%TO.N,N/C*%
%TO.C,H74*%
X274231100Y186817000D03*
%TD*%
D14*
%TO.N,N/C*%
%TO.C,H75*%
X274231100Y265836400D03*
%TD*%
%TO.N,N/C*%
%TO.C,H72*%
X190233300Y265836400D03*
%TD*%
D20*
%TO.N,N/C*%
%TO.C,H73*%
X187236100Y186817000D03*
%TD*%
D14*
%TO.N,14*%
%TO.C,J2*%
X140855700Y289331400D03*
X165874700Y289331400D03*
D23*
%TO.N,286*%
X149237700Y290753800D03*
%TO.N,291*%
X152006300Y290753800D03*
%TO.N,293*%
X154774900Y290753800D03*
%TO.N,297*%
X157543500Y290753800D03*
%TO.N,14*%
X147840700Y287909000D03*
%TO.N,284*%
X150609300Y287909000D03*
%TO.N,295*%
X153377900Y287909000D03*
%TO.N,294*%
X156146500Y287909000D03*
%TO.N,290*%
X158915100Y287909000D03*
%TD*%
D14*
%TO.N,845*%
%TO.C,J5*%
X308648100Y289687000D03*
X269913100Y289839400D03*
D23*
%TO.N,115*%
X278218900Y291287200D03*
%TO.N,114*%
X280987500Y291287200D03*
%TO.N,121*%
X283730700Y291287200D03*
%TO.N,113*%
X286499300Y291287200D03*
%TO.N,112*%
X289267900Y291287200D03*
%TO.N,83*%
X292011100Y291287200D03*
%TO.N,120*%
X294779700Y291287200D03*
%TO.N,119*%
X297522900Y291287200D03*
%TO.N,14*%
X300291500Y291287200D03*
X276847300Y288417000D03*
%TO.N,116*%
X279590500Y288417000D03*
%TO.N,14*%
X282359100Y288417000D03*
X285127700Y288417000D03*
X287870900Y288417000D03*
X290639500Y288417000D03*
%TO.N,117*%
X293408100Y288417000D03*
%TO.N,360*%
X296151300Y288417000D03*
%TO.N,432*%
X298919900Y288417000D03*
%TO.N,607*%
X301663100Y288417000D03*
%TD*%
D12*
%TO.N,20*%
%TO.C,D12*%
X266077700Y94081600D03*
D13*
%TO.N,14*%
X266077700Y83921600D03*
%TD*%
D12*
%TO.N,20*%
%TO.C,D13*%
X268617700Y94081600D03*
D13*
%TO.N,14*%
X268617700Y83921600D03*
%TD*%
D15*
%TO.N,N/C*%
%TO.C,L61*%
X273926300Y228422200D03*
X266534900Y228422200D03*
D12*
%TO.N,103*%
X267982700Y230657400D03*
%TO.N,14*%
X272478500Y230657400D03*
%TO.N,100*%
X267982700Y226161600D03*
%TO.N,N/C*%
X270243300Y226161600D03*
D13*
%TO.N,14*%
X272478500Y226161600D03*
%TD*%
D12*
%TO.N,852*%
%TO.C,U3*%
X92722700Y284581600D03*
%TO.N,276*%
X95262700Y284581600D03*
%TO.N,N/C*%
X97802700Y284581600D03*
X100342700Y284581600D03*
%TO.N,274*%
X102882700Y284581600D03*
%TO.N,N/C*%
X105422700Y284581600D03*
%TO.N,14*%
X107962700Y284581600D03*
%TO.N,274*%
X107962700Y276961600D03*
%TO.N,431*%
X105422700Y276961600D03*
%TO.N,14*%
X102882700Y276961600D03*
X100342700Y276961600D03*
%TO.N,277*%
X97802700Y276961600D03*
%TO.N,14*%
X95262700Y276961600D03*
D13*
%TO.N,278*%
X92722700Y276961600D03*
%TD*%
D12*
%TO.N,852*%
%TO.C,U27*%
X119392700Y232511600D03*
%TO.N,283*%
X121932700Y232511600D03*
%TO.N,N/C*%
X124472700Y232511600D03*
X127012700Y232511600D03*
%TO.N,283*%
X129552700Y232511600D03*
%TO.N,N/C*%
X132092700Y232511600D03*
%TO.N,280*%
X134632700Y232511600D03*
%TO.N,N/C*%
X134632700Y224891600D03*
X132092700Y224891600D03*
%TO.N,14*%
X129552700Y224891600D03*
%TO.N,785*%
X127012700Y224891600D03*
%TO.N,282*%
X124472700Y224891600D03*
%TO.N,14*%
X121932700Y224891600D03*
D13*
%TO.N,281*%
X119392700Y224891600D03*
%TD*%
D12*
%TO.N,115*%
%TO.C,L26*%
X271792700Y283311600D03*
%TO.N,14*%
X271792700Y280771600D03*
D13*
%TO.N,782*%
X271792700Y278231600D03*
%TD*%
D12*
%TO.N,114*%
%TO.C,L28*%
X274332700Y283311600D03*
%TO.N,14*%
X274332700Y280771600D03*
D13*
%TO.N,783*%
X274332700Y278231600D03*
%TD*%
D12*
%TO.N,113*%
%TO.C,L31*%
X314972700Y282041600D03*
%TO.N,14*%
X314972700Y279501600D03*
D13*
%TO.N,419*%
X314972700Y276961600D03*
%TD*%
D12*
%TO.N,191*%
%TO.C,L116*%
X40652700Y69951600D03*
%TO.N,14*%
X38112700Y69951600D03*
D13*
%TO.N,146*%
X35572700Y69951600D03*
%TD*%
D12*
%TO.N,190*%
%TO.C,L108*%
X40652700Y80111600D03*
%TO.N,14*%
X38112700Y80111600D03*
D13*
%TO.N,145*%
X35572700Y80111600D03*
%TD*%
D12*
%TO.N,156*%
%TO.C,L107*%
X40652700Y82651600D03*
%TO.N,14*%
X38112700Y82651600D03*
D13*
%TO.N,144*%
X35572700Y82651600D03*
%TD*%
D12*
%TO.N,157*%
%TO.C,L101*%
X40652700Y90271600D03*
%TO.N,14*%
X38112700Y90271600D03*
D13*
%TO.N,143*%
X35572700Y90271600D03*
%TD*%
D12*
%TO.N,852*%
%TO.C,L113*%
X40652700Y77571600D03*
%TO.N,14*%
X38112700Y77571600D03*
D13*
%TO.N,137*%
X35572700Y77571600D03*
%TD*%
D24*
%TO.N,N/C*%
%TO.C,J8*%
X409790900Y289331400D03*
X404710900Y289331400D03*
D15*
X407250900Y289331400D03*
X402170900Y294309800D03*
X402170900Y296799000D03*
X412330900Y296799000D03*
X412330900Y294309800D03*
D24*
%TO.N,311*%
X412330900Y289331400D03*
%TO.N,310*%
X402170900Y289331400D03*
D25*
%TO.N,312*%
X407250900Y294309800D03*
%TD*%
D12*
%TO.N,154*%
%TO.C,L114*%
X40652700Y75031600D03*
%TO.N,14*%
X38112700Y75031600D03*
D13*
%TO.N,142*%
X35572700Y75031600D03*
%TD*%
D12*
%TO.N,153*%
%TO.C,L115*%
X40652700Y72491600D03*
%TO.N,14*%
X38112700Y72491600D03*
D13*
%TO.N,141*%
X35572700Y72491600D03*
%TD*%
D12*
%TO.N,152*%
%TO.C,L106*%
X40652700Y85191600D03*
%TO.N,14*%
X38112700Y85191600D03*
D13*
%TO.N,140*%
X35572700Y85191600D03*
%TD*%
D12*
%TO.N,155*%
%TO.C,L103*%
X40652700Y87731600D03*
%TO.N,14*%
X38112700Y87731600D03*
D13*
%TO.N,139*%
X35572700Y87731600D03*
%TD*%
D12*
%TO.N,164*%
%TO.C,L100*%
X40652700Y92811600D03*
%TO.N,14*%
X38112700Y92811600D03*
D13*
%TO.N,138*%
X35572700Y92811600D03*
%TD*%
D12*
%TO.N,163*%
%TO.C,L95*%
X40652700Y109321600D03*
%TO.N,14*%
X38112700Y109321600D03*
D13*
%TO.N,132*%
X35572700Y109321600D03*
%TD*%
D12*
%TO.N,148*%
%TO.C,L92*%
X40652700Y114401600D03*
%TO.N,14*%
X38112700Y114401600D03*
D13*
%TO.N,131*%
X35572700Y114401600D03*
%TD*%
D12*
%TO.N,149*%
%TO.C,L90*%
X40652700Y119481600D03*
%TO.N,14*%
X38112700Y119481600D03*
D13*
%TO.N,130*%
X35572700Y119481600D03*
%TD*%
D12*
%TO.N,150*%
%TO.C,L89*%
X40652700Y122021600D03*
%TO.N,14*%
X38112700Y122021600D03*
D13*
%TO.N,129*%
X35572700Y122021600D03*
%TD*%
D12*
%TO.N,151*%
%TO.C,L87*%
X40652700Y127101600D03*
%TO.N,14*%
X38112700Y127101600D03*
D13*
%TO.N,128*%
X35572700Y127101600D03*
%TD*%
D24*
%TO.N,N/C*%
%TO.C,J7*%
X383781300Y289331400D03*
X378701300Y289331400D03*
D15*
X381241300Y289331400D03*
X376161300Y294309800D03*
X376161300Y296799000D03*
X386321300Y296799000D03*
X386321300Y294309800D03*
D24*
%TO.N,300*%
X386321300Y289331400D03*
%TO.N,313*%
X376161300Y289331400D03*
D25*
%TO.N,314*%
X381241300Y294309800D03*
%TD*%
D12*
%TO.N,852*%
%TO.C,L91*%
X40652700Y116941600D03*
%TO.N,14*%
X38112700Y116941600D03*
D13*
%TO.N,127*%
X35572700Y116941600D03*
%TD*%
D12*
%TO.N,162*%
%TO.C,L88*%
X40652700Y124561600D03*
%TO.N,14*%
X38112700Y124561600D03*
D13*
%TO.N,126*%
X35572700Y124561600D03*
%TD*%
D12*
%TO.N,133*%
%TO.C,L96*%
X50812700Y109321600D03*
%TO.N,14*%
X48272700Y109321600D03*
D13*
%TO.N,125*%
X45732700Y109321600D03*
%TD*%
D12*
%TO.N,134*%
%TO.C,L93*%
X40652700Y111861600D03*
%TO.N,14*%
X38112700Y111861600D03*
D13*
%TO.N,124*%
X35572700Y111861600D03*
%TD*%
D12*
%TO.N,135*%
%TO.C,L86*%
X40652700Y129641600D03*
%TO.N,14*%
X38112700Y129641600D03*
D13*
%TO.N,123*%
X35572700Y129641600D03*
%TD*%
D12*
%TO.N,136*%
%TO.C,L94*%
X47637700Y120116600D03*
%TO.N,14*%
X47637700Y117576600D03*
D13*
%TO.N,122*%
X47637700Y115036600D03*
%TD*%
D12*
%TO.N,67*%
%TO.C,L55*%
X36842700Y252196600D03*
%TO.N,14*%
X36842700Y249656600D03*
D13*
%TO.N,68*%
X36842700Y247116600D03*
%TD*%
D12*
%TO.N,66*%
%TO.C,L44*%
X36842700Y260451600D03*
%TO.N,14*%
X36842700Y257911600D03*
D13*
%TO.N,70*%
X36842700Y255371600D03*
%TD*%
D12*
%TO.N,58*%
%TO.C,L4*%
X54622700Y279501600D03*
%TO.N,14*%
X54622700Y276961600D03*
D13*
%TO.N,62*%
X54622700Y274421600D03*
%TD*%
D12*
%TO.N,59*%
%TO.C,L3*%
X50812700Y279501600D03*
%TO.N,14*%
X50812700Y276961600D03*
D13*
%TO.N,63*%
X50812700Y274421600D03*
%TD*%
D12*
%TO.N,105*%
%TO.C,C36*%
X247027700Y253466600D03*
D13*
%TO.N,104*%
X226707700Y253466600D03*
%TD*%
D12*
%TO.N,60*%
%TO.C,L2*%
X36842700Y276961600D03*
%TO.N,14*%
X36842700Y279501600D03*
D13*
%TO.N,64*%
X36842700Y282041600D03*
%TD*%
D12*
%TO.N,61*%
%TO.C,L1*%
X36842700Y290931600D03*
%TO.N,14*%
X36842700Y288391600D03*
D13*
%TO.N,65*%
X36842700Y285851600D03*
%TD*%
D12*
%TO.N,53*%
%TO.C,L83*%
X434352700Y149326600D03*
%TO.N,14*%
X434352700Y146786600D03*
D13*
%TO.N,852*%
X434352700Y144246600D03*
%TD*%
D12*
%TO.N,52*%
%TO.C,L81*%
X434352700Y151866600D03*
%TO.N,14*%
X434352700Y154406600D03*
D13*
%TO.N,54*%
X434352700Y156946600D03*
%TD*%
D12*
%TO.N,51*%
%TO.C,L79*%
X434352700Y159486600D03*
%TO.N,14*%
X434352700Y162026600D03*
D13*
%TO.N,778*%
X434352700Y164566600D03*
%TD*%
D12*
%TO.N,47*%
%TO.C,L14*%
X171462700Y282041600D03*
%TO.N,14*%
X171462700Y279501600D03*
D13*
%TO.N,50*%
X171462700Y276961600D03*
%TD*%
D12*
%TO.N,46*%
%TO.C,L15*%
X175272700Y282041600D03*
%TO.N,14*%
X175272700Y279501600D03*
D13*
%TO.N,594*%
X175272700Y276961600D03*
%TD*%
D12*
%TO.N,45*%
%TO.C,L16*%
X179082700Y282041600D03*
%TO.N,14*%
X179082700Y279501600D03*
D13*
%TO.N,595*%
X179082700Y276961600D03*
%TD*%
D12*
%TO.N,73*%
%TO.C,L17*%
X182892700Y282041600D03*
%TO.N,14*%
X182892700Y279501600D03*
D13*
%TO.N,596*%
X182892700Y276961600D03*
%TD*%
D12*
%TO.N,44*%
%TO.C,L18*%
X186702700Y282041600D03*
%TO.N,14*%
X186702700Y279501600D03*
D13*
%TO.N,597*%
X186702700Y276961600D03*
%TD*%
D12*
%TO.N,14*%
%TO.C,C29*%
X66052700Y246481600D03*
D13*
%TO.N,15*%
X45732700Y246481600D03*
%TD*%
D26*
%TO.N,N/C*%
%TO.C,HT2*%
X15252700Y33121600D03*
%TD*%
D12*
%TO.N,74*%
%TO.C,L20*%
X194322700Y282041600D03*
%TO.N,14*%
X194322700Y279501600D03*
D13*
%TO.N,598*%
X194322700Y276961600D03*
%TD*%
D12*
%TO.N,43*%
%TO.C,L21*%
X198132700Y282041600D03*
%TO.N,14*%
X198132700Y279501600D03*
D13*
%TO.N,599*%
X198132700Y276961600D03*
%TD*%
D12*
%TO.N,42*%
%TO.C,L22*%
X201942700Y282041600D03*
%TO.N,14*%
X201942700Y279501600D03*
D13*
%TO.N,600*%
X201942700Y276961600D03*
%TD*%
D12*
%TO.N,41*%
%TO.C,L23*%
X205752700Y282041600D03*
%TO.N,14*%
X205752700Y279501600D03*
D13*
%TO.N,601*%
X205752700Y276961600D03*
%TD*%
D12*
%TO.N,40*%
%TO.C,L25*%
X213372700Y282041600D03*
%TO.N,14*%
X213372700Y279501600D03*
D13*
%TO.N,49*%
X213372700Y276961600D03*
%TD*%
D12*
%TO.N,295*%
%TO.C,L9*%
X152412700Y282041600D03*
%TO.N,14*%
X152412700Y279501600D03*
D13*
%TO.N,289*%
X152412700Y276961600D03*
%TD*%
D12*
%TO.N,294*%
%TO.C,L10*%
X156222700Y282041600D03*
%TO.N,14*%
X156222700Y279501600D03*
D13*
%TO.N,288*%
X156222700Y276961600D03*
%TD*%
D12*
%TO.N,293*%
%TO.C,L11*%
X160032700Y282041600D03*
%TO.N,14*%
X160032700Y279501600D03*
D13*
%TO.N,285*%
X160032700Y276961600D03*
%TD*%
D12*
%TO.N,291*%
%TO.C,L8*%
X148602700Y282041600D03*
%TO.N,14*%
X148602700Y279501600D03*
D13*
%TO.N,298*%
X148602700Y276961600D03*
%TD*%
D12*
%TO.N,290*%
%TO.C,L13*%
X167652700Y282041600D03*
%TO.N,14*%
X167652700Y279501600D03*
D13*
%TO.N,296*%
X167652700Y276961600D03*
%TD*%
D12*
%TO.N,14*%
%TO.C,C110*%
X155587700Y195681600D03*
D13*
%TO.N,320*%
X175907700Y195681600D03*
%TD*%
D12*
%TO.N,284*%
%TO.C,L7*%
X144792700Y282041600D03*
%TO.N,14*%
X144792700Y279501600D03*
D13*
%TO.N,292*%
X144792700Y276961600D03*
%TD*%
D12*
%TO.N,286*%
%TO.C,L6*%
X140982700Y282041600D03*
%TO.N,14*%
X140982700Y279501600D03*
D13*
%TO.N,616*%
X140982700Y276961600D03*
%TD*%
D12*
%TO.N,226*%
%TO.C,P3*%
X367042700Y284581600D03*
%TO.N,615*%
X364502700Y284581600D03*
%TO.N,617*%
X361962700Y284581600D03*
%TO.N,352*%
X359422700Y284581600D03*
%TO.N,623*%
X356882700Y284581600D03*
%TO.N,362*%
X354342700Y284581600D03*
%TO.N,642*%
X351802700Y284581600D03*
D13*
%TO.N,14*%
X349262700Y284581600D03*
%TD*%
D12*
%TO.N,226*%
%TO.C,P2*%
X351802700Y280771600D03*
%TO.N,636*%
X349262700Y280771600D03*
%TO.N,454*%
X346722700Y280771600D03*
%TO.N,634*%
X344182700Y280771600D03*
%TO.N,635*%
X341642700Y280771600D03*
%TO.N,512*%
X339102700Y280771600D03*
%TO.N,368*%
X336562700Y280771600D03*
D13*
%TO.N,14*%
X334022700Y280771600D03*
%TD*%
D12*
%TO.N,226*%
%TO.C,P1*%
X336562700Y284581600D03*
%TO.N,588*%
X334022700Y284581600D03*
%TO.N,637*%
X331482700Y284581600D03*
%TO.N,638*%
X328942700Y284581600D03*
%TO.N,639*%
X326402700Y284581600D03*
%TO.N,640*%
X323862700Y284581600D03*
%TO.N,641*%
X321322700Y284581600D03*
D13*
%TO.N,14*%
X318782700Y284581600D03*
%TD*%
D12*
%TO.N,319*%
%TO.C,J12*%
X298462700Y222351600D03*
D13*
%TO.N,317*%
X298462700Y224891600D03*
%TD*%
D12*
%TO.N,785*%
%TO.C,C67*%
X137172700Y219811600D03*
D13*
%TO.N,14*%
X119392700Y219811600D03*
%TD*%
D12*
%TO.N,14*%
%TO.C,C181*%
X228612700Y146151600D03*
D13*
%TO.N,80*%
X213372700Y146151600D03*
%TD*%
D15*
%TO.N,785*%
%TO.C,C96*%
X195592700Y258546600D03*
D17*
%TO.N,14*%
X195592700Y229336600D03*
%TD*%
D12*
%TO.N,N/C*%
%TO.C,P6*%
X207022700Y258140200D03*
%TO.N,14*%
X209029300Y258140200D03*
%TO.N,452*%
X207022700Y256133600D03*
X209029300Y256133600D03*
%TO.N,14*%
X207022700Y254127000D03*
%TO.N,453*%
X209029300Y254127000D03*
%TO.N,447*%
X207022700Y252120400D03*
%TO.N,446*%
X209029300Y252120400D03*
%TO.N,328*%
X207022700Y250113800D03*
%TO.N,326*%
X209029300Y250113800D03*
%TO.N,N/C*%
X207022700Y248107200D03*
%TO.N,327*%
X209029300Y248107200D03*
%TO.N,N/C*%
X207022700Y246100600D03*
%TO.N,450*%
X209029300Y246100600D03*
%TO.N,14*%
X207022700Y244094000D03*
%TO.N,N/C*%
X209029300Y244094000D03*
X207022700Y242087400D03*
X209029300Y242087400D03*
%TO.N,14*%
X207022700Y240080800D03*
%TO.N,448*%
X209029300Y240080800D03*
%TO.N,14*%
X207022700Y238074200D03*
%TO.N,449*%
X209029300Y238074200D03*
%TO.N,14*%
X207022700Y236067600D03*
%TO.N,N/C*%
X209029300Y236067600D03*
X207022700Y234061000D03*
%TO.N,14*%
X209029300Y234061000D03*
%TO.N,173*%
X207022700Y232054400D03*
%TO.N,188*%
X209029300Y232054400D03*
%TO.N,174*%
X207022700Y230047800D03*
%TO.N,187*%
X209029300Y230047800D03*
%TO.N,175*%
X207022700Y228041200D03*
%TO.N,186*%
X209029300Y228041200D03*
%TO.N,176*%
X207022700Y226034600D03*
%TO.N,185*%
X209029300Y226034600D03*
%TO.N,177*%
X207022700Y224028000D03*
%TO.N,184*%
X209029300Y224028000D03*
%TO.N,178*%
X207022700Y222021400D03*
%TO.N,183*%
X209029300Y222021400D03*
%TO.N,179*%
X207022700Y220014800D03*
%TO.N,182*%
X209029300Y220014800D03*
%TO.N,180*%
X207022700Y218008200D03*
%TO.N,181*%
X209029300Y218008200D03*
%TO.N,14*%
X207022700Y216001600D03*
D13*
%TO.N,189*%
X209029300Y216001600D03*
%TD*%
D12*
%TO.N,14*%
%TO.C,C69*%
X228612700Y228701600D03*
D13*
%TO.N,89*%
X228612700Y236321600D03*
%TD*%
D12*
%TO.N,14*%
%TO.C,H38*%
X452132700Y135991600D03*
X452132700Y148691600D03*
%TO.N,357*%
X452132700Y161391600D03*
X452132700Y174091600D03*
X452132700Y186791600D03*
X452132700Y199491600D03*
%TD*%
%TO.N,357*%
%TO.C,H39*%
X452132700Y212826600D03*
X452132700Y225526600D03*
X452132700Y238226600D03*
X452132700Y250926600D03*
%TO.N,784*%
X452132700Y263626600D03*
X452132700Y276326600D03*
%TD*%
%TO.N,842*%
%TO.C,H40*%
X224802700Y294106600D03*
X212102700Y294106600D03*
X199402700Y294106600D03*
%TD*%
%TO.N,N/C*%
%TO.C,U15*%
X118122700Y249021600D03*
%TO.N,272*%
X120662700Y249021600D03*
%TO.N,273*%
X123202700Y249021600D03*
%TO.N,N/C*%
X125742700Y249021600D03*
X128282700Y249021600D03*
%TO.N,774*%
X130822700Y249021600D03*
%TO.N,N/C*%
X133362700Y249021600D03*
X135902700Y249021600D03*
%TO.N,785*%
X135902700Y241401600D03*
%TO.N,573*%
X133362700Y241401600D03*
%TO.N,14*%
X130822700Y241401600D03*
X128282700Y241401600D03*
X125742700Y241401600D03*
%TO.N,572*%
X123202700Y241401600D03*
%TO.N,775*%
X120662700Y241401600D03*
D13*
%TO.N,852*%
X118122700Y241401600D03*
%TD*%
D12*
%TO.N,14*%
%TO.C,H37*%
X26682700Y198856600D03*
X26682700Y211556600D03*
X26682700Y224256600D03*
%TD*%
%TO.N,14*%
%TO.C,H35*%
X19697700Y151866600D03*
X19697700Y164566600D03*
X19697700Y177266600D03*
%TD*%
%TO.N,79*%
%TO.C,R217*%
X163842700Y123291600D03*
D13*
%TO.N,385*%
X163842700Y113131600D03*
%TD*%
D12*
%TO.N,14*%
%TO.C,H31*%
X51447700Y294106600D03*
X64147700Y294106600D03*
X76847700Y294106600D03*
X89547700Y294106600D03*
X102247700Y294106600D03*
X114947700Y294106600D03*
%TD*%
D26*
%TO.N,N/C*%
%TO.C,HT1*%
X15252700Y309981600D03*
%TD*%
D12*
%TO.N,14*%
%TO.C,H30*%
X19697700Y125831600D03*
X19697700Y113131600D03*
X19697700Y100431600D03*
X19697700Y87731600D03*
X19697700Y75031600D03*
X19697700Y62331600D03*
%TD*%
%TO.N,14*%
%TO.C,H17*%
X99707700Y49631600D03*
X87007700Y49631600D03*
X74307700Y49631600D03*
X61607700Y49631600D03*
X48907700Y49631600D03*
X36207700Y49631600D03*
%TD*%
%TO.N,14*%
%TO.C,H29*%
X176542700Y49631600D03*
X163842700Y49631600D03*
X151142700Y49631600D03*
X138442700Y49631600D03*
X125742700Y49631600D03*
X113042700Y49631600D03*
%TD*%
%TO.N,14*%
%TO.C,H28*%
X278142700Y49631600D03*
X265442700Y49631600D03*
X252742700Y49631600D03*
X240042700Y49631600D03*
X227342700Y49631600D03*
X214642700Y49631600D03*
%TD*%
%TO.N,14*%
%TO.C,H27*%
X354342700Y49631600D03*
X341642700Y49631600D03*
X328942700Y49631600D03*
X316242700Y49631600D03*
X303542700Y49631600D03*
X290842700Y49631600D03*
%TD*%
%TO.N,103*%
%TO.C,R108*%
X270522700Y233781600D03*
D13*
%TO.N,102*%
X270522700Y243941600D03*
%TD*%
D12*
%TO.N,14*%
%TO.C,H25*%
X372757700Y61061600D03*
X372757700Y73761600D03*
X372757700Y86461600D03*
X372757700Y99161600D03*
X372757700Y111861600D03*
X372757700Y124561600D03*
%TD*%
%TO.N,381*%
%TO.C,R104*%
X224802700Y231241600D03*
D13*
%TO.N,367*%
X224802700Y241401600D03*
%TD*%
D12*
%TO.N,95*%
%TO.C,R105*%
X233692700Y241401600D03*
D13*
%TO.N,14*%
X233692700Y231241600D03*
%TD*%
D12*
%TO.N,14*%
%TO.C,H26*%
X379742700Y125831600D03*
X392442700Y125831600D03*
X405142700Y125831600D03*
X417842700Y125831600D03*
X430542700Y125831600D03*
X443242700Y125831600D03*
%TD*%
D27*
%TO.N,N/C*%
%TO.C,H24*%
X235216700Y120827800D03*
%TD*%
D20*
%TO.N,N/C*%
%TO.C,H22*%
X237096300Y281813000D03*
%TD*%
D15*
%TO.N,104*%
%TO.C,C24*%
X222897700Y253466600D03*
D17*
%TO.N,109*%
X222897700Y281406600D03*
%TD*%
D26*
%TO.N,N/C*%
%TO.C,HT3*%
X455307700Y309981600D03*
%TD*%
D12*
%TO.N,276*%
%TO.C,R8*%
X95262700Y274421600D03*
D13*
%TO.N,852*%
X105422700Y274421600D03*
%TD*%
D12*
%TO.N,14*%
%TO.C,C7*%
X86372700Y269341600D03*
D13*
%TO.N,77*%
X68592700Y269341600D03*
%TD*%
D12*
%TO.N,283*%
%TO.C,R74*%
X140982700Y232511600D03*
D13*
%TO.N,852*%
X140982700Y222351600D03*
%TD*%
D12*
%TO.N,14*%
%TO.C,C50*%
X273062700Y251561600D03*
D13*
%TO.N,852*%
X252742700Y251561600D03*
%TD*%
D15*
%TO.N,14*%
%TO.C,C147*%
X207022700Y156311600D03*
D17*
%TO.N,852*%
X207022700Y202031600D03*
%TD*%
D28*
%TO.N,14*%
%TO.C,DL1*%
X247662700Y229920800D03*
X251167900Y229920800D03*
X253276100Y229920800D03*
%TO.N,98*%
X256781300Y229920800D03*
%TO.N,118*%
X256781300Y227431600D03*
%TO.N,N/C*%
X255028700Y227431600D03*
X253276100Y227431600D03*
%TO.N,118*%
X251167900Y227431600D03*
%TO.N,97*%
X249415300Y227431600D03*
%TO.N,N/C*%
X247662700Y227431600D03*
%TD*%
D12*
%TO.N,214*%
%TO.C,P4*%
X334022700Y251561600D03*
%TO.N,221*%
X331482700Y251561600D03*
%TO.N,N/C*%
X328942700Y251561600D03*
%TO.N,216*%
X326402700Y251561600D03*
%TO.N,223*%
X323862700Y251561600D03*
%TO.N,224*%
X321322700Y251561600D03*
%TO.N,225*%
X318782700Y251561600D03*
%TO.N,222*%
X316242700Y251561600D03*
D13*
%TO.N,852*%
X313702700Y251561600D03*
%TD*%
D12*
%TO.N,197*%
%TO.C,P10*%
X85102700Y155041600D03*
%TO.N,198*%
X82562700Y155041600D03*
%TO.N,199*%
X80022700Y155041600D03*
%TO.N,200*%
X77482700Y155041600D03*
%TO.N,201*%
X74942700Y155041600D03*
%TO.N,202*%
X72402700Y155041600D03*
%TO.N,204*%
X69862700Y155041600D03*
%TO.N,203*%
X67322700Y155041600D03*
D13*
%TO.N,852*%
X64782700Y155041600D03*
%TD*%
D12*
%TO.N,783*%
%TO.C,P9*%
X59702700Y155041600D03*
%TO.N,782*%
X57162700Y155041600D03*
%TO.N,409*%
X54622700Y155041600D03*
%TO.N,408*%
X52082700Y155041600D03*
%TO.N,193*%
X49542700Y155041600D03*
%TO.N,194*%
X47002700Y155041600D03*
%TO.N,195*%
X44462700Y155041600D03*
%TO.N,196*%
X41922700Y155041600D03*
D13*
%TO.N,852*%
X39382700Y155041600D03*
%TD*%
D12*
%TO.N,148*%
%TO.C,P14*%
X55892700Y105511600D03*
%TO.N,149*%
X53352700Y105511600D03*
%TO.N,150*%
X50812700Y105511600D03*
%TO.N,151*%
X48272700Y105511600D03*
%TO.N,157*%
X45732700Y105511600D03*
%TO.N,156*%
X43192700Y105511600D03*
%TO.N,190*%
X40652700Y105511600D03*
%TO.N,191*%
X38112700Y105511600D03*
D13*
%TO.N,852*%
X35572700Y105511600D03*
%TD*%
D12*
%TO.N,133*%
%TO.C,P15*%
X80022700Y105511600D03*
%TO.N,134*%
X77482700Y105511600D03*
%TO.N,135*%
X74942700Y105511600D03*
%TO.N,136*%
X72402700Y105511600D03*
%TO.N,155*%
X69862700Y105511600D03*
%TO.N,152*%
X67322700Y105511600D03*
%TO.N,153*%
X64782700Y105511600D03*
%TO.N,154*%
X62242700Y105511600D03*
D13*
%TO.N,852*%
X59702700Y105511600D03*
%TD*%
D12*
%TO.N,158*%
%TO.C,P16*%
X104152700Y105511600D03*
%TO.N,159*%
X101612700Y105511600D03*
%TO.N,160*%
X99072700Y105511600D03*
%TO.N,161*%
X96532700Y105511600D03*
%TO.N,162*%
X93992700Y105511600D03*
%TO.N,163*%
X91452700Y105511600D03*
%TO.N,164*%
X88912700Y105511600D03*
%TO.N,827*%
X86372700Y105511600D03*
D13*
%TO.N,852*%
X83832700Y105511600D03*
%TD*%
D12*
%TO.N,333*%
%TO.C,P17*%
X140982700Y100431600D03*
%TO.N,334*%
X138442700Y100431600D03*
%TO.N,335*%
X135902700Y100431600D03*
%TO.N,336*%
X133362700Y100431600D03*
%TO.N,337*%
X130822700Y100431600D03*
%TO.N,338*%
X128282700Y100431600D03*
%TO.N,339*%
X125742700Y100431600D03*
%TO.N,340*%
X123202700Y100431600D03*
D13*
%TO.N,852*%
X120662700Y100431600D03*
%TD*%
D12*
%TO.N,341*%
%TO.C,P13*%
X168922700Y151231600D03*
%TO.N,342*%
X166382700Y151231600D03*
%TO.N,343*%
X163842700Y151231600D03*
%TO.N,344*%
X161302700Y151231600D03*
%TO.N,345*%
X158762700Y151231600D03*
%TO.N,346*%
X156222700Y151231600D03*
%TO.N,347*%
X153682700Y151231600D03*
%TO.N,324*%
X151142700Y151231600D03*
D13*
%TO.N,852*%
X148602700Y151231600D03*
%TD*%
D12*
%TO.N,621*%
%TO.C,P12*%
X143522700Y151231600D03*
%TO.N,836*%
X140982700Y151231600D03*
%TO.N,819*%
X138442700Y151231600D03*
%TO.N,793*%
X135902700Y151231600D03*
%TO.N,795*%
X133362700Y151231600D03*
%TO.N,796*%
X130822700Y151231600D03*
%TO.N,809*%
X128282700Y151231600D03*
%TO.N,794*%
X125742700Y151231600D03*
D13*
%TO.N,852*%
X123202700Y151231600D03*
%TD*%
D12*
%TO.N,396*%
%TO.C,P11*%
X99072700Y151231600D03*
%TO.N,395*%
X101612700Y151231600D03*
%TO.N,394*%
X104152700Y151231600D03*
%TO.N,393*%
X106692700Y151231600D03*
%TO.N,392*%
X109232700Y151231600D03*
%TO.N,391*%
X111772700Y151231600D03*
%TO.N,390*%
X114312700Y151231600D03*
%TO.N,389*%
X116852700Y151231600D03*
D13*
%TO.N,852*%
X119392700Y151231600D03*
%TD*%
D29*
%TO.N,14*%
%TO.C,H21*%
X370243100Y51816000D03*
%TD*%
D12*
%TO.N,404*%
%TO.C,P7*%
X128282700Y175996600D03*
%TO.N,403*%
X130822700Y175996600D03*
%TO.N,402*%
X133362700Y175996600D03*
%TO.N,401*%
X135902700Y175996600D03*
%TO.N,400*%
X138442700Y175996600D03*
%TO.N,399*%
X140982700Y175996600D03*
%TO.N,398*%
X143522700Y175996600D03*
%TO.N,397*%
X146062700Y175996600D03*
D13*
%TO.N,852*%
X148602700Y175996600D03*
%TD*%
D12*
%TO.N,325*%
%TO.C,P8*%
X170192700Y169646600D03*
%TO.N,326*%
X167652700Y169646600D03*
%TO.N,327*%
X165112700Y169646600D03*
%TO.N,328*%
X162572700Y169646600D03*
%TO.N,329*%
X160032700Y169646600D03*
%TO.N,330*%
X157492700Y169646600D03*
%TO.N,331*%
X154952700Y169646600D03*
%TO.N,332*%
X152412700Y169646600D03*
D13*
%TO.N,852*%
X149872700Y169646600D03*
%TD*%
D15*
%TO.N,N/C*%
%TO.C,J1*%
X43446700Y279323800D03*
X40043100Y290601400D03*
D12*
%TO.N,77*%
X42252900Y282524200D03*
%TO.N,14*%
X42252900Y285013400D03*
D13*
%TO.N,76*%
X42252900Y287502600D03*
%TD*%
%TO.N,777*%
%TO.C,U29*%
X258457700Y213461600D03*
%TD*%
D12*
%TO.N,852*%
%TO.C,U10*%
X47002700Y259181600D03*
%TO.N,14*%
X49542700Y259181600D03*
%TO.N,55*%
X52082700Y259181600D03*
%TO.N,N/C*%
X52082700Y251561600D03*
%TO.N,70*%
X49542700Y251561600D03*
D13*
%TO.N,69*%
X47002700Y251561600D03*
%TD*%
D12*
%TO.N,852*%
%TO.C,U67*%
X115582700Y72491600D03*
%TO.N,412*%
X118122700Y72491600D03*
%TO.N,9*%
X120662700Y72491600D03*
%TO.N,2*%
X123202700Y72491600D03*
%TO.N,3*%
X125742700Y72491600D03*
%TO.N,4*%
X128282700Y72491600D03*
%TO.N,5*%
X130822700Y72491600D03*
%TO.N,383*%
X133362700Y72491600D03*
%TO.N,850*%
X135902700Y72491600D03*
%TO.N,525*%
X138442700Y72491600D03*
%TO.N,14*%
X138442700Y64871600D03*
%TO.N,838*%
X135902700Y64871600D03*
%TO.N,340*%
X133362700Y64871600D03*
%TO.N,341*%
X130822700Y64871600D03*
%TO.N,342*%
X128282700Y64871600D03*
%TO.N,343*%
X125742700Y64871600D03*
%TO.N,422*%
X123202700Y64871600D03*
%TO.N,423*%
X120662700Y64871600D03*
%TO.N,424*%
X118122700Y64871600D03*
D13*
%TO.N,9*%
X115582700Y64871600D03*
%TD*%
D12*
%TO.N,852*%
%TO.C,U62*%
X115582700Y87731600D03*
%TO.N,836*%
X118122700Y87731600D03*
%TO.N,819*%
X120662700Y87731600D03*
%TO.N,837*%
X123202700Y87731600D03*
%TO.N,N/C*%
X125742700Y87731600D03*
%TO.N,621*%
X128282700Y87731600D03*
%TO.N,13*%
X130822700Y87731600D03*
%TO.N,324*%
X133362700Y87731600D03*
%TO.N,7*%
X135902700Y87731600D03*
%TO.N,147*%
X138442700Y87731600D03*
%TO.N,14*%
X138442700Y80111600D03*
%TO.N,6*%
X135902700Y80111600D03*
%TO.N,1*%
X133362700Y80111600D03*
%TO.N,5*%
X130822700Y80111600D03*
%TO.N,4*%
X128282700Y80111600D03*
%TO.N,3*%
X125742700Y80111600D03*
%TO.N,2*%
X123202700Y80111600D03*
%TO.N,523*%
X120662700Y80111600D03*
%TO.N,838*%
X118122700Y80111600D03*
D13*
%TO.N,383*%
X115582700Y80111600D03*
%TD*%
D12*
%TO.N,852*%
%TO.C,U63*%
X153047700Y87731600D03*
%TO.N,521*%
X155587700Y87731600D03*
%TO.N,N/C*%
X158127700Y87731600D03*
%TO.N,584*%
X160667700Y87731600D03*
%TO.N,N/C*%
X163207700Y87731600D03*
%TO.N,644*%
X165747700Y87731600D03*
%TO.N,N/C*%
X168287700Y87731600D03*
%TO.N,807*%
X170827700Y87731600D03*
%TO.N,N/C*%
X173367700Y87731600D03*
%TO.N,516*%
X175907700Y87731600D03*
%TO.N,14*%
X175907700Y80111600D03*
%TO.N,793*%
X173367700Y80111600D03*
%TO.N,843*%
X170827700Y80111600D03*
%TO.N,794*%
X168287700Y80111600D03*
%TO.N,10*%
X165747700Y80111600D03*
%TO.N,11*%
X163207700Y80111600D03*
%TO.N,1*%
X160667700Y80111600D03*
%TO.N,13*%
X158127700Y80111600D03*
%TO.N,522*%
X155587700Y80111600D03*
D13*
%TO.N,383*%
X153047700Y80111600D03*
%TD*%
D12*
%TO.N,852*%
%TO.C,U68*%
X153047700Y72491600D03*
%TO.N,1*%
X155587700Y72491600D03*
%TO.N,11*%
X158127700Y72491600D03*
%TO.N,10*%
X160667700Y72491600D03*
%TO.N,N/C*%
X163207700Y72491600D03*
X165747700Y72491600D03*
%TO.N,519*%
X168287700Y72491600D03*
%TO.N,361*%
X170827700Y72491600D03*
%TO.N,803*%
X173367700Y72491600D03*
%TO.N,515*%
X175907700Y72491600D03*
%TO.N,14*%
X175907700Y64871600D03*
%TO.N,327*%
X173367700Y64871600D03*
%TO.N,328*%
X170827700Y64871600D03*
%TO.N,329*%
X168287700Y64871600D03*
%TO.N,850*%
X165747700Y64871600D03*
%TO.N,851*%
X163207700Y64871600D03*
%TO.N,524*%
X160667700Y64871600D03*
%TO.N,793*%
X158127700Y64871600D03*
%TO.N,795*%
X155587700Y64871600D03*
D13*
%TO.N,383*%
X153047700Y64871600D03*
%TD*%
D19*
%TO.N,N/C*%
%TO.C,H20*%
X235216700Y55829200D03*
%TD*%
D12*
%TO.N,28*%
%TO.C,U65*%
X229882700Y90271600D03*
%TO.N,27*%
X229882700Y82651600D03*
X229882700Y75031600D03*
%TO.N,14*%
X222262700Y75031600D03*
X222262700Y82651600D03*
D13*
%TO.N,N/C*%
X222262700Y90271600D03*
%TD*%
D12*
%TO.N,852*%
%TO.C,U41*%
X220992700Y176631600D03*
%TO.N,321*%
X228612700Y176631600D03*
X236232700Y176631600D03*
%TO.N,14*%
X236232700Y169011600D03*
X228612700Y169011600D03*
D13*
%TO.N,N/C*%
X220992700Y169011600D03*
%TD*%
D12*
%TO.N,14*%
%TO.C,Y1*%
X66941700Y182981600D03*
%TO.N,39*%
X83832700Y180441600D03*
D13*
%TO.N,359*%
X83832700Y185521600D03*
%TD*%
D12*
%TO.N,14*%
%TO.C,Y3*%
X295668700Y83921600D03*
%TO.N,23*%
X278777700Y86461600D03*
D13*
%TO.N,21*%
X278777700Y81381600D03*
%TD*%
D12*
%TO.N,14*%
%TO.C,Y2*%
X295668700Y100431600D03*
%TO.N,17*%
X278777700Y102971600D03*
D13*
%TO.N,16*%
X278777700Y97891600D03*
%TD*%
D12*
%TO.N,852*%
%TO.C,Q1*%
X233692700Y265531600D03*
%TO.N,110*%
X233692700Y268071600D03*
D13*
%TO.N,111*%
X233692700Y270611600D03*
%TD*%
D12*
%TO.N,320*%
%TO.C,Q3*%
X247662700Y245211600D03*
%TO.N,108*%
X247662700Y247751600D03*
D13*
%TO.N,104*%
X247662700Y250291600D03*
%TD*%
D12*
%TO.N,852*%
%TO.C,Q2*%
X299732700Y260451600D03*
%TO.N,81*%
X297192700Y260451600D03*
D13*
%TO.N,82*%
X294652700Y260451600D03*
%TD*%
D12*
%TO.N,320*%
%TO.C,Q4*%
X344817700Y251561600D03*
%TO.N,316*%
X344817700Y254101600D03*
D13*
%TO.N,303*%
X344817700Y256641600D03*
%TD*%
D12*
%TO.N,304*%
%TO.C,Q6*%
X368312700Y247116600D03*
%TO.N,302*%
X365772700Y247116600D03*
D13*
%TO.N,319*%
X363232700Y247116600D03*
%TD*%
D20*
%TO.N,N/C*%
%TO.C,H14*%
X174256700Y181813200D03*
%TD*%
D12*
%TO.N,22*%
%TO.C,Q7*%
X240042700Y76301600D03*
%TO.N,26*%
X237502700Y76301600D03*
D13*
%TO.N,27*%
X234962700Y76301600D03*
%TD*%
D12*
%TO.N,25*%
%TO.C,Q9*%
X255917700Y80111600D03*
%TO.N,23*%
X258457700Y80111600D03*
D13*
%TO.N,24*%
X260997700Y80111600D03*
%TD*%
D12*
%TO.N,19*%
%TO.C,Q8*%
X245757700Y80111600D03*
%TO.N,18*%
X248297700Y80111600D03*
D13*
%TO.N,14*%
X250837700Y80111600D03*
%TD*%
D12*
%TO.N,852*%
%TO.C,J17*%
X356171500Y159867600D03*
%TO.N,14*%
X356171500Y157327600D03*
%TO.N,409*%
X353631500Y159867600D03*
%TO.N,502*%
X353631500Y157327600D03*
%TO.N,501*%
X351091500Y159867600D03*
%TO.N,500*%
X351091500Y157327600D03*
%TO.N,499*%
X348551500Y159867600D03*
%TO.N,498*%
X348551500Y157327600D03*
%TO.N,852*%
X346011500Y159867600D03*
%TO.N,14*%
X346011500Y157327600D03*
%TO.N,497*%
X343471500Y159867600D03*
%TO.N,496*%
X343471500Y157327600D03*
%TO.N,495*%
X340931500Y159867600D03*
%TO.N,494*%
X340931500Y157327600D03*
%TO.N,493*%
X338391500Y159867600D03*
%TO.N,852*%
X338391500Y157327600D03*
%TO.N,14*%
X335851500Y159867600D03*
%TO.N,492*%
X335851500Y157327600D03*
%TO.N,491*%
X333311500Y159867600D03*
%TO.N,490*%
X333311500Y157327600D03*
%TO.N,489*%
X330771500Y159867600D03*
%TO.N,488*%
X330771500Y157327600D03*
%TO.N,487*%
X328231500Y159867600D03*
%TO.N,852*%
X328231500Y157327600D03*
%TO.N,14*%
X325691500Y159867600D03*
%TO.N,852*%
X325691500Y157327600D03*
%TO.N,14*%
X323151500Y159867600D03*
%TO.N,408*%
X323151500Y157327600D03*
%TO.N,471*%
X320611500Y159867600D03*
%TO.N,472*%
X320611500Y157327600D03*
%TO.N,473*%
X318071500Y159867600D03*
%TO.N,474*%
X318071500Y157327600D03*
%TO.N,475*%
X315531500Y159867600D03*
%TO.N,852*%
X315531500Y157327600D03*
%TO.N,14*%
X312991500Y159867600D03*
%TO.N,476*%
X312991500Y157327600D03*
%TO.N,477*%
X310451500Y159867600D03*
%TO.N,478*%
X310451500Y157327600D03*
%TO.N,479*%
X307911500Y159867600D03*
%TO.N,480*%
X307911500Y157327600D03*
%TO.N,852*%
X305371500Y159867600D03*
%TO.N,14*%
X305371500Y157327600D03*
%TO.N,481*%
X302831500Y159867600D03*
%TO.N,482*%
X302831500Y157327600D03*
%TO.N,483*%
X300291500Y159867600D03*
%TO.N,484*%
X300291500Y157327600D03*
%TO.N,485*%
X297751500Y159867600D03*
%TO.N,486*%
X297751500Y157327600D03*
%TO.N,852*%
X295211500Y159867600D03*
D13*
%TO.N,14*%
X295211500Y157327600D03*
%TD*%
D12*
%TO.N,852*%
%TO.C,J21*%
X279971500Y116687600D03*
X279971500Y114147600D03*
%TO.N,14*%
X277431500Y116687600D03*
%TO.N,801*%
X277431500Y114147600D03*
%TO.N,800*%
X274891500Y116687600D03*
%TO.N,799*%
X274891500Y114147600D03*
%TO.N,798*%
X272351500Y116687600D03*
%TO.N,829*%
X272351500Y114147600D03*
%TO.N,828*%
X269811500Y116687600D03*
%TO.N,839*%
X269811500Y114147600D03*
%TO.N,469*%
X267271500Y116687600D03*
%TO.N,470*%
X267271500Y114147600D03*
%TO.N,852*%
X264731500Y116687600D03*
%TO.N,14*%
X264731500Y114147600D03*
X262191500Y116687600D03*
%TO.N,852*%
X262191500Y114147600D03*
X259651500Y116687600D03*
%TO.N,14*%
X259651500Y114147600D03*
%TO.N,460*%
X257111500Y116687600D03*
%TO.N,461*%
X257111500Y114147600D03*
%TO.N,462*%
X254571500Y116687600D03*
%TO.N,463*%
X254571500Y114147600D03*
%TO.N,464*%
X252031500Y116687600D03*
%TO.N,465*%
X252031500Y114147600D03*
%TO.N,466*%
X249491500Y116687600D03*
%TO.N,467*%
X249491500Y114147600D03*
%TO.N,468*%
X246951500Y116687600D03*
%TO.N,852*%
X246951500Y114147600D03*
%TO.N,14*%
X244411500Y116687600D03*
X244411500Y114147600D03*
%TD*%
%TO.N,14*%
%TO.C,U24*%
X50812700Y233781600D03*
X53352700Y233781600D03*
%TO.N,397*%
X55892700Y233781600D03*
%TO.N,398*%
X58432700Y233781600D03*
%TO.N,399*%
X60972700Y233781600D03*
%TO.N,400*%
X63512700Y233781600D03*
%TO.N,401*%
X66052700Y233781600D03*
%TO.N,402*%
X68592700Y233781600D03*
%TO.N,403*%
X71132700Y233781600D03*
%TO.N,404*%
X73672700Y233781600D03*
%TO.N,413*%
X76212700Y233781600D03*
%TO.N,621*%
X78752700Y233781600D03*
%TO.N,852*%
X78752700Y218541600D03*
%TO.N,325*%
X76212700Y218541600D03*
%TO.N,326*%
X73672700Y218541600D03*
%TO.N,37*%
X71132700Y218541600D03*
%TO.N,587*%
X68592700Y218541600D03*
%TO.N,38*%
X66052700Y218541600D03*
%TO.N,56*%
X63512700Y218541600D03*
%TO.N,N/C*%
X60972700Y218541600D03*
%TO.N,456*%
X58432700Y218541600D03*
X55892700Y218541600D03*
%TO.N,55*%
X53352700Y218541600D03*
D13*
%TO.N,14*%
X50812700Y218541600D03*
%TD*%
D12*
%TO.N,14*%
%TO.C,U52*%
X368312700Y147421600D03*
X370852700Y147421600D03*
%TO.N,397*%
X373392700Y147421600D03*
%TO.N,398*%
X375932700Y147421600D03*
%TO.N,399*%
X378472700Y147421600D03*
%TO.N,400*%
X381012700Y147421600D03*
%TO.N,401*%
X383552700Y147421600D03*
%TO.N,402*%
X386092700Y147421600D03*
%TO.N,403*%
X388632700Y147421600D03*
%TO.N,404*%
X391172700Y147421600D03*
%TO.N,413*%
X393712700Y147421600D03*
%TO.N,621*%
X396252700Y147421600D03*
%TO.N,852*%
X396252700Y132181600D03*
%TO.N,325*%
X393712700Y132181600D03*
%TO.N,36*%
X391172700Y132181600D03*
%TO.N,326*%
X388632700Y132181600D03*
%TO.N,587*%
X386092700Y132181600D03*
%TO.N,459*%
X383552700Y132181600D03*
%TO.N,778*%
X381012700Y132181600D03*
%TO.N,N/C*%
X378472700Y132181600D03*
%TO.N,457*%
X375932700Y132181600D03*
%TO.N,456*%
X373392700Y132181600D03*
%TO.N,54*%
X370852700Y132181600D03*
D13*
%TO.N,14*%
X368312700Y132181600D03*
%TD*%
D12*
%TO.N,95*%
%TO.C,U18*%
X238772700Y241401600D03*
%TO.N,87*%
X241312700Y241401600D03*
%TO.N,N/C*%
X243852700Y241401600D03*
%TO.N,84*%
X246392700Y241401600D03*
%TO.N,90*%
X248932700Y241401600D03*
%TO.N,14*%
X251472700Y241401600D03*
%TO.N,320*%
X254012700Y241401600D03*
%TO.N,101*%
X256552700Y241401600D03*
%TO.N,86*%
X259092700Y241401600D03*
%TO.N,85*%
X261632700Y241401600D03*
%TO.N,99*%
X261632700Y233781600D03*
%TO.N,107*%
X259092700Y233781600D03*
%TO.N,98*%
X256552700Y233781600D03*
%TO.N,88*%
X254012700Y233781600D03*
%TO.N,96*%
X251472700Y233781600D03*
%TO.N,94*%
X248932700Y233781600D03*
%TO.N,92*%
X246392700Y233781600D03*
%TO.N,93*%
X243852700Y233781600D03*
%TO.N,91*%
X241312700Y233781600D03*
D13*
%TO.N,89*%
X238772700Y233781600D03*
%TD*%
D20*
%TO.N,N/C*%
%TO.C,H15*%
X45224700Y181813200D03*
%TD*%
D12*
%TO.N,320*%
%TO.C,U8*%
X344817700Y263626600D03*
%TO.N,319*%
X344817700Y266166600D03*
D13*
%TO.N,853*%
X344817700Y268706600D03*
%TD*%
D12*
%TO.N,458*%
%TO.C,J18*%
X440270900Y164566600D03*
%TO.N,459*%
X440270900Y162026600D03*
%TO.N,14*%
X440270900Y159486600D03*
%TO.N,830*%
X440270900Y156946600D03*
%TO.N,51*%
X440270900Y154406600D03*
%TO.N,52*%
X440270900Y151866600D03*
%TO.N,53*%
X440270900Y149326600D03*
%TO.N,75*%
X440270900Y146786600D03*
D13*
%TO.N,14*%
X440270900Y141706600D03*
%TD*%
D15*
%TO.N,274*%
%TO.C,L45*%
X107962700Y264261600D03*
D17*
%TO.N,276*%
X92722700Y264261600D03*
%TD*%
D15*
%TO.N,14*%
%TO.C,L59*%
X121932700Y236321600D03*
D17*
%TO.N,280*%
X137172700Y236321600D03*
%TD*%
D15*
%TO.N,22*%
%TO.C,L111*%
X258457700Y85191600D03*
D17*
%TO.N,25*%
X243217700Y85191600D03*
%TD*%
D15*
%TO.N,21*%
%TO.C,L112*%
X273697700Y80111600D03*
D17*
%TO.N,20*%
X273697700Y95351600D03*
%TD*%
D15*
%TO.N,22*%
%TO.C,L105*%
X262267700Y94081600D03*
D17*
%TO.N,852*%
X247027700Y94081600D03*
%TD*%
D30*
%TO.N,N/C*%
%TO.C,H7*%
X434352700Y275310600D03*
%TD*%
D12*
%TO.N,852*%
%TO.C,U44*%
X368312700Y162661600D03*
%TO.N,330*%
X370852700Y162661600D03*
%TO.N,12*%
X373392700Y162661600D03*
%TO.N,851*%
X375932700Y162661600D03*
%TO.N,522*%
X378472700Y162661600D03*
%TO.N,821*%
X381012700Y162661600D03*
%TO.N,810*%
X383552700Y162661600D03*
%TO.N,812*%
X386092700Y162661600D03*
%TO.N,519*%
X388632700Y162661600D03*
%TO.N,520*%
X391172700Y162661600D03*
%TO.N,331*%
X393712700Y162661600D03*
%TO.N,332*%
X396252700Y162661600D03*
%TO.N,14*%
X396252700Y155041600D03*
%TO.N,333*%
X393712700Y155041600D03*
%TO.N,334*%
X391172700Y155041600D03*
%TO.N,335*%
X388632700Y155041600D03*
%TO.N,336*%
X386092700Y155041600D03*
%TO.N,337*%
X383552700Y155041600D03*
%TO.N,338*%
X381012700Y155041600D03*
%TO.N,339*%
X378472700Y155041600D03*
%TO.N,344*%
X375932700Y155041600D03*
%TO.N,345*%
X373392700Y155041600D03*
%TO.N,346*%
X370852700Y155041600D03*
D13*
%TO.N,347*%
X368312700Y155041600D03*
%TD*%
D12*
%TO.N,228*%
%TO.C,F1*%
X350532700Y276961600D03*
D13*
%TO.N,227*%
X337832700Y276961600D03*
%TD*%
D15*
%TO.N,377*%
%TO.C,L70*%
X321322700Y214096600D03*
D17*
%TO.N,205*%
X334022700Y214096600D03*
%TD*%
D15*
%TO.N,425*%
%TO.C,L66*%
X321322700Y218541600D03*
D17*
%TO.N,206*%
X334022700Y218541600D03*
%TD*%
D15*
%TO.N,379*%
%TO.C,L65*%
X325132700Y224891600D03*
D17*
%TO.N,207*%
X337832700Y224891600D03*
%TD*%
D15*
%TO.N,322*%
%TO.C,L102*%
X215912700Y96621600D03*
D17*
%TO.N,27*%
X228612700Y96621600D03*
%TD*%
D15*
%TO.N,827*%
%TO.C,L110*%
X54622700Y91541600D03*
D17*
%TO.N,165*%
X54622700Y78841600D03*
%TD*%
D15*
%TO.N,852*%
%TO.C,L60*%
X185432700Y235305600D03*
D17*
%TO.N,452*%
X185432700Y248005600D03*
%TD*%
D15*
%TO.N,169*%
%TO.C,L99*%
X48272700Y96621600D03*
D17*
%TO.N,172*%
X35572700Y96621600D03*
%TD*%
D15*
%TO.N,168*%
%TO.C,L97*%
X48272700Y100431600D03*
D17*
%TO.N,192*%
X35572700Y100431600D03*
%TD*%
D30*
%TO.N,N/C*%
%TO.C,H6*%
X434352700Y181330600D03*
%TD*%
D14*
%TO.N,14*%
%TO.C,H3*%
X449262500Y127812800D03*
%TD*%
D15*
%TO.N,167*%
%TO.C,L85*%
X48272700Y133451600D03*
D17*
%TO.N,171*%
X35572700Y133451600D03*
%TD*%
D15*
%TO.N,166*%
%TO.C,L82*%
X48272700Y141071600D03*
D17*
%TO.N,170*%
X35572700Y141071600D03*
%TD*%
D12*
%TO.N,48*%
%TO.C,L24*%
X209562700Y282041600D03*
%TO.N,14*%
X209562700Y279501600D03*
D13*
%TO.N,593*%
X209562700Y276961600D03*
%TD*%
D15*
%TO.N,852*%
%TO.C,L57*%
X71132700Y240131600D03*
D17*
%TO.N,15*%
X58432700Y240131600D03*
%TD*%
D12*
%TO.N,N/C*%
%TO.C,J16*%
X159473900Y161442400D03*
%TO.N,584*%
X159473900Y158902400D03*
%TO.N,325*%
X156933900Y161442400D03*
%TO.N,326*%
X156933900Y158902400D03*
%TO.N,327*%
X154393900Y161442400D03*
%TO.N,328*%
X154393900Y158902400D03*
%TO.N,329*%
X151853900Y161442400D03*
%TO.N,330*%
X151853900Y158902400D03*
%TO.N,331*%
X149313900Y161442400D03*
%TO.N,332*%
X149313900Y158902400D03*
%TO.N,333*%
X146773900Y161442400D03*
%TO.N,334*%
X146773900Y158902400D03*
%TO.N,335*%
X144233900Y161442400D03*
%TO.N,336*%
X144233900Y158902400D03*
%TO.N,337*%
X141693900Y161442400D03*
%TO.N,338*%
X141693900Y158902400D03*
%TO.N,339*%
X139153900Y161442400D03*
%TO.N,340*%
X139153900Y158902400D03*
%TO.N,341*%
X136613900Y161442400D03*
%TO.N,342*%
X136613900Y158902400D03*
%TO.N,343*%
X134073900Y161442400D03*
%TO.N,344*%
X134073900Y158902400D03*
%TO.N,345*%
X131533900Y161442400D03*
%TO.N,346*%
X131533900Y158902400D03*
%TO.N,347*%
X128993900Y161442400D03*
%TO.N,852*%
X128993900Y158902400D03*
X126453900Y161442400D03*
%TO.N,384*%
X126453900Y158902400D03*
%TO.N,815*%
X123913900Y161442400D03*
%TO.N,814*%
X123913900Y158902400D03*
%TO.N,813*%
X121373900Y161442400D03*
%TO.N,644*%
X121373900Y158902400D03*
%TO.N,809*%
X118833900Y161442400D03*
%TO.N,830*%
X118833900Y158902400D03*
%TO.N,796*%
X116293900Y161442400D03*
%TO.N,802*%
X116293900Y158902400D03*
%TO.N,810*%
X113753900Y161442400D03*
%TO.N,N/C*%
X113753900Y158902400D03*
%TO.N,361*%
X111213900Y161442400D03*
%TO.N,422*%
X111213900Y158902400D03*
%TO.N,423*%
X108673900Y161442400D03*
%TO.N,424*%
X108673900Y158902400D03*
%TO.N,807*%
X106133900Y161442400D03*
%TO.N,621*%
X106133900Y158902400D03*
%TO.N,836*%
X103593900Y161442400D03*
%TO.N,819*%
X103593900Y158902400D03*
%TO.N,793*%
X101053900Y161442400D03*
%TO.N,795*%
X101053900Y158902400D03*
%TO.N,14*%
X98513900Y161442400D03*
D13*
X98513900Y158902400D03*
%TD*%
D12*
%TO.N,852*%
%TO.C,J20*%
X89547700Y116687600D03*
X89547700Y114147600D03*
X87007700Y116687600D03*
%TO.N,415*%
X87007700Y114147600D03*
%TO.N,821*%
X84467700Y116687600D03*
%TO.N,811*%
X84467700Y114147600D03*
%TO.N,N/C*%
X81927700Y116687600D03*
%TO.N,456*%
X81927700Y114147600D03*
%TO.N,803*%
X79387700Y116687600D03*
%TO.N,414*%
X79387700Y114147600D03*
%TO.N,808*%
X76847700Y116687600D03*
%TO.N,14*%
X76847700Y114147600D03*
X74307700Y116687600D03*
X74307700Y114147600D03*
%TO.N,404*%
X71767700Y116687600D03*
%TO.N,389*%
X71767700Y114147600D03*
%TO.N,390*%
X69227700Y116687600D03*
%TO.N,391*%
X69227700Y114147600D03*
%TO.N,392*%
X66687700Y116687600D03*
%TO.N,393*%
X66687700Y114147600D03*
%TO.N,394*%
X64147700Y116687600D03*
%TO.N,395*%
X64147700Y114147600D03*
%TO.N,396*%
X61607700Y116687600D03*
%TO.N,397*%
X61607700Y114147600D03*
%TO.N,398*%
X59067700Y116687600D03*
%TO.N,399*%
X59067700Y114147600D03*
%TO.N,400*%
X56527700Y116687600D03*
%TO.N,401*%
X56527700Y114147600D03*
%TO.N,402*%
X53987700Y116687600D03*
%TO.N,403*%
X53987700Y114147600D03*
%TD*%
%TO.N,852*%
%TO.C,U37*%
X398157700Y203936600D03*
%TO.N,411*%
X398157700Y196316600D03*
X398157700Y188696600D03*
%TO.N,14*%
X390537700Y188696600D03*
X390537700Y196316600D03*
D13*
%TO.N,N/C*%
X390537700Y203936600D03*
%TD*%
D15*
%TO.N,319*%
%TO.C,C121*%
X407047700Y226796600D03*
D17*
%TO.N,853*%
X382917700Y226796600D03*
%TD*%
D12*
%TO.N,358*%
%TO.C,C72*%
X279412700Y243941600D03*
D13*
%TO.N,94*%
X276872700Y243941600D03*
%TD*%
D12*
%TO.N,430*%
%TO.C,C87*%
X279412700Y235051600D03*
D13*
%TO.N,92*%
X276872700Y235051600D03*
%TD*%
D30*
%TO.N,N/C*%
%TO.C,H5*%
X364248700Y181330600D03*
%TD*%
D12*
%TO.N,603*%
%TO.C,C51*%
X279412700Y254101600D03*
D13*
%TO.N,93*%
X276872700Y254101600D03*
%TD*%
D12*
%TO.N,14*%
%TO.C,C48*%
X243852700Y245211600D03*
D13*
%TO.N,90*%
X228612700Y245211600D03*
%TD*%
D12*
%TO.N,275*%
%TO.C,C2*%
X90182700Y289661600D03*
D13*
%TO.N,274*%
X107962700Y289661600D03*
%TD*%
D12*
%TO.N,14*%
%TO.C,C11*%
X91452700Y269341600D03*
D13*
%TO.N,431*%
X109232700Y269341600D03*
%TD*%
D12*
%TO.N,14*%
%TO.C,C6*%
X86372700Y271881600D03*
D13*
%TO.N,279*%
X86372700Y289661600D03*
%TD*%
D12*
%TO.N,227*%
%TO.C,D5*%
X339102700Y273151600D03*
D13*
%TO.N,852*%
X349262700Y273151600D03*
%TD*%
D12*
%TO.N,790*%
%TO.C,D7*%
X250202700Y264896600D03*
D13*
%TO.N,110*%
X240042700Y264896600D03*
%TD*%
D30*
%TO.N,N/C*%
%TO.C,H4*%
X364248700Y275310600D03*
%TD*%
D12*
%TO.N,444*%
%TO.C,D4*%
X250202700Y267436600D03*
D13*
%TO.N,110*%
X240042700Y267436600D03*
%TD*%
D12*
%TO.N,852*%
%TO.C,D10*%
X223532700Y142341600D03*
D13*
%TO.N,80*%
X213372700Y142341600D03*
%TD*%
D12*
%TO.N,852*%
%TO.C,D11*%
X187337700Y90906600D03*
D13*
%TO.N,72*%
X197497700Y90906600D03*
%TD*%
D12*
%TO.N,14*%
%TO.C,D3*%
X71132700Y287121600D03*
D13*
%TO.N,275*%
X81292700Y287121600D03*
%TD*%
D12*
%TO.N,852*%
%TO.C,D1*%
X47002700Y288391600D03*
D13*
%TO.N,77*%
X47002700Y278231600D03*
%TD*%
D12*
%TO.N,69*%
%TO.C,D8*%
X40652700Y245211600D03*
D13*
%TO.N,70*%
X40652700Y255371600D03*
%TD*%
D12*
%TO.N,275*%
%TO.C,D2*%
X81292700Y289661600D03*
D13*
%TO.N,279*%
X71132700Y289661600D03*
%TD*%
D15*
%TO.N,280*%
%TO.C,D9*%
X141617700Y236321600D03*
D17*
%TO.N,785*%
X151777700Y236321600D03*
%TD*%
D20*
%TO.N,847*%
%TO.C,J6*%
X367652300Y292227000D03*
X320916300Y292227000D03*
D12*
%TO.N,454*%
X359524300Y292227000D03*
%TO.N,615*%
X358254300Y294132000D03*
%TO.N,368*%
X356984300Y292227000D03*
%TO.N,642*%
X355714300Y294132000D03*
%TO.N,512*%
X354444300Y292227000D03*
%TO.N,617*%
X353174300Y294132000D03*
%TO.N,623*%
X351904300Y292227000D03*
%TO.N,362*%
X350634300Y294132000D03*
%TO.N,14*%
X349364300Y292227000D03*
%TO.N,352*%
X348094300Y294132000D03*
%TO.N,14*%
X346824300Y292227000D03*
%TO.N,N/C*%
X345554300Y294132000D03*
%TO.N,228*%
X344284300Y292227000D03*
%TO.N,N/C*%
X343014300Y294132000D03*
%TO.N,14*%
X341744300Y292227000D03*
X340474300Y294132000D03*
%TO.N,588*%
X339204300Y292227000D03*
%TO.N,641*%
X337934300Y294132000D03*
%TO.N,640*%
X336664300Y292227000D03*
%TO.N,639*%
X335394300Y294132000D03*
%TO.N,638*%
X334124300Y292227000D03*
%TO.N,637*%
X332854300Y294132000D03*
%TO.N,636*%
X331584300Y292227000D03*
%TO.N,635*%
X330314300Y294132000D03*
%TO.N,634*%
X329044300Y292227000D03*
%TO.N,14*%
X359524300Y288417000D03*
X358254300Y290322000D03*
X356984300Y288417000D03*
X355714300Y290322000D03*
X354444300Y288417000D03*
X353174300Y290322000D03*
X351904300Y288417000D03*
X350634300Y290322000D03*
X349364300Y288417000D03*
X348094300Y290322000D03*
X346824300Y288417000D03*
%TO.N,N/C*%
X345554300Y290322000D03*
X344284300Y288417000D03*
X343014300Y290322000D03*
%TO.N,229*%
X341744300Y288417000D03*
%TO.N,14*%
X340474300Y290322000D03*
X339204300Y288417000D03*
X337934300Y290322000D03*
X336664300Y288417000D03*
X335394300Y290322000D03*
X334124300Y288417000D03*
X332854300Y290322000D03*
X331584300Y288417000D03*
X330314300Y290322000D03*
D13*
X329044300Y288417000D03*
%TD*%
D12*
%TO.N,406*%
%TO.C,U32*%
X309638700Y185978800D03*
%TO.N,503*%
X307098700Y185978800D03*
%TO.N,221*%
X309638700Y188518800D03*
%TO.N,14*%
X307098700Y188518800D03*
%TO.N,222*%
X309638700Y191058800D03*
%TO.N,504*%
X307098700Y191058800D03*
%TO.N,223*%
X309638700Y193598800D03*
%TO.N,14*%
X307098700Y193598800D03*
%TO.N,224*%
X309638700Y196138800D03*
%TO.N,14*%
X307098700Y196138800D03*
%TO.N,215*%
X309638700Y198678800D03*
%TO.N,14*%
X307098700Y198678800D03*
%TO.N,220*%
X309638700Y201218800D03*
%TO.N,14*%
X307098700Y201218800D03*
%TO.N,218*%
X309638700Y203758800D03*
%TO.N,14*%
X307098700Y203758800D03*
%TO.N,219*%
X309638700Y206298800D03*
%TO.N,14*%
X307098700Y206298800D03*
%TO.N,217*%
X309638700Y208838800D03*
%TO.N,14*%
X307098700Y208838800D03*
%TO.N,N/C*%
X309638700Y211378800D03*
%TO.N,14*%
X307098700Y211378800D03*
%TO.N,N/C*%
X309638700Y213918800D03*
%TO.N,14*%
X307098700Y213918800D03*
%TO.N,216*%
X309638700Y216458800D03*
%TO.N,14*%
X307098700Y216458800D03*
%TO.N,225*%
X309638700Y218998800D03*
%TO.N,14*%
X307098700Y218998800D03*
%TO.N,509*%
X309638700Y221538800D03*
%TO.N,14*%
X307098700Y221538800D03*
%TO.N,N/C*%
X309638700Y224078800D03*
%TO.N,14*%
X307098700Y224078800D03*
%TO.N,508*%
X309638700Y226618800D03*
D13*
%TO.N,14*%
X307098700Y226618800D03*
%TD*%
D21*
%TO.N,N/C*%
%TO.C,U4*%
X231508300Y275310600D03*
X261988300Y275310600D03*
D15*
%TO.N,353*%
X246748300Y260807200D03*
%TO.N,106*%
X249288300Y260807200D03*
D17*
%TO.N,852*%
X251828300Y260807200D03*
%TD*%
D20*
%TO.N,784*%
%TO.C,J9*%
X418350700Y287756600D03*
X451624700Y287756600D03*
D23*
%TO.N,264*%
X442353700Y290296600D03*
%TO.N,14*%
X440067700Y290296600D03*
%TO.N,235*%
X437781700Y290296600D03*
%TO.N,234*%
X435495700Y290296600D03*
%TO.N,410*%
X433209700Y290296600D03*
%TO.N,258*%
X430923700Y290296600D03*
%TO.N,256*%
X428637700Y290296600D03*
%TO.N,254*%
X426351700Y290296600D03*
%TO.N,14*%
X443496700Y287756600D03*
%TO.N,320*%
X441210700Y287756600D03*
%TO.N,14*%
X438924700Y287756600D03*
%TO.N,233*%
X436638700Y287756600D03*
%TO.N,14*%
X434352700Y287756600D03*
%TO.N,232*%
X432066700Y287756600D03*
%TO.N,231*%
X429780700Y287756600D03*
%TO.N,230*%
X427494700Y287756600D03*
%TO.N,14*%
X425208700Y287756600D03*
%TO.N,320*%
X444639700Y285216600D03*
%TO.N,14*%
X442353700Y285216600D03*
%TO.N,N/C*%
X440067700Y285216600D03*
%TO.N,252*%
X437781700Y285216600D03*
%TO.N,250*%
X435495700Y285216600D03*
%TO.N,248*%
X433209700Y285216600D03*
%TO.N,246*%
X430923700Y285216600D03*
%TO.N,244*%
X428637700Y285216600D03*
%TO.N,242*%
X426351700Y285216600D03*
%TD*%
D14*
%TO.N,14*%
%TO.C,J4*%
X223786700Y289331400D03*
X176796700Y289331400D03*
D23*
X215455500Y290779200D03*
X212686900Y290779200D03*
X209943700Y290779200D03*
X207175100Y290779200D03*
X204406500Y290779200D03*
X201663300Y290779200D03*
X198894700Y290779200D03*
X196151500Y290779200D03*
%TO.N,78*%
X193382900Y290779200D03*
%TO.N,N/C*%
X190614300Y290779200D03*
X187871100Y290779200D03*
X185102500Y290779200D03*
X216827100Y287909000D03*
X214083900Y287909000D03*
%TO.N,40*%
X211315300Y287909000D03*
%TO.N,48*%
X208546700Y287909000D03*
%TO.N,41*%
X205803500Y287909000D03*
%TO.N,42*%
X203034900Y287909000D03*
%TO.N,43*%
X200291700Y287909000D03*
%TO.N,74*%
X197523100Y287909000D03*
%TO.N,44*%
X194754500Y287909000D03*
%TO.N,73*%
X192011300Y287909000D03*
%TO.N,45*%
X189242700Y287909000D03*
%TO.N,46*%
X186474100Y287909000D03*
%TO.N,47*%
X183730900Y287909000D03*
%TD*%
D14*
%TO.N,14*%
%TO.C,J23*%
X27063700Y102590600D03*
X27063700Y77597000D03*
D12*
%TO.N,192*%
X24523700Y94919800D03*
%TO.N,139*%
X24523700Y92633800D03*
%TO.N,140*%
X24523700Y90347800D03*
%TO.N,141*%
X24523700Y88061800D03*
%TO.N,142*%
X24523700Y85775800D03*
%TO.N,138*%
X27063700Y93776800D03*
%TO.N,14*%
X27063700Y91490800D03*
%TO.N,N/C*%
X27063700Y89204800D03*
%TO.N,137*%
X27063700Y86918800D03*
%TO.N,165*%
X27063700Y84632800D03*
%TO.N,172*%
X29603700Y94919800D03*
%TO.N,143*%
X29603700Y92633800D03*
%TO.N,144*%
X29603700Y90347800D03*
%TO.N,145*%
X29603700Y88061800D03*
D13*
%TO.N,146*%
X29603700Y85775800D03*
%TD*%
D14*
%TO.N,14*%
%TO.C,J19*%
X27063700Y134569200D03*
X27063700Y109575600D03*
D12*
%TO.N,170*%
X24523700Y126898400D03*
%TO.N,122*%
X24523700Y124612400D03*
%TO.N,123*%
X24523700Y122326400D03*
%TO.N,124*%
X24523700Y120040400D03*
%TO.N,125*%
X24523700Y117754400D03*
%TO.N,126*%
X27063700Y125755400D03*
%TO.N,14*%
X27063700Y123469400D03*
%TO.N,N/C*%
X27063700Y121183400D03*
%TO.N,127*%
X27063700Y118897400D03*
%TO.N,132*%
X27063700Y116611400D03*
%TO.N,171*%
X29603700Y126898400D03*
%TO.N,128*%
X29603700Y124612400D03*
%TO.N,129*%
X29603700Y122326400D03*
%TO.N,130*%
X29603700Y120040400D03*
D13*
%TO.N,131*%
X29603700Y117754400D03*
%TD*%
D31*
%TO.N,14*%
%TO.C,J3*%
X119468900Y292379400D03*
X132981700Y292379400D03*
X126225300Y293166800D03*
D12*
%TO.N,268*%
X129628900Y286816800D03*
%TO.N,267*%
X127114300Y286816800D03*
%TO.N,266*%
X122821700Y286816800D03*
%TO.N,265*%
X129628900Y289356800D03*
%TO.N,14*%
X124929900Y286816800D03*
%TO.N,269*%
X122821700Y289356800D03*
%TO.N,270*%
X127520700Y289356800D03*
D13*
%TO.N,271*%
X124929900Y289356800D03*
%TD*%
D16*
%TO.N,320*%
%TO.C,J14*%
X187642500Y199898000D03*
%TO.N,14*%
X187642500Y203860400D03*
X187642500Y207822800D03*
X187642500Y211785200D03*
X187642500Y215747600D03*
%TO.N,852*%
X187642500Y219710000D03*
X187642500Y223672400D03*
X187642500Y227634800D03*
%TD*%
D20*
%TO.N,14*%
%TO.C,H19*%
X25412700Y244271800D03*
%TD*%
%TO.N,14*%
%TO.C,H18*%
X25412700Y179324000D03*
%TD*%
D22*
%TO.N,N/C*%
%TO.C,H13*%
X42252900Y274294600D03*
%TD*%
%TO.N,N/C*%
%TO.C,H12*%
X177253900Y267309600D03*
%TD*%
D14*
%TO.N,N/C*%
%TO.C,H11*%
X285254700Y278815800D03*
%TD*%
%TO.N,N/C*%
%TO.C,H10*%
X394220700Y287832800D03*
%TD*%
%TO.N,N/C*%
%TO.C,H9*%
X177253900Y260832600D03*
%TD*%
%TO.N,14*%
%TO.C,H2*%
X195745100Y51816000D03*
%TD*%
D16*
%TO.N,14*%
%TO.C,H1*%
X21247100Y51816000D03*
%TD*%
D32*
%TO.N,853*%
X347992700Y268706600D03*
X367677700Y240258600D03*
X374688100Y231749600D03*
X396379700Y257403600D03*
X387870700Y259181600D03*
X387870700Y259181600D03*
%TO.N,852*%
X350532700Y245592600D03*
X375094500Y227888800D03*
X345706700Y273659600D03*
X170192700Y97256600D03*
X165747700Y97256600D03*
X160667700Y97256600D03*
X199428100Y136880600D03*
X435622700Y234035600D03*
X435495700Y197713600D03*
X201053700Y256133600D03*
X213499700Y256133600D03*
X213372700Y246100600D03*
X213499700Y256133600D03*
X213499700Y256133600D03*
X237502700Y263880600D03*
X237502700Y263880600D03*
X258584700Y259054600D03*
X258584700Y259054600D03*
X258584700Y259054600D03*
X285254700Y250672600D03*
X276237700Y72110600D03*
X269887700Y97129600D03*
X148602700Y75285600D03*
X148602700Y75285600D03*
X149872700Y88747600D03*
X149872700Y88747600D03*
X149872700Y88747600D03*
X146062700Y88747600D03*
X146062700Y88747600D03*
X60972700Y86207600D03*
X87642700Y285597600D03*
X60972700Y86207600D03*
X40779700Y278739600D03*
X62242700Y289407600D03*
X87642700Y285597600D03*
X87642700Y285597600D03*
X73672700Y284073600D03*
X73672700Y284073600D03*
X73672700Y284073600D03*
X69227700Y278993600D03*
X62242700Y289407600D03*
X65417700Y284073600D03*
X65417700Y284073600D03*
X69227700Y278993600D03*
X69227700Y278993600D03*
X63512700Y273532600D03*
X63512700Y273532600D03*
X54622700Y264515600D03*
X54622700Y264515600D03*
X54622700Y264515600D03*
X57797700Y262102600D03*
X61607700Y262102600D03*
X59194700Y259943600D03*
X57797700Y262102600D03*
X59194700Y259943600D03*
X59194700Y259943600D03*
X65417700Y248640600D03*
X65417700Y248640600D03*
X87642700Y229463600D03*
X45097700Y173202600D03*
X45097700Y173202600D03*
X52082700Y136880600D03*
X180352700Y222605600D03*
X178701700Y242671600D03*
X178701700Y242671600D03*
X161683700Y238607600D03*
X156730700Y265658600D03*
X156730700Y265658600D03*
X144792700Y255879600D03*
X144030700Y244068600D03*
X166382700Y232130600D03*
X161683700Y238607600D03*
X161683700Y238607600D03*
X149237700Y244449600D03*
X140982700Y245592600D03*
X144030700Y244068600D03*
X144030700Y244068600D03*
X144030700Y244068600D03*
X149237700Y244449600D03*
X149237700Y244449600D03*
X147967700Y239369600D03*
X147967700Y239369600D03*
X60972700Y86207600D03*
X60972700Y86207600D03*
X64147700Y86207600D03*
X64147700Y86207600D03*
X79768700Y82524600D03*
X65925700Y169138600D03*
X65925700Y169138600D03*
X71132700Y136880600D03*
X106692700Y74142600D03*
X111137700Y74142600D03*
X111137700Y74142600D03*
X82308700Y66268600D03*
X82308700Y66268600D03*
X82308700Y66268600D03*
X79768700Y82524600D03*
X87007700Y86207600D03*
X83197700Y87858600D03*
X79768700Y82524600D03*
X83197700Y87858600D03*
X83197700Y87858600D03*
X82562700Y101447600D03*
X48272700Y127482600D03*
X48272700Y127482600D03*
X57162700Y136753600D03*
X52082700Y136880600D03*
X57162700Y136753600D03*
X57162700Y136753600D03*
X57162700Y136753600D03*
X71132700Y136880600D03*
X72402700Y127482600D03*
X80022700Y127609600D03*
X71132700Y136880600D03*
X76212700Y136753600D03*
X76212700Y136753600D03*
X76212700Y136753600D03*
X81292700Y136753600D03*
X81292700Y136753600D03*
X80022700Y127609600D03*
X80022700Y127609600D03*
X87007700Y101447600D03*
X82562700Y101447600D03*
X82562700Y101447600D03*
X103517700Y117830600D03*
X130822700Y111607600D03*
X130822700Y111607600D03*
X135267700Y115925600D03*
X135267700Y115925600D03*
X136791700Y123291600D03*
X130695700Y125450600D03*
X130695700Y125450600D03*
X136791700Y123291600D03*
X136791700Y123291600D03*
X136791700Y123291600D03*
X130822700Y142595600D03*
X111264700Y87858600D03*
X111264700Y87858600D03*
X112407700Y99542600D03*
X112407700Y99542600D03*
X123202700Y98272600D03*
X118757700Y115925600D03*
X118757700Y115925600D03*
X113677700Y116052600D03*
X113677700Y116052600D03*
X111137700Y115925600D03*
X111137700Y115925600D03*
X110375700Y126847600D03*
X130822700Y142595600D03*
X125107700Y146405600D03*
X125107700Y146405600D03*
X118122700Y138277600D03*
X103517700Y117830600D03*
X110375700Y126847600D03*
X112407700Y129260600D03*
X110375700Y126847600D03*
X113296700Y124561600D03*
X105803700Y123672600D03*
X105803700Y123672600D03*
X105803700Y123672600D03*
X110375700Y126847600D03*
X110375700Y126847600D03*
X105803700Y130276600D03*
X105803700Y130276600D03*
X111645700Y138277600D03*
X111645700Y138277600D03*
X111645700Y138277600D03*
X114947700Y136880600D03*
X114947700Y136880600D03*
X118122700Y138277600D03*
X118122700Y138277600D03*
X130822700Y178790600D03*
X102882700Y229463600D03*
X102882700Y229463600D03*
X105422700Y235940600D03*
X113550700Y240258600D03*
X113550700Y240258600D03*
X105422700Y243560600D03*
X105422700Y243560600D03*
X105422700Y243560600D03*
X107708700Y246481600D03*
X107708700Y246481600D03*
X107708700Y246481600D03*
X105422700Y235940600D03*
X105422700Y235940600D03*
X93992700Y238480600D03*
X93992700Y238480600D03*
X87642700Y229463600D03*
X87642700Y229463600D03*
X83832700Y216890600D03*
X83832700Y216890600D03*
X83832700Y216890600D03*
X83832700Y199491600D03*
X67322700Y193268600D03*
X73672700Y190601600D03*
X73672700Y190601600D03*
X73672700Y190601600D03*
X83832700Y199491600D03*
X83832700Y199491600D03*
X119392700Y187680600D03*
X130822700Y178790600D03*
X125742700Y181711600D03*
X125742700Y181711600D03*
X125742700Y197332600D03*
X118122700Y197840600D03*
X121932700Y197967600D03*
X121932700Y205841600D03*
X123202700Y206984600D03*
X123202700Y206984600D03*
X121932700Y197967600D03*
X119392700Y187680600D03*
X125742700Y197332600D03*
X121932700Y197967600D03*
X125742700Y197332600D03*
X125742700Y197332600D03*
X125742700Y197332600D03*
X127012700Y197332600D03*
X127012700Y197332600D03*
X130822700Y197332600D03*
X130822700Y197332600D03*
X137553700Y212318600D03*
X144919700Y209651600D03*
X137553700Y212318600D03*
X144919700Y209651600D03*
X144919700Y209651600D03*
X144919700Y209651600D03*
X148602700Y206984600D03*
X148602700Y206984600D03*
X146062700Y196951600D03*
X146062700Y196951600D03*
X146062700Y195681600D03*
X146062700Y195681600D03*
X146062700Y192506600D03*
X146062700Y192506600D03*
X157492700Y132562600D03*
X157492700Y132562600D03*
X172351700Y128371600D03*
X202577700Y95097600D03*
X181622700Y79730600D03*
X181622700Y79730600D03*
X178447700Y99669600D03*
X175272700Y149580600D03*
X178193700Y140182600D03*
X192239900Y133832600D03*
X189242700Y155422600D03*
X178193700Y140182600D03*
X182486300Y140360400D03*
X184111900Y155448000D03*
X178193700Y140182600D03*
X176415700Y134340600D03*
X176415700Y134340600D03*
X177685700Y127990600D03*
X177685700Y127990600D03*
X172351700Y128371600D03*
X172021500Y120548400D03*
X180225700Y107543600D03*
X171996100Y120548400D03*
X178422300Y99695000D03*
X180225700Y107543600D03*
X182689500Y113665000D03*
X190131700Y109575600D03*
X194830700Y109575600D03*
X200672700Y109575600D03*
X205117700Y113512600D03*
X194322700Y126085600D03*
X201180700Y129387600D03*
X201180700Y129387600D03*
X203339700Y127609600D03*
X207403700Y121005600D03*
X210832700Y119227600D03*
X203339700Y127609600D03*
X200748900Y133858000D03*
X203847700Y141452600D03*
X206641700Y150596600D03*
X206641700Y150596600D03*
X206641700Y150596600D03*
X224802700Y176377600D03*
X426732700Y159740600D03*
X429907700Y159740600D03*
X429907700Y159740600D03*
X428891700Y151485600D03*
X428891700Y151485600D03*
X428002700Y139928600D03*
X428002700Y139928600D03*
X428002700Y139928600D03*
X405777700Y140817600D03*
X225564700Y197713600D03*
X391172700Y139547600D03*
X399427700Y131165600D03*
X399427700Y131165600D03*
X405777700Y140817600D03*
X405777700Y140817600D03*
X405777700Y140817600D03*
X405777700Y140817600D03*
X406285700Y154152600D03*
X406285700Y154152600D03*
X406285700Y154152600D03*
X406412700Y168122600D03*
X406412700Y168122600D03*
X406412700Y168122600D03*
X411746700Y186537600D03*
X440702700Y200888600D03*
X438289700Y197332600D03*
X438289700Y197332600D03*
X435495700Y197713600D03*
X435495700Y197713600D03*
X418096700Y192379600D03*
X420382700Y181711600D03*
X418096700Y192379600D03*
X418096700Y192379600D03*
X409714700Y194030600D03*
X404888700Y198983600D03*
X409714700Y194030600D03*
X409714700Y194030600D03*
X401713700Y195046600D03*
X411746700Y186537600D03*
X411746700Y186537600D03*
X408952700Y190347600D03*
X408952700Y190347600D03*
X405904700Y188569600D03*
X405904700Y188569600D03*
X401713700Y195046600D03*
X401713700Y195046600D03*
X393585700Y202793600D03*
X393585700Y202793600D03*
X383679700Y211556600D03*
X381012700Y181584600D03*
X381012700Y181584600D03*
X373392700Y193522600D03*
X344309700Y191109600D03*
X370852700Y226034600D03*
X370852700Y226034600D03*
X362978700Y221843600D03*
X356755700Y226034600D03*
X356755700Y226034600D03*
X362978700Y221843600D03*
X362978700Y221843600D03*
X366915700Y218414600D03*
X366915700Y218414600D03*
X383679700Y211556600D03*
X380758700Y201142600D03*
X371233700Y199999600D03*
X383679700Y211556600D03*
X383679700Y211556600D03*
X374662700Y220700600D03*
X374662700Y220700600D03*
X368693700Y207619600D03*
X368693700Y207619600D03*
X377075700Y206984600D03*
X377075700Y206984600D03*
X371233700Y199999600D03*
X371233700Y199999600D03*
X373392700Y193522600D03*
X373392700Y193522600D03*
X366280700Y195427600D03*
X366280700Y195427600D03*
X366280700Y195427600D03*
X358025700Y194919600D03*
X358025700Y194919600D03*
X344309700Y191109600D03*
X341769700Y218160600D03*
X341769700Y212572600D03*
X341769700Y212572600D03*
X341769700Y212572600D03*
X347357700Y207873600D03*
X347357700Y207873600D03*
X346087700Y207111600D03*
X346087700Y207111600D03*
X346087700Y204190600D03*
X346087700Y204190600D03*
X344309700Y191109600D03*
X344309700Y191109600D03*
X344309700Y191109600D03*
X323862700Y208127600D03*
X316496700Y266801600D03*
X326402700Y260832600D03*
X334022700Y256768600D03*
X326402700Y260832600D03*
X326402700Y260832600D03*
X326402700Y260832600D03*
X292874700Y255498600D03*
X292874700Y255498600D03*
X285254700Y250672600D03*
X285254700Y250672600D03*
X283222700Y239877600D03*
X283222700Y239877600D03*
X285762700Y225399600D03*
X251980700Y186664600D03*
X238264700Y211429600D03*
X238264700Y211429600D03*
X227215700Y211429600D03*
X227215700Y211429600D03*
X225564700Y197713600D03*
X225564700Y197713600D03*
X225564700Y197713600D03*
X226580700Y185648600D03*
X224802700Y176377600D03*
X224802700Y176377600D03*
X224929700Y181203600D03*
X224929700Y181203600D03*
X226580700Y185648600D03*
X226580700Y185648600D03*
X237629700Y185013600D03*
X237629700Y185013600D03*
X251980700Y186664600D03*
X251980700Y186664600D03*
X256171700Y199364600D03*
X256171700Y199364600D03*
X256171700Y199364600D03*
X256171700Y199364600D03*
X251980700Y209778600D03*
X251980700Y209778600D03*
X295922700Y228320600D03*
X285762700Y225399600D03*
X275729700Y217398600D03*
X275729700Y214350600D03*
X275729700Y217398600D03*
X275729700Y217398600D03*
X285762700Y225399600D03*
X285762700Y225399600D03*
X285762700Y225399600D03*
X291477700Y211429600D03*
X291350700Y211429600D03*
X296938700Y216890600D03*
X303542700Y188950600D03*
X323862700Y208127600D03*
X323862700Y208127600D03*
X313702700Y196570600D03*
X313702700Y196570600D03*
X303542700Y188950600D03*
X313702700Y182600600D03*
X302272700Y181965600D03*
X303542700Y188950600D03*
X302272700Y181965600D03*
X302272700Y181965600D03*
X365264700Y160883600D03*
X365264700Y160883600D03*
X361962700Y158470600D03*
X361962700Y158470600D03*
X304812700Y147802600D03*
X304812700Y147802600D03*
X287032700Y135102600D03*
X285381700Y137007600D03*
X287032700Y135102600D03*
X287032700Y135102600D03*
X287032700Y135102600D03*
X258457700Y103352600D03*
X269887700Y97129600D03*
X269887700Y97129600D03*
X258457700Y103352600D03*
X258457700Y103352600D03*
X255917700Y97129600D03*
X255917700Y97129600D03*
X254647700Y97129600D03*
X254647700Y97129600D03*
X253377700Y97129600D03*
X253377700Y97129600D03*
X250837700Y97129600D03*
X250837700Y97129600D03*
%TO.N,851*%
X247662700Y166217600D03*
X244741700Y97637600D03*
X191147700Y95351600D03*
X180911500Y69316600D03*
%TO.N,843*%
X177431700Y81889600D03*
X203720700Y81889600D03*
X203720700Y145770600D03*
%TO.N,839*%
X205244700Y108559600D03*
%TO.N,838*%
X150710900Y71475600D03*
X157492700Y124815600D03*
X157492700Y124815600D03*
%TO.N,837*%
X124091700Y103987600D03*
%TO.N,836*%
X372122700Y194157600D03*
X371487700Y135991600D03*
X164350700Y137515600D03*
X140982700Y135890000D03*
X139712700Y92938600D03*
X140982700Y154914600D03*
X103644700Y197586600D03*
%TO.N,835*%
X167144700Y251180600D03*
X218833700Y249148600D03*
X223608900Y228422200D03*
X278803100Y249047000D03*
X352818700Y252730000D03*
X359803700Y252730000D03*
%TO.N,834*%
X204863700Y147548600D03*
X206641700Y172440600D03*
X351294700Y172440600D03*
X354342700Y200634600D03*
%TO.N,833*%
X176415700Y117576600D03*
X170954700Y189077600D03*
X61353700Y188569600D03*
%TO.N,832*%
X177685700Y117957600D03*
X171462700Y190982600D03*
X60210700Y192633600D03*
%TO.N,831*%
X178447700Y120624600D03*
X221424500Y124053600D03*
X221424500Y133070600D03*
%TO.N,830*%
X180098700Y121640600D03*
X171335700Y138404600D03*
X126885700Y138277600D03*
X130568700Y121767600D03*
X138061700Y125196600D03*
X126809500Y138277600D03*
X130568700Y121767600D03*
X138061700Y125196600D03*
X439432700Y231876600D03*
X439432700Y231876600D03*
X439432700Y201396600D03*
X386600700Y202666600D03*
X315861700Y270611600D03*
X312178700Y234035600D03*
X349008700Y202412600D03*
X284111700Y231495600D03*
X283222700Y209651600D03*
X251345700Y212191600D03*
X192163700Y212445600D03*
X174383700Y239750600D03*
X75958700Y247624600D03*
X87642700Y198475600D03*
X120154700Y237845600D03*
X120662700Y201904600D03*
%TO.N,829*%
X183908700Y100177600D03*
X272300700Y104114600D03*
X272300700Y104114600D03*
X272300700Y86080600D03*
%TO.N,828*%
X203466700Y109067600D03*
X190004700Y107924600D03*
%TO.N,827*%
X249567700Y209270600D03*
X247154700Y98272600D03*
X84848700Y97129600D03*
X84848700Y97129600D03*
%TO.N,826*%
X178320700Y132054600D03*
X81419700Y132689600D03*
%TO.N,825*%
X200037700Y145389600D03*
X159143700Y148056600D03*
X96913700Y148437600D03*
X96913700Y136753600D03*
%TO.N,824*%
X189623700Y123545600D03*
X103263700Y124053600D03*
%TO.N,823*%
X187210700Y146278600D03*
X186702700Y136245600D03*
X67957700Y134213600D03*
%TO.N,822*%
X143776700Y141325600D03*
X98056700Y138277600D03*
%TO.N,821*%
X83451700Y208381600D03*
X84721700Y140944600D03*
X174129700Y141833600D03*
X380885700Y193649600D03*
X184035700Y162407600D03*
X174129700Y141833600D03*
X174129700Y141833600D03*
X84721700Y140944600D03*
%TO.N,820*%
X167525700Y120497600D03*
X154825700Y202793600D03*
X71132700Y203047600D03*
%TO.N,819*%
X137172700Y90271600D03*
X262775700Y174726600D03*
X262775700Y129387600D03*
X176415700Y128879600D03*
X176415700Y128879600D03*
X139585700Y124942600D03*
X102628700Y195300600D03*
X103771700Y152755600D03*
%TO.N,818*%
X185305700Y58267600D03*
X185534300Y133832600D03*
%TO.N,817*%
X82308700Y86207600D03*
X83324700Y78079600D03*
X83324700Y78079600D03*
X87261700Y92811600D03*
X179209700Y91541600D03*
X179209700Y136118600D03*
%TO.N,816*%
X59829700Y75920600D03*
X63131700Y90779600D03*
X63131700Y90779600D03*
X178193700Y86207600D03*
X182257700Y138023600D03*
%TO.N,815*%
X163080700Y135356600D03*
X163080700Y128371600D03*
X121678700Y123926600D03*
%TO.N,814*%
X137172700Y133832600D03*
X137172700Y128625600D03*
X132473700Y128625600D03*
X124091700Y128752600D03*
%TO.N,813*%
X137172700Y135102600D03*
%TO.N,812*%
X287667700Y169646600D03*
X203720700Y172313600D03*
X80403700Y172440600D03*
X80403700Y209524600D03*
%TO.N,811*%
X78752700Y209651600D03*
X78752700Y209651600D03*
%TO.N,810*%
X284492700Y169646600D03*
X153174700Y171805600D03*
X152920700Y163423600D03*
X146316700Y100685600D03*
X152920700Y163423600D03*
X115455700Y201142600D03*
%TO.N,809*%
X116344700Y249656600D03*
X128282700Y129768600D03*
X125742700Y163423600D03*
%TO.N,808*%
X377075700Y199618600D03*
X376313700Y166217600D03*
X83451700Y163550600D03*
%TO.N,807*%
X243852700Y95224600D03*
X243852700Y98399600D03*
X245757700Y126466600D03*
X283222700Y126466600D03*
X341007700Y129006600D03*
X377202700Y128371600D03*
X376948700Y197713600D03*
X95643700Y163550600D03*
X95897700Y128371600D03*
X100342700Y128371600D03*
X105422700Y101066600D03*
X168287700Y97256600D03*
X107708700Y205460600D03*
%TO.N,806*%
X96405700Y173837600D03*
X96405700Y225653600D03*
%TO.N,805*%
X214769700Y213334600D03*
X346087700Y198983600D03*
X346087700Y198983600D03*
%TO.N,804*%
X353453700Y226034600D03*
X352310700Y248767600D03*
X321703700Y253339600D03*
%TO.N,803*%
X146088100Y69316600D03*
X147332700Y76936600D03*
X81038700Y84937600D03*
%TO.N,802*%
X200799700Y136829800D03*
X199529700Y155295600D03*
X120535700Y155295600D03*
%TO.N,801*%
X276745700Y137896600D03*
X223405700Y137769600D03*
X223913700Y178409600D03*
X223913700Y178409600D03*
%TO.N,800*%
X216674700Y106019600D03*
%TO.N,799*%
X242328700Y118973600D03*
X234581700Y185013600D03*
X234581700Y185013600D03*
%TO.N,798*%
X188861700Y86080600D03*
X271030700Y84810600D03*
X271030700Y84810600D03*
%TO.N,797*%
X100342700Y96367600D03*
X98310700Y154406600D03*
X65290700Y158978600D03*
X98310700Y154406600D03*
X65290700Y158978600D03*
X67576700Y169138600D03*
X65290700Y158978600D03*
%TO.N,796*%
X116090700Y117957600D03*
X115328700Y153009600D03*
X115328700Y153009600D03*
X196735700Y151485600D03*
X197700900Y140055600D03*
X197700900Y140055600D03*
X196735700Y151485600D03*
X260743700Y152501600D03*
X264553700Y195554600D03*
X372859300Y199339200D03*
%TO.N,795*%
X347357700Y201523600D03*
X344690700Y151485600D03*
X158381700Y119481600D03*
X158381700Y119481600D03*
X155460700Y153136600D03*
X101485700Y116941600D03*
%TO.N,794*%
X118122700Y93446600D03*
X120662700Y109956600D03*
X202577700Y83921600D03*
X200037700Y99796600D03*
%TO.N,793*%
X205752700Y175615600D03*
X201434700Y124434600D03*
X171081700Y125069600D03*
X167398700Y125069600D03*
X165493700Y154152600D03*
X100088700Y154914600D03*
X100088700Y132181600D03*
X120789700Y191871600D03*
X120789700Y191871600D03*
X101104700Y191871600D03*
X100088700Y132181600D03*
%TO.N,792*%
X221627700Y215087200D03*
X232422700Y215620600D03*
X232422700Y215620600D03*
%TO.N,791*%
X207657700Y107162600D03*
%TO.N,790*%
X250837700Y217271600D03*
X295922700Y251815600D03*
X265061700Y253339600D03*
%TO.N,789*%
X218452700Y197078600D03*
%TO.N,788*%
X218452700Y145262600D03*
X219722700Y117322600D03*
X219722700Y117322600D03*
%TO.N,787*%
X221246700Y199364600D03*
X219341700Y175107600D03*
X221373700Y142468600D03*
X220992700Y101066600D03*
%TO.N,786*%
X294525700Y230479600D03*
X223405700Y221716600D03*
X195084700Y107924600D03*
X209435700Y116687600D03*
%TO.N,785*%
X158127700Y252069600D03*
X151396700Y232638600D03*
X138442700Y229463600D03*
%TO.N,783*%
X59702700Y165328600D03*
X59702700Y165328600D03*
X264172700Y167868600D03*
X266585700Y254482600D03*
%TO.N,782*%
X51828700Y169138600D03*
X51828700Y169138600D03*
X80403700Y170408600D03*
X261886700Y170662600D03*
X265061700Y256641600D03*
%TO.N,781*%
X422414700Y275691600D03*
X432955700Y264642600D03*
X436257700Y216001600D03*
X404761700Y222859600D03*
X374535700Y224764600D03*
%TO.N,780*%
X376313700Y226923600D03*
X390918700Y224383600D03*
X422287700Y252831600D03*
%TO.N,779*%
X368439700Y221843600D03*
X389013700Y223240600D03*
X418096700Y250037600D03*
%TO.N,778*%
X381012700Y137642600D03*
X187540900Y138023600D03*
X381012700Y137642600D03*
X432066700Y139928600D03*
%TO.N,777*%
X259346700Y203301600D03*
%TO.N,775*%
X119392700Y253720600D03*
%TO.N,774*%
X130822700Y265404600D03*
%TO.N,773*%
X127647700Y250545600D03*
X126504700Y261848600D03*
%TO.N,772*%
X438162700Y206476600D03*
%TO.N,771*%
X413905700Y205460600D03*
X413905700Y200507600D03*
X413905700Y200507600D03*
X413905700Y205460600D03*
X433971700Y206476600D03*
%TO.N,769*%
X302272700Y196316600D03*
X87896700Y196062600D03*
%TO.N,768*%
X181444900Y114096800D03*
X170954700Y231241600D03*
%TO.N,767*%
X260743700Y193268600D03*
X113042700Y194665600D03*
X113042700Y208381600D03*
%TO.N,766*%
X177431700Y114274600D03*
X168541700Y234162600D03*
%TO.N,765*%
X372757700Y236702600D03*
X368947700Y240258600D03*
%TO.N,762*%
X388632700Y238988600D03*
%TO.N,761*%
X383425700Y235432600D03*
%TO.N,759*%
X389902700Y244068600D03*
%TO.N,757*%
X374434100Y271195800D03*
X376948700Y275056600D03*
%TO.N,755*%
X406666700Y238988600D03*
%TO.N,754*%
X402602700Y238480600D03*
%TO.N,752*%
X92468700Y229463600D03*
X90817700Y254101600D03*
%TO.N,751*%
X142252700Y259562600D03*
%TO.N,750*%
X149745700Y259943600D03*
%TO.N,749*%
X151269700Y250418600D03*
%TO.N,748*%
X143649700Y251942600D03*
%TO.N,747*%
X152285700Y248640600D03*
X143649700Y261340600D03*
%TO.N,746*%
X136537700Y247116600D03*
X137172700Y261975600D03*
X137172700Y261975600D03*
%TO.N,745*%
X129552700Y243433600D03*
X128790700Y261848600D03*
X128790700Y261848600D03*
%TO.N,744*%
X120154700Y268706600D03*
X120154700Y271119600D03*
%TO.N,743*%
X124345700Y274294600D03*
X123964700Y268706600D03*
%TO.N,742*%
X116344700Y268706600D03*
X116344700Y271119600D03*
%TO.N,741*%
X127774700Y268706600D03*
X127774700Y272770600D03*
X127774700Y272770600D03*
%TO.N,740*%
X112915700Y274294600D03*
X112534700Y268706600D03*
%TO.N,739*%
X131584700Y268706600D03*
X131584700Y271119600D03*
%TO.N,738*%
X135394700Y268706600D03*
X135394700Y273532600D03*
X135394700Y273532600D03*
%TO.N,737*%
X111518700Y252577600D03*
%TO.N,736*%
X106946700Y251561600D03*
X96532700Y251561600D03*
X90182700Y251942600D03*
%TO.N,735*%
X435622700Y240766600D03*
%TO.N,734*%
X365391700Y236194600D03*
X365391700Y236194600D03*
%TO.N,733*%
X427113700Y234035600D03*
X427113700Y234035600D03*
%TO.N,732*%
X428383700Y234035600D03*
%TO.N,731*%
X425081700Y239877600D03*
%TO.N,730*%
X414540700Y213715600D03*
%TO.N,728*%
X429272700Y226796600D03*
%TO.N,727*%
X426732700Y224256600D03*
%TO.N,726*%
X418604700Y223748600D03*
%TO.N,725*%
X423938700Y223113600D03*
%TO.N,724*%
X419747700Y233781600D03*
%TO.N,723*%
X422922700Y227431600D03*
%TO.N,722*%
X322084700Y203301600D03*
X321830700Y197078600D03*
%TO.N,721*%
X321068700Y200888600D03*
%TO.N,720*%
X330974700Y198094600D03*
%TO.N,719*%
X331736700Y208127600D03*
%TO.N,718*%
X375932700Y220700600D03*
%TO.N,717*%
X60972700Y127609600D03*
%TO.N,716*%
X61988700Y136753600D03*
%TO.N,715*%
X83705700Y125958600D03*
%TO.N,714*%
X80022700Y136753600D03*
%TO.N,713*%
X55765700Y131165600D03*
X55765700Y131165600D03*
%TO.N,712*%
X59702700Y136753600D03*
%TO.N,711*%
X77482700Y127609600D03*
X77482700Y127609600D03*
%TO.N,710*%
X78752700Y136753600D03*
%TO.N,709*%
X227469700Y119608600D03*
X229628700Y215620600D03*
%TO.N,708*%
X287032700Y226923600D03*
X286270700Y258038600D03*
X286270700Y258038600D03*
%TO.N,707*%
X296938700Y219303600D03*
%TO.N,706*%
X304812700Y218414600D03*
X309130700Y274040600D03*
X312432700Y274040600D03*
X312432700Y274040600D03*
X309130700Y274040600D03*
%TO.N,705*%
X230136700Y180695600D03*
X231025700Y220192600D03*
%TO.N,704*%
X230771700Y185013600D03*
X233819700Y222224600D03*
%TO.N,703*%
X232676700Y180568600D03*
X235470700Y220827600D03*
%TO.N,702*%
X233311700Y185013600D03*
X234581700Y224002600D03*
%TO.N,701*%
X236232700Y185013600D03*
X236232700Y194665600D03*
X286778700Y195554600D03*
X286524700Y219811600D03*
%TO.N,700*%
X241566700Y186283600D03*
X262775700Y219684600D03*
%TO.N,699*%
X248170700Y204063600D03*
X280809700Y204952600D03*
%TO.N,698*%
X237629700Y191490600D03*
X266585700Y190855600D03*
X271030700Y210413600D03*
%TO.N,697*%
X251980700Y189712600D03*
X254393700Y211937600D03*
%TO.N,696*%
X248170700Y188823600D03*
X253123700Y212318600D03*
%TO.N,695*%
X251980700Y188061600D03*
X261378700Y213334600D03*
%TO.N,694*%
X250329700Y206349600D03*
X267093700Y206349600D03*
%TO.N,693*%
X245503700Y217271600D03*
X284492700Y209651600D03*
%TO.N,692*%
X244614700Y209905600D03*
X285762700Y209651600D03*
%TO.N,691*%
X271792700Y217271600D03*
X280174700Y211683600D03*
%TO.N,690*%
X274459700Y217525600D03*
X281698700Y211810600D03*
%TO.N,689*%
X275729700Y219303600D03*
X280047700Y214350600D03*
%TO.N,686*%
X244741700Y211429600D03*
%TO.N,685*%
X247408700Y205714600D03*
%TO.N,684*%
X186829700Y115290600D03*
%TO.N,683*%
X187210700Y107975400D03*
%TO.N,682*%
X215150700Y119100600D03*
%TO.N,681*%
X185940700Y108356400D03*
%TO.N,680*%
X202069700Y118465600D03*
%TO.N,679*%
X218198700Y125450600D03*
%TO.N,678*%
X202958700Y107289600D03*
%TO.N,677*%
X176415700Y142595600D03*
%TO.N,676*%
X223532700Y117322600D03*
%TO.N,675*%
X176034700Y107924600D03*
%TO.N,674*%
X196227700Y109575600D03*
%TO.N,673*%
X214642700Y117449600D03*
%TO.N,672*%
X207403700Y126720600D03*
X209435700Y114528600D03*
%TO.N,671*%
X212864700Y129387600D03*
%TO.N,670*%
X214134700Y140436600D03*
%TO.N,669*%
X218325700Y136499600D03*
%TO.N,668*%
X198259700Y145389600D03*
%TO.N,667*%
X196608700Y145770600D03*
%TO.N,666*%
X191274700Y107924600D03*
X191274700Y178409600D03*
%TO.N,664*%
X155714700Y260705600D03*
%TO.N,663*%
X109740700Y204571600D03*
X111645700Y226161600D03*
%TO.N,662*%
X308495700Y128752600D03*
X249821700Y127863600D03*
X249821700Y163550600D03*
X182257700Y164947600D03*
X181495700Y219049600D03*
X91833700Y219684600D03*
%TO.N,661*%
X111645700Y220827600D03*
X90182700Y220319600D03*
%TO.N,659*%
X71132700Y283692600D03*
%TO.N,658*%
X64147700Y254863600D03*
X66941700Y278993600D03*
%TO.N,657*%
X70370700Y259181600D03*
%TO.N,656*%
X64274700Y259943600D03*
%TO.N,655*%
X61607700Y255879600D03*
%TO.N,654*%
X65417700Y254863600D03*
%TO.N,653*%
X105549700Y206095600D03*
X105422700Y220319600D03*
%TO.N,651*%
X157238700Y231876600D03*
X156476700Y243814600D03*
%TO.N,650*%
X112153700Y205714600D03*
X112661700Y227431600D03*
X160032700Y227431600D03*
X160286700Y258419600D03*
%TO.N,649*%
X166382700Y238480600D03*
%TO.N,648*%
X307479700Y134975600D03*
%TO.N,645*%
X250837700Y95732600D03*
%TO.N,644*%
X348424500Y197332600D03*
X349897700Y170027600D03*
X229374700Y174980600D03*
X212356700Y178282600D03*
X212610700Y178282600D03*
X212610700Y162915600D03*
X192544700Y163550600D03*
X178955700Y164312600D03*
X127520700Y163804600D03*
X127520700Y163804600D03*
X94119700Y162026600D03*
X97167700Y130276600D03*
X103517700Y130276600D03*
X107327700Y101066600D03*
X163207700Y93446600D03*
%TO.N,642*%
X349897700Y278612600D03*
%TO.N,641*%
X321322700Y269087600D03*
%TO.N,640*%
X325513700Y269976600D03*
%TO.N,639*%
X326402700Y274421600D03*
%TO.N,638*%
X329831700Y274421600D03*
%TO.N,637*%
X332371700Y274421600D03*
%TO.N,636*%
X347738700Y272135600D03*
X327672700Y268960600D03*
%TO.N,635*%
X341642700Y271500600D03*
%TO.N,634*%
X343166700Y268071600D03*
%TO.N,633*%
X377456700Y211048600D03*
X401586700Y208381600D03*
X445782700Y233146600D03*
%TO.N,632*%
X408571700Y204952600D03*
X409968700Y201777600D03*
X409968700Y201777600D03*
X408571700Y204952600D03*
X440575700Y206476600D03*
%TO.N,631*%
X176415700Y136372600D03*
X160667700Y234924600D03*
X92087700Y239623600D03*
%TO.N,630*%
X122567700Y247497600D03*
X190639700Y246481600D03*
X192290700Y129387600D03*
%TO.N,629*%
X165620700Y136118600D03*
X154444700Y233908600D03*
%TO.N,628*%
X178066700Y129768600D03*
X178574700Y149580600D03*
X137426700Y244830600D03*
%TO.N,627*%
X201307700Y132308600D03*
X198640700Y244322600D03*
X97421700Y242925600D03*
%TO.N,626*%
X385330700Y205460600D03*
X400062700Y202920600D03*
X411873700Y202793600D03*
X444512700Y204571600D03*
X444512700Y242036600D03*
X428002700Y242036600D03*
X427367700Y247751600D03*
%TO.N,625*%
X412889700Y206730600D03*
X413270700Y196189600D03*
X413270700Y196189600D03*
X447052700Y203936600D03*
X447052700Y243306600D03*
X425462700Y243941600D03*
X445909700Y251815600D03*
%TO.N,624*%
X409714700Y196189600D03*
X405650700Y208000600D03*
X405650700Y208000600D03*
X448322700Y220446600D03*
X448957700Y242671600D03*
X415302700Y249656600D03*
%TO.N,623*%
X352818700Y262483600D03*
%TO.N,622*%
X169811700Y245973600D03*
X218198700Y247116600D03*
X223456500Y227101400D03*
X277863300Y247954800D03*
%TO.N,621*%
X382028700Y192379600D03*
X381901700Y176504600D03*
X382028700Y192379600D03*
X381901700Y176504600D03*
X393839700Y176504600D03*
X381901700Y176504600D03*
X381901700Y176504600D03*
X382028700Y192379600D03*
X239407700Y192125600D03*
X242328700Y208508600D03*
X242328700Y208508600D03*
X239407700Y144246600D03*
X190004700Y144754600D03*
X208419700Y143611600D03*
X190004700Y144754600D03*
X190004700Y144754600D03*
X104914700Y180949600D03*
X77355700Y200761600D03*
X77355700Y200761600D03*
X105803700Y200761600D03*
X104914700Y180949600D03*
X102882700Y147675600D03*
X102882700Y137261600D03*
X102882700Y137261600D03*
%TO.N,620*%
X201688700Y128117600D03*
%TO.N,619*%
X217690700Y123164600D03*
%TO.N,618*%
X209435700Y126212600D03*
%TO.N,614*%
X404634700Y215239600D03*
X429272700Y214604600D03*
X418858700Y251815600D03*
%TO.N,613*%
X372503700Y221843600D03*
X390918700Y222097600D03*
X424827700Y213334600D03*
X416572700Y248386600D03*
%TO.N,612*%
X405904700Y216001600D03*
X433971700Y213842600D03*
%TO.N,611*%
X153555700Y251688600D03*
X96405700Y253085600D03*
%TO.N,610*%
X202069700Y189966600D03*
X234454700Y192125600D03*
X234327700Y211429600D03*
X234327700Y211429600D03*
%TO.N,609*%
X202069700Y114020600D03*
%TO.N,608*%
X146570700Y243433600D03*
X140093700Y246862600D03*
%TO.N,606*%
X215023700Y199364600D03*
X246519700Y202285600D03*
X247027700Y211429600D03*
X247027700Y211429600D03*
%TO.N,605*%
X216801700Y121894600D03*
%TO.N,604*%
X190004700Y119100600D03*
X188861700Y166217600D03*
%TO.N,603*%
X313956700Y253085600D03*
%TO.N,602*%
X341769700Y196951600D03*
X346087700Y216128600D03*
X370471700Y216128600D03*
X370471700Y216128600D03*
X377837700Y226796600D03*
X404507700Y221081600D03*
X441464700Y220446600D03*
%TO.N,601*%
X204482700Y251561600D03*
%TO.N,600*%
X199021700Y252450600D03*
%TO.N,599*%
X198132700Y250291600D03*
%TO.N,598*%
X193814700Y255371600D03*
%TO.N,597*%
X184289700Y252450600D03*
%TO.N,596*%
X182892700Y253212600D03*
%TO.N,595*%
X169303700Y253085600D03*
%TO.N,594*%
X168541700Y251180600D03*
%TO.N,593*%
X114185700Y201142600D03*
X116090700Y274167600D03*
%TO.N,592*%
X377075700Y218922600D03*
X382790700Y219430600D03*
X442480700Y218160600D03*
%TO.N,591*%
X407174700Y214985600D03*
X445528700Y212318600D03*
%TO.N,590*%
X372884700Y219811600D03*
X381520700Y220827600D03*
X436511700Y218795600D03*
X434098700Y262864600D03*
X414032700Y262610600D03*
%TO.N,589*%
X87871300Y247751600D03*
%TO.N,588*%
X332498700Y265531600D03*
%TO.N,587*%
X240931700Y111353600D03*
X207276700Y111734600D03*
X191528700Y114401600D03*
X191528700Y114401600D03*
X68973700Y118719600D03*
%TO.N,586*%
X136918700Y126212600D03*
%TO.N,585*%
X132473700Y131800600D03*
%TO.N,582*%
X97548700Y260070600D03*
X146316700Y260832600D03*
%TO.N,581*%
X416191700Y140817600D03*
X415810700Y154152600D03*
X415810700Y154152600D03*
X416699700Y163423600D03*
X415302700Y173964600D03*
X416699700Y163423600D03*
%TO.N,580*%
X404507700Y154279600D03*
X403110700Y163042600D03*
X403110700Y163042600D03*
X446036700Y163296600D03*
X446036700Y163550600D03*
%TO.N,579*%
X150507700Y244449600D03*
X143649700Y257149600D03*
%TO.N,577*%
X104025700Y243306600D03*
X104025700Y255117600D03*
%TO.N,576*%
X119265700Y255625600D03*
X100723700Y258927600D03*
%TO.N,575*%
X106819700Y248767600D03*
%TO.N,574*%
X153555700Y256260600D03*
X95516700Y250545600D03*
%TO.N,573*%
X132092700Y258419600D03*
%TO.N,572*%
X121856500Y258724400D03*
%TO.N,571*%
X407555700Y186664600D03*
%TO.N,570*%
X130568700Y124180600D03*
%TO.N,569*%
X121932700Y185521600D03*
%TO.N,567*%
X129425700Y195427600D03*
%TO.N,566*%
X403745700Y158470600D03*
X428383700Y158851600D03*
X428383700Y188696600D03*
%TO.N,565*%
X423557700Y136499600D03*
X421525700Y155930600D03*
X422287700Y196316600D03*
X421525700Y155930600D03*
X422287700Y196316600D03*
%TO.N,564*%
X417080700Y143230600D03*
X417080700Y161137600D03*
X417080700Y161137600D03*
X417207700Y195935600D03*
%TO.N,563*%
X414286700Y154152600D03*
X411619700Y162915600D03*
X411619700Y162915600D03*
X425208700Y162534600D03*
X425081700Y189204600D03*
%TO.N,562*%
X411746700Y142468600D03*
X411873700Y154152600D03*
X411873700Y154152600D03*
X412127700Y168376600D03*
X412127700Y168376600D03*
X422287700Y187680600D03*
%TO.N,561*%
X407936700Y143230600D03*
X404634700Y160756600D03*
X404634700Y160756600D03*
X407555700Y185394600D03*
%TO.N,560*%
X408698700Y141579600D03*
X408317700Y155041600D03*
X408317700Y155041600D03*
X408698700Y164185600D03*
X408698700Y164185600D03*
X414159700Y188823600D03*
%TO.N,558*%
X414286700Y147548600D03*
X413778700Y161137600D03*
X413778700Y161137600D03*
X413270700Y171297600D03*
X413270700Y194538600D03*
%TO.N,557*%
X413397700Y136499600D03*
X417969700Y156438600D03*
X417969700Y156438600D03*
X422287700Y194411600D03*
%TO.N,556*%
X413270700Y163804600D03*
X412508700Y147167600D03*
X412508700Y134594600D03*
X412508700Y147167600D03*
X412508700Y147167600D03*
X416318700Y193776600D03*
%TO.N,555*%
X409968700Y143230600D03*
X411111700Y161264600D03*
X411111700Y161264600D03*
X422287700Y161772600D03*
X423303700Y193014600D03*
%TO.N,554*%
X411365700Y156819600D03*
X410603700Y147167600D03*
X410857700Y133832600D03*
X410603700Y147167600D03*
X410603700Y147167600D03*
X425589700Y148437600D03*
X424319700Y191744600D03*
%TO.N,553*%
X407936700Y136499600D03*
X407936700Y156819600D03*
X407936700Y156819600D03*
X408952700Y191617600D03*
%TO.N,552*%
X409587700Y155041600D03*
X410984700Y190474600D03*
%TO.N,551*%
X410095700Y150215600D03*
X410857700Y168122600D03*
X410857700Y168122600D03*
X412381700Y188823600D03*
X422287700Y190474600D03*
%TO.N,550*%
X422414700Y135229600D03*
X422287700Y185140600D03*
%TO.N,549*%
X419747700Y133832600D03*
X418096700Y184632600D03*
%TO.N,547*%
X422541700Y154152600D03*
X422668700Y183489600D03*
X415302700Y184124600D03*
%TO.N,546*%
X423049700Y150215600D03*
X425970700Y178536600D03*
X411873700Y177393600D03*
%TO.N,544*%
X418477700Y154533600D03*
X409333700Y184124600D03*
%TO.N,543*%
X414540700Y155549600D03*
X406666700Y155930600D03*
X409333700Y179933600D03*
%TO.N,542*%
X418858700Y161137600D03*
X418858700Y174218600D03*
%TO.N,541*%
X422287700Y163423600D03*
X422287700Y171678600D03*
X410857700Y174472600D03*
%TO.N,540*%
X417080700Y170408600D03*
X415556700Y187045600D03*
%TO.N,539*%
X404507700Y169138600D03*
X405396700Y179933600D03*
%TO.N,538*%
X421017700Y133959600D03*
X419112700Y182473600D03*
%TO.N,537*%
X402221700Y173075600D03*
X402221700Y182981600D03*
%TO.N,536*%
X400951700Y170789600D03*
X400824700Y184632600D03*
%TO.N,535*%
X405396700Y172186600D03*
X405904700Y185267600D03*
%TO.N,534*%
X399681700Y169900600D03*
X399808700Y185902600D03*
%TO.N,533*%
X424319700Y140436600D03*
X422795700Y180314600D03*
%TO.N,532*%
X420763700Y140817600D03*
X420509700Y179425600D03*
%TO.N,531*%
X421652700Y136880600D03*
X423049700Y178917600D03*
%TO.N,530*%
X418350700Y140817600D03*
X415937700Y179933600D03*
%TO.N,529*%
X427494700Y141960600D03*
X427494700Y182346600D03*
%TO.N,525*%
X179844700Y74142600D03*
%TO.N,524*%
X151777700Y105130600D03*
%TO.N,523*%
X116852700Y132816600D03*
X116852700Y132816600D03*
X128409700Y193141600D03*
X128409700Y193141600D03*
%TO.N,522*%
X111010700Y117830600D03*
X107327700Y82651600D03*
X160413700Y138023600D03*
X161683700Y163042600D03*
%TO.N,521*%
X111645700Y179679600D03*
X113677700Y127609600D03*
X113677700Y127609600D03*
X111010700Y108051600D03*
X109613700Y100939600D03*
X109613700Y100939600D03*
%TO.N,520*%
X391172700Y180822600D03*
X391172700Y180822600D03*
X391680700Y192125600D03*
%TO.N,519*%
X388632700Y142341600D03*
X360692700Y141706600D03*
X295922700Y116941600D03*
X243852700Y121793000D03*
X215785700Y84810600D03*
%TO.N,518*%
X413524700Y168122600D03*
X415810700Y195935600D03*
%TO.N,514*%
X129425700Y181711600D03*
%TO.N,513*%
X379996700Y281279600D03*
X384060700Y254101600D03*
%TO.N,512*%
X339483700Y257911600D03*
%TO.N,511*%
X420001700Y238099600D03*
X409206700Y260578600D03*
X409155900Y260629400D03*
X373392700Y255625600D03*
%TO.N,507*%
X388251700Y228066600D03*
%TO.N,504*%
X300621700Y215366600D03*
%TO.N,503*%
X311924700Y216509600D03*
%TO.N,502*%
X291731700Y202666600D03*
X293890700Y162407600D03*
%TO.N,501*%
X289953700Y202412600D03*
X289953700Y160248600D03*
%TO.N,500*%
X315099700Y202539600D03*
X314591700Y154533600D03*
%TO.N,499*%
X277380700Y201777600D03*
X277380700Y162407600D03*
%TO.N,498*%
X305574700Y201142600D03*
X306590700Y154914600D03*
%TO.N,497*%
X258076700Y202539600D03*
X257822700Y162915600D03*
X343420700Y163677600D03*
%TO.N,496*%
X329704700Y197459600D03*
X342150700Y194792600D03*
%TO.N,495*%
X250329700Y199364600D03*
X251472700Y166217600D03*
X340880700Y166217600D03*
%TO.N,494*%
X303923700Y199618600D03*
X340499700Y196951600D03*
%TO.N,493*%
X305193700Y198602600D03*
X305193700Y166217600D03*
X338340700Y166217600D03*
%TO.N,492*%
X288429700Y197840600D03*
X291223700Y159613600D03*
%TO.N,491*%
X296303700Y197205600D03*
X333260700Y193395600D03*
%TO.N,490*%
X335546700Y194411600D03*
%TO.N,489*%
X329450700Y192506600D03*
%TO.N,488*%
X266966700Y192125600D03*
X272681700Y160629600D03*
%TO.N,487*%
X256171700Y191998600D03*
X256171700Y163804600D03*
X328180700Y164566600D03*
%TO.N,486*%
X297954700Y180441600D03*
%TO.N,485*%
X265315700Y189077600D03*
X284746700Y154686000D03*
X284746700Y160121600D03*
%TO.N,484*%
X266585700Y188188600D03*
X266712700Y159359600D03*
%TO.N,483*%
X263283700Y187299600D03*
X263664700Y166217600D03*
X300240700Y166217600D03*
%TO.N,482*%
X301510700Y180060600D03*
%TO.N,481*%
X302780700Y179679600D03*
%TO.N,480*%
X265569700Y185140600D03*
X264680700Y160248600D03*
%TO.N,479*%
X307860700Y179298600D03*
%TO.N,478*%
X309130700Y178917600D03*
%TO.N,477*%
X310400700Y178409600D03*
%TO.N,476*%
X311670700Y178028600D03*
%TO.N,475*%
X315480700Y177647600D03*
%TO.N,474*%
X241947700Y185013600D03*
X240677700Y158724600D03*
%TO.N,473*%
X318020700Y176758600D03*
%TO.N,472*%
X313702700Y175869600D03*
%TO.N,471*%
X241439700Y174726600D03*
X320560700Y171424600D03*
%TO.N,470*%
X182257700Y149580600D03*
X265950700Y149199600D03*
%TO.N,469*%
X242074700Y114909600D03*
%TO.N,468*%
X176034700Y105765600D03*
X245630700Y105384600D03*
%TO.N,467*%
X198005700Y102463600D03*
X249440700Y102209600D03*
%TO.N,466*%
X216039700Y114020600D03*
%TO.N,465*%
X209816700Y109194600D03*
%TO.N,464*%
X212864700Y116687600D03*
%TO.N,463*%
X214134700Y133959600D03*
X253250700Y133959600D03*
%TO.N,462*%
X221246700Y136499600D03*
X254520700Y136499600D03*
%TO.N,461*%
X200037700Y150215600D03*
X258330700Y149707600D03*
%TO.N,460*%
X196735700Y154025600D03*
X257060700Y154025600D03*
%TO.N,459*%
X199529700Y227431600D03*
X199529700Y164566600D03*
X376313700Y160502600D03*
X376313700Y160502600D03*
%TO.N,458*%
X180327300Y136804400D03*
X180479700Y163042600D03*
X426605700Y165582600D03*
%TO.N,457*%
X168287700Y132943600D03*
X168287700Y136499600D03*
%TO.N,456*%
X170827700Y121005600D03*
X172351700Y104622600D03*
X368820700Y119862600D03*
X138188700Y123672600D03*
X81419700Y123926600D03*
X82054700Y217271600D03*
%TO.N,455*%
X133743700Y68808600D03*
X147993100Y141833600D03*
%TO.N,454*%
X346722700Y261721600D03*
%TO.N,453*%
X204736700Y226923600D03*
%TO.N,452*%
X199275700Y248005600D03*
%TO.N,451*%
X167398700Y223367600D03*
X167398700Y246354600D03*
%TO.N,450*%
X201942700Y242925600D03*
X201942700Y242925600D03*
%TO.N,449*%
X191782700Y119862600D03*
X193433700Y235305600D03*
%TO.N,448*%
X190893700Y115798600D03*
X191274700Y239623600D03*
%TO.N,447*%
X196100700Y114782600D03*
X207403700Y114655600D03*
%TO.N,446*%
X188734700Y118338600D03*
X192036700Y251942600D03*
%TO.N,445*%
X397522700Y245846600D03*
%TO.N,444*%
X251853700Y101574600D03*
X251345700Y214858600D03*
X251345700Y214858600D03*
X238645700Y215620600D03*
X267601700Y257403600D03*
%TO.N,442*%
X365264700Y231495600D03*
X383425700Y230479600D03*
X393458700Y230479600D03*
X393458700Y230479600D03*
%TO.N,440*%
X409841700Y231495600D03*
X365264700Y233400600D03*
X409587700Y231241600D03*
%TO.N,439*%
X248170700Y195173600D03*
%TO.N,438*%
X238264700Y106527600D03*
X209816700Y106146600D03*
X193052700Y107924600D03*
X193052700Y107924600D03*
%TO.N,436*%
X364248700Y221843600D03*
X343293700Y265150600D03*
%TO.N,435*%
X339483700Y220827600D03*
X322592700Y269849600D03*
%TO.N,434*%
X325132700Y237972600D03*
X323989700Y258165600D03*
%TO.N,431*%
X87134700Y274396200D03*
X142405100Y269544800D03*
X111620300Y271983200D03*
X103441500Y271678400D03*
%TO.N,430*%
X302272700Y235051600D03*
%TO.N,429*%
X127901700Y181330600D03*
X129044700Y172059600D03*
X197116700Y177012600D03*
X200850500Y140487400D03*
%TO.N,428*%
X367169700Y226034600D03*
X317512700Y227431600D03*
%TO.N,426*%
X365010700Y227812600D03*
%TO.N,425*%
X324243700Y245211600D03*
%TO.N,424*%
X339991700Y199364600D03*
X339864700Y150723600D03*
X109105700Y153009600D03*
X104914700Y122021600D03*
X104914700Y122021600D03*
%TO.N,423*%
X263283700Y196189600D03*
X191528700Y196316600D03*
X190131700Y159486600D03*
X189750700Y136753600D03*
X190131700Y159486600D03*
X110121700Y121386600D03*
X110121700Y121386600D03*
%TO.N,422*%
X319036700Y197840600D03*
X316750700Y154279600D03*
X175272700Y155676600D03*
X165493700Y146151600D03*
X171970700Y157581600D03*
X112026700Y120116600D03*
X112026700Y120116600D03*
%TO.N,421*%
X239915700Y215747600D03*
X282460700Y215747600D03*
%TO.N,420*%
X197243700Y133578600D03*
X203161900Y137337800D03*
%TO.N,419*%
X314083700Y240258600D03*
X288048700Y233781600D03*
X261759700Y201650600D03*
X259092700Y182473600D03*
X247281700Y180441600D03*
X185712100Y117271800D03*
X185305700Y179552600D03*
X247281700Y180441600D03*
%TO.N,418*%
X238518700Y186791600D03*
%TO.N,417*%
X221119700Y120751600D03*
%TO.N,416*%
X176415700Y131292600D03*
X110248700Y131038600D03*
X111137700Y153263600D03*
X109994700Y241274600D03*
%TO.N,415*%
X161302700Y132562600D03*
X161556700Y113639600D03*
%TO.N,414*%
X170446700Y117576600D03*
X170446700Y117576600D03*
X170446700Y112242600D03*
%TO.N,413*%
X225056700Y142976600D03*
X225056700Y124180600D03*
X156222700Y118592600D03*
X156222700Y118592600D03*
X78752700Y119608600D03*
%TO.N,412*%
X153428700Y75031600D03*
%TO.N,411*%
X351421700Y197967600D03*
X352183700Y221716600D03*
%TO.N,410*%
X87769700Y203555600D03*
X87769700Y210032600D03*
X382028700Y223240600D03*
%TO.N,409*%
X54241700Y173202600D03*
X92468700Y157708600D03*
%TO.N,408*%
X52082700Y167360600D03*
X76466700Y156565600D03*
%TO.N,406*%
X314083700Y228955600D03*
%TO.N,405*%
X220865700Y183997600D03*
X220865700Y197840600D03*
%TO.N,404*%
X369963700Y214858600D03*
X369963700Y196316600D03*
X405904700Y194411600D03*
X405904700Y194411600D03*
X392442700Y194284600D03*
X389775700Y134086600D03*
X389775700Y134086600D03*
X226529900Y134848600D03*
X225564700Y195427600D03*
X203212700Y240131600D03*
X169430700Y239496600D03*
X169684700Y196824600D03*
X169430700Y239496600D03*
X169430700Y239496600D03*
X169684700Y196824600D03*
X66433700Y72618600D03*
X70751700Y143611600D03*
X70751700Y143611600D03*
X68719700Y164058600D03*
X68719700Y164058600D03*
X72656700Y175996600D03*
X72656700Y175996600D03*
%TO.N,403*%
X55892700Y76682600D03*
X53860700Y153263600D03*
X372376700Y213588600D03*
X403364700Y213715600D03*
X405904700Y195681600D03*
X405904700Y195681600D03*
X401967700Y149326600D03*
X298081700Y148437600D03*
X292493700Y130911600D03*
X198005700Y231749600D03*
X200418700Y196316600D03*
X200418700Y196316600D03*
X202958700Y133324600D03*
X192798700Y196316600D03*
X192290700Y199110600D03*
X132092700Y198475600D03*
X132092700Y198475600D03*
X70243700Y196443600D03*
X70243700Y163677600D03*
X70243700Y163677600D03*
%TO.N,402*%
X371614700Y212318600D03*
X386219700Y197840600D03*
X386219700Y197840600D03*
X385965700Y130149600D03*
X287032700Y129387600D03*
X287032700Y129387600D03*
X282333700Y142468600D03*
X209689700Y143230600D03*
X203085700Y122656600D03*
X135394700Y201904600D03*
X170954700Y238480600D03*
X210832700Y233019600D03*
X210832700Y200126600D03*
X210832700Y200126600D03*
X210832700Y200126600D03*
X135394700Y201904600D03*
X57162700Y77571600D03*
X135902700Y180187600D03*
X74180700Y177647600D03*
X74180700Y159740600D03*
X52971700Y159740600D03*
X52971700Y159740600D03*
X74180700Y159740600D03*
X74180700Y159740600D03*
%TO.N,401*%
X372884700Y211810600D03*
X385330700Y199618600D03*
X228231700Y118211600D03*
X241566700Y125958600D03*
X385330700Y199618600D03*
X382663700Y127990600D03*
X289699700Y126339600D03*
X241566700Y125958600D03*
X231787700Y201142600D03*
X200545700Y236321600D03*
X201307700Y199872600D03*
X137045700Y200761600D03*
X57035700Y80111600D03*
X63385700Y158724600D03*
X113423700Y138277600D03*
X113296700Y156946600D03*
X112915700Y176885600D03*
X113296700Y156946600D03*
X76466700Y158089600D03*
X63385700Y158724600D03*
X63385700Y158724600D03*
X43319700Y230860600D03*
%TO.N,400*%
X369709700Y211556600D03*
X379869700Y199491600D03*
X379869700Y199491600D03*
X295541700Y146151600D03*
X292366700Y125831600D03*
X292366700Y125831600D03*
X291477700Y107035600D03*
X190715900Y106476800D03*
X190715900Y106476800D03*
X117868700Y109702600D03*
X115836700Y116687600D03*
X116217700Y136880600D03*
X115836700Y116687600D03*
X70751700Y86207600D03*
X67703700Y118592600D03*
X67703700Y118592600D03*
X196735700Y232130600D03*
X197624700Y200761600D03*
X151142700Y201777600D03*
X73291700Y173583600D03*
X73291700Y173583600D03*
X67957700Y175234600D03*
X67957700Y175234600D03*
%TO.N,399*%
X76339700Y140563600D03*
X72529700Y169265600D03*
X63512700Y92303600D03*
X72529700Y169265600D03*
X341769700Y210667600D03*
X379488700Y197713600D03*
X188836300Y106146600D03*
X184416700Y203174600D03*
X407174700Y196189600D03*
X379488700Y197713600D03*
X370090700Y148945600D03*
X369582700Y125958600D03*
X243598700Y130022600D03*
X242328700Y199364600D03*
X203339700Y232130600D03*
X203339700Y220192600D03*
X203339700Y220192600D03*
X203847700Y203301600D03*
X189877700Y203174600D03*
X184416700Y203174600D03*
X140982700Y204571600D03*
X62242700Y173583600D03*
X60972700Y224764600D03*
X62242700Y173583600D03*
X60972700Y224764600D03*
X60972700Y224764600D03*
%TO.N,398*%
X369963700Y209270600D03*
X378345700Y200253600D03*
X370090700Y120624600D03*
X247281700Y122148600D03*
X183146700Y129768600D03*
X183146700Y115925600D03*
X183146700Y115925600D03*
X183400700Y175234600D03*
X208419700Y205968600D03*
X182638700Y204698600D03*
X182638700Y234035600D03*
X182638700Y234035600D03*
X182638700Y204698600D03*
X183400700Y175234600D03*
X64528700Y87477600D03*
X116598700Y142595600D03*
X117233700Y177901600D03*
X149872700Y206476600D03*
X150126700Y175234600D03*
X117233700Y177901600D03*
X57162700Y177012600D03*
X57162700Y177012600D03*
X57162700Y177012600D03*
%TO.N,397*%
X384441700Y201904600D03*
X372884700Y204317600D03*
X372884700Y204317600D03*
X369582700Y121894600D03*
X166890700Y107289600D03*
X149237700Y107289600D03*
X148323300Y144246600D03*
X117868700Y142595600D03*
X243217700Y123037600D03*
X240677700Y203555600D03*
X201815700Y238226600D03*
X201815700Y204952600D03*
X203466700Y204952600D03*
X201815700Y204952600D03*
X201815700Y204952600D03*
X144538700Y205841600D03*
X144538700Y205841600D03*
X148323300Y144246600D03*
X117868700Y142595600D03*
X117868700Y142595600D03*
X62115700Y141833600D03*
X62369700Y82270600D03*
X60972700Y166979600D03*
X49288700Y173202600D03*
%TO.N,396*%
X299986700Y125831600D03*
X292239700Y206349600D03*
X292239700Y206349600D03*
X217309700Y205841600D03*
X217309700Y205841600D03*
X217309700Y205841600D03*
X142760700Y205841600D03*
X138950700Y239242600D03*
X142760700Y205841600D03*
X144411700Y185521600D03*
X142760700Y205841600D03*
X142760700Y205841600D03*
X107708700Y206730600D03*
X180225700Y124815600D03*
X183654700Y74142600D03*
X145935700Y75793600D03*
X85864700Y78079600D03*
X85864700Y78079600D03*
X85610700Y101447600D03*
X85610700Y101447600D03*
X99072700Y144373600D03*
X99326700Y206730600D03*
X43319700Y208381600D03*
%TO.N,395*%
X337705700Y206984600D03*
X330593700Y122783600D03*
X300240700Y123037600D03*
X300240700Y112115600D03*
X204355700Y99796600D03*
X203339700Y125577600D03*
X214134700Y207365600D03*
X152031700Y206476600D03*
X151523700Y185521600D03*
X151523700Y185521600D03*
X152031700Y206476600D03*
X97675700Y218160600D03*
X97675700Y239115600D03*
X144284700Y127609600D03*
X119265700Y126720600D03*
X118630700Y135737600D03*
X88658700Y72745600D03*
X88658700Y97510600D03*
X88658700Y97510600D03*
X88531700Y135102600D03*
X101612700Y135102600D03*
X118630700Y135737600D03*
X101612700Y135102600D03*
X97675700Y239115600D03*
X97675700Y239115600D03*
X97675700Y218160600D03*
X45097700Y210540600D03*
%TO.N,394*%
X337070700Y124307600D03*
X341007700Y206095600D03*
X341007700Y206095600D03*
X230136700Y217017600D03*
X164477700Y75412600D03*
X163842700Y133705600D03*
X163842700Y133705600D03*
X120535700Y136626600D03*
X212356700Y217017600D03*
X212356700Y217017600D03*
X140982700Y214477600D03*
X107200700Y214096600D03*
X107200700Y237718600D03*
X91071700Y79095600D03*
X91071700Y97510600D03*
X102374700Y112750600D03*
X104152700Y146405600D03*
X120535700Y136626600D03*
X120535700Y146405600D03*
X104152700Y146405600D03*
X107200700Y214096600D03*
X107200700Y237718600D03*
X140093700Y186791600D03*
X140093700Y209651600D03*
X107200700Y214096600D03*
X107200700Y237718600D03*
X107200700Y237718600D03*
X107200700Y214096600D03*
X47129700Y214985600D03*
%TO.N,393*%
X187972700Y131419600D03*
X309765700Y128244600D03*
X336816700Y205206600D03*
X336816700Y205206600D03*
X231025700Y211429600D03*
X231025700Y211429600D03*
X231025700Y211429600D03*
X152285700Y210667600D03*
X153047700Y192252600D03*
X153047700Y192252600D03*
X153047700Y203682600D03*
X99072700Y212191600D03*
X99072700Y239115600D03*
X94500700Y76682600D03*
X93484700Y97510600D03*
X105803700Y108051600D03*
X93484700Y97510600D03*
X105803700Y108051600D03*
X106692700Y144754600D03*
X108597700Y212191600D03*
X99072700Y212191600D03*
X99072700Y239115600D03*
X99072700Y239115600D03*
X99072700Y212191600D03*
X69354700Y214477600D03*
X69354700Y214477600D03*
X48907700Y217398600D03*
%TO.N,392*%
X335165700Y204444600D03*
X320179700Y129641600D03*
X255409700Y133451600D03*
X184061100Y137160000D03*
X184035700Y137134600D03*
X162953700Y145643600D03*
X109232700Y147675600D03*
X91833700Y64109600D03*
X92341700Y82270600D03*
X92341700Y82270600D03*
X66941700Y86207600D03*
X67068700Y145516600D03*
X109232700Y147675600D03*
X122313700Y138277600D03*
X121805700Y146405600D03*
X109232700Y147675600D03*
X109232700Y147675600D03*
X134632700Y145643600D03*
X135648700Y189331600D03*
X224802700Y210794600D03*
X224802700Y210794600D03*
X136664700Y209651600D03*
X135648700Y189331600D03*
X136664700Y209651600D03*
X102882700Y210032600D03*
X103771700Y237718600D03*
X103771700Y237718600D03*
X102882700Y210032600D03*
X43700700Y215747600D03*
%TO.N,391*%
X339102700Y203682600D03*
X336308700Y132054600D03*
X303542700Y132943600D03*
X303542700Y132943600D03*
X198894700Y134467600D03*
X197243700Y132054600D03*
X90563700Y63728600D03*
X90309700Y86207600D03*
X122821700Y142595600D03*
X121424700Y150215600D03*
X90309700Y86207600D03*
X91071700Y111734600D03*
X91071700Y111734600D03*
X91071700Y149453600D03*
X121424700Y150215600D03*
X126250700Y191490600D03*
X197243700Y132054600D03*
X197243700Y132054600D03*
X195719700Y214985600D03*
X139204700Y217271600D03*
X139204700Y204825600D03*
X219468700Y220446600D03*
X139204700Y217271600D03*
X139204700Y204825600D03*
X141871700Y192252600D03*
X139204700Y204825600D03*
X139204700Y204825600D03*
X139204700Y217271600D03*
X100469700Y216128600D03*
X100469700Y239115600D03*
X100469700Y239115600D03*
X100469700Y216128600D03*
%TO.N,390*%
X316750700Y132181600D03*
X332879700Y202793600D03*
X332879700Y202793600D03*
X228612700Y208000600D03*
X228612700Y208000600D03*
X228612700Y208000600D03*
X150888700Y208889600D03*
X150380700Y192252600D03*
X133997700Y192887600D03*
X133616700Y203555600D03*
X133616700Y203555600D03*
X133997700Y192887600D03*
X115074700Y193522600D03*
X193433700Y139674600D03*
X193433700Y139674600D03*
X112407700Y135483600D03*
X86753700Y62585600D03*
X87769700Y87858600D03*
X87769700Y87858600D03*
X71132700Y89255600D03*
X70497700Y135483600D03*
X112407700Y135483600D03*
X112407700Y135483600D03*
X115074700Y193522600D03*
X101358700Y194411600D03*
X102628700Y239115600D03*
X102628700Y239115600D03*
X101612700Y214350600D03*
X73672700Y209651600D03*
%TO.N,389*%
X331990700Y133197600D03*
X337197700Y202031600D03*
X337197700Y202031600D03*
X237629700Y201142600D03*
X236486700Y215620600D03*
X193560700Y133832600D03*
X193560700Y133832600D03*
X192925700Y219049600D03*
X133362700Y217652600D03*
X133362700Y235051600D03*
X214896700Y218922600D03*
X214896700Y218922600D03*
X133362700Y217652600D03*
X133362700Y235051600D03*
X135648700Y195173600D03*
X133743700Y205714600D03*
X133743700Y205714600D03*
X133362700Y235051600D03*
X133362700Y235051600D03*
X134632700Y211302600D03*
X75450700Y213461600D03*
X85102700Y61442600D03*
X85737700Y86207600D03*
X73672700Y87858600D03*
X119773700Y117195600D03*
X120662700Y133451600D03*
X120662700Y133451600D03*
X116979700Y211683600D03*
X75450700Y213461600D03*
X75450700Y213461600D03*
%TO.N,388*%
X282765500Y242417600D03*
X271919700Y219430600D03*
X162953700Y220827600D03*
X161683700Y243433600D03*
X162953700Y220827600D03*
X161683700Y243433600D03*
%TO.N,387*%
X224802700Y261086600D03*
X268871700Y258292600D03*
%TO.N,386*%
X316369700Y221335600D03*
X317512700Y253339600D03*
%TO.N,385*%
X165239700Y110591600D03*
X168922700Y110083600D03*
X154952700Y111226600D03*
X161302700Y111226600D03*
X161302700Y111226600D03*
X167017700Y114782600D03*
%TO.N,384*%
X153708100Y111226600D03*
%TO.N,383*%
X114693700Y123799600D03*
X114744500Y123748800D03*
X162572700Y105511600D03*
%TO.N,382*%
X303161700Y220319600D03*
X191249300Y199872600D03*
X138950700Y199364600D03*
X138899900Y199415400D03*
X128663700Y203454000D03*
X128663700Y203454000D03*
X138899900Y199415400D03*
X138950700Y199364600D03*
X144056100Y179781200D03*
X144157700Y134721600D03*
X146062700Y115036600D03*
X161937700Y115036600D03*
%TO.N,381*%
X228231700Y190601600D03*
X227215700Y231241600D03*
%TO.N,380*%
X185381900Y100660200D03*
X185559700Y109575600D03*
%TO.N,379*%
X103314500Y259105400D03*
X214769700Y243179600D03*
X214134700Y222986600D03*
%TO.N,378*%
X160413700Y123164600D03*
X156857700Y144881600D03*
X88150700Y144373600D03*
X89420700Y212826600D03*
%TO.N,377*%
X172605700Y241147600D03*
X172656500Y241096800D03*
X216090500Y215138000D03*
X253631700Y214858600D03*
%TO.N,376*%
X341642700Y221081600D03*
X339483700Y252704600D03*
%TO.N,375*%
X356120700Y220827600D03*
X337832700Y253466600D03*
%TO.N,374*%
X357898700Y221335600D03*
X335419700Y224256600D03*
X332498700Y261340600D03*
%TO.N,373*%
X331990700Y259435600D03*
%TO.N,372*%
X330720700Y258165600D03*
%TO.N,371*%
X361073700Y221843600D03*
X329831700Y225272600D03*
X329450700Y258546600D03*
%TO.N,370*%
X361327700Y227304600D03*
X326402700Y227558600D03*
X328180700Y253974600D03*
%TO.N,369*%
X333641700Y236067600D03*
X333006700Y253974600D03*
%TO.N,368*%
X336562700Y259181600D03*
%TO.N,367*%
X225945700Y101955600D03*
X225945700Y122783600D03*
%TO.N,366*%
X105803700Y135483600D03*
%TO.N,365*%
X320306700Y259181600D03*
%TO.N,364*%
X320306700Y260451600D03*
%TO.N,363*%
X328942700Y228828600D03*
X325132700Y261721600D03*
%TO.N,362*%
X352183700Y276199600D03*
%TO.N,361*%
X365391700Y188061600D03*
X111264700Y172313600D03*
X178447700Y109575600D03*
X178447700Y109575600D03*
X171843700Y173456600D03*
X111264700Y172313600D03*
%TO.N,360*%
X294271700Y273913600D03*
X288302700Y271627600D03*
%TO.N,359*%
X90944700Y225399600D03*
X83832700Y190601600D03*
X83832700Y190601600D03*
%TO.N,358*%
X282460700Y253847600D03*
X282460700Y246354600D03*
%TO.N,356*%
X296176700Y212064600D03*
%TO.N,355*%
X378091700Y209651600D03*
%TO.N,354*%
X199910700Y242036600D03*
X217436700Y241020600D03*
X223558100Y225806000D03*
X313194700Y227558600D03*
X313194700Y217398600D03*
X411111700Y217652600D03*
X411111700Y217652600D03*
%TO.N,353*%
X266712700Y256133600D03*
X285254700Y255117600D03*
X337959700Y258800600D03*
%TO.N,351*%
X388886700Y212445600D03*
X443496700Y230606600D03*
%TO.N,349*%
X407809700Y211937600D03*
X433971700Y229336600D03*
%TO.N,347*%
X348881700Y188569600D03*
X349389700Y154406600D03*
X197370700Y157454600D03*
X196608700Y136550400D03*
X194830700Y134467600D03*
X153682700Y134721600D03*
X125996700Y120370600D03*
X126885700Y137007600D03*
X153682700Y134721600D03*
X153682700Y134721600D03*
X126885700Y137007600D03*
%TO.N,346*%
X348500700Y194919600D03*
X347230700Y153136600D03*
X347230700Y153136600D03*
X346341700Y149072600D03*
X208292700Y148437600D03*
X130568700Y117957600D03*
X190385700Y146786600D03*
X156222700Y147167600D03*
%TO.N,345*%
X360819700Y195808600D03*
X131838700Y117576600D03*
X130314700Y156946600D03*
X192036700Y161264600D03*
X192290700Y136753600D03*
X192290700Y136753600D03*
X192036700Y161264600D03*
X161048700Y161264600D03*
X161048700Y161264600D03*
%TO.N,344*%
X350151700Y188569600D03*
X351040700Y155803600D03*
X351040700Y155803600D03*
X209181700Y155803600D03*
X209689700Y145262600D03*
X187286900Y148031200D03*
X122948700Y111607600D03*
X126885700Y135737600D03*
X132473700Y135737600D03*
%TO.N,343*%
X286143700Y189712600D03*
X286143700Y150342600D03*
X172224700Y150088600D03*
X123583700Y110337600D03*
X123583700Y110337600D03*
X163842700Y144373600D03*
X163842700Y157073600D03*
%TO.N,342*%
X124853700Y110083600D03*
X124853700Y110083600D03*
X135013700Y110591600D03*
X352183700Y194919600D03*
X352056700Y141960600D03*
X287032700Y138785600D03*
X248170700Y138912600D03*
X176415700Y138404600D03*
X166636700Y137388600D03*
%TO.N,341*%
X124853700Y115925600D03*
X124853700Y115925600D03*
X354088700Y194919600D03*
X354088700Y139420600D03*
X207403700Y139547600D03*
X169303700Y141325600D03*
X169557700Y133324600D03*
X168922700Y159613600D03*
%TO.N,340*%
X292239700Y187172600D03*
X292493700Y146532600D03*
X216928700Y141071600D03*
X216547700Y127482600D03*
X190004700Y127609600D03*
X123202700Y107162600D03*
X126631700Y109321600D03*
X136791700Y109702600D03*
X137934700Y129895600D03*
X137934700Y129895600D03*
%TO.N,339*%
X355485700Y194919600D03*
X355993700Y151104600D03*
X287794700Y150342600D03*
X287794700Y144246600D03*
X203720700Y143230600D03*
X139204700Y143357600D03*
X139204700Y129387600D03*
X126123700Y115925600D03*
X126123700Y115925600D03*
X139331700Y115925600D03*
X139204700Y129387600D03*
X139204700Y129387600D03*
X137172700Y165836600D03*
X34048700Y163550600D03*
%TO.N,338*%
X354723700Y144246600D03*
X355612700Y190728600D03*
X355612700Y190728600D03*
X354723700Y144246600D03*
X283222700Y145897600D03*
X283222700Y145897600D03*
X283197300Y160070800D03*
X161048700Y158724600D03*
X128282700Y115925600D03*
X128282700Y126593600D03*
X144665700Y125831600D03*
X144665700Y125831600D03*
X143014700Y167614600D03*
X37350700Y166979600D03*
%TO.N,337*%
X382282700Y167106600D03*
X355612700Y184632600D03*
X355612700Y184632600D03*
X356628700Y144881600D03*
X291223700Y146151600D03*
X291223700Y146151600D03*
X220357700Y146405600D03*
X220357700Y124942600D03*
X172351700Y124434600D03*
X172351700Y124434600D03*
X171462700Y102336600D03*
X130822700Y109702600D03*
X142379700Y102336600D03*
X141744700Y169392600D03*
X85610700Y169392600D03*
X85356700Y212445600D03*
%TO.N,336*%
X132981700Y109702600D03*
X132981700Y109702600D03*
X143903700Y111734600D03*
X357517700Y188950600D03*
X357136700Y153009600D03*
X267220700Y148945600D03*
X267220700Y154914600D03*
X144284700Y154914600D03*
X133235700Y201396600D03*
%TO.N,335*%
X358152700Y190728600D03*
X359041700Y157073600D03*
X359041700Y157073600D03*
X359041700Y149453600D03*
X294271700Y149326600D03*
X223913700Y150596600D03*
X222389700Y211683600D03*
X140982700Y211429600D03*
X140982700Y211429600D03*
X131584700Y200380600D03*
X132473700Y116306600D03*
X132473700Y116306600D03*
X131584700Y200380600D03*
%TO.N,334*%
X359422700Y189712600D03*
X388378700Y188950600D03*
X389394700Y140436600D03*
X294144700Y142341600D03*
X289826700Y209651600D03*
X231025700Y209778600D03*
X138442700Y114655600D03*
X138442700Y114655600D03*
X147332700Y209778600D03*
X147332700Y209778600D03*
%TO.N,333*%
X359041700Y147294600D03*
X359295700Y194919600D03*
X359041700Y147294600D03*
X301383700Y146913600D03*
X300748700Y168376600D03*
X146824700Y167360600D03*
X192925700Y208889600D03*
X193306700Y168249600D03*
X146824700Y167360600D03*
X176923700Y115925600D03*
X140982700Y116560600D03*
X140982700Y116560600D03*
X140982700Y116560600D03*
X146824700Y167360600D03*
X35445700Y168249600D03*
%TO.N,332*%
X187210700Y113639600D03*
X172351700Y115290600D03*
X353199700Y183870600D03*
X356755700Y169265600D03*
X356755700Y169265600D03*
X353199700Y183870600D03*
X303796700Y184886600D03*
X303796700Y171932600D03*
X198767700Y171424600D03*
X300113700Y142341600D03*
X303796700Y171932600D03*
X198767700Y171424600D03*
X149999700Y117322600D03*
X198767700Y208254600D03*
X198767700Y171424600D03*
X52971700Y173710600D03*
%TO.N,331*%
X189496700Y116306600D03*
X161683700Y117830600D03*
X392442700Y145516600D03*
X393712700Y195300600D03*
X361327700Y197078600D03*
X243598700Y198856600D03*
X153936700Y206476600D03*
X153555700Y118084600D03*
X153936700Y206476600D03*
%TO.N,330*%
X369455700Y187553600D03*
X362597700Y144754600D03*
X296811700Y147548600D03*
X224929700Y147548600D03*
X225564700Y203428600D03*
X192265300Y122453400D03*
X130822700Y120116600D03*
X130822700Y120116600D03*
X156095700Y122275600D03*
X225564700Y203428600D03*
X157492700Y202158600D03*
X157492700Y202158600D03*
%TO.N,329*%
X162445700Y144373600D03*
X329577700Y142341600D03*
X330974700Y171678600D03*
X369582700Y171424600D03*
X364121700Y188950600D03*
X303542700Y141325600D03*
X208165700Y141452600D03*
X202069700Y120497600D03*
X202069700Y120497600D03*
X160032700Y120497600D03*
X160032700Y120497600D03*
X160032700Y194665600D03*
X160032700Y194665600D03*
X63893700Y194157600D03*
X63893700Y194157600D03*
X43319700Y194030600D03*
%TO.N,328*%
X155079700Y120370600D03*
X164477700Y120497600D03*
X362597700Y194919600D03*
X358279700Y141452600D03*
X307352700Y141452600D03*
X215277700Y143230600D03*
X216039700Y190601600D03*
X213880700Y119100600D03*
X216039700Y190601600D03*
X155079700Y120370600D03*
X205625700Y190601600D03*
X162572700Y190220600D03*
X162572700Y190220600D03*
X150761700Y190093600D03*
X55765700Y200761600D03*
%TO.N,327*%
X154317700Y163931600D03*
X165747700Y162153600D03*
X352818700Y139801600D03*
X363867700Y196951600D03*
X219087700Y142087600D03*
X216928700Y128752600D03*
X203339700Y128879600D03*
X211975700Y248132600D03*
X211975700Y189077600D03*
X211975700Y189077600D03*
X203339700Y188696600D03*
X203339700Y128879600D03*
X203339700Y128879600D03*
X201053700Y169392600D03*
X152666700Y121386600D03*
X154444700Y168122600D03*
X154063700Y187807600D03*
%TO.N,326*%
X365264700Y190728600D03*
X387108700Y189839600D03*
X388632700Y138531600D03*
X387108700Y189839600D03*
X388632700Y138531600D03*
X210832700Y137261600D03*
X210959700Y132816600D03*
X209943700Y187426600D03*
X209943700Y167614600D03*
X210959700Y132816600D03*
X209943700Y167614600D03*
X154063700Y122021600D03*
X158762700Y186918600D03*
X143649700Y187807600D03*
X75323700Y189458600D03*
X74561700Y197332600D03*
X74561700Y197332600D03*
X74561700Y197332600D03*
%TO.N,325*%
X368693700Y196189600D03*
X394982700Y189204600D03*
X405904700Y190474600D03*
X394982700Y189204600D03*
X189750700Y133832600D03*
X186956700Y177393600D03*
X181495700Y178917600D03*
X181495700Y178917600D03*
X170192700Y164007800D03*
X156349700Y185013600D03*
X138061700Y185902600D03*
X115074700Y110718600D03*
X109740700Y186791600D03*
X109740700Y186791600D03*
X109740700Y198094600D03*
X75450700Y199745600D03*
X77482700Y245211600D03*
X75450700Y199745600D03*
X75450700Y199745600D03*
%TO.N,324*%
X383933700Y195046600D03*
X383933700Y190728600D03*
X383933700Y190728600D03*
X381647700Y151485600D03*
X134632700Y107924600D03*
X147967700Y107924600D03*
X134632700Y107924600D03*
X147967700Y107924600D03*
%TO.N,323*%
X323481700Y239750600D03*
X322211700Y265531600D03*
%TO.N,322*%
X190106300Y96748600D03*
X220992700Y94843600D03*
%TO.N,321*%
X368185700Y210413600D03*
X350532700Y210413600D03*
X350024700Y177393600D03*
X317512700Y179806600D03*
%TO.N,320*%
X244741700Y86969600D03*
X298589700Y88620600D03*
X274205700Y145389600D03*
X281317700Y145389600D03*
X281825700Y171170600D03*
X281825700Y171170600D03*
X273824700Y244957600D03*
X413397700Y278866600D03*
X337705700Y263626600D03*
X284492700Y265150600D03*
X284492700Y265150600D03*
X274078700Y257911600D03*
X273824700Y244957600D03*
%TO.N,319*%
X302907700Y225526600D03*
X306082700Y236321600D03*
X348627700Y235686600D03*
X378472700Y255879600D03*
X380885700Y266801600D03*
X383679700Y257911600D03*
X380758700Y266801600D03*
X389902700Y238988600D03*
X406539700Y234924600D03*
X392468100Y238963200D03*
X392950700Y248894600D03*
X391807700Y261848600D03*
X392950700Y248640600D03*
X408952700Y263626600D03*
X421652700Y241782600D03*
X421652700Y241782600D03*
X419366700Y230606600D03*
X417461700Y215747600D03*
X419112700Y220065600D03*
X419112700Y220065600D03*
X425589700Y222986600D03*
X419366700Y230606600D03*
X419366700Y230606600D03*
X419112700Y226415600D03*
X419112700Y226415600D03*
X409587700Y225907600D03*
X409587700Y225907600D03*
X349262700Y261340600D03*
X349262700Y261340600D03*
%TO.N,318*%
X365137700Y256006600D03*
%TO.N,317*%
X300240700Y217017600D03*
%TO.N,316*%
X360184700Y254101600D03*
%TO.N,315*%
X380250700Y239115600D03*
%TO.N,309*%
X383679700Y239242600D03*
%TO.N,308*%
X401332700Y241401600D03*
%TO.N,307*%
X382917700Y262356600D03*
%TO.N,304*%
X370217700Y240258600D03*
%TO.N,303*%
X368439700Y257149600D03*
X371233700Y214858600D03*
%TO.N,301*%
X398030700Y240004600D03*
%TO.N,298*%
X147713700Y255879600D03*
%TO.N,292*%
X144792700Y272389600D03*
%TO.N,289*%
X152412700Y266039600D03*
%TO.N,288*%
X154825700Y249529600D03*
%TO.N,285*%
X147586700Y260959600D03*
%TO.N,279*%
X144792700Y265023600D03*
X137172700Y282041600D03*
%TO.N,273*%
X123202700Y261975600D03*
%TO.N,272*%
X120662700Y261340600D03*
%TO.N,269*%
X120154700Y277723600D03*
%TO.N,267*%
X127139700Y274294600D03*
%TO.N,265*%
X131584700Y277977600D03*
%TO.N,264*%
X381647700Y211048600D03*
X443115700Y210921600D03*
%TO.N,262*%
X410349700Y235051600D03*
X410349700Y235051600D03*
X421652700Y233781600D03*
X421652700Y233781600D03*
%TO.N,260*%
X428129700Y229336600D03*
X437146700Y231114600D03*
%TO.N,223*%
X310146700Y245846600D03*
%TO.N,222*%
X310908700Y251561600D03*
%TO.N,221*%
X308368700Y248132600D03*
%TO.N,219*%
X334022700Y211048600D03*
%TO.N,217*%
X328561700Y208762600D03*
%TO.N,216*%
X303161700Y249910600D03*
%TO.N,215*%
X323354700Y197078600D03*
%TO.N,212*%
X320814700Y203301600D03*
%TO.N,211*%
X332625700Y200507600D03*
%TO.N,210*%
X339991700Y210159600D03*
%TO.N,209*%
X339737700Y206095600D03*
%TO.N,208*%
X332117700Y209397600D03*
%TO.N,206*%
X346087700Y219049600D03*
%TO.N,205*%
X335800700Y217398600D03*
%TO.N,200*%
X77863700Y173202600D03*
%TO.N,199*%
X80022700Y168630600D03*
%TO.N,198*%
X83197700Y169519600D03*
%TO.N,197*%
X85102700Y166725600D03*
%TO.N,194*%
X51066700Y157073600D03*
%TO.N,190*%
X89293700Y62204600D03*
X93103700Y80619600D03*
X93103700Y80619600D03*
%TO.N,189*%
X134251700Y215620600D03*
%TO.N,187*%
X228612700Y224002600D03*
%TO.N,186*%
X216293700Y228066600D03*
%TO.N,185*%
X224802700Y224002600D03*
%TO.N,184*%
X232422700Y224002600D03*
%TO.N,181*%
X218579700Y219176600D03*
%TO.N,180*%
X203339700Y216890600D03*
%TO.N,177*%
X195465700Y224002600D03*
%TO.N,175*%
X206387700Y211683600D03*
%TO.N,174*%
X199402700Y229590600D03*
%TO.N,167*%
X73291700Y133070600D03*
%TO.N,166*%
X72529700Y140690600D03*
%TO.N,162*%
X94373700Y124180600D03*
%TO.N,161*%
X95262700Y92049600D03*
%TO.N,160*%
X99072700Y93065600D03*
%TO.N,159*%
X101612700Y93827600D03*
%TO.N,158*%
X104152700Y95224600D03*
%TO.N,157*%
X83070700Y61442600D03*
X83578700Y72745600D03*
X83578700Y72745600D03*
X45732700Y74523600D03*
%TO.N,156*%
X88023700Y61442600D03*
X86753700Y71475600D03*
X86753700Y71475600D03*
%TO.N,155*%
X68592700Y89382600D03*
%TO.N,154*%
X61988700Y78079600D03*
%TO.N,153*%
X65163700Y71856600D03*
%TO.N,152*%
X63893700Y72618600D03*
X42557700Y72491600D03*
%TO.N,151*%
X93611700Y86715600D03*
X47002700Y88112600D03*
%TO.N,150*%
X90182700Y82270600D03*
X51574700Y83413600D03*
%TO.N,149*%
X49542700Y81000600D03*
%TO.N,148*%
X81292700Y81762600D03*
X81292700Y70078600D03*
X81292700Y70078600D03*
X80022700Y99161600D03*
%TO.N,136*%
X72402700Y86207600D03*
X73037700Y120116600D03*
%TO.N,135*%
X74561700Y129641600D03*
%TO.N,134*%
X77482700Y82651600D03*
%TO.N,133*%
X78498700Y81381600D03*
%TO.N,121*%
X281571700Y271627600D03*
%TO.N,117*%
X291350700Y286359600D03*
%TO.N,112*%
X287032700Y271627600D03*
%TO.N,108*%
X249694700Y247751600D03*
%TO.N,105*%
X250202700Y253466600D03*
%TO.N,101*%
X264934700Y242290600D03*
%TO.N,99*%
X265442700Y233400600D03*
%TO.N,81*%
X242582700Y249910600D03*
X275348700Y256006600D03*
%TO.N,80*%
X207403700Y137261600D03*
X206387700Y141960600D03*
X206387700Y141960600D03*
%TO.N,76*%
X47002700Y281025600D03*
%TO.N,65*%
X70116700Y285470600D03*
%TO.N,56*%
X63893700Y250799600D03*
%TO.N,54*%
X426224700Y133070600D03*
%TO.N,50*%
X168033700Y269468600D03*
%TO.N,49*%
X119519700Y199618600D03*
X213118700Y198602600D03*
%TO.N,39*%
X81292700Y194411600D03*
X81292700Y194411600D03*
%TO.N,38*%
X108851700Y225018600D03*
X73672700Y203682600D03*
%TO.N,35*%
X287667700Y157200600D03*
%TO.N,28*%
X233057700Y89255600D03*
X233057700Y89255600D03*
%TO.N,27*%
X227977700Y75666600D03*
%TO.N,19*%
X251472700Y82143600D03*
%TO.N,18*%
X249694700Y86461600D03*
%TO.N,17*%
X267220700Y106273600D03*
%TO.N,14*%
X228612700Y263245600D03*
X231152700Y258927600D03*
X231152700Y258927600D03*
X255282700Y250037600D03*
X257060700Y259308600D03*
X252742700Y253720600D03*
X252742700Y253720600D03*
X255282700Y250037600D03*
X255282700Y250037600D03*
X269252700Y235940600D03*
X264807700Y221970600D03*
X264807700Y221970600D03*
X262902700Y226796600D03*
X262902700Y226796600D03*
X260362700Y226923600D03*
X260362700Y226923600D03*
X239915700Y235305600D03*
X239915700Y235305600D03*
X293382700Y228701600D03*
X293382700Y228701600D03*
X297573700Y276961600D03*
X289826700Y266801600D03*
X304939700Y276580600D03*
X311035700Y275564600D03*
X311035700Y275564600D03*
X295922700Y275767800D03*
X293001700Y284835600D03*
X297446700Y276961600D03*
X142252700Y80111600D03*
X194576700Y117576600D03*
X149110700Y85064600D03*
X146062700Y82905600D03*
X146062700Y82905600D03*
X179209700Y68554600D03*
X179209700Y68554600D03*
X175907700Y66776600D03*
X148602700Y66141600D03*
X412762700Y262610600D03*
X412762700Y262610600D03*
X413397700Y256260600D03*
X413397700Y256260600D03*
X444512700Y246735600D03*
X182384700Y73634600D03*
X182384700Y73634600D03*
X182257700Y78460600D03*
X182257700Y78460600D03*
X192417700Y101320600D03*
X223532700Y132562600D03*
X205752700Y95097600D03*
X215277700Y101320600D03*
X161302700Y126720600D03*
X169176700Y117576600D03*
X186702700Y126212600D03*
X176542700Y121640600D03*
X197624700Y137287000D03*
X197472300Y137439400D03*
X194856100Y145465800D03*
X189699900Y140385800D03*
X185813700Y137998200D03*
X183756300Y140208000D03*
X183756300Y140182600D03*
X169176700Y117576600D03*
X176542700Y121640600D03*
X171183300Y134467600D03*
X171970700Y127101600D03*
X171970700Y127101600D03*
X176542700Y121640600D03*
X176542700Y121640600D03*
X176542700Y121640600D03*
X180555900Y116027200D03*
X189649100Y113868200D03*
X196100700Y116306600D03*
X200672700Y116052600D03*
X203339700Y121386600D03*
X207403700Y134010400D03*
X199402700Y126085600D03*
X207403700Y128371600D03*
X203339700Y121386600D03*
X203339700Y121386600D03*
X207403700Y128371600D03*
X207403700Y128371600D03*
X210832700Y126720600D03*
X210832700Y126720600D03*
X214642700Y126085600D03*
X214642700Y126085600D03*
X223532700Y132562600D03*
X223532700Y132562600D03*
X223532700Y124942600D03*
X223532700Y124942600D03*
X219722700Y111480600D03*
X219722700Y111480600D03*
X215277700Y101320600D03*
X215277700Y101320600D03*
X233057700Y96367600D03*
X226072700Y81127600D03*
X226072700Y81127600D03*
X233057700Y96367600D03*
X262267700Y85445600D03*
X233057700Y96367600D03*
X241947700Y93192600D03*
X241947700Y93192600D03*
X254647700Y95732600D03*
X248297700Y106273600D03*
X276237700Y77952600D03*
X267347700Y75920600D03*
X282587700Y91922600D03*
X273697700Y90652600D03*
X273697700Y90652600D03*
X262267700Y72872600D03*
X266077700Y72872600D03*
X266077700Y72872600D03*
X267347700Y75920600D03*
X267347700Y75920600D03*
X264807700Y75920600D03*
X264807700Y75920600D03*
X262267700Y85445600D03*
X262267700Y85445600D03*
X254647700Y95732600D03*
X254647700Y95732600D03*
X258457700Y97510600D03*
X248297700Y106273600D03*
X252107700Y106273600D03*
X252107700Y106273600D03*
X253377700Y106273600D03*
X253377700Y106273600D03*
X253377700Y106273600D03*
X254647700Y106273600D03*
X254647700Y106273600D03*
X253377700Y106273600D03*
X255917700Y106273600D03*
X255917700Y106273600D03*
X258457700Y97510600D03*
X268617700Y110972600D03*
X262267700Y102209600D03*
X262267700Y102209600D03*
X264807700Y102209600D03*
X264807700Y102209600D03*
X268617700Y110972600D03*
X258457700Y97510600D03*
X263537700Y97129600D03*
X263537700Y97129600D03*
X266077700Y97129600D03*
X266077700Y97129600D03*
X268617700Y97129600D03*
X268617700Y97129600D03*
X268617700Y110972600D03*
X268617700Y110972600D03*
X290842700Y138912600D03*
X297192700Y125831600D03*
X297192700Y125831600D03*
X290842700Y138912600D03*
X304812700Y128498600D03*
X297192700Y142341600D03*
X290842700Y138912600D03*
X297192700Y142341600D03*
X297192700Y142341600D03*
X363740700Y160629600D03*
X363740700Y160629600D03*
X361962700Y164312600D03*
X361962700Y164312600D03*
X447687700Y246735600D03*
X444512700Y246735600D03*
X444512700Y246735600D03*
X439432700Y235686600D03*
X439432700Y235686600D03*
X448322700Y226415600D03*
X448322700Y226415600D03*
X434352700Y220446600D03*
X434352700Y220446600D03*
X431812700Y220446600D03*
X431812700Y220446600D03*
X428002700Y219811600D03*
X428002700Y219811600D03*
X421017700Y199745600D03*
X409587700Y134340600D03*
X405904700Y136499600D03*
X405904700Y136499600D03*
X399427700Y138277600D03*
X399427700Y138277600D03*
X401332700Y138785600D03*
X401332700Y138785600D03*
X406158700Y142468600D03*
X406158700Y142468600D03*
X405396700Y156819600D03*
X422287700Y147167600D03*
X429399700Y135864600D03*
X422287700Y133959600D03*
X429399700Y135864600D03*
X435622700Y130784600D03*
X433082700Y130784600D03*
X433082700Y130784600D03*
X430542700Y130784600D03*
X430542700Y130784600D03*
X429399700Y135864600D03*
X429399700Y135864600D03*
X429399700Y135864600D03*
X431812700Y135864600D03*
X431812700Y135864600D03*
X434352700Y135864600D03*
X434352700Y135864600D03*
X422287700Y157200600D03*
X405396700Y156819600D03*
X415302700Y157200600D03*
X422287700Y157200600D03*
X415302700Y157200600D03*
X415302700Y157200600D03*
X411492700Y179425600D03*
X448322700Y195808600D03*
X447052700Y196824600D03*
X447052700Y196824600D03*
X445782700Y196824600D03*
X445782700Y196824600D03*
X443369700Y196824600D03*
X443369700Y196824600D03*
X442099700Y196824600D03*
X442099700Y196824600D03*
X440702700Y190982600D03*
X440702700Y190982600D03*
X436257700Y194030600D03*
X436257700Y194030600D03*
X421017700Y199745600D03*
X408444700Y196189600D03*
X410984700Y194665600D03*
X410984700Y194665600D03*
X410984700Y194665600D03*
X421017700Y199745600D03*
X421017700Y199745600D03*
X418096700Y188569600D03*
X418096700Y188569600D03*
X416191700Y185394600D03*
X416191700Y185394600D03*
X411492700Y179425600D03*
X411492700Y179425600D03*
X406920700Y179933600D03*
X406920700Y179933600D03*
X401332700Y189204600D03*
X401332700Y189204600D03*
X398411700Y181965600D03*
X398411700Y181965600D03*
X389775700Y180060600D03*
X386092700Y185648600D03*
X383044700Y181584600D03*
X384822700Y185648600D03*
X384822700Y185648600D03*
X386092700Y185648600D03*
X386092700Y185648600D03*
X394347700Y199110600D03*
X383552700Y199364600D03*
X350532700Y239750600D03*
X348754700Y221843600D03*
X383552700Y199364600D03*
X372884700Y196951600D03*
X348754700Y221843600D03*
X357009700Y219049600D03*
X357009700Y219049600D03*
X359803700Y221843600D03*
X359803700Y221843600D03*
X365518700Y220827600D03*
X365518700Y220827600D03*
X365518700Y220827600D03*
X370217700Y218795600D03*
X370217700Y218795600D03*
X372884700Y215620600D03*
X378345700Y218541600D03*
X372884700Y215620600D03*
X372884700Y215620600D03*
X372833900Y209626200D03*
X372884700Y203047600D03*
X372884700Y207365600D03*
X372833900Y209651600D03*
X372884700Y207365600D03*
X372884700Y207365600D03*
X372884700Y207365600D03*
X372884700Y196951600D03*
X372884700Y196951600D03*
X373392700Y187680600D03*
X373392700Y187680600D03*
X366661700Y188950600D03*
X366661700Y188950600D03*
X362089700Y190728600D03*
X362089700Y190728600D03*
X353199700Y190728600D03*
X353199700Y190728600D03*
X350151700Y189839600D03*
X350151700Y189839600D03*
X346087700Y197459600D03*
X341769700Y214985600D03*
X341769700Y209397600D03*
X341769700Y209397600D03*
X341769700Y209397600D03*
X346087700Y202031600D03*
X346087700Y197459600D03*
X346087700Y202031600D03*
X346087700Y202031600D03*
X346087700Y202031600D03*
X325640700Y203809600D03*
X325640700Y203809600D03*
X325640700Y203809600D03*
X320306700Y264261600D03*
X323862700Y270357600D03*
X323862700Y270357600D03*
X330212700Y270357600D03*
X330212700Y270357600D03*
X332244700Y266801600D03*
X332244700Y266801600D03*
X328180700Y260324600D03*
X328180700Y260324600D03*
X328180700Y260324600D03*
X292112700Y259435600D03*
X291350700Y255244600D03*
X291350700Y255244600D03*
X291477700Y210159600D03*
X282841700Y205333600D03*
X284111700Y205333600D03*
X284111700Y205333600D03*
X291477700Y210159600D03*
X291477700Y210159600D03*
X290233100Y212140800D03*
X290233100Y212166200D03*
X285000700Y217525600D03*
X285000700Y217398600D03*
X286524700Y221081600D03*
X285000700Y217398600D03*
X286524700Y221081600D03*
X283222700Y232765600D03*
X132473700Y133451600D03*
X132473700Y122021600D03*
X132473700Y122021600D03*
X132473700Y122021600D03*
X132473700Y120751600D03*
X132473700Y120751600D03*
X127393700Y111607600D03*
X125107700Y134975600D03*
X121043700Y138277600D03*
X121043700Y138277600D03*
X114947700Y142722600D03*
X114947700Y142722600D03*
X114947700Y142722600D03*
X103009700Y133451600D03*
X127393700Y111607600D03*
X120535700Y111607600D03*
X120535700Y111607600D03*
X113677700Y110210600D03*
X113677700Y110210600D03*
X111772700Y111607600D03*
X111772700Y111607600D03*
X108597700Y115925600D03*
X108597700Y115925600D03*
X105803700Y120751600D03*
X105803700Y120751600D03*
X105803700Y126339600D03*
X105803700Y126339600D03*
X105803700Y126339600D03*
X103009700Y133451600D03*
X103009700Y133451600D03*
X104533700Y131292600D03*
X104533700Y131292600D03*
X83832700Y127609600D03*
X85102700Y146786600D03*
X110502700Y84175600D03*
X106692700Y68300600D03*
X110375700Y70459600D03*
X106692700Y68300600D03*
X106692700Y68300600D03*
X93992700Y72745600D03*
X93992700Y61442600D03*
X86372700Y63855600D03*
X83959700Y66014600D03*
X86372700Y63855600D03*
X86372700Y63855600D03*
X93992700Y72745600D03*
X84340700Y95859600D03*
X87007700Y95605600D03*
X87007700Y95605600D03*
X93992700Y87985600D03*
X93992700Y87985600D03*
X87007700Y80365600D03*
X93992700Y72745600D03*
X87007700Y80365600D03*
X87007700Y80365600D03*
X84975700Y81762600D03*
X84975700Y81762600D03*
X72402700Y72618600D03*
X72402700Y72618600D03*
X64147700Y79730600D03*
X64147700Y79730600D03*
X60337700Y79095600D03*
X80022700Y121640600D03*
X80022700Y121640600D03*
X85102700Y121640600D03*
X85102700Y121640600D03*
X83832700Y127609600D03*
X83832700Y127609600D03*
X76212700Y127609600D03*
X76212700Y127609600D03*
X78752700Y142722600D03*
X57162700Y121640600D03*
X64782700Y127609600D03*
X60972700Y121640600D03*
X60972700Y121640600D03*
X57162700Y121640600D03*
X57162700Y121640600D03*
X57162700Y127609600D03*
X57162700Y127609600D03*
X59702700Y146786600D03*
X78752700Y142722600D03*
X82562700Y146786600D03*
X85102700Y146786600D03*
X82562700Y146786600D03*
X82562700Y146786600D03*
X82562700Y146786600D03*
X80022700Y146786600D03*
X80022700Y146786600D03*
X77482700Y146786600D03*
X77482700Y146786600D03*
X74942700Y146786600D03*
X74942700Y146786600D03*
X72402700Y146786600D03*
X72402700Y146786600D03*
X69862700Y146786600D03*
X69862700Y146786600D03*
X67322700Y146786600D03*
X67322700Y146786600D03*
X59702700Y146786600D03*
X63512700Y142722600D03*
X59702700Y146786600D03*
X59702700Y146786600D03*
X59702700Y146786600D03*
X57162700Y146786600D03*
X41922700Y146786600D03*
X44462700Y146786600D03*
X44462700Y146786600D03*
X47002700Y146786600D03*
X47002700Y146786600D03*
X49542700Y146786600D03*
X49542700Y146786600D03*
X52082700Y146786600D03*
X52082700Y146786600D03*
X54622700Y146786600D03*
X54622700Y146786600D03*
X57162700Y146786600D03*
X57162700Y146786600D03*
X56527700Y159740600D03*
X78371700Y164566600D03*
X66687700Y165455600D03*
X66687700Y165455600D03*
X56527700Y159740600D03*
X56527700Y159740600D03*
X45732700Y166090600D03*
X224802700Y169265600D03*
X234073700Y175869600D03*
X228358700Y180695600D03*
X228358700Y180695600D03*
X234073700Y175869600D03*
X234073700Y175869600D03*
X238264700Y180695600D03*
X238264700Y180695600D03*
X246392700Y187172600D03*
X251345700Y181203600D03*
X246392700Y187172600D03*
X246392700Y187172600D03*
X251980700Y199364600D03*
X248170700Y209270600D03*
X248170700Y209270600D03*
X245630700Y205714600D03*
X251980700Y199364600D03*
X251980700Y199364600D03*
X251980700Y199364600D03*
X245630700Y205714600D03*
X245630700Y205714600D03*
X239153700Y208508600D03*
X239153700Y208508600D03*
X239153700Y208508600D03*
X236232700Y209270600D03*
X236232700Y209270600D03*
X232422700Y204952600D03*
X232422700Y204952600D03*
X229501700Y211429600D03*
X229501700Y211429600D03*
X225564700Y208762600D03*
X228231700Y198602600D03*
X225564700Y208762600D03*
X225564700Y208762600D03*
X197370700Y242290600D03*
X201942700Y250672600D03*
X211975700Y255879600D03*
X200291700Y252450600D03*
X200291700Y252450600D03*
X201942700Y250672600D03*
X201307700Y250672600D03*
X180352700Y229717600D03*
X180352700Y204317600D03*
X180352700Y229717600D03*
X180352700Y229717600D03*
X174383700Y243433600D03*
X91706700Y247751600D03*
X91706700Y243941600D03*
X91706700Y243941600D03*
X95516700Y243941600D03*
X95516700Y243941600D03*
X109232700Y237845600D03*
X124980700Y261594600D03*
X118122700Y278612600D03*
X54114700Y245338600D03*
X174383700Y243433600D03*
X160413700Y239496600D03*
X66814700Y250799600D03*
X66814700Y250799600D03*
X54114700Y245338600D03*
X54114700Y245338600D03*
X118122700Y278612600D03*
X123202700Y178790600D03*
X124599700Y184378600D03*
X129552700Y185521600D03*
X124599700Y184378600D03*
X124599700Y184378600D03*
X121932700Y194411600D03*
X149872700Y194411600D03*
X143522700Y181711600D03*
X143522700Y181711600D03*
X148602700Y184378600D03*
X148602700Y184378600D03*
X149872700Y194411600D03*
X149872700Y194411600D03*
X149872700Y194411600D03*
X143522700Y202031600D03*
X143522700Y209651600D03*
X143522700Y202031600D03*
X143522700Y202031600D03*
X137807700Y203555600D03*
X137807700Y203555600D03*
X130822700Y205841600D03*
X121932700Y194411600D03*
X125742700Y200888600D03*
X125742700Y200888600D03*
X125742700Y200888600D03*
X125742700Y203301600D03*
X125742700Y203301600D03*
X125742700Y205841600D03*
X130822700Y205841600D03*
X129552700Y205841600D03*
X129552700Y205841600D03*
X128282700Y205841600D03*
X128282700Y205841600D03*
X127012700Y205841600D03*
X127012700Y205841600D03*
X125742700Y205841600D03*
X125742700Y205841600D03*
X124472700Y217398600D03*
X74942700Y284073600D03*
X65417700Y278993600D03*
X65417700Y278993600D03*
X71132700Y277850600D03*
X71132700Y277850600D03*
X72783700Y279247600D03*
X80022700Y280009600D03*
X77482700Y284073600D03*
X77482700Y284073600D03*
X74942700Y284073600D03*
X74942700Y284073600D03*
X72783700Y279247600D03*
X72783700Y279247600D03*
X78752700Y278993600D03*
X78752700Y278993600D03*
X81292700Y278993600D03*
X81292700Y278993600D03*
X87515700Y278485600D03*
X87515700Y278485600D03*
X88912700Y272770600D03*
X101612700Y268325600D03*
X97802700Y268960600D03*
X97802700Y268960600D03*
X88912700Y272770600D03*
X88912700Y272770600D03*
X114312700Y277977600D03*
X160413700Y239496600D03*
X152793700Y243941600D03*
X137172700Y277977600D03*
X114312700Y277977600D03*
X118122700Y278612600D03*
X118122700Y278612600D03*
X129552700Y277977600D03*
X129552700Y277977600D03*
X133362700Y277977600D03*
X133362700Y277977600D03*
X137172700Y277977600D03*
X137172700Y277977600D03*
X140474700Y266420600D03*
X140474700Y266420600D03*
X146062700Y266039600D03*
X146062700Y266039600D03*
X147332700Y266039600D03*
X147332700Y266039600D03*
X152666700Y260959600D03*
X163207700Y266039600D03*
X159397700Y270103600D03*
X159397700Y270103600D03*
X158127700Y270103600D03*
X158127700Y270103600D03*
X160667700Y260959600D03*
X164477700Y260959600D03*
X161937700Y260959600D03*
X161937700Y260959600D03*
X160667700Y260959600D03*
X160667700Y260959600D03*
X160667700Y260959600D03*
X152666700Y260959600D03*
X152666700Y260959600D03*
X151142700Y265404600D03*
X151142700Y265404600D03*
X153555700Y254355600D03*
X142252700Y253720600D03*
X145808700Y248640600D03*
X156222700Y248640600D03*
X153555700Y254355600D03*
X152793700Y243941600D03*
X149872700Y248640600D03*
X153555700Y254355600D03*
X149872700Y248640600D03*
X149872700Y248640600D03*
X145808700Y248640600D03*
X145808700Y248640600D03*
X145808700Y248640600D03*
X144792700Y239369600D03*
X144792700Y239369600D03*
X140982700Y239750600D03*
X140982700Y239750600D03*
X109232700Y237845600D03*
X114312700Y236575600D03*
X114312700Y236575600D03*
X117868700Y233400600D03*
X117868700Y233400600D03*
X117868700Y233400600D03*
X74942700Y225780600D03*
X83832700Y224002600D03*
X124472700Y217398600D03*
X124472700Y217398600D03*
X124472700Y217398600D03*
X115582700Y216890600D03*
X115582700Y216890600D03*
X110502700Y224383600D03*
X110502700Y224383600D03*
X105422700Y225399600D03*
X105422700Y225399600D03*
X104152700Y225018600D03*
X104152700Y225018600D03*
X104152700Y225018600D03*
X95262700Y220319600D03*
X95262700Y220319600D03*
X88912700Y225399600D03*
X88912700Y225399600D03*
X83832700Y224002600D03*
X83832700Y224002600D03*
X76212700Y209651600D03*
X67322700Y210794600D03*
X71132700Y207111600D03*
X71132700Y207111600D03*
X76212700Y209651600D03*
X76212700Y209651600D03*
X78752700Y199745600D03*
X78752700Y199745600D03*
X71132700Y190601600D03*
X86372700Y187680600D03*
X81292700Y177647600D03*
X81292700Y177647600D03*
X71132700Y190601600D03*
%TO.N,13*%
X130822700Y84810600D03*
%TO.N,12*%
X375170700Y190601600D03*
%TO.N,8*%
X114947700Y128879600D03*
X112915700Y121640600D03*
X105549700Y128371600D03*
%TO.N,7*%
X127393700Y131800600D03*
%TO.N,6*%
X121297700Y83667600D03*
X118503700Y133578600D03*
%TD*%
D33*
%TO.N,264*%
X450227700Y214223600D02*
G75*
G02*
X446925700Y210921600I-3302000J0D01*
G01*
X448322700Y283946600D02*
G75*
G02*
X450227700Y282041600I0J-1905000D01*
G01*
X447941700Y283946600D02*
G75*
G02*
X447052700Y284835600I0J889000D01*
G01*
X445147700Y292836600D02*
G75*
G02*
X447052700Y290931600I0J-1905000D01*
G01*
X442353700Y291439600D02*
G75*
G02*
X443750700Y292836600I1397000J0D01*
G01*
D34*
%TO.N,787*%
X219341700Y173202600D02*
X219341700Y175107600D01*
X219341700Y173202600D02*
X222389700Y173202600D01*
X222389700Y144754600D02*
X222389700Y173202600D01*
X221373700Y144754600D02*
X222389700Y144754600D01*
X221373700Y142468600D02*
X221373700Y144754600D01*
%TO.N,633*%
X377456700Y211048600D02*
X377964700Y211048600D01*
D33*
X377964700Y211048600D02*
X380250700Y211048600D01*
X380250700Y208381600D02*
X380250700Y211048600D01*
X380250700Y208381600D02*
X401586700Y208381600D01*
D34*
%TO.N,385*%
X154952700Y111226600D02*
X161302700Y111226600D01*
X161302700Y111226600D02*
X163842700Y111226600D01*
X163842700Y111226600D02*
X163842700Y113131600D01*
X163842700Y113131600D02*
X163842700Y113766600D01*
X163842700Y113766600D02*
X167043100Y113766600D01*
X167017700Y115036600D02*
X167043100Y113766600D01*
X167017700Y114782600D02*
X167017700Y115036600D01*
%TO.N,382*%
X303161700Y220319600D02*
X303415700Y220319600D01*
X303415700Y218160600D02*
X303415700Y220319600D01*
X295719500Y218160600D02*
X303415700Y218160600D01*
X295719500Y218160600D02*
X295719500Y222986600D01*
X270014700Y222986600D02*
X295719500Y222986600D01*
X270014700Y220827600D02*
X270014700Y222986600D01*
X263156700Y220827600D02*
X270014700Y220827600D01*
X263156700Y220827600D02*
X263156700Y224891600D01*
X243344700Y224891600D02*
X263156700Y224891600D01*
D35*
X222770700Y224891600D02*
X243344700Y224891600D01*
D34*
X221119700Y224891600D02*
X222770700Y224891600D01*
X221119700Y218287600D02*
X221119700Y224891600D01*
X219976700Y218287600D02*
X221119700Y218287600D01*
X219976700Y218287600D02*
X220103700Y202539600D01*
X217766900Y200228200D02*
X220103700Y202539600D01*
X216166700Y198602600D02*
X217766900Y200228200D01*
X216166700Y197535800D02*
X216166700Y198602600D01*
X190842900Y197535800D02*
X216166700Y197535800D01*
X190842900Y197535800D02*
X190842900Y199948800D01*
X190842900Y199948800D02*
X191249300Y199872600D01*
X144056100Y179781200D02*
X144767300Y179781200D01*
X144767300Y179781200D02*
X144792700Y172059600D01*
X144792700Y172059600D02*
X145427700Y172059600D01*
X145427700Y172059600D02*
X145453100Y171450000D01*
X145453100Y171450000D02*
X145554700Y134721600D01*
X144157700Y134721600D02*
X145554700Y134721600D01*
X146062700Y115036600D02*
X161937700Y115036600D01*
%TO.N,379*%
X213626700Y243306600D02*
X214769700Y243179600D01*
X213626700Y243306600D02*
X213753700Y243179600D01*
X213753700Y222986600D02*
X213753700Y243179600D01*
X213753700Y222986600D02*
X214134700Y222986600D01*
%TO.N,377*%
X172605700Y217779600D02*
X172656500Y241096800D01*
X172605700Y217779600D02*
X192036700Y217779600D01*
X192036700Y213969600D02*
X192036700Y217779600D01*
X192036700Y213969600D02*
X194322700Y213969600D01*
X194322700Y210540600D02*
X194322700Y213969600D01*
X194322700Y210540600D02*
X216065100Y210540600D01*
X215963500Y214655400D02*
X216065100Y210540600D01*
X215963500Y214655400D02*
X216090500Y215138000D01*
D33*
%TO.N,321*%
X350532700Y210413600D02*
X368185700Y210413600D01*
X350024700Y177393600D02*
X350024700Y179806600D01*
X317512700Y179806600D02*
X350024700Y179806600D01*
%TO.N,264*%
X443115700Y210921600D02*
X446925700Y210921600D01*
X450227700Y214223600D02*
X450227700Y282041600D01*
X447941700Y283946600D02*
X448322700Y283946600D01*
X447052700Y284835600D02*
X447052700Y290931600D01*
X443750700Y292836600D02*
X445147700Y292836600D01*
X442353700Y290296600D02*
X442353700Y291439600D01*
D35*
%TO.N,14*%
X197472300Y137439400D02*
X197624700Y137287000D01*
X189649100Y113868200D02*
X189674500Y113893600D01*
%TD*%
M02*
