; XNC file generated by gerbonara
M48
INCH
T01C000.02000
T02C000.02500
T03C000.03800
T04C000.05000
T05C000.05500
T06C000.06200
T07C000.07500
T08C000.09000
T09C000.10900
T10C000.12500
T11C000.13800
T12C000.13900
T13C000.15000
T14C000.15800
T15C000.19600
T16C000.23700
T17C000.27600
%
T01
G05
X007.29600Y002.29400
X003.27100Y002.41900
X003.35100Y002.41900
X003.46600Y002.41900
X003.70100Y002.41900
X003.51600Y002.44900
X003.41600Y002.46400
X003.56600Y002.50900
X003.40100Y002.51400
X003.61600Y002.52400
X003.30600Y002.59900
X005.85100Y002.60400
X003.24100Y002.60900
X006.92600Y002.62900
X004.20100Y002.68900
X007.05600Y002.69900
X005.26600Y002.70900
X005.75200Y002.72900
X007.12300Y002.72900
X003.20100Y002.75900
X004.34600Y002.77400
X003.41600Y002.81400
X005.93400Y002.81400
X002.56600Y002.82900
X010.87600Y002.83900
X001.67600Y002.85400
X002.51600Y002.85900
X002.61600Y002.85900
X002.85100Y002.85900
X003.29100Y002.86400
X003.49100Y002.86400
X003.70100Y002.86400
X010.32600Y002.86900
X010.47600Y002.86900
X007.18100Y002.89900
X004.20100Y002.91900
X004.37600Y002.91900
X007.08100Y002.91900
X007.23100Y002.91900
X001.80100Y002.93400
X005.85100Y002.96400
X006.47600Y002.96900
X008.97600Y002.97900
X005.74600Y002.98400
X002.35600Y002.98900
X010.42600Y002.98900
X010.52600Y002.98900
X002.20100Y003.01900
X003.72100Y003.01900
X005.80100Y003.02900
X002.25100Y003.05400
X010.87600Y003.06900
X002.44100Y003.07400
X003.28100Y003.07400
X003.38100Y003.07400
X007.17600Y003.08900
X002.37600Y003.11400
X003.58600Y003.11400
X002.52600Y003.13900
X007.15100Y003.13900
X002.24600Y003.15400
X005.60100Y003.15400
X003.42600Y003.16400
X003.66600Y003.17400
X001.95100Y003.18900
X008.90100Y003.19400
X003.09100Y003.20400
X003.20100Y003.21900
X003.34600Y003.21900
X006.98600Y003.22400
X008.02100Y003.22400
X009.90100Y003.23400
X002.45600Y003.23900
X003.55100Y003.23900
X003.63600Y003.23900
X003.14100Y003.24900
X003.05100Y003.25400
X004.22600Y003.25400
X005.75100Y003.26400
X002.03100Y003.28400
X004.77600Y003.29400
X007.97600Y003.30400
X004.35100Y003.31400
X005.15100Y003.33900
X008.49600Y003.33900
X010.67100Y003.33900
X003.19100Y003.34400
X005.05100Y003.34400
X005.87100Y003.34900
X010.32600Y003.36400
X007.43600Y003.38900
X010.72100Y003.38900
X002.40100Y003.39400
X002.52600Y003.39400
X002.63600Y003.39400
X002.78600Y003.39400
X002.85100Y003.39400
X003.24100Y003.39400
X003.37600Y003.39400
X003.42600Y003.39400
X003.55600Y003.39400
X007.01600Y003.39400
X009.83100Y003.40400
X003.68600Y003.41400
X009.63600Y003.42400
X002.54100Y003.44400
X002.90100Y003.45900
X003.27600Y003.45900
X003.45600Y003.45900
X004.38100Y003.45900
X003.70100Y003.46400
X001.85100Y003.46900
X011.75600Y003.48900
X005.75100Y003.49400
X005.90100Y003.49400
X002.80100Y003.51400
X009.17600Y003.51400
X002.70100Y003.51900
X005.40100Y003.55400
X010.77600Y003.56900
X002.48600Y003.57400
X007.05600Y003.60400
X003.75100Y003.62400
X002.50100Y003.63400
X006.08100Y003.63900
X003.43600Y003.65400
X005.50100Y003.65900
X003.90100Y003.66400
X009.52600Y003.66900
X005.71100Y003.67400
X004.65100Y003.67900
X006.42600Y003.67900
X004.00100Y003.69400
X008.70100Y003.73400
X007.97600Y003.74400
X008.10100Y003.74400
X004.10100Y003.74900
X009.60100Y003.74900
X007.52600Y003.75400
X003.42600Y003.76400
X009.87600Y003.76900
X010.02600Y003.76900
X003.32100Y003.77400
X003.95100Y003.79400
X009.17600Y003.79400
X007.48500Y003.80900
X003.34100Y003.82400
X009.87600Y003.82400
X009.97600Y003.82400
X010.02600Y003.82400
X010.07600Y003.82400
X010.37600Y003.82400
X010.47600Y003.82400
X010.57600Y003.82400
X010.62600Y003.82400
X006.32600Y003.82900
X006.52600Y003.82900
X006.62600Y003.82900
X006.70100Y003.82900
X003.49100Y003.83900
X003.58600Y003.83900
X003.68100Y003.83900
X010.17600Y003.83900
X009.63600Y003.84400
X004.85100Y003.86900
X009.73100Y003.86900
X003.15100Y003.90400
X004.42600Y003.91900
X007.02500Y003.92400
X007.87600Y003.92900
X008.04600Y003.92900
X007.24100Y003.94400
X007.29900Y003.96300
X005.76100Y003.96400
X004.31600Y003.97400
X004.15100Y003.97900
X004.22600Y003.97900
X008.70100Y003.97900
X007.57600Y003.98900
X008.47600Y003.98900
X003.25100Y003.99400
X003.37100Y003.99400
X003.42600Y003.99400
X009.91600Y003.99900
X008.89600Y004.01400
X009.82100Y004.02400
X010.32600Y004.02400
X010.42600Y004.02400
X005.60600Y004.02900
X006.75100Y004.02900
X007.79600Y004.03400
X010.17600Y004.06900
X004.88600Y004.09400
X010.72100Y004.09900
X006.78600Y004.11900
X005.97600Y004.13900
X009.67100Y004.14900
X006.40100Y004.15400
X010.90100Y004.15400
X006.93100Y004.16400
X008.53100Y004.17400
X007.43500Y004.17900
X008.26100Y004.17900
X009.77600Y004.18400
X009.92600Y004.18400
X009.97600Y004.18400
X010.02600Y004.18400
X010.07600Y004.18400
X010.52100Y004.18400
X007.50900Y004.19200
X009.38100Y004.19400
X011.47600Y004.21400
X004.85100Y004.21900
X008.17600Y004.21900
X005.87600Y004.22400
X007.99100Y004.22400
X007.09600Y004.23400
X006.57600Y004.24400
X005.30100Y004.24900
X005.82600Y004.24900
X006.93100Y004.24900
X007.48100Y004.24900
X007.53100Y004.24900
X007.60100Y004.24900
X007.68100Y004.24900
X007.37100Y004.25100
X004.16600Y004.25400
X004.37100Y004.25400
X007.32100Y004.26600
X008.08100Y004.27400
X008.01100Y004.29400
X008.26100Y004.29900
X004.98600Y004.30400
X007.02600Y004.31400
X007.30600Y004.31400
X007.48600Y004.31400
X007.67100Y004.31400
X007.72600Y004.31400
X007.90100Y004.31400
X004.64100Y004.31900
X005.15100Y004.31900
X005.23600Y004.31900
X005.38600Y004.31900
X004.75100Y004.32900
X004.91600Y004.33400
X006.65100Y004.33400
X004.47600Y004.33900
X004.86600Y004.34400
X005.31600Y004.35400
X006.50600Y004.35400
X004.53100Y004.35900
X010.57600Y004.36900
X006.05200Y004.37900
X006.10100Y004.37900
X006.35100Y004.37900
X009.48600Y004.38400
X008.65100Y004.38900
X004.40100Y004.39400
X004.74600Y004.39400
X004.84100Y004.39400
X005.01600Y004.39400
X005.15100Y004.39400
X003.58600Y004.39900
X005.66600Y004.39900
X008.16100Y004.39900
X011.82100Y004.41400
X006.71100Y004.41900
X004.03100Y004.43900
X008.07600Y004.46900
X006.36100Y004.47400
X007.37100Y004.47400
X007.19300Y004.47500
X007.46700Y004.48300
X007.95600Y004.48900
X008.50600Y004.48900
X007.14400Y004.49200
X006.98600Y004.49900
X007.54100Y004.50400
X008.24600Y004.50900
X005.45100Y004.51400
X008.16600Y004.51400
X006.57600Y004.51900
X007.72100Y004.51900
X009.53100Y004.52400
X005.75100Y004.52900
X006.37600Y004.52900
X006.78600Y004.53900
X007.35600Y004.53900
X007.51600Y004.55900
X004.27600Y004.56400
X004.37600Y004.56400
X004.67600Y004.56400
X004.91600Y004.56400
X004.96600Y004.56400
X005.05100Y004.56400
X005.32600Y004.56400
X005.48600Y004.56400
X006.96600Y004.56400
X007.21100Y004.56400
X007.10900Y004.56800
X004.47600Y004.56900
X007.90100Y004.56900
X005.21600Y004.57900
X007.46100Y004.57900
X007.72100Y004.57900
X005.55100Y004.58900
X004.56100Y004.59400
X008.24600Y004.59400
X008.38100Y004.59400
X003.99600Y004.60400
X011.65100Y004.60400
X004.71600Y004.61400
X007.31200Y004.61700
X005.90600Y004.61900
X008.65100Y004.61900
X008.80100Y004.61900
X008.45100Y004.62400
X005.19100Y004.62900
X006.66100Y004.62900
X006.71100Y004.62900
X006.94600Y004.62900
X007.66100Y004.62900
X004.07600Y004.63900
X004.37100Y004.63900
X006.36600Y004.63900
X004.57100Y004.64400
X005.14100Y004.64400
X006.99600Y004.64400
X006.04600Y004.64900
X008.98600Y004.65400
X007.43100Y004.65900
X007.95600Y004.66400
X002.66600Y004.66900
X006.15100Y004.66900
X002.71600Y004.67400
X009.54100Y004.68400
X007.48100Y004.68900
X008.42100Y004.68900
X008.47100Y004.68900
X008.30100Y004.69400
X006.23600Y004.70400
X003.10100Y004.70900
X008.95600Y004.70900
X007.55100Y004.71900
X014.52100Y004.71900
X002.87600Y004.72900
X004.41100Y004.72900
X005.15100Y004.72900
X004.96100Y004.73900
X006.10600Y004.73900
X006.30100Y004.74400
X006.47600Y004.74400
X006.59600Y004.74400
X007.95600Y004.74400
X006.77300Y004.74600
X007.02600Y004.74900
X014.57100Y004.74900
X004.16600Y004.75400
X005.21600Y004.75400
X008.70600Y004.75400
X006.72600Y004.76400
X008.16600Y004.76400
X004.33600Y004.77900
X006.01100Y004.77900
X008.00600Y004.77900
X002.25100Y004.78900
X002.40100Y004.78900
X003.15100Y004.78900
X003.35100Y004.78900
X006.95100Y004.78900
X007.09100Y004.78900
X005.14100Y004.79400
X009.60100Y004.79500
X008.53600Y004.79900
X014.55100Y004.79900
X004.13100Y004.80400
X004.45100Y004.80400
X005.21600Y004.80400
X006.06600Y004.80400
X009.73600Y004.80900
X006.14600Y004.81400
X007.57000Y004.82100
X007.99600Y004.82900
X008.89600Y004.83400
X013.01600Y004.83400
X009.57600Y004.84400
X011.82100Y004.84400
X006.31600Y004.84900
X008.57100Y004.84900
X005.38600Y004.85400
X007.46600Y004.86400
X004.16600Y004.86900
X005.44100Y004.86900
X004.51700Y004.87300
X003.20600Y004.87900
X004.79100Y004.87900
X004.06600Y004.88400
X008.71800Y004.88400
X003.71600Y004.88900
X005.14100Y004.88900
X008.86100Y004.88900
X013.27100Y004.89400
X006.78600Y004.89900
X007.93100Y004.89900
X004.46100Y004.90400
X006.20100Y004.91400
X007.09600Y004.91400
X005.49600Y004.91900
X008.67600Y004.91900
X008.80100Y004.91900
X006.59100Y004.92400
X006.73600Y004.92400
X005.43600Y004.92900
X005.14600Y004.93900
X008.59100Y004.93900
X008.00600Y004.94400
X005.69600Y004.95400
X011.51100Y004.95400
X011.70100Y004.95400
X011.81100Y004.95400
X003.29600Y004.95900
X009.51100Y004.95900
X014.55100Y004.95900
X007.65100Y004.96400
X007.85100Y004.96400
X008.45100Y004.96400
X005.39100Y004.96900
X007.35100Y004.96900
X008.24600Y004.96900
X004.16600Y004.97400
X011.40600Y004.97400
X009.67600Y004.97900
X011.15100Y004.97900
X005.05100Y004.98400
X004.69600Y004.98900
X006.35100Y004.98900
X008.16600Y004.98900
X008.30100Y004.98900
X004.34600Y004.99400
X006.77100Y005.00400
X001.90100Y005.01900
X002.85100Y005.01900
X008.52600Y005.01900
X002.25100Y005.02400
X002.40100Y005.02400
X002.55100Y005.02400
X003.00100Y005.02400
X003.05100Y005.02400
X003.15100Y005.02400
X003.30100Y005.02400
X004.47600Y005.02400
X005.68100Y005.02400
X007.48100Y005.02400
X008.00600Y005.02400
X009.83600Y005.03400
X006.99600Y005.03900
X015.06600Y005.03900
X007.94100Y005.04400
X012.19600Y005.04900
X003.77600Y005.05400
X003.95100Y005.05400
X004.15600Y005.05400
X006.42100Y005.05400
X006.78600Y005.05400
X008.16600Y005.05400
X014.85100Y005.05400
X012.00100Y005.05900
X005.21600Y005.06400
X005.40100Y005.06400
X004.88600Y005.06900
X008.54100Y005.06900
X012.14600Y005.06900
X006.94600Y005.07400
X008.00600Y005.07400
X013.42600Y005.07900
X004.42600Y005.08900
X005.48100Y005.09400
X007.57100Y005.09400
X007.92100Y005.09400
X008.38100Y005.09400
X010.34600Y005.09400
X011.30100Y005.09400
X002.93600Y005.10400
X012.60600Y005.10400
X005.05100Y005.10900
X007.01100Y005.10900
X007.21100Y005.10900
X005.43100Y005.11400
X009.59100Y005.11900
X015.19600Y005.12400
X003.82600Y005.12900
X004.07600Y005.12900
X004.16600Y005.12900
X016.95100Y005.14900
X017.05100Y005.14900
X017.15100Y005.14900
X011.51600Y005.15400
X004.34100Y005.15900
X002.19600Y005.16400
X015.72600Y005.16400
X004.11600Y005.16900
X006.94600Y005.16900
X007.40100Y005.17400
X005.01600Y005.18900
X005.21600Y005.18900
X007.02100Y005.19900
X007.76600Y005.19900
X013.24100Y005.19900
X003.94100Y005.20400
X012.47100Y005.20400
X007.92600Y005.20900
X006.20100Y005.21900
X006.35100Y005.21900
X008.80100Y005.21900
X003.20600Y005.22400
X004.60100Y005.22900
X008.30600Y005.22900
X006.62600Y005.23400
X011.95100Y005.23400
X002.88600Y005.23900
X008.71800Y005.23900
X016.78100Y005.23900
X013.07100Y005.24400
X006.67600Y005.24900
X007.99100Y005.24900
X004.05600Y005.25400
X004.75100Y005.25400
X005.21600Y005.25400
X010.05600Y005.25400
X004.66600Y005.25900
X007.76600Y005.25900
X006.45100Y005.26400
X005.40100Y005.26900
X007.30500Y005.26900
X007.47100Y005.26900
X007.56900Y005.26900
X007.62100Y005.26900
X016.17600Y005.26900
X016.52600Y005.26900
X007.90400Y005.27000
X008.43100Y005.27400
X009.97100Y005.27400
X016.57600Y005.27400
X016.62600Y005.27400
X008.16600Y005.27600
X015.34600Y005.27900
X002.67600Y005.28400
X006.94600Y005.28900
X016.12600Y005.28900
X006.74000Y005.29400
X007.67100Y005.29400
X007.83100Y005.29400
X016.24100Y005.29900
X005.67600Y005.30400
X006.05100Y005.30400
X008.91900Y005.30900
X004.92600Y005.31400
X012.10600Y005.31400
X003.48600Y005.31900
X004.00100Y005.31900
X005.40100Y005.31900
X011.30100Y005.31900
X016.63100Y005.32400
X006.42100Y005.32900
X002.77600Y005.33400
X004.16600Y005.33400
X004.42600Y005.33400
X004.67100Y005.34400
X004.99600Y005.34400
X005.21600Y005.34400
X016.90600Y005.34900
X017.00100Y005.34900
X017.10100Y005.34900
X005.55100Y005.35000
X014.62600Y005.35400
X006.52100Y005.35900
X007.05600Y005.35900
X007.35100Y005.36400
X006.94600Y005.36900
X006.62600Y005.37400
X008.59600Y005.37400
X008.71100Y005.37400
X010.02100Y005.37400
X015.98100Y005.37400
X016.06100Y005.37400
X016.27600Y005.37400
X016.67600Y005.37400
X007.74100Y005.37600
X004.74600Y005.37900
X002.25100Y005.38400
X002.35100Y005.38400
X002.44100Y005.38400
X003.00100Y005.38400
X003.10100Y005.38400
X003.15100Y005.38400
X003.20100Y005.38400
X003.81600Y005.38400
X007.47100Y005.38400
X007.57100Y005.38400
X007.10000Y005.38600
X007.90600Y005.38700
X002.05100Y005.38900
X002.80100Y005.38900
X004.52600Y005.38900
X004.57600Y005.38900
X007.85200Y005.38900
X016.60100Y005.38900
X004.99600Y005.39400
X011.23600Y005.39400
X007.24700Y005.40000
X004.05100Y005.40400
X008.16600Y005.40400
X008.30100Y005.40400
X007.78100Y005.40500
X007.99900Y005.40700
X006.56100Y005.40900
X006.47100Y005.41400
X015.00100Y005.41900
X008.79600Y005.42400
X010.89600Y005.42900
X007.31600Y005.43300
X006.31600Y005.43400
X007.17600Y005.43400
X007.38400Y005.43400
X003.86100Y005.44400
X004.39600Y005.44400
X004.46600Y005.44400
X004.65100Y005.44400
X004.76600Y005.44400
X004.81600Y005.44400
X004.99500Y005.44400
X015.72600Y005.44400
X006.74600Y005.44900
X006.94600Y005.44900
X015.30100Y005.45400
X011.30100Y005.46400
X015.80100Y005.46400
X009.77100Y005.46900
X011.45100Y005.46900
X013.94100Y005.48900
X008.16600Y005.49400
X015.40100Y005.49400
X007.61600Y005.49900
X013.89100Y005.50400
X016.85100Y005.50900
X017.01100Y005.50900
X007.78400Y005.51400
X007.01600Y005.51900
X007.23500Y005.52000
X007.18500Y005.52600
X007.46900Y005.52700
X008.43100Y005.52900
X015.33100Y005.52900
X016.70600Y005.52900
X007.90800Y005.53100
X003.00600Y005.53400
X002.85600Y005.53900
X015.97600Y005.54400
X016.38600Y005.54400
X016.47100Y005.54400
X016.56600Y005.54400
X003.33600Y005.54900
X008.54100Y005.55400
X005.66100Y005.56400
X006.66600Y005.56400
X011.95100Y005.56400
X008.02600Y005.56900
X008.19600Y005.56900
X012.10100Y005.56900
X014.10600Y005.56900
X016.09100Y005.57400
X014.20100Y005.57900
X002.44600Y005.58400
X005.82700Y005.58400
X006.85600Y005.58400
X008.12600Y005.58900
X013.86100Y005.58900
X016.83100Y005.58900
X008.62600Y005.59400
X011.58100Y005.60400
X011.70100Y005.60400
X011.81600Y005.60400
X012.97600Y005.60400
X015.30100Y005.60400
X008.71600Y005.60900
X011.11600Y005.60900
X015.99100Y005.60900
X016.21100Y005.60900
X004.59100Y005.61400
X004.64100Y005.61400
X004.83600Y005.61400
X005.15100Y005.61400
X006.94600Y005.61400
X002.50100Y005.61900
X003.10100Y005.61900
X004.52600Y005.61900
X008.86100Y005.62900
X008.02100Y005.63900
X008.25600Y005.63900
X008.47600Y005.63900
X016.06100Y005.63900
X016.14100Y005.63900
X016.42100Y005.63900
X005.48100Y005.64400
X002.78600Y005.65400
X008.20600Y005.65400
X005.84000Y005.67900
X009.42600Y005.67900
X011.33100Y005.67900
X013.96600Y005.67900
X003.47100Y005.68400
X003.90100Y005.68400
X006.39600Y005.68400
X006.45100Y005.68400
X004.20100Y005.69900
X007.48100Y005.69900
X014.27600Y005.69900
X006.17600Y005.70400
X014.04100Y005.70400
X008.25600Y005.71900
X008.60100Y005.71900
X007.80600Y005.72400
X007.87600Y005.72400
X010.79600Y005.72400
X011.07600Y005.72400
X002.64100Y005.72900
X007.66600Y005.72900
X015.45100Y005.72900
X005.30100Y005.73400
X006.41600Y005.73400
X007.74100Y005.73900
X008.02100Y005.73900
X011.15100Y005.74400
X006.51600Y005.75400
X011.46600Y005.75400
X011.63600Y005.75400
X007.37100Y005.75900
X004.10100Y005.76400
X004.74600Y005.76400
X004.79600Y005.76400
X004.92600Y005.76400
X008.67600Y005.76400
X011.51600Y005.76900
X001.65100Y005.77900
X001.75100Y005.77900
X001.85100Y005.77900
X001.95100Y005.77900
X002.05100Y005.77900
X002.15100Y005.77900
X002.25100Y005.77900
X002.35100Y005.77900
X002.65100Y005.77900
X002.75100Y005.77900
X002.85100Y005.77900
X002.95100Y005.77900
X003.05100Y005.77900
X003.15100Y005.77900
X003.25100Y005.77900
X003.35100Y005.77900
X007.49600Y005.77900
X011.86600Y005.78400
X006.15100Y005.79400
X016.16600Y005.79400
X016.24100Y005.79400
X016.62600Y005.79400
X014.13600Y005.79900
X008.06600Y005.80900
X008.85600Y005.80900
X011.68600Y005.80900
X016.31100Y005.80900
X004.05100Y005.81400
X004.30100Y005.81400
X012.00100Y005.81900
X007.37400Y005.82800
X006.26600Y005.82900
X003.81600Y005.84400
X008.20100Y005.84400
X011.73600Y005.84400
X016.75600Y005.84400
X010.52100Y005.86400
X014.57100Y005.86400
X013.63600Y005.86900
X010.47100Y005.87400
X011.58600Y005.87900
X015.82600Y005.87900
X003.58600Y005.88400
X014.13600Y005.88400
X006.90100Y005.88900
X007.03100Y005.88900
X007.17600Y005.88900
X010.17100Y005.89400
X006.78100Y005.90900
X004.78100Y005.91400
X007.87600Y005.91400
X016.14600Y005.91400
X016.65600Y005.91400
X011.26600Y005.91900
X011.33100Y005.91900
X008.81600Y005.92900
X013.38100Y005.93400
X014.01600Y005.94900
X008.16100Y005.95900
X007.74600Y005.96400
X013.57100Y005.96400
X015.02600Y005.96400
X016.88600Y005.96400
X010.26600Y006.00400
X004.08600Y006.01400
X004.29600Y006.02400
X004.54100Y006.02400
X014.06100Y006.02400
X006.12100Y006.02900
X013.67100Y006.02900
X002.12100Y006.03400
X004.37600Y006.03400
X007.74600Y006.06400
X010.12100Y006.06400
X006.51600Y006.06900
X015.99600Y006.06900
X016.21600Y006.06900
X016.31100Y006.06900
X016.37100Y006.06900
X016.63600Y006.06900
X012.47100Y006.07400
X015.92600Y006.07400
X003.87100Y006.07900
X013.75600Y006.07900
X012.38600Y006.08400
X016.47600Y006.08400
X011.21100Y006.09000
X003.94100Y006.09900
X005.55100Y006.09900
X005.68100Y006.09900
X010.52100Y006.09900
X012.07100Y006.09900
X016.07600Y006.10400
X016.12600Y006.10400
X004.74600Y006.11400
X007.85600Y006.11400
X007.45100Y006.11900
X007.24900Y006.12000
X016.32100Y006.12400
X006.90100Y006.12900
X008.23600Y006.13400
X013.82100Y006.13400
X016.01100Y006.13900
X016.59600Y006.13900
X016.45600Y006.15900
X003.01100Y006.16400
X015.96100Y006.17400
X016.06100Y006.17400
X016.19600Y006.17400
X004.46100Y006.17900
X005.13100Y006.17900
X002.01100Y006.18400
X006.45100Y006.18400
X014.13600Y006.18400
X011.32600Y006.18900
X016.35100Y006.18900
X016.62600Y006.18900
X007.77100Y006.19900
X006.77100Y006.20400
X003.64100Y006.20900
X003.01100Y006.22400
X014.25100Y006.23900
X015.89600Y006.23900
X002.49600Y006.24900
X006.34100Y006.24900
X009.47600Y006.24900
X016.86600Y006.25400
X002.57100Y006.25900
X010.50100Y006.27400
X007.48600Y006.27900
X006.65100Y006.28400
X011.46600Y006.28400
X002.08600Y006.28900
X002.22600Y006.28900
X002.92100Y006.28900
X016.80100Y006.28900
X016.92600Y006.28900
X011.15000Y006.30200
X011.21100Y006.30400
X010.42100Y006.30900
X011.41600Y006.30900
X014.81600Y006.31900
X010.73600Y006.32400
X014.32100Y006.32400
X015.93100Y006.32900
X014.38100Y006.33400
X016.29100Y006.34400
X016.42100Y006.34400
X016.49100Y006.34400
X006.34100Y006.34900
X007.56100Y006.34900
X016.18600Y006.34900
X016.62600Y006.36900
X003.70600Y006.37900
X006.52600Y006.38400
X007.24600Y006.39400
X010.92100Y006.39400
X011.57100Y006.39400
X016.74100Y006.39900
X008.37100Y006.41400
X010.15100Y006.41400
X016.20600Y006.41400
X006.36600Y006.41900
X007.10600Y006.41900
X015.87100Y006.41900
X004.95100Y006.43400
X006.02100Y006.43400
X016.40600Y006.43400
X016.62600Y006.43400
X017.56100Y006.43400
X001.34100Y006.43900
X003.28600Y006.43900
X003.76600Y006.43900
X007.58100Y006.43900
X009.83600Y006.43900
X002.76600Y006.44400
X013.52100Y006.44400
X005.02100Y006.44900
X010.08600Y006.44900
X016.27100Y006.44900
X006.07600Y006.45400
X006.70100Y006.45700
X002.70600Y006.45900
X016.09100Y006.46400
X007.04600Y006.46900
X014.25100Y006.46900
X003.08600Y006.47900
X007.85600Y006.47900
X012.92100Y006.47900
X007.17600Y006.49400
X002.35100Y006.50900
X002.62600Y006.51400
X016.79600Y006.51900
X005.40100Y006.52900
X001.80100Y006.53900
X007.43600Y006.54400
X009.75100Y006.54400
X009.90100Y006.54400
X010.38100Y006.54400
X011.82100Y006.54400
X012.01600Y006.54400
X013.32100Y006.54400
X013.42100Y006.54400
X014.81600Y006.54400
X003.35100Y006.56400
X001.47100Y006.57400
X002.40100Y006.57400
X015.05100Y006.57900
X002.05100Y006.58900
X005.78100Y006.58900
X005.63100Y006.59900
X008.26600Y006.59900
X010.40100Y006.60900
X006.08100Y006.61900
X016.00100Y006.61900
X016.17600Y006.61900
X016.28100Y006.61900
X001.39600Y006.62400
X007.61100Y006.62400
X011.84100Y006.62900
X016.22600Y006.62900
X003.15100Y006.63900
X002.04100Y006.65900
X002.59600Y006.65900
X002.66100Y006.65900
X015.92600Y006.65900
X002.85600Y006.66400
X008.85100Y006.66400
X014.04600Y006.66400
X003.37100Y006.66900
X005.58100Y006.66900
X007.91600Y006.66900
X003.27600Y006.67400
X011.20100Y006.67900
X011.32600Y006.67900
X015.73600Y006.68900
X013.77600Y006.69400
X003.16600Y006.70900
X016.42100Y006.70900
X010.31100Y006.71900
X015.78600Y006.72400
X011.09600Y006.73900
X016.27100Y006.74400
X007.82600Y006.74900
X012.62100Y006.74900
X014.55100Y006.74900
X013.03100Y006.75900
X016.62600Y006.75900
X006.03100Y006.76400
X011.96100Y006.76900
X005.08100Y006.77400
X015.96100Y006.77900
X004.38100Y006.78400
X008.02100Y006.78400
X003.16600Y006.78900
X008.13600Y006.78900
X013.83100Y006.78900
X015.83600Y006.81400
X001.77600Y006.81900
X001.94100Y006.81900
X002.13600Y006.81900
X003.06600Y006.81900
X006.76600Y006.82900
X002.45100Y006.83400
X002.88600Y006.83400
X002.08600Y006.83900
X003.79600Y006.84400
X016.35100Y006.84900
X016.49100Y006.85900
X016.17600Y006.86900
X009.50600Y006.87900
X010.34600Y006.87900
X009.03100Y006.88900
X008.63600Y006.89400
X002.67600Y006.89900
X005.91100Y006.89900
X007.22100Y006.89900
X008.10100Y006.91400
X009.21600Y006.92400
X012.35100Y006.92400
X002.86100Y006.92900
X008.85100Y006.94400
X015.03600Y006.94900
X015.50600Y006.94900
X012.52100Y006.95900
X004.44600Y006.96400
X002.25100Y006.96900
X007.76100Y006.96900
X007.36100Y006.98400
X013.78100Y006.98400
X016.21600Y006.98400
X002.92100Y006.99400
X003.20100Y006.99400
X012.42100Y006.99400
X004.61600Y007.00400
X012.27100Y007.00900
X008.37100Y007.01900
X007.53100Y007.02400
X008.81600Y007.02400
X012.22100Y007.02400
X016.77100Y007.02900
X004.85100Y007.03900
X005.15100Y007.03900
X007.14600Y007.04400
X012.17100Y007.04400
X016.65600Y007.04400
X012.12100Y007.05900
X016.20100Y007.06400
X016.55600Y007.06400
X007.29600Y007.06900
X004.39600Y007.07400
X011.92100Y007.07400
X005.67200Y007.07800
X012.50100Y007.07900
X015.96100Y007.08400
X016.02100Y007.08400
X016.11600Y007.08400
X016.37600Y007.08400
X011.87100Y007.08900
X015.34600Y007.08900
X005.35100Y007.09400
X016.64600Y007.09900
X009.73600Y007.10400
X011.73100Y007.10400
X009.16100Y007.10900
X008.99100Y007.11400
X009.06100Y007.11400
X009.38100Y007.11400
X015.40100Y007.11900
X004.13100Y007.12400
X008.85600Y007.13400
X009.89600Y007.13400
X005.03600Y007.13900
X015.00100Y007.14900
X015.08100Y007.14900
X004.95100Y007.15400
X005.09600Y007.15400
X005.65100Y007.15400
X016.55100Y007.15400
X011.90100Y007.16400
X015.68600Y007.16400
X016.83100Y007.17900
X010.20100Y007.18400
X016.50100Y007.18400
X012.35100Y007.18900
X015.83600Y007.20400
X016.64100Y007.22400
X013.90600Y007.23900
X008.69600Y007.24400
X016.11600Y007.24900
X016.35100Y007.24900
X004.90600Y007.25900
X005.85100Y007.25900
X014.00100Y007.26900
X015.78100Y007.26900
X016.46100Y007.26900
X011.96100Y007.27900
X006.15600Y007.28400
X009.08600Y007.28400
X009.18600Y007.28400
X009.23600Y007.28400
X009.30100Y007.28400
X009.35600Y007.28400
X009.52600Y007.28400
X010.45600Y007.28900
X016.62600Y007.28900
X015.98100Y007.29400
X016.04600Y007.29900
X016.38600Y007.29900
X004.80100Y007.30400
X005.10100Y007.30400
X005.68600Y007.30400
X005.96600Y007.30400
X008.92100Y007.30900
X015.15100Y007.30900
X015.20100Y007.30900
X005.43600Y007.31900
X015.74100Y007.31900
X009.51100Y007.33400
X016.21100Y007.34400
X009.92100Y007.34900
X016.04600Y007.34900
X004.32100Y007.35400
X005.51600Y007.35400
X009.39100Y007.35400
X006.25100Y007.35900
X016.36100Y007.36400
X009.70100Y007.36900
X011.50600Y007.36900
X010.36600Y007.37400
X008.26600Y007.37900
X014.54600Y007.38400
X003.40100Y007.38900
X004.70100Y007.38900
X014.70100Y007.38900
X016.62600Y007.38900
X005.65600Y007.39400
X006.06600Y007.39400
X009.92100Y007.40400
X014.38600Y007.40400
X010.49600Y007.40900
X002.41600Y007.42400
X013.73600Y007.42400
X013.78600Y007.42400
X015.98100Y007.42400
X016.46100Y007.42400
X008.00600Y007.42900
X016.86600Y007.42900
X009.77100Y007.43400
X016.23600Y007.43400
X016.30600Y007.43400
X011.95100Y007.43900
X014.07600Y007.43900
X014.33600Y007.43900
X014.43600Y007.43900
X015.29100Y007.43900
X006.73100Y007.44400
X008.34600Y007.44400
X010.44600Y007.44400
X015.55100Y007.44900
X015.80100Y007.44900
X016.73600Y007.44900
X005.34100Y007.45400
X002.96600Y007.45900
X009.92100Y007.46900
X011.26600Y007.46900
X014.15100Y007.46900
X013.78600Y007.47400
X015.24100Y007.47400
X007.95600Y007.47900
X005.93600Y007.48400
X006.40100Y007.48900
X016.10100Y007.49400
X015.98100Y007.49900
X016.18100Y007.49900
X016.62600Y007.49900
X002.80100Y007.50400
X002.90100Y007.50400
X003.30100Y007.50400
X008.09600Y007.50400
X008.50600Y007.50400
X008.98600Y007.50400
X014.77100Y007.50400
X013.90600Y007.50900
X014.00100Y007.50900
X014.10100Y007.50900
X014.25600Y007.50900
X014.38100Y007.50900
X015.11600Y007.50900
X010.49600Y007.51400
X006.75100Y007.51900
X017.35100Y007.51900
X013.55600Y007.52400
X004.97100Y007.53900
X009.35600Y007.53900
X016.10100Y007.54400
X016.70600Y007.54900
X003.98100Y007.55400
X004.75600Y007.55400
X010.08600Y007.55900
X009.23100Y007.56400
X009.42600Y007.56400
X010.51100Y007.56400
X015.42100Y007.56400
X005.58600Y007.56900
X005.92100Y007.56900
X006.02600Y007.56900
X015.04100Y007.57400
X016.46100Y007.57400
X005.75100Y007.57900
X012.97100Y007.57900
X002.37100Y007.58400
X005.27600Y007.59400
X016.66600Y007.59900
X005.05600Y007.60400
X002.65100Y007.60900
X010.26600Y007.60900
X013.12100Y007.61400
X004.53100Y007.61900
X014.70100Y007.61900
X014.99600Y007.62400
X016.39100Y007.62900
X001.70600Y007.63900
X016.13100Y007.63900
X017.17600Y007.63900
X002.51600Y007.64400
X014.65100Y007.64400
X015.45100Y007.64900
X003.20100Y007.65400
X003.99100Y007.65400
X004.80100Y007.65400
X005.90100Y007.65400
X013.21100Y007.65400
X015.98100Y007.65400
X016.62600Y007.65400
X016.27100Y007.65900
X004.45100Y007.66400
X006.30100Y007.66400
X009.30100Y007.66400
X016.18100Y007.66400
X013.47100Y007.66900
X013.72100Y007.67400
X013.86600Y007.67400
X013.94100Y007.67400
X013.99600Y007.67400
X014.09600Y007.67400
X014.14600Y007.67400
X014.27600Y007.67400
X015.11600Y007.67900
X015.81600Y007.67900
X005.34100Y007.68400
X009.77100Y007.68400
X004.04100Y007.68900
X015.50100Y007.68900
X005.09600Y007.69400
X008.88100Y007.69400
X014.42100Y007.69400
X010.41600Y007.69900
X011.29100Y007.69900
X005.75100Y007.70400
X015.98100Y007.70400
X014.20600Y007.70900
X017.65100Y007.70900
X016.37100Y007.71400
X016.42600Y007.71400
X003.46100Y007.71900
X010.36600Y007.72400
X014.51600Y007.72400
X016.03100Y007.72400
X016.08100Y007.72400
X016.13100Y007.72400
X016.27100Y007.72400
X007.54100Y007.72900
X007.59100Y007.72900
X007.89100Y007.72900
X011.90100Y007.72900
X014.56600Y007.72900
X016.62600Y007.72900
X002.76600Y007.73400
X012.35100Y007.73900
X006.68100Y007.74900
X017.40600Y007.74900
X017.45600Y007.74900
X017.55100Y007.74900
X017.60100Y007.74900
X005.75100Y007.75400
X013.40600Y007.75400
X013.45600Y007.75400
X014.32600Y007.75400
X014.68100Y007.75400
X008.60100Y007.75900
X012.67100Y007.75900
X012.73100Y007.75900
X014.22600Y007.75900
X011.66600Y007.76400
X002.93600Y007.76900
X004.95100Y007.76900
X005.00100Y007.76900
X005.15100Y007.76900
X013.71800Y007.76900
X017.25600Y007.76900
X012.98100Y007.77400
X013.62600Y007.77400
X004.08100Y007.77900
X008.88100Y007.78400
X014.84100Y007.78400
X014.94100Y007.78400
X017.14600Y007.78400
X004.65100Y007.78900
X008.69600Y007.78900
X011.35600Y007.78900
X012.56100Y007.78900
X015.20600Y007.78900
X004.80100Y007.79400
X013.83600Y007.79400
X004.32100Y007.79900
X013.03100Y007.79900
X003.45100Y007.81400
X005.20100Y007.81400
X008.39100Y007.81900
X008.98600Y007.81900
X012.01600Y007.81900
X009.59100Y007.82900
X013.62600Y007.83400
X015.94100Y007.83400
X007.57100Y007.83900
X015.52600Y007.83900
X014.68000Y007.84800
X008.46600Y007.84900
X008.71100Y007.84900
X009.54100Y007.84900
X009.85600Y007.84900
X009.92100Y007.84900
X010.08600Y007.84900
X013.38600Y007.84900
X015.10100Y007.84900
X005.47000Y007.85000
X003.30100Y007.85400
X014.95600Y007.85400
X004.70600Y007.85900
X011.96600Y007.85900
X014.84600Y007.85900
X015.17100Y007.85900
X002.97100Y007.86400
X003.10100Y007.86400
X016.57600Y007.86400
X007.53000Y007.86900
X007.92600Y007.86900
X014.61600Y007.87400
X008.30100Y007.87900
X014.89600Y007.88400
X005.18100Y007.88900
X013.09600Y007.89400
X016.29600Y007.89400
X013.95100Y007.89900
X002.19600Y007.90400
X003.04600Y007.90400
X004.16600Y007.90400
X005.39600Y007.90400
X007.78100Y007.90400
X004.95100Y007.90900
X012.64100Y007.90900
X017.35100Y007.90900
X004.49600Y007.91900
X004.54600Y007.91900
X009.12600Y007.91900
X009.35600Y007.91900
X012.03100Y007.91900
X014.99100Y007.91900
X005.24600Y007.92900
X017.30100Y007.92900
X013.67600Y007.93400
X010.30600Y007.93900
X005.95100Y007.94400
X010.92100Y007.94400
X016.14100Y007.94400
X004.75100Y007.94900
X005.33100Y007.94900
X015.13600Y007.94900
X005.65100Y007.95400
X013.27600Y007.95400
X013.62600Y007.95400
X006.20100Y007.95900
X009.70600Y007.96400
X011.41600Y007.96900
X013.74100Y007.96900
X010.16100Y007.97400
X012.40600Y007.97400
X011.48600Y007.97900
X015.22100Y007.97900
X006.09600Y007.98400
X013.10600Y007.98400
X015.49600Y007.98400
X016.21600Y007.98400
X015.75100Y007.98900
X002.80100Y007.99400
X014.68100Y007.99400
X007.26100Y007.99900
X007.47600Y007.99900
X004.95100Y008.00400
X008.02600Y008.00400
X010.21100Y008.00400
X012.63100Y008.00400
X012.68100Y008.00400
X008.88100Y008.00900
X005.06600Y008.01000
X003.45600Y008.01400
X005.26100Y008.01400
X005.42600Y008.01400
X009.47600Y008.01400
X002.90100Y008.01900
X006.02600Y008.01900
X013.35100Y008.01900
X012.82100Y008.02400
X017.60100Y008.02900
X009.77100Y008.03400
X013.62600Y008.03900
X007.10100Y008.04400
X014.68100Y008.04400
X013.19600Y008.04900
X004.32100Y008.05400
X005.55100Y008.05400
X017.50100Y008.05400
X007.19100Y008.05900
X005.48100Y008.06400
X007.94600Y008.06900
X008.01100Y008.06900
X009.15100Y008.06900
X011.05600Y008.06900
X016.08600Y008.06900
X013.26100Y008.07900
X011.13600Y008.08400
X011.18600Y008.08400
X004.24100Y008.08900
X015.17100Y008.08900
X016.29600Y008.08900
X004.41600Y008.09900
X005.26600Y008.09900
X009.67100Y008.09900
X009.74100Y008.09900
X004.80100Y008.10400
X004.95100Y008.10400
X005.00100Y008.10400
X005.05100Y008.10400
X005.10100Y008.10400
X005.15100Y008.10400
X005.62100Y008.10400
X005.69100Y008.10400
X008.55600Y008.10400
X008.20600Y008.10900
X004.15600Y008.11400
X013.37600Y008.11400
X013.42600Y008.11400
X009.85600Y008.12400
X010.51600Y008.12400
X011.50600Y008.12400
X005.90100Y008.12900
X005.98600Y008.12900
X006.06100Y008.12900
X017.08600Y008.12900
X017.25100Y008.12900
X017.34600Y008.12900
X003.91100Y008.13900
X004.24100Y008.13900
X016.25600Y008.13900
X004.85100Y008.14900
X005.85100Y008.14900
X013.29600Y008.14900
X014.84600Y008.14900
X002.80100Y008.15400
X013.62600Y008.15400
X008.43100Y008.16400
X014.68100Y008.16400
X014.51600Y008.17400
X013.67600Y008.18400
X009.00100Y008.18900
X015.97100Y008.18900
X012.75100Y008.19400
X013.06100Y008.19400
X007.82600Y008.19900
X001.70600Y008.20400
X003.28600Y008.20400
X004.45100Y008.20400
X015.81100Y008.20400
X009.41600Y008.20900
X009.54100Y008.20900
X008.88100Y008.21900
X012.93600Y008.21900
X005.94100Y008.22400
X007.59600Y008.22400
X009.30100Y008.23900
X009.77100Y008.23900
X009.82600Y008.23900
X014.56600Y008.23900
X013.07600Y008.24400
X013.45600Y008.24400
X003.16600Y008.24900
X002.90100Y008.25400
X003.00100Y008.25400
X003.10100Y008.25400
X005.38100Y008.25400
X005.51600Y008.25400
X005.65100Y008.25400
X005.70600Y008.25400
X011.15100Y008.25400
X011.20100Y008.25400
X011.25100Y008.25400
X011.41100Y008.25400
X014.67900Y008.25400
X014.88600Y008.25400
X005.80100Y008.25900
X009.09600Y008.25900
X009.92100Y008.25900
X009.63100Y008.26400
X003.45600Y008.26900
X004.05100Y008.26900
X011.47600Y008.27400
X013.38600Y008.27400
X010.67100Y008.28400
X013.80100Y008.28400
X014.49600Y008.28400
X001.77600Y008.28900
X005.99600Y008.29400
X013.45600Y008.29400
X002.65100Y008.29900
X008.85100Y008.29900
X017.44600Y008.30400
X013.15100Y008.30900
X014.86100Y008.30900
X015.02600Y008.30900
X005.30100Y008.31900
X005.55100Y008.32400
X008.94600Y008.32400
X009.03600Y008.32400
X009.09600Y008.32400
X009.22600Y008.32400
X009.38100Y008.32400
X009.63600Y008.32400
X009.72600Y008.32400
X011.47600Y008.32400
X014.55600Y008.32900
X015.10600Y008.32900
X004.60600Y008.33400
X008.12600Y008.33400
X008.75600Y008.33400
X011.03100Y008.33400
X011.09100Y008.33900
X014.68100Y008.33900
X010.01600Y008.34400
X016.05600Y008.34400
X011.66100Y008.34900
X011.42700Y008.35200
X003.90100Y008.35400
X004.27600Y008.35400
X009.89600Y008.35400
X005.41600Y008.35900
X009.96600Y008.35900
X014.63100Y008.35900
X017.54100Y008.35900
X003.36100Y008.36400
X007.56600Y008.36400
X015.31100Y008.36400
X013.45600Y008.36900
X003.52100Y008.37900
X008.45600Y008.39900
X010.29100Y008.39900
X016.72600Y008.39900
X002.97100Y008.40400
X014.66100Y008.40900
X015.88100Y008.41400
X016.32100Y008.41400
X017.08600Y008.41900
X004.22100Y008.42900
X004.00100Y008.43900
X010.85600Y008.43900
X011.02600Y008.43900
X002.73100Y008.44400
X005.55100Y008.44400
X016.90100Y008.44900
X009.89600Y008.45900
X009.98600Y008.45900
X014.56600Y008.45900
X014.61600Y008.45900
X001.85600Y008.46400
X007.70600Y008.46400
X013.45600Y008.46400
X016.03100Y008.46400
X008.72600Y008.46800
X008.50800Y008.47000
X015.93100Y008.47400
X011.83600Y008.47900
X005.28600Y008.48900
X009.04100Y008.48900
X009.15100Y008.48900
X009.31100Y008.48900
X009.39600Y008.48900
X014.68100Y008.48900
X001.72100Y008.49400
X009.44600Y008.49400
X011.12100Y008.49400
X016.43600Y008.49400
X015.98100Y008.50400
X017.17600Y008.50400
X003.95600Y008.50900
X013.62600Y008.50900
X014.58600Y008.50900
X012.28100Y008.52400
X003.30100Y008.53900
X004.55100Y008.53900
X008.00600Y008.53900
X011.69100Y008.53900
X008.36100Y008.54400
X009.06100Y008.54400
X011.82100Y008.54400
X003.23100Y008.55400
X005.48100Y008.55400
X009.66600Y008.55400
X009.87600Y008.55400
X010.70100Y008.55400
X001.92600Y008.55900
X004.90100Y008.55900
X010.85600Y008.55900
X012.33100Y008.55900
X013.22100Y008.55900
X011.22100Y008.56200
X010.80600Y008.56400
X005.25100Y008.56900
X016.18600Y008.56900
X003.84600Y008.58900
X013.45600Y008.58900
X017.42100Y008.58900
X012.00100Y008.59900
X014.44600Y008.59900
X014.89600Y008.60400
X014.57600Y008.61400
X017.18600Y008.61400
X008.46100Y008.61900
X014.84600Y008.61900
X007.14600Y008.62400
X007.59600Y008.62400
X013.62600Y008.62400
X014.05600Y008.62400
X008.60600Y008.62900
X010.85600Y008.63400
X011.69100Y008.63400
X010.70600Y008.63900
X015.07100Y008.63900
X003.61600Y008.64900
X010.34600Y008.64900
X011.28100Y008.65400
X014.68100Y008.65400
X016.85100Y008.65400
X016.50100Y008.66400
X008.00600Y008.66900
X009.09600Y008.66900
X003.55100Y008.67400
X003.75100Y008.67400
X004.15100Y008.67400
X011.93600Y008.67400
X008.64100Y008.67900
X017.00100Y008.67900
X017.10100Y008.67900
X017.38100Y008.67900
X017.65100Y008.67900
X014.75100Y008.68900
X014.80100Y008.68900
X004.39600Y008.69400
X006.41600Y008.69400
X009.27100Y008.69400
X013.36600Y008.69400
X014.02100Y008.69400
X014.39100Y008.69400
X015.02100Y008.69400
X011.28100Y008.70400
X013.45100Y008.70400
X015.92600Y008.70400
X012.45600Y008.71400
X014.09100Y008.71400
X008.79600Y008.72900
X013.86600Y008.72900
X013.73100Y008.73400
X014.16600Y008.73400
X014.21600Y008.73400
X014.29100Y008.73400
X014.34100Y008.73400
X014.50600Y008.73400
X014.66600Y008.73400
X010.42600Y008.73900
X015.39100Y008.74400
X009.20600Y008.74900
X007.10100Y008.76400
X015.93600Y008.77400
X008.43100Y008.77900
X016.75600Y008.77900
X016.69100Y008.78400
X015.04100Y008.78900
X015.31600Y008.78900
X006.59100Y008.79400
X016.48100Y008.80900
X003.30100Y008.81900
X007.69600Y008.81900
X008.85100Y008.81900
X009.00100Y008.81900
X009.15100Y008.81900
X009.23600Y008.81900
X013.20600Y008.82900
X016.80100Y008.82900
X004.35100Y008.83400
X015.39100Y008.83400
X002.40100Y008.84900
X014.74600Y008.84900
X004.10100Y008.85900
X004.28600Y008.85900
X012.98600Y008.86900
X003.50100Y008.87400
X003.58100Y008.87400
X004.15100Y008.87400
X011.25100Y008.87400
X011.92600Y008.87900
X003.79600Y008.88400
X002.95100Y008.88900
X008.80200Y008.89000
X016.12600Y008.89400
X013.91600Y008.89900
X014.04600Y008.89900
X014.45600Y008.89900
X014.60100Y008.89900
X004.39600Y008.90400
X016.50100Y008.91400
X017.65100Y008.91400
X010.35100Y008.92900
X014.87600Y008.92900
X016.90100Y008.92900
X008.06100Y008.93400
X010.25100Y008.93400
X011.30100Y008.93400
X014.81600Y008.93400
X008.79800Y008.94100
X014.22600Y008.94900
X004.43600Y008.95400
X006.30100Y008.95400
X007.85600Y008.95400
X012.50100Y008.95400
X016.65100Y008.95400
X012.33100Y008.95900
X012.85100Y008.95900
X014.37100Y008.96900
X014.76800Y008.97200
X011.65100Y008.97400
X008.51600Y008.97900
X015.28600Y008.97900
X008.80400Y008.99300
X011.50100Y009.00400
X012.95100Y009.00900
X012.36600Y009.01400
X016.85600Y009.02900
X017.08600Y009.02900
X003.45100Y009.03400
X003.64100Y009.03400
X004.05100Y009.03400
X005.45100Y009.03400
X007.85100Y009.03900
X007.10100Y009.04400
X011.59600Y009.07400
X015.09600Y009.07400
X015.49100Y009.07400
X016.51100Y009.07900
X017.46100Y009.07900
X001.70600Y009.08900
X017.21100Y009.09900
X006.73100Y009.10400
X008.94600Y009.10400
X016.12600Y009.10400
X011.18600Y009.11400
X014.38100Y009.11400
X007.79600Y009.12400
X014.75200Y009.12400
X006.19100Y009.12900
X017.30100Y009.12900
X006.55100Y009.13900
X007.74600Y009.13900
X008.00600Y009.13900
X005.96100Y009.15900
X011.15100Y009.16400
X008.30100Y009.17400
X017.55100Y009.17900
X004.64100Y009.18900
X010.45100Y009.18900
X014.38100Y009.18900
X011.34100Y009.20400
X016.52600Y009.20400
X016.60100Y009.20400
X006.08100Y009.20900
X007.19100Y009.21400
X012.29100Y009.21400
X016.81600Y009.21400
X016.86600Y009.21400
X017.15100Y009.21400
X006.63600Y009.21900
X006.32600Y009.24900
X016.00600Y009.24900
X005.25100Y009.25400
X011.90100Y009.25400
X016.15600Y009.25400
X007.61600Y009.26400
X009.44600Y009.26400
X015.09600Y009.26900
X013.72600Y009.27900
X017.30100Y009.27900
X004.15100Y009.28900
X010.60100Y009.28900
X013.13600Y009.29400
X014.38600Y009.29900
X007.89600Y009.30400
X012.05100Y009.30400
X004.50100Y009.31400
X014.67600Y009.31900
X004.08600Y009.35900
X004.22100Y009.35900
X004.30100Y009.36400
X004.73100Y009.36400
X012.80100Y009.36900
X016.53600Y009.37400
X007.94600Y009.37900
X003.70100Y009.38900
X006.55100Y009.38900
X006.73100Y009.38900
X015.85100Y009.38900
X006.36600Y009.39400
X015.45200Y009.40800
X015.30100Y009.40900
X015.35100Y009.40900
X016.01100Y009.40900
X003.84600Y009.41400
X003.90100Y009.41400
X003.95600Y009.41400
X004.04100Y009.41400
X014.97100Y009.41400
X005.47100Y009.41900
X015.10600Y009.41900
X005.70100Y009.42400
X005.82600Y009.42400
X006.31600Y009.42900
X006.67100Y009.42900
X003.62600Y009.43400
X007.53100Y009.43400
X005.55100Y009.43900
X006.86600Y009.43900
X012.73600Y009.43900
X013.80100Y009.43900
X011.15100Y009.44400
X016.73600Y009.44400
X015.67100Y009.44900
X008.00100Y009.45400
X004.47100Y009.45900
X012.36600Y009.45900
X014.47600Y009.45900
X014.52600Y009.45900
X014.57600Y009.45900
X017.15100Y009.47900
X008.56100Y009.48900
X006.79700Y009.49300
X004.33100Y009.49900
X015.80100Y009.50400
X016.60100Y009.51900
X007.87100Y009.52900
X016.85100Y009.52900
X017.50100Y009.52900
X007.77100Y009.53900
X010.43100Y009.53900
X011.13300Y009.54400
X007.03600Y009.55400
X017.67600Y009.55400
X003.83600Y009.56400
X007.95100Y009.56400
X008.45600Y009.57400
X004.09600Y009.57900
X017.60100Y009.57900
X005.10100Y009.58400
X005.77100Y009.58400
X006.36600Y009.58400
X006.86600Y009.58400
X004.15100Y009.58900
X006.16100Y009.59900
X003.61100Y009.60400
X003.76100Y009.60400
X006.01600Y009.60400
X016.75100Y009.60400
X005.67100Y009.60900
X015.35100Y009.60900
X007.82100Y009.61900
X005.87600Y009.62400
X005.92600Y009.62400
X005.41100Y009.63900
X010.78100Y009.64400
X003.05100Y009.65400
X012.76600Y009.65400
X002.13100Y009.65900
X005.55100Y009.66900
X013.80100Y009.66900
X012.21100Y009.67900
X015.65100Y009.67900
X006.68600Y009.68400
X008.40100Y009.68900
X006.59100Y009.69900
X011.12100Y009.69900
X004.24100Y009.70400
X007.50600Y009.70400
X017.50100Y009.71400
X017.62600Y009.71400
X005.51600Y009.71900
X005.37600Y009.72900
X008.59100Y009.72900
X010.27600Y009.72900
X004.82600Y009.74400
X002.99100Y009.74900
X003.46000Y009.75400
X003.61100Y009.75400
X009.83100Y009.75400
X016.82600Y009.75400
X010.94000Y009.76200
X007.84600Y009.76400
X008.34600Y009.76900
X012.14100Y009.76900
X016.40100Y009.77900
X002.57600Y009.78900
X005.74100Y009.78900
X005.90100Y009.78900
X005.99600Y009.78900
X006.15100Y009.78900
X004.20600Y009.79400
X013.87100Y009.79400
X015.47100Y009.79400
X010.97700Y009.80500
X008.61600Y009.80900
X006.09600Y009.82400
X004.58100Y009.82900
X016.35100Y009.82900
X009.55100Y009.83900
X011.93600Y009.83900
X016.46100Y009.84400
X007.80100Y009.85400
X010.05100Y009.85400
X005.95600Y009.85900
X003.76100Y009.86400
X005.02600Y009.86400
X007.92600Y009.86900
X007.95100Y009.86900
X011.23100Y009.86900
X002.51600Y009.87400
X002.63100Y009.87400
X006.58100Y009.88900
X006.63600Y009.88900
X003.80100Y009.90400
X004.21100Y009.90400
X008.05100Y009.90400
X012.24100Y009.90400
X006.04600Y009.90900
X011.65100Y009.91400
X016.49100Y009.91400
X017.55600Y009.91400
X003.55100Y009.91900
X005.65600Y009.91900
X007.56100Y009.91900
X007.25600Y009.93900
X007.83600Y009.93900
X007.88600Y009.93900
X004.39100Y009.94400
X013.36600Y009.94900
X013.89100Y009.95000
X014.16600Y009.95000
X016.62600Y009.95400
X003.79600Y009.96400
X006.66600Y009.96400
X012.36100Y009.96400
X007.20100Y009.96900
X010.43600Y009.97400
X012.50100Y009.97400
X012.66600Y009.97400
X009.85100Y009.97900
X013.30100Y009.97900
X004.70100Y009.98900
X005.60100Y009.98900
X009.95100Y009.98900
X011.12100Y009.99400
X012.92100Y009.99900
X013.11100Y009.99900
X003.57600Y010.00400
X014.18100Y010.00400
X015.12100Y010.00400
X006.04600Y010.01400
X011.61100Y010.01400
X010.49600Y010.01900
X002.52600Y010.03400
X002.57600Y010.03400
X004.09600Y010.04400
X011.23100Y010.04400
X007.63100Y010.05400
X011.53100Y010.05900
X004.69600Y010.06400
X014.70100Y010.06400
X002.42600Y010.07400
X005.70100Y010.07400
X005.81600Y010.07400
X008.34600Y010.07400
X014.90100Y010.07400
X010.84100Y010.07900
X014.37600Y010.07900
X007.91600Y010.08400
X008.40600Y010.08400
X010.50100Y010.08400
X006.04600Y010.08900
X016.27600Y010.08900
X010.43600Y010.10400
X013.15100Y010.10900
X005.65600Y010.12400
X014.50600Y010.12400
X010.53600Y010.13400
X015.60600Y010.13400
X010.79100Y010.15400
X013.36600Y010.15400
X015.10600Y010.15400
X011.27100Y010.15900
X012.75600Y010.16400
X013.02100Y010.16400
X010.58600Y010.16900
X005.20100Y010.17400
X006.31100Y010.17400
X012.97100Y010.17900
X004.79800Y010.18600
X013.30600Y010.18900
X003.96600Y010.19400
X009.10100Y010.19400
X010.18100Y010.19900
X004.06800Y010.20100
X002.77100Y010.20400
X012.61100Y010.20400
X013.25100Y010.20400
X015.27100Y010.20400
X013.07100Y010.21400
X005.60100Y010.21900
X002.33100Y010.23400
X002.53100Y010.23400
X005.89600Y010.23400
X003.84100Y010.23900
X012.92100Y010.24900
X012.61100Y010.25400
X016.11000Y010.26000
X006.13100Y010.26400
X005.76100Y010.26900
X012.85100Y010.26900
X005.81100Y010.27400
X006.01100Y010.27400
X006.32600Y010.27400
X006.37600Y010.27400
X006.47600Y010.27400
X008.85100Y010.27900
X010.05100Y010.27900
X004.75100Y010.28900
X005.65600Y010.28900
X013.09100Y010.28900
X013.75100Y010.28900
X004.92100Y010.29900
X012.80100Y010.30400
X013.65100Y010.30400
X004.98100Y010.30900
X005.07100Y010.30900
X015.42600Y010.30900
X004.85100Y010.31400
X005.40100Y010.31400
X002.27600Y010.31900
X002.42600Y010.31900
X015.07600Y010.32900
X013.89100Y010.33400
X016.25100Y010.33900
X016.30100Y010.33900
X017.09100Y010.34900
X009.00100Y010.36400
X013.29600Y010.37900
X016.10100Y010.37900
X009.35100Y010.38900
X001.67100Y010.39400
X012.61100Y010.40400
X002.15100Y010.41400
X017.04600Y010.41900
X005.70100Y010.43400
X011.20100Y010.43900
X013.51600Y010.43900
X001.52100Y010.44400
X001.82100Y010.44400
X005.15100Y010.44900
X005.95100Y010.44900
X012.68600Y010.45400
X013.09100Y010.45400
X006.17100Y010.45900
X005.75100Y010.47400
X005.80100Y010.47400
X006.00100Y010.47400
X006.42600Y010.47400
X005.53100Y010.48900
X011.41100Y010.50400
X012.46100Y010.50400
X013.08100Y010.50400
X014.99300Y010.50400
X001.47100Y010.54400
X001.87100Y010.54400
X013.51100Y010.55400
X004.00100Y010.56400
X004.43100Y010.57900
X004.58100Y010.57900
X004.73100Y010.57900
X004.88100Y010.57900
X005.03100Y010.57900
X005.18100Y010.57900
X005.33100Y010.57900
X013.70100Y010.57900
X003.85100Y010.58900
X012.90100Y010.58900
X012.65100Y010.59400
X006.61600Y010.60900
X005.60700Y010.61200
X012.70100Y010.62400
X012.81600Y010.62900
X006.22600Y010.63400
X006.27600Y010.63400
X001.52100Y010.64400
X001.82100Y010.64400
X012.75100Y010.64400
X013.00100Y010.64400
X012.43600Y010.65400
X004.58100Y010.67400
X004.73100Y010.67400
X005.18100Y010.67400
X014.74200Y010.67700
X013.45100Y010.68900
X001.67100Y010.69400
X011.08600Y010.69400
X011.30100Y010.69400
X011.35100Y010.69400
X004.07300Y010.69600
X004.39500Y010.70800
X013.69100Y010.71400
X005.70100Y010.72400
X003.50100Y010.73900
X005.03100Y010.73900
X002.50100Y010.76900
X005.33100Y010.76900
X013.61100Y010.77400
X011.58600Y010.78400
X012.17100Y010.78900
X012.30100Y010.78900
X004.57100Y010.79400
X004.44600Y010.79900
X004.89600Y010.79900
X005.00600Y010.79900
X003.43100Y010.80300
X012.85100Y010.80400
X012.98600Y010.80400
X013.08600Y010.80400
X014.84100Y010.82900
X012.24600Y010.84900
X016.63100Y010.85400
X011.65100Y010.85700
X013.86600Y010.87400
X012.00600Y010.88900
X011.71300Y010.90400
X004.73100Y010.93400
X002.80100Y010.93900
X004.50100Y010.94400
X005.10100Y010.94400
X005.18100Y010.94400
X005.25100Y010.94400
X005.40100Y010.94400
X003.44600Y010.96400
X004.65100Y010.96900
X013.77600Y010.96900
X001.60600Y010.97400
X016.27600Y010.97900
X002.57600Y010.98400
X002.63600Y010.98400
X002.72600Y010.98400
X003.10100Y010.98400
X003.20100Y010.98400
X002.86600Y010.99400
X003.15100Y011.02400
X001.85100Y011.06400
X014.96100Y011.07400
X005.40100Y011.10400
X002.80100Y011.16900
X002.57600Y011.18400
X002.90100Y011.18400
X002.95100Y011.18400
X003.05100Y011.18400
X011.53600Y011.21400
X002.76100Y011.23900
X003.45100Y011.24400
X011.47100Y011.27400
X002.45100Y011.39400
T02
X001.71700Y006.98900
X001.86400Y007.00100
X006.95200Y007.02000
X006.70300Y007.05100
X001.60400Y007.15500
X006.68100Y007.19300
X010.82100Y007.20800
X007.31800Y007.21900
X007.44300Y007.22000
X010.69300Y007.23800
X006.96400Y007.28300
X001.88100Y007.28400
X001.71700Y007.30700
X006.84900Y007.31500
X010.63400Y007.34600
X010.98900Y007.35700
X010.69400Y007.48400
X007.29800Y007.50200
X010.82200Y007.50500
X007.43600Y007.50800
X011.57100Y009.00400
X006.99300Y010.11000
X006.85200Y010.15400
X007.13500Y010.17700
X006.80100Y010.26500
X007.46900Y010.29600
X010.79300Y010.30700
X007.61100Y010.33300
X007.35100Y010.35500
X010.95700Y010.37800
X006.88200Y010.41500
X010.61700Y010.41900
X007.06100Y010.42100
X007.67000Y010.46600
X007.31400Y010.53400
X010.94400Y010.57000
X010.66000Y010.57300
X007.59700Y010.60800
X007.42600Y010.62200
X010.79700Y010.63200
X017.16900Y010.69700
X016.99800Y010.71300
X011.29800Y010.81000
X011.15500Y010.82300
X016.93800Y010.84300
X017.27100Y010.85000
X017.18900Y010.97600
X011.01800Y010.97700
X017.03600Y010.97700
X011.44200Y010.98500
X011.24300Y011.14200
T03
X005.12600Y001.87900
X005.62600Y001.87900
X006.12600Y001.87900
X006.62600Y001.87900
X007.12600Y001.87900
X007.62600Y001.87900
X007.85100Y001.87900
X008.35100Y001.87900
X008.85100Y001.87900
X009.35100Y001.87900
X009.85100Y001.87900
X010.35100Y001.87900
X011.15100Y001.87900
X011.65100Y001.87900
X012.15100Y001.87900
X012.65100Y001.87900
X013.15100Y001.87900
X013.65100Y001.87900
X001.17600Y001.90400
X001.67600Y001.90400
X002.17600Y001.90400
X002.67600Y001.90400
X003.17600Y001.90400
X003.67600Y001.90400
X001.42600Y001.95400
X001.92600Y001.95400
X002.42600Y001.95400
X002.92600Y001.95400
X003.42600Y001.95400
X003.92600Y001.95400
X004.45100Y001.95400
X004.95100Y001.95400
X005.45100Y001.95400
X005.95100Y001.95400
X006.45100Y001.95400
X006.95100Y001.95400
X008.45100Y001.95400
X008.95100Y001.95400
X009.45100Y001.95400
X009.95100Y001.95400
X010.45100Y001.95400
X010.95100Y001.95400
X011.45100Y001.95400
X011.95100Y001.95400
X012.45100Y001.95400
X012.95100Y001.95400
X013.45100Y001.95400
X013.95100Y001.95400
X014.65100Y002.17900
X000.70100Y002.20400
X014.67600Y002.40400
X000.77600Y002.45400
X004.55100Y002.55400
X004.65100Y002.55400
X004.75100Y002.55400
X004.85100Y002.55400
X004.95100Y002.55400
X005.05100Y002.55400
X005.15100Y002.55400
X005.25100Y002.55400
X005.35100Y002.55400
X005.45100Y002.55400
X006.02600Y002.55400
X006.12600Y002.55400
X006.22600Y002.55400
X006.32600Y002.55400
X006.42600Y002.55400
X006.52600Y002.55400
X006.62600Y002.55400
X006.72600Y002.55400
X006.82600Y002.55400
X006.92600Y002.55400
X014.65100Y002.67900
X000.70100Y002.70400
X001.40100Y002.75400
X001.50100Y002.75400
X001.60100Y002.75400
X001.40100Y002.85400
X001.50100Y002.85400
X001.60100Y002.85400
X004.55100Y002.85400
X004.65100Y002.85400
X004.75100Y002.85400
X004.85100Y002.85400
X004.95100Y002.85400
X005.05100Y002.85400
X005.15100Y002.85400
X005.25100Y002.85400
X005.35100Y002.85400
X005.45100Y002.85400
X006.02600Y002.85400
X006.12600Y002.85400
X006.22600Y002.85400
X006.32600Y002.85400
X006.42600Y002.85400
X006.52600Y002.85400
X006.62600Y002.85400
X006.72600Y002.85400
X006.82600Y002.85400
X006.92600Y002.85400
X007.37600Y002.85400
X007.47600Y002.85400
X007.57600Y002.85400
X007.67600Y002.85400
X007.77600Y002.85400
X007.87600Y002.85400
X007.97600Y002.85400
X008.07600Y002.85400
X008.17600Y002.85400
X008.27600Y002.85400
X008.37600Y002.85400
X008.47600Y002.85400
X014.67600Y002.90400
X000.77600Y002.95400
X001.40100Y002.95400
X001.50100Y002.95400
X001.60100Y002.95400
X008.75100Y002.95400
X009.05100Y002.95400
X009.25100Y003.00400
X009.35100Y003.00400
X009.45100Y003.00400
X001.40100Y003.05400
X001.50100Y003.05400
X001.60100Y003.05400
X001.40100Y003.15400
X001.50100Y003.15400
X001.60100Y003.15400
X004.55100Y003.15400
X004.65100Y003.15400
X004.75100Y003.15400
X004.85100Y003.15400
X004.95100Y003.15400
X005.05100Y003.15400
X005.15100Y003.15400
X005.25100Y003.15400
X005.35100Y003.15400
X005.45100Y003.15400
X006.02600Y003.15400
X006.12600Y003.15400
X006.22600Y003.15400
X006.32600Y003.15400
X006.42600Y003.15400
X006.52600Y003.15400
X006.62600Y003.15400
X006.72600Y003.15400
X006.82600Y003.15400
X006.92600Y003.15400
X009.67600Y003.15400
X009.77600Y003.15400
X009.87600Y003.15400
X010.07600Y003.15400
X010.17600Y003.15400
X010.27600Y003.15400
X014.65100Y003.17900
X000.70100Y003.20400
X010.97600Y003.20400
X001.40100Y003.25400
X001.50100Y003.25400
X001.60100Y003.25400
X008.75100Y003.25400
X009.05100Y003.25400
X010.47600Y003.30400
X010.57600Y003.30400
X011.64100Y003.30400
X001.06600Y003.33200
X001.40100Y003.35400
X001.50100Y003.35400
X001.60100Y003.35400
X000.96600Y003.37700
X001.16600Y003.37700
X010.97600Y003.40400
X014.67600Y003.40400
X001.06600Y003.42200
X000.77600Y003.45400
X001.40100Y003.45400
X001.50100Y003.45400
X001.60100Y003.45400
X004.55100Y003.45400
X004.65100Y003.45400
X004.75100Y003.45400
X004.85100Y003.45400
X004.95100Y003.45400
X005.05100Y003.45400
X005.15100Y003.45400
X005.25100Y003.45400
X005.35100Y003.45400
X005.45100Y003.45400
X006.02600Y003.45400
X006.12600Y003.45400
X006.22600Y003.45400
X006.32600Y003.45400
X006.42600Y003.45400
X006.52600Y003.45400
X006.62600Y003.45400
X006.72600Y003.45400
X006.82600Y003.45400
X006.92600Y003.45400
X007.37600Y003.45400
X007.47600Y003.45400
X007.57600Y003.45400
X007.67600Y003.45400
X007.77600Y003.45400
X007.87600Y003.45400
X007.97600Y003.45400
X008.07600Y003.45400
X008.17600Y003.45400
X008.27600Y003.45400
X008.37600Y003.45400
X008.47600Y003.45400
X000.96600Y003.46700
X001.16600Y003.46700
X001.06600Y003.51200
X001.40100Y003.55400
X001.50100Y003.55400
X001.60100Y003.55400
X008.75100Y003.55400
X009.05100Y003.55400
X000.96600Y003.55700
X001.16600Y003.55700
X007.37600Y003.57900
X007.77600Y003.57900
X001.06600Y003.60200
X000.96600Y003.64700
X001.16600Y003.64700
X001.40100Y003.65400
X001.50100Y003.65400
X001.60100Y003.65400
X014.65100Y003.67900
X001.06600Y003.69200
X000.70100Y003.70400
X010.47600Y003.70400
X010.57600Y003.70400
X000.96600Y003.73700
X001.16600Y003.73700
X010.97600Y003.85400
X014.67600Y003.90400
X000.77600Y003.95400
X004.75100Y003.95400
X004.85100Y003.95400
X004.95100Y003.95400
X005.05100Y003.95400
X005.15100Y003.95400
X005.25100Y003.95400
X005.35100Y003.95400
X005.45100Y003.95400
X005.55100Y003.95400
X011.64100Y003.95400
X010.97600Y004.05400
X001.40100Y004.15400
X001.50100Y004.15400
X001.60100Y004.15400
X001.70100Y004.15400
X001.80100Y004.15400
X001.90100Y004.15400
X002.00100Y004.15400
X002.10100Y004.15400
X002.20100Y004.15400
X002.35100Y004.15400
X002.45100Y004.15400
X002.55100Y004.15400
X002.65100Y004.15400
X002.75100Y004.15400
X002.85100Y004.15400
X002.95100Y004.15400
X003.05100Y004.15400
X003.15100Y004.15400
X003.30100Y004.15400
X003.40100Y004.15400
X003.50100Y004.15400
X003.60100Y004.15400
X003.70100Y004.15400
X003.80100Y004.15400
X003.90100Y004.15400
X004.00100Y004.15400
X004.10100Y004.15400
X014.65100Y004.17900
X000.70100Y004.20400
X001.40100Y004.30400
X001.50100Y004.30400
X001.60100Y004.30400
X001.80100Y004.30400
X001.90100Y004.30400
X002.00100Y004.30400
X010.45100Y004.35400
X010.85100Y004.35400
X011.55100Y004.35400
X011.65100Y004.35400
X001.40100Y004.40400
X001.50100Y004.40400
X001.60100Y004.40400
X014.67600Y004.40400
X000.77600Y004.45400
X006.45100Y004.45400
X002.12600Y004.49400
X002.22600Y004.49400
X002.32600Y004.49400
X002.42600Y004.49400
X002.52600Y004.49400
X002.62600Y004.49400
X002.72600Y004.49400
X002.82600Y004.49400
X002.92600Y004.49400
X003.02600Y004.49400
X003.12600Y004.49400
X003.22600Y004.49400
X003.32600Y004.49400
X003.42600Y004.49400
X003.52600Y004.49400
X009.62300Y004.49400
X009.72300Y004.49400
X009.82300Y004.49400
X009.92300Y004.49400
X010.02300Y004.49400
X010.12300Y004.49400
X010.22300Y004.49400
X010.32300Y004.49400
X010.42300Y004.49400
X010.52300Y004.49400
X010.62300Y004.49400
X010.72300Y004.49400
X010.82300Y004.49400
X010.92300Y004.49400
X011.02300Y004.49400
X001.40100Y004.50400
X001.50100Y004.50400
X001.60100Y004.50400
X001.87600Y004.52900
X001.06600Y004.59100
X002.12600Y004.59400
X002.22600Y004.59400
X002.32600Y004.59400
X002.42600Y004.59400
X002.52600Y004.59400
X002.62600Y004.59400
X002.72600Y004.59400
X002.82600Y004.59400
X002.92600Y004.59400
X003.02600Y004.59400
X003.12600Y004.59400
X003.22600Y004.59400
X003.32600Y004.59400
X003.42600Y004.59400
X003.52600Y004.59400
X009.62300Y004.59400
X009.72300Y004.59400
X009.82300Y004.59400
X009.92300Y004.59400
X010.02300Y004.59400
X010.12300Y004.59400
X010.22300Y004.59400
X010.32300Y004.59400
X010.42300Y004.59400
X010.52300Y004.59400
X010.62300Y004.59400
X010.72300Y004.59400
X010.82300Y004.59400
X010.92300Y004.59400
X011.02300Y004.59400
X001.40100Y004.60400
X001.50100Y004.60400
X001.60100Y004.60400
X000.77600Y004.62900
X001.87600Y004.62900
X000.96600Y004.63600
X001.16600Y004.63600
X014.65100Y004.67900
X001.06600Y004.68100
X000.70100Y004.70400
X001.40100Y004.70400
X001.50100Y004.70400
X001.60100Y004.70400
X000.96600Y004.72600
X001.16600Y004.72600
X001.87600Y004.72900
X001.06600Y004.77100
X001.40100Y004.80400
X001.50100Y004.80400
X001.60100Y004.80400
X000.96600Y004.81600
X001.16600Y004.81600
X006.45100Y004.85400
X001.06600Y004.86100
X001.40100Y004.90400
X001.50100Y004.90400
X001.60100Y004.90400
X014.67600Y004.90400
X014.80100Y004.90400
X015.30100Y004.90400
X015.80100Y004.90400
X016.30100Y004.90400
X016.80100Y004.90400
X017.30100Y004.90400
X000.96600Y004.90600
X001.16600Y004.90600
X001.06600Y004.95100
X000.77600Y004.95400
X014.95100Y004.95400
X015.45100Y004.95400
X015.95100Y004.95400
X016.45100Y004.95400
X016.95100Y004.95400
X017.45100Y004.95400
X000.96600Y004.99600
X001.16600Y004.99600
X001.40100Y005.00400
X001.50100Y005.00400
X001.60100Y005.00400
X001.40100Y005.10400
X001.50100Y005.10400
X001.60100Y005.10400
X000.77600Y005.12900
X014.50100Y005.20400
X014.60100Y005.20400
X014.70100Y005.20400
X014.80100Y005.20400
X014.90100Y005.20400
X015.00100Y005.20400
X015.10100Y005.20400
X015.20100Y005.20400
X015.30100Y005.20400
X015.40100Y005.20400
X015.50100Y005.20400
X015.60100Y005.20400
X017.80100Y005.35400
X017.33400Y005.57900
X008.40100Y005.60400
X008.80100Y005.60400
X000.77600Y005.62900
X017.10100Y005.67900
X008.40100Y005.75400
X009.00100Y005.75400
X017.80600Y005.76900
X017.10100Y005.77900
X017.33400Y005.77900
X014.50100Y005.80400
X014.60100Y005.80400
X014.70100Y005.80400
X014.80100Y005.80400
X014.90100Y005.80400
X015.00100Y005.80400
X015.10100Y005.80400
X015.20100Y005.80400
X015.30100Y005.80400
X015.40100Y005.80400
X015.50100Y005.80400
X015.60100Y005.80400
X017.80100Y005.85400
X017.10100Y005.87900
X017.33400Y005.87900
X003.90100Y005.95400
X004.00100Y005.95400
X004.10100Y005.95400
X004.20100Y005.95400
X004.30100Y005.95400
X004.40100Y005.95400
X004.50100Y005.95400
X004.60100Y005.95400
X004.70100Y005.95400
X004.85100Y005.95400
X004.95100Y005.95400
X005.05100Y005.95400
X005.15100Y005.95400
X005.25100Y005.95400
X005.35100Y005.95400
X005.45100Y005.95400
X005.55100Y005.95400
X005.65100Y005.95400
X005.85100Y005.95400
X005.95100Y005.95400
X006.05100Y005.95400
X006.15100Y005.95400
X006.25100Y005.95400
X006.35100Y005.95400
X006.45100Y005.95400
X006.55100Y005.95400
X006.65100Y005.95400
X000.77600Y005.97900
X017.10100Y005.97900
X017.33400Y005.97900
X017.10100Y006.07900
X017.33400Y006.07900
X001.55100Y006.10400
X001.65100Y006.10400
X001.75100Y006.10400
X001.85100Y006.10400
X001.95100Y006.10400
X002.05100Y006.10400
X002.15100Y006.10400
X002.25100Y006.10400
X002.35100Y006.10400
X002.55100Y006.10400
X002.65100Y006.10400
X002.75100Y006.10400
X002.85100Y006.10400
X002.95100Y006.10400
X003.05100Y006.10400
X003.15100Y006.10400
X003.25100Y006.10400
X003.35100Y006.10400
X014.50100Y006.10400
X014.60100Y006.10400
X014.70100Y006.10400
X014.80100Y006.10400
X014.90100Y006.10400
X015.00100Y006.10400
X015.10100Y006.10400
X015.20100Y006.10400
X015.30100Y006.10400
X015.40100Y006.10400
X015.50100Y006.10400
X015.60100Y006.10400
X000.77600Y006.12900
X017.10100Y006.17900
X017.33400Y006.17900
X011.62300Y006.19400
X011.72300Y006.19400
X011.82300Y006.19400
X011.92300Y006.19400
X012.02300Y006.19400
X012.12300Y006.19400
X012.22300Y006.19400
X012.32300Y006.19400
X012.42300Y006.19400
X012.52300Y006.19400
X012.62300Y006.19400
X012.72300Y006.19400
X012.82300Y006.19400
X012.92300Y006.19400
X013.02300Y006.19400
X013.12300Y006.19400
X013.22300Y006.19400
X013.32300Y006.19400
X013.42300Y006.19400
X013.52300Y006.19400
X013.62300Y006.19400
X013.72300Y006.19400
X013.82300Y006.19400
X013.92300Y006.19400
X014.02300Y006.19400
X003.87900Y006.25600
X003.97900Y006.25600
X004.07900Y006.25600
X004.17900Y006.25600
X004.27900Y006.25600
X004.37900Y006.25600
X004.47900Y006.25600
X004.57900Y006.25600
X004.67900Y006.25600
X004.77900Y006.25600
X004.87900Y006.25600
X004.97900Y006.25600
X005.07900Y006.25600
X005.17900Y006.25600
X005.27900Y006.25600
X005.37900Y006.25600
X005.47900Y006.25600
X005.57900Y006.25600
X005.67900Y006.25600
X005.77900Y006.25600
X005.87900Y006.25600
X005.97900Y006.25600
X006.07900Y006.25600
X006.17900Y006.25600
X006.27900Y006.25600
X017.80600Y006.26900
X017.10100Y006.27900
X017.33400Y006.27900
X011.62300Y006.29400
X011.72300Y006.29400
X011.82300Y006.29400
X011.92300Y006.29400
X012.02300Y006.29400
X012.12300Y006.29400
X012.22300Y006.29400
X012.32300Y006.29400
X012.42300Y006.29400
X012.52300Y006.29400
X012.62300Y006.29400
X012.72300Y006.29400
X012.82300Y006.29400
X012.92300Y006.29400
X013.02300Y006.29400
X013.12300Y006.29400
X013.22300Y006.29400
X013.32300Y006.29400
X013.42300Y006.29400
X013.52300Y006.29400
X013.62300Y006.29400
X013.72300Y006.29400
X013.82300Y006.29400
X013.92300Y006.29400
X014.02300Y006.29400
X017.80100Y006.35400
X003.87900Y006.35600
X003.97900Y006.35600
X004.07900Y006.35600
X004.17900Y006.35600
X004.27900Y006.35600
X004.37900Y006.35600
X004.47900Y006.35600
X004.57900Y006.35600
X004.67900Y006.35600
X004.77900Y006.35600
X004.87900Y006.35600
X004.97900Y006.35600
X005.07900Y006.35600
X005.17900Y006.35600
X005.27900Y006.35600
X005.37900Y006.35600
X005.47900Y006.35600
X005.57900Y006.35600
X005.67900Y006.35600
X005.77900Y006.35600
X005.87900Y006.35600
X005.97900Y006.35600
X006.07900Y006.35600
X006.17900Y006.35600
X006.27900Y006.35600
X017.10100Y006.37900
X017.33400Y006.37900
X014.50100Y006.40400
X014.60100Y006.40400
X014.70100Y006.40400
X014.80100Y006.40400
X014.90100Y006.40400
X015.00100Y006.40400
X015.10100Y006.40400
X015.20100Y006.40400
X015.30100Y006.40400
X015.40100Y006.40400
X015.50100Y006.40400
X015.60100Y006.40400
X007.40100Y006.45400
X000.77600Y006.47900
X017.10100Y006.47900
X017.33400Y006.47900
X000.77600Y006.62900
X011.48100Y006.64900
X011.58100Y006.64900
X011.68100Y006.64900
X011.78100Y006.64900
X008.70100Y006.65400
X009.00100Y006.65400
X009.30100Y006.65400
X005.90100Y006.67900
X006.00100Y006.67900
X006.10100Y006.67900
X006.20100Y006.67900
X006.30100Y006.67900
X006.40100Y006.67900
X006.50100Y006.67900
X006.60100Y006.67900
X006.70100Y006.67900
X017.80600Y006.76900
X007.40100Y006.85400
X017.80100Y006.85400
X005.05100Y006.92900
X005.15100Y006.92900
X005.25100Y006.92900
X005.35100Y006.92900
X005.45100Y006.92900
X005.55100Y006.92900
X005.65100Y006.92900
X005.75100Y006.92900
X005.85100Y006.92900
X008.70100Y006.95400
X009.00100Y006.95400
X009.30100Y006.95400
X000.77600Y006.97900
X003.30100Y007.10400
X000.77600Y007.12900
X002.63600Y007.20400
X017.80600Y007.26900
X003.30100Y007.30400
X012.09100Y007.32200
X012.19100Y007.32200
X017.80100Y007.35400
X012.09100Y007.42200
X012.19100Y007.42200
X015.37600Y007.42900
X015.67600Y007.42900
X012.09100Y007.52200
X012.19100Y007.52200
X001.48700Y007.58600
X001.64400Y007.58600
X001.05100Y007.60900
X012.09100Y007.62200
X012.19100Y007.62200
X001.48700Y007.66500
X001.64400Y007.66500
X006.12600Y007.70400
X006.92600Y007.70400
X012.09100Y007.72200
X012.19100Y007.72200
X015.37600Y007.72900
X015.67600Y007.72900
X001.48700Y007.74400
X001.64400Y007.74400
X017.80600Y007.76900
X012.09100Y007.82200
X012.19100Y007.82200
X001.48700Y007.82300
X001.64400Y007.82300
X001.05100Y007.82900
X017.80100Y007.85400
X001.48700Y007.90200
X001.64400Y007.90200
X012.09100Y007.92200
X012.19100Y007.92200
X001.48700Y007.98100
X001.64400Y007.98100
X011.75100Y008.00400
X012.09100Y008.02200
X012.19100Y008.02200
X015.37600Y008.02900
X015.67600Y008.02900
X001.48700Y008.06000
X001.64400Y008.06000
X011.75100Y008.10400
X001.05100Y008.10900
X012.09100Y008.12200
X012.19100Y008.12200
X001.48700Y008.13900
X001.64400Y008.13900
X017.80100Y008.17900
X001.48700Y008.21800
X001.64400Y008.21800
X012.09100Y008.22200
X012.19100Y008.22200
X017.80600Y008.26900
X001.48700Y008.29700
X001.64400Y008.29700
X012.09100Y008.32200
X012.19100Y008.32200
X001.05100Y008.32900
X001.48700Y008.37600
X001.64400Y008.37600
X017.80100Y008.37900
X010.17600Y008.40400
X012.09100Y008.42200
X012.19100Y008.42200
X015.45100Y008.45400
X016.25100Y008.45400
X001.48700Y008.45500
X001.64400Y008.45500
X016.70100Y008.47900
X017.40100Y008.47900
X008.15100Y008.50400
X008.23000Y008.50400
X012.09100Y008.52200
X012.19100Y008.52200
X001.48700Y008.53400
X001.64400Y008.53400
X008.15100Y008.58300
X008.23000Y008.58300
X002.00100Y008.60400
X002.10100Y008.60400
X002.20100Y008.60400
X002.30100Y008.60400
X002.40100Y008.60400
X002.50100Y008.60400
X002.60100Y008.60400
X002.70100Y008.60400
X002.80100Y008.60400
X002.90100Y008.60400
X003.00100Y008.60400
X003.10100Y008.60400
X001.05100Y008.60900
X001.48700Y008.61300
X001.64400Y008.61300
X012.09100Y008.62200
X012.19100Y008.62200
X004.70100Y008.65400
X005.40100Y008.65400
X008.15100Y008.66200
X008.23000Y008.66200
X017.80100Y008.67900
X001.48700Y008.69200
X001.64400Y008.69200
X016.22600Y008.70400
X012.09100Y008.72200
X012.19100Y008.72200
X008.15100Y008.74100
X008.23000Y008.74100
X005.55100Y008.75400
X011.75100Y008.75400
X001.48700Y008.77100
X001.64400Y008.77100
X008.15100Y008.82000
X008.23000Y008.82000
X012.09100Y008.82200
X012.19100Y008.82200
X001.05100Y008.82900
X001.48700Y008.85000
X001.64400Y008.85000
X004.70100Y008.85400
X004.80100Y008.85400
X004.90100Y008.85400
X005.00100Y008.85400
X005.10100Y008.85400
X005.20100Y008.85400
X005.30100Y008.85400
X011.75100Y008.85400
X017.80100Y008.87900
X008.15100Y008.89900
X008.23000Y008.89900
X010.55100Y008.90400
X010.64000Y008.90400
X010.72800Y008.90400
X012.09100Y008.92200
X012.19100Y008.92200
X001.48700Y008.92900
X001.64400Y008.92900
X009.75100Y008.95400
X009.82000Y008.95400
X009.88900Y008.95400
X009.97200Y008.95400
X010.04100Y008.95400
X010.11000Y008.95400
X008.15100Y008.97800
X008.23000Y008.97800
X009.22600Y008.97900
X009.32600Y008.97900
X009.42600Y008.97900
X009.00100Y009.00400
X001.48700Y009.00800
X001.64400Y009.00800
X009.75100Y009.05200
X009.88900Y009.05200
X009.97200Y009.05200
X010.11000Y009.05200
X008.15100Y009.05700
X008.23000Y009.05700
X010.55100Y009.08100
X010.72800Y009.08100
X001.48700Y009.08700
X001.64400Y009.08700
X008.85100Y009.10400
X009.20100Y009.10400
X015.00100Y009.12900
X015.55100Y009.12900
X008.15100Y009.13600
X008.23000Y009.13600
X004.70100Y009.15400
X004.80100Y009.15400
X004.90100Y009.15400
X005.00100Y009.15400
X005.10100Y009.15400
X005.20100Y009.15400
X005.30100Y009.15400
X005.55100Y009.15400
X012.35100Y009.15400
X012.45100Y009.15400
X012.55100Y009.15400
X012.65100Y009.15400
X012.75100Y009.15400
X012.85100Y009.15400
X012.95100Y009.15400
X013.05100Y009.15400
X013.15100Y009.15400
X013.25100Y009.15400
X013.35100Y009.15400
X013.45100Y009.15400
X013.55100Y009.15400
X013.65100Y009.15400
X017.80100Y009.17900
X002.00100Y009.20400
X002.10100Y009.20400
X002.20100Y009.20400
X002.30100Y009.20400
X002.40100Y009.20400
X002.50100Y009.20400
X002.60100Y009.20400
X002.70100Y009.20400
X002.80100Y009.20400
X002.90100Y009.20400
X003.00100Y009.20400
X003.10100Y009.20400
X009.40100Y009.20400
X009.50100Y009.20400
X009.60100Y009.20400
X009.70100Y009.20400
X009.80100Y009.20400
X009.90100Y009.20400
X010.00100Y009.20400
X010.10100Y009.20400
X010.20100Y009.20400
X010.30100Y009.20400
X010.65100Y009.20400
X008.15100Y009.21500
X008.23000Y009.21500
X010.90100Y009.25400
X011.00100Y009.25400
X017.65100Y009.25400
X008.15100Y009.29400
X008.23000Y009.29400
X009.00100Y009.30400
X016.22600Y009.30400
X008.15100Y009.37300
X008.23000Y009.37300
X014.12600Y009.37900
X017.80100Y009.37900
X008.15100Y009.45200
X008.23000Y009.45200
X001.60100Y009.45400
X002.10100Y009.45400
X011.35100Y009.45400
X011.45100Y009.45400
X011.55100Y009.45400
X011.65100Y009.45400
X011.75100Y009.45400
X011.85100Y009.45400
X011.95100Y009.45400
X012.05100Y009.45400
X004.65100Y009.50400
X004.75100Y009.50400
X004.85100Y009.50400
X004.95100Y009.50400
X005.05100Y009.50400
X005.15100Y009.50400
X005.25100Y009.50400
X005.35100Y009.50400
X008.85100Y009.50400
X009.20100Y009.50400
X009.40100Y009.50400
X009.50100Y009.50400
X009.60100Y009.50400
X009.70100Y009.50400
X009.80100Y009.50400
X009.90100Y009.50400
X010.00100Y009.50400
X010.10100Y009.50400
X010.20100Y009.50400
X010.30100Y009.50400
X008.15100Y009.53100
X008.23000Y009.53100
X010.65100Y009.60400
X010.90100Y009.60400
X011.00100Y009.60400
X008.15100Y009.61000
X008.23000Y009.61000
X001.60100Y009.65400
X009.00100Y009.65400
X009.60100Y009.65400
X009.75100Y009.65400
X016.60100Y009.65400
X017.20100Y009.65400
X017.65100Y009.65400
X017.80100Y009.67900
X008.15100Y009.68900
X008.23000Y009.68900
X001.80100Y009.70400
X002.60100Y009.70400
X001.45100Y009.72900
X014.30100Y009.72900
X014.40100Y009.72900
X014.50100Y009.72900
X003.05100Y009.75400
X003.35100Y009.75400
X009.75100Y009.75400
X011.35100Y009.75400
X011.45100Y009.75400
X011.55100Y009.75400
X011.65100Y009.75400
X011.75100Y009.75400
X011.85100Y009.75400
X011.95100Y009.75400
X012.05100Y009.75400
X012.35100Y009.75400
X012.45100Y009.75400
X012.55100Y009.75400
X012.65100Y009.75400
X012.75100Y009.75400
X012.85100Y009.75400
X012.95100Y009.75400
X013.05100Y009.75400
X013.15100Y009.75400
X013.25100Y009.75400
X013.35100Y009.75400
X013.45100Y009.75400
X013.55100Y009.75400
X013.65100Y009.75400
X008.15100Y009.76800
X008.23000Y009.76800
X004.65100Y009.80400
X004.75100Y009.80400
X004.85100Y009.80400
X004.95100Y009.80400
X005.05100Y009.80400
X005.15100Y009.80400
X005.25100Y009.80400
X005.35100Y009.80400
X001.45100Y009.82900
X015.00100Y009.82900
X015.55100Y009.82900
X008.15100Y009.84700
X008.23000Y009.84700
X009.75100Y009.85400
X015.25100Y009.85400
X015.90100Y009.85400
X016.17600Y009.85400
X016.55100Y009.85400
X016.65100Y009.85400
X016.75100Y009.85400
X016.85100Y009.85400
X016.95100Y009.85400
X017.05100Y009.85400
X017.15100Y009.85400
X017.25100Y009.85400
X017.35100Y009.85400
X017.80100Y009.87900
X001.85100Y009.90400
X001.95100Y009.90400
X002.05100Y009.90400
X009.95100Y009.90400
X010.75100Y009.90400
X012.35100Y009.90400
X012.45100Y009.90400
X012.55100Y009.90400
X012.65100Y009.90400
X012.75100Y009.90400
X012.85100Y009.90400
X012.95100Y009.90400
X013.05100Y009.90400
X013.15100Y009.90400
X013.57600Y009.90400
X013.77600Y009.90400
X008.15100Y009.92600
X008.23000Y009.92600
X001.45100Y009.92900
X008.92600Y009.97900
X009.72600Y009.97900
X010.90100Y010.00400
X011.00100Y010.00400
X013.57600Y010.00400
X013.77600Y010.00400
X008.15100Y010.00500
X008.23000Y010.00500
X001.45100Y010.05400
X001.60100Y010.05400
X003.05100Y010.05400
X003.35100Y010.05400
X014.12600Y010.07900
X008.15100Y010.08400
X008.23000Y010.08400
X013.57600Y010.10400
X013.77600Y010.10400
X001.45100Y010.15400
X008.15100Y010.16300
X008.23000Y010.16300
X017.80100Y010.17900
X001.85100Y010.20400
X001.95100Y010.20400
X002.05100Y010.20400
X013.55100Y010.22900
X014.15100Y010.22900
X001.45100Y010.25400
X011.60100Y010.25400
X011.70100Y010.25400
X011.80100Y010.25400
X014.70100Y010.32900
X014.80100Y010.32900
X014.90100Y010.32900
X015.00100Y010.32900
X003.05100Y010.35400
X003.35100Y010.35400
X013.57600Y010.37900
X017.80100Y010.37900
X009.45100Y010.42900
X009.85100Y010.42900
X009.20100Y010.45400
X013.57600Y010.47900
X009.45100Y010.52900
X009.85100Y010.52900
X013.92600Y010.52900
X009.20100Y010.55400
X013.57600Y010.57900
X002.70100Y010.60400
X003.30100Y010.60400
X003.60100Y010.60400
X004.30100Y010.60400
X014.70100Y010.62900
X014.80100Y010.62900
X014.90100Y010.62900
X015.00100Y010.62900
X009.20100Y010.65400
X015.25100Y010.65400
X015.90100Y010.65400
X016.17600Y010.65400
X017.80100Y010.67900
X003.40100Y010.70400
X013.35100Y010.75400
X013.75100Y010.75400
X002.00100Y010.80400
X002.15100Y010.80400
X003.75100Y010.80400
X004.15100Y010.80400
X017.80100Y010.87900
X001.45100Y010.90400
X002.00100Y010.90400
X002.15100Y010.90400
X003.65100Y010.90400
X003.75100Y010.90400
X003.85100Y010.90400
X003.95100Y010.90400
X004.05100Y010.90400
X004.15100Y010.90400
X004.25100Y010.90400
X005.55100Y010.90400
X005.70100Y010.90400
X005.85100Y010.90400
X006.00100Y010.90400
X006.15100Y010.90400
X006.30100Y010.90400
X006.45100Y010.90400
X006.60100Y010.90400
X006.75100Y010.90400
X006.90100Y010.90400
X007.05100Y010.90400
X007.20100Y010.90400
X007.35100Y010.90400
X007.50100Y010.90400
X007.65100Y010.90400
X007.80100Y010.90400
X007.95100Y010.90400
X008.10100Y010.90400
X008.25100Y010.90400
X008.40100Y010.90400
X012.40100Y010.90400
X013.30100Y010.90400
X013.80100Y010.90400
X013.92600Y010.92900
X001.85100Y010.95400
X010.70100Y010.95400
X010.80100Y010.95400
X001.45100Y011.00400
X002.00100Y011.00400
X002.15100Y011.00400
X005.55100Y011.00400
X005.70100Y011.00400
X005.85100Y011.00400
X006.00100Y011.00400
X006.15100Y011.00400
X006.30100Y011.00400
X006.45100Y011.00400
X006.60100Y011.00400
X006.75100Y011.00400
X006.90100Y011.00400
X007.05100Y011.00400
X007.20100Y011.00400
X007.35100Y011.00400
X007.50100Y011.00400
X007.65100Y011.00400
X007.80100Y011.00400
X007.95100Y011.00400
X008.10100Y011.00400
X008.25100Y011.00400
X008.40100Y011.00400
X012.40100Y011.00400
X010.70100Y011.05400
X010.80100Y011.05400
X013.15100Y011.05400
X013.25100Y011.05400
X013.35100Y011.05400
X013.45100Y011.05400
X013.55100Y011.05400
X013.65100Y011.05400
X013.75100Y011.05400
X013.85100Y011.05400
X001.45100Y011.10400
X005.55100Y011.10400
X005.70100Y011.10400
X005.85100Y011.10400
X006.00100Y011.10400
X006.15100Y011.10400
X006.30100Y011.10400
X006.45100Y011.10400
X006.60100Y011.10400
X006.75100Y011.10400
X006.90100Y011.10400
X007.05100Y011.10400
X007.20100Y011.10400
X007.35100Y011.10400
X007.50100Y011.10400
X007.65100Y011.10400
X007.80100Y011.10400
X007.95100Y011.10400
X008.10100Y011.10400
X008.25100Y011.10400
X008.40100Y011.10400
X012.40100Y011.10400
X001.66400Y011.12300
X010.70100Y011.15400
X010.80100Y011.15400
X003.65100Y011.20400
X003.75100Y011.20400
X003.85100Y011.20400
X003.95100Y011.20400
X004.05100Y011.20400
X004.15100Y011.20400
X004.25100Y011.20400
X012.55100Y011.20400
X012.65100Y011.20400
X012.75100Y011.20400
X012.85100Y011.20400
X012.95100Y011.20400
X013.05100Y011.20400
X013.15100Y011.20400
X013.25100Y011.20400
X013.75100Y011.20400
X013.85100Y011.20400
X013.95100Y011.20400
X014.05100Y011.20400
X014.15100Y011.20400
X014.25100Y011.20400
X014.35100Y011.20400
X014.45100Y011.20400
X001.66400Y011.22100
X016.78600Y011.22900
X016.87600Y011.22900
X016.96600Y011.22900
X017.05600Y011.22900
X017.14600Y011.22900
X017.23600Y011.22900
X017.32600Y011.22900
X017.41600Y011.22900
X017.50600Y011.22900
X001.45100Y011.25400
X004.83600Y011.29200
X004.91900Y011.29200
X005.00500Y011.29200
X005.10400Y011.29200
X002.80100Y011.30400
X003.20100Y011.30400
X001.66400Y011.31900
X016.74100Y011.32900
X016.83100Y011.32900
X016.92100Y011.32900
X017.01100Y011.32900
X017.10100Y011.32900
X017.19100Y011.32900
X017.28100Y011.32900
X017.37100Y011.32900
X017.46100Y011.32900
X005.82100Y011.33500
X005.93000Y011.33500
X006.03900Y011.33500
X006.14800Y011.33500
X006.25700Y011.33500
X007.23400Y011.33500
X007.34200Y011.33500
X007.45100Y011.33500
X007.56000Y011.33500
X007.66800Y011.33500
X007.77700Y011.33500
X007.88600Y011.33500
X007.99400Y011.33500
X008.10300Y011.33500
X008.21100Y011.33500
X008.32000Y011.33500
X008.42900Y011.33500
X008.53700Y011.33500
X001.45100Y011.35400
X001.85100Y011.35400
X001.95100Y011.35400
X002.65100Y011.35400
X010.90000Y011.35500
X011.00800Y011.35500
X011.11700Y011.35500
X011.22600Y011.35500
X011.33400Y011.35500
X011.44300Y011.35500
X011.55200Y011.35500
X011.66000Y011.35500
X011.76900Y011.35500
X011.87700Y011.35500
X012.95500Y011.35500
X013.05500Y011.35500
X013.15500Y011.35500
X013.25500Y011.35500
X013.35500Y011.35500
X013.45500Y011.35500
X013.55500Y011.35500
X013.65500Y011.35500
X013.75500Y011.35500
X013.85500Y011.35500
X013.95500Y011.35500
X014.05500Y011.35500
X014.15500Y011.35500
X004.83600Y011.39200
X004.91900Y011.39200
X005.02100Y011.39200
X005.10400Y011.39200
X002.80100Y011.40400
X003.20100Y011.40400
X003.40100Y011.40400
X003.55100Y011.40400
X004.25100Y011.40400
X016.78600Y011.42900
X016.87600Y011.42900
X016.96600Y011.42900
X017.05600Y011.42900
X017.14600Y011.42900
X017.23600Y011.42900
X017.32600Y011.42900
X017.41600Y011.42900
X013.00500Y011.43000
X013.10500Y011.43000
X013.20500Y011.43000
X013.30500Y011.43000
X013.40500Y011.43000
X013.50500Y011.43000
X013.60500Y011.43000
X013.70500Y011.43000
X013.80500Y011.43000
X013.90500Y011.43000
X014.00500Y011.43000
X014.10500Y011.43000
X005.87600Y011.44700
X005.98500Y011.44700
X006.09400Y011.44700
X006.20300Y011.44700
X007.28800Y011.44800
X007.39700Y011.44800
X007.50500Y011.44800
X007.61400Y011.44800
X007.72300Y011.44800
X007.83100Y011.44800
X007.94000Y011.44800
X008.04800Y011.44800
X008.15700Y011.44800
X008.26600Y011.44800
X008.37400Y011.44800
X008.48300Y011.44800
X001.45100Y011.45400
X010.95400Y011.46800
X011.06300Y011.46800
X011.17100Y011.46800
X011.28000Y011.46800
X011.38900Y011.46800
X011.49700Y011.46800
X011.60600Y011.46800
X011.71400Y011.46800
X011.82300Y011.46800
X012.95500Y011.50500
X013.05500Y011.50500
X013.15500Y011.50500
X013.25500Y011.50500
X013.35500Y011.50500
X013.45500Y011.50500
X013.55500Y011.50500
X013.65500Y011.50500
X013.75500Y011.50500
X013.85500Y011.50500
X013.95500Y011.50500
X014.05500Y011.50500
X014.15500Y011.50500
X002.02600Y011.57900
X002.52600Y011.57900
X003.02600Y011.57900
X003.52600Y011.57900
X004.02600Y011.57900
X004.52600Y011.57900
X007.85100Y011.57900
X008.35100Y011.57900
X008.85100Y011.57900
X013.00500Y011.58000
X013.10500Y011.58000
X013.20500Y011.58000
X013.30500Y011.58000
X013.40500Y011.58000
X013.50500Y011.58000
X013.60500Y011.58000
X013.70500Y011.58000
X013.80500Y011.58000
X013.90500Y011.58000
X014.00500Y011.58000
X014.10500Y011.58000
T04
X002.37600Y002.42900
X002.87600Y002.42900
X002.15100Y003.10400
X010.77600Y003.15400
X009.57600Y003.35400
X010.17600Y003.35400
X009.35100Y003.45400
X002.15100Y003.60400
X009.72600Y003.70400
X010.32600Y003.70400
X010.77600Y003.75400
X001.40100Y003.80400
X001.90100Y003.80400
X008.50100Y003.80400
X009.00100Y003.80400
X001.40100Y003.95400
X001.90100Y003.95400
X009.35100Y003.95400
X004.70100Y004.20400
X005.20100Y004.20400
X001.40100Y005.25400
X001.90100Y005.25400
X001.40100Y005.55400
X001.90100Y005.55400
X008.05100Y005.95400
X008.55100Y005.95400
X008.15100Y006.15400
X007.37600Y006.22900
X007.87600Y006.22900
X009.70100Y006.90400
X010.20100Y006.90400
X013.30100Y007.30400
X003.67600Y007.50400
X004.17600Y007.50400
X001.80100Y007.70400
X002.30100Y007.70400
X016.95100Y007.75400
X013.30100Y007.80400
X001.80100Y007.85400
X002.30100Y007.85400
X008.15100Y007.95400
X001.80100Y008.00400
X002.30100Y008.00400
X001.80100Y008.15400
X002.30100Y008.15400
X016.95100Y008.25400
X005.75100Y008.42900
X006.25100Y008.42900
X012.65100Y008.42900
X013.15100Y008.42900
X012.65100Y008.60400
X013.15100Y008.60400
X010.27600Y008.65400
X010.77600Y008.65400
X012.80100Y008.85400
X013.30100Y008.85400
X015.07600Y008.92900
X016.02600Y008.92900
X010.49400Y008.99300
X010.78500Y008.99300
X007.30100Y009.26400
X004.80100Y009.30400
X005.40100Y009.30400
X005.57600Y009.30400
X005.97600Y009.30400
X016.40100Y009.40400
X002.30100Y009.45400
X002.80100Y009.45400
X006.25100Y009.60400
X007.30100Y009.76400
X016.40100Y009.90400
X015.57600Y009.92900
X008.77600Y009.97900
X016.40100Y010.00400
X016.55100Y010.00400
X016.70100Y010.00400
X016.85100Y010.00400
X017.00100Y010.00400
X017.15100Y010.00400
X017.30100Y010.00400
X017.45100Y010.00400
X017.60100Y010.00400
X006.25100Y010.10400
X009.71500Y010.26800
X009.81500Y010.26800
X009.91500Y010.26800
X003.65100Y010.40400
X004.25100Y010.40400
X002.35100Y010.50400
X016.40100Y010.50400
X016.55100Y010.50400
X016.70100Y010.50400
X016.85100Y010.50400
X017.00100Y010.50400
X017.15100Y010.50400
X017.30100Y010.50400
X017.45100Y010.50400
X017.60100Y010.50400
X016.40100Y010.60400
X016.55100Y010.60400
X016.70100Y010.60400
X017.45100Y010.60400
X017.60100Y010.60400
X010.50100Y010.65400
X011.65100Y010.65400
X011.90100Y010.65400
X012.15100Y010.65400
X014.80100Y010.75400
X015.00100Y010.75400
X015.20100Y010.75400
X015.95100Y010.75400
X016.10100Y010.75400
X016.25100Y010.75400
X015.57600Y010.87900
X001.71100Y010.99700
X002.35100Y011.00400
X008.77600Y011.07900
X016.40100Y011.10400
X016.55100Y011.10400
X016.70100Y011.10400
X017.45100Y011.10400
X017.60100Y011.10400
X010.50100Y011.15400
X011.65100Y011.15400
X011.90100Y011.15400
X012.15100Y011.15400
X014.80100Y011.25400
X015.00100Y011.25400
X015.20100Y011.25400
X015.95100Y011.25400
X016.10100Y011.25400
X016.25100Y011.25400
X015.01000Y011.39100
X016.03400Y011.39100
X001.57700Y011.44100
X014.81000Y011.58700
X015.21000Y011.58700
X015.83400Y011.58700
X016.23400Y011.58700
X014.81000Y011.68500
X015.21000Y011.68500
X015.83400Y011.68500
X016.23400Y011.68500
T05
X010.82600Y003.90400
X010.82600Y004.10400
X006.97900Y010.52400
X007.49000Y010.72100
X010.79700Y010.72100
X001.66400Y010.79900
T06
X007.38800Y007.87000
X007.38800Y008.02600
X007.38800Y008.18200
X007.38800Y008.33800
X007.38800Y008.49400
X007.38800Y008.65000
X007.38800Y008.80600
X000.70900Y009.87400
X000.70900Y010.26800
X000.70900Y010.81900
X000.70900Y011.21300
X014.81000Y011.39100
X014.91000Y011.39100
X015.11000Y011.39100
X015.21000Y011.39100
X015.83400Y011.39100
X015.93400Y011.39100
X016.13400Y011.39100
X016.23400Y011.39100
X015.01000Y011.58700
X016.03400Y011.58700
T07
X007.38800Y008.96200
X001.10300Y009.77600
X001.20100Y009.87400
X001.10300Y010.07100
X001.20100Y010.26800
X001.10300Y010.36600
X001.10300Y010.72100
X001.20100Y010.81900
X001.10300Y011.01600
X001.20100Y011.21300
X001.10300Y011.31100
T08
X004.70400Y011.51100
X005.23600Y011.51100
X004.97000Y011.54200
T09
X001.00100Y007.06000
X001.00100Y009.61700
X016.47100Y011.32900
X017.78100Y011.32900
X012.63500Y011.50500
X014.47500Y011.50500
T10
X011.90000Y002.74900
X014.22200Y002.74900
X013.05100Y003.45400
X011.90000Y004.16500
X014.22200Y004.16500
X009.11500Y010.83900
X010.31500Y010.83900
X005.54600Y011.39100
X006.53100Y011.39100
X006.96100Y011.39100
X008.81100Y011.39100
X012.15200Y011.40500
X010.62700Y011.41100
X009.59700Y011.67400
T11
X007.70700Y002.04000
X001.06600Y003.05500
X001.06600Y004.03900
X001.06600Y004.31400
X017.68800Y005.03200
X001.06600Y005.29800
X001.78100Y007.15800
X006.86100Y007.15800
X007.37200Y007.35500
X010.79700Y007.35500
T12
X014.57700Y002.04000
T13
X006.97900Y010.26900
X007.49000Y010.46600
X010.79700Y010.46600
X001.66400Y010.54400
X011.23100Y010.97700
X015.52100Y011.33200
T14
X001.10100Y002.30400
X017.40100Y002.30400
X001.10100Y012.20400
X017.40100Y012.20400
T15
X004.71400Y001.82400
X010.65900Y001.82400
X000.64100Y006.35100
X017.90300Y007.00000
X017.90300Y009.99300
T16
X009.58500Y010.75100
X017.10100Y010.83900
T17
X014.34100Y007.13900
X017.10100Y007.13900
X014.34100Y010.83900
M30